G75*
%MOIN*%
%OFA0B0*%
%FSLAX25Y25*%
%IPPOS*%
%LPD*%
%AMOC8*
5,1,8,0,0,1.08239X$1,22.5*
%
%ADD10C,0.00000*%
%ADD11R,0.07000X0.07000*%
%ADD12C,0.07000*%
%ADD13C,0.23000*%
%ADD14C,0.02578*%
%ADD15C,0.01600*%
%ADD16C,0.00400*%
D10*
X0008874Y0008874D02*
X0008874Y0211630D01*
X0221472Y0211630D01*
X0221472Y0008874D01*
X0008874Y0008874D01*
D11*
X0027654Y0093520D03*
X0201787Y0109268D03*
D12*
X0201787Y0099268D03*
X0170055Y0030528D03*
X0160055Y0030528D03*
X0150055Y0030528D03*
X0140055Y0030528D03*
X0130055Y0030528D03*
X0120055Y0030528D03*
X0110055Y0030528D03*
X0100055Y0030528D03*
X0090055Y0030528D03*
X0080055Y0030528D03*
X0070055Y0030528D03*
X0060055Y0030528D03*
X0027654Y0103520D03*
X0027654Y0113520D03*
X0058087Y0188008D03*
X0068087Y0188008D03*
X0078087Y0188008D03*
X0088087Y0188008D03*
X0098087Y0188008D03*
X0108087Y0188008D03*
X0118087Y0188008D03*
X0128087Y0188008D03*
X0138087Y0188008D03*
X0148087Y0188008D03*
X0158087Y0188008D03*
X0168087Y0188008D03*
D13*
X0205724Y0195882D03*
X0205724Y0024622D03*
X0024622Y0024622D03*
X0024622Y0195882D03*
D14*
X0103362Y0128953D03*
X0203756Y0128953D03*
D15*
X0103362Y0128953D01*
D16*
X0101875Y0130420D02*
X0010074Y0130420D01*
X0010074Y0130818D02*
X0102274Y0130818D01*
X0102497Y0131042D02*
X0101273Y0129818D01*
X0101273Y0128087D01*
X0102497Y0126864D01*
X0104227Y0126864D01*
X0104716Y0127353D01*
X0202402Y0127353D01*
X0202891Y0126864D01*
X0204621Y0126864D01*
X0205845Y0128087D01*
X0205845Y0129818D01*
X0204621Y0131042D01*
X0202891Y0131042D01*
X0202402Y0130553D01*
X0104716Y0130553D01*
X0104227Y0131042D01*
X0102497Y0131042D01*
X0101477Y0130021D02*
X0010074Y0130021D01*
X0010074Y0129623D02*
X0101273Y0129623D01*
X0101273Y0129224D02*
X0010074Y0129224D01*
X0010074Y0128826D02*
X0101273Y0128826D01*
X0101273Y0128427D02*
X0010074Y0128427D01*
X0010074Y0128029D02*
X0101332Y0128029D01*
X0101730Y0127630D02*
X0010074Y0127630D01*
X0010074Y0127232D02*
X0102129Y0127232D01*
X0104596Y0127232D02*
X0202523Y0127232D01*
X0204989Y0127232D02*
X0220272Y0127232D01*
X0220272Y0127630D02*
X0205388Y0127630D01*
X0205786Y0128029D02*
X0220272Y0128029D01*
X0220272Y0128427D02*
X0205845Y0128427D01*
X0205845Y0128826D02*
X0220272Y0128826D01*
X0220272Y0129224D02*
X0205845Y0129224D01*
X0205845Y0129623D02*
X0220272Y0129623D01*
X0220272Y0130021D02*
X0205641Y0130021D01*
X0205243Y0130420D02*
X0220272Y0130420D01*
X0220272Y0130818D02*
X0204844Y0130818D01*
X0202667Y0130818D02*
X0104451Y0130818D01*
X0107717Y0183308D02*
X0106986Y0183424D01*
X0106282Y0183652D01*
X0105623Y0183988D01*
X0105025Y0184423D01*
X0104502Y0184946D01*
X0104067Y0185545D01*
X0103731Y0186204D01*
X0103502Y0186907D01*
X0103387Y0187638D01*
X0103387Y0187808D01*
X0107887Y0187808D01*
X0108287Y0187808D01*
X0108287Y0188208D01*
X0112787Y0188208D01*
X0112787Y0188378D01*
X0112671Y0189108D01*
X0112442Y0189812D01*
X0112106Y0190471D01*
X0111672Y0191070D01*
X0111148Y0191593D01*
X0110550Y0192028D01*
X0109891Y0192364D01*
X0109187Y0192592D01*
X0108457Y0192708D01*
X0108287Y0192708D01*
X0108287Y0188208D01*
X0107887Y0188208D01*
X0107887Y0192708D01*
X0107717Y0192708D01*
X0106986Y0192592D01*
X0106282Y0192364D01*
X0105623Y0192028D01*
X0105025Y0191593D01*
X0104502Y0191070D01*
X0104067Y0190471D01*
X0103731Y0189812D01*
X0103502Y0189108D01*
X0103387Y0188378D01*
X0103387Y0188208D01*
X0107887Y0188208D01*
X0107887Y0187808D01*
X0107887Y0183308D01*
X0107717Y0183308D01*
X0107887Y0183422D02*
X0108287Y0183422D01*
X0108287Y0183308D02*
X0108457Y0183308D01*
X0109187Y0183424D01*
X0109891Y0183652D01*
X0110550Y0183988D01*
X0111148Y0184423D01*
X0111672Y0184946D01*
X0112106Y0185545D01*
X0112442Y0186204D01*
X0112671Y0186907D01*
X0112787Y0187638D01*
X0112787Y0187808D01*
X0108287Y0187808D01*
X0108287Y0183308D01*
X0108287Y0183820D02*
X0107887Y0183820D01*
X0107887Y0184219D02*
X0108287Y0184219D01*
X0108287Y0184618D02*
X0107887Y0184618D01*
X0107887Y0185016D02*
X0108287Y0185016D01*
X0108287Y0185415D02*
X0107887Y0185415D01*
X0107887Y0185813D02*
X0108287Y0185813D01*
X0108287Y0186212D02*
X0107887Y0186212D01*
X0107887Y0186610D02*
X0108287Y0186610D01*
X0108287Y0187009D02*
X0107887Y0187009D01*
X0107887Y0187407D02*
X0108287Y0187407D01*
X0108287Y0187806D02*
X0107887Y0187806D01*
X0107887Y0188204D02*
X0102387Y0188204D01*
X0102387Y0187806D02*
X0103387Y0187806D01*
X0103423Y0187407D02*
X0102387Y0187407D01*
X0102387Y0187153D02*
X0101732Y0185572D01*
X0100522Y0184363D01*
X0098942Y0183708D01*
X0097231Y0183708D01*
X0095651Y0184363D01*
X0094441Y0185572D01*
X0093787Y0187153D01*
X0093787Y0188863D01*
X0094441Y0190444D01*
X0095651Y0191653D01*
X0097231Y0192308D01*
X0098942Y0192308D01*
X0100522Y0191653D01*
X0101732Y0190444D01*
X0102387Y0188863D01*
X0102387Y0187153D01*
X0102327Y0187009D02*
X0103486Y0187009D01*
X0103599Y0186610D02*
X0102162Y0186610D01*
X0101997Y0186212D02*
X0103728Y0186212D01*
X0103930Y0185813D02*
X0101832Y0185813D01*
X0101574Y0185415D02*
X0104161Y0185415D01*
X0104451Y0185016D02*
X0101176Y0185016D01*
X0100777Y0184618D02*
X0104830Y0184618D01*
X0105305Y0184219D02*
X0100176Y0184219D01*
X0099214Y0183820D02*
X0105952Y0183820D01*
X0106996Y0183422D02*
X0089177Y0183422D01*
X0089187Y0183424D02*
X0089891Y0183652D01*
X0090550Y0183988D01*
X0091148Y0184423D01*
X0091672Y0184946D01*
X0092106Y0185545D01*
X0092442Y0186204D01*
X0092671Y0186907D01*
X0092787Y0187638D01*
X0092787Y0187808D01*
X0088287Y0187808D01*
X0088287Y0188208D01*
X0092787Y0188208D01*
X0092787Y0188378D01*
X0092671Y0189108D01*
X0092442Y0189812D01*
X0092106Y0190471D01*
X0091672Y0191070D01*
X0091148Y0191593D01*
X0090550Y0192028D01*
X0089891Y0192364D01*
X0089187Y0192592D01*
X0088457Y0192708D01*
X0088287Y0192708D01*
X0088287Y0188208D01*
X0087887Y0188208D01*
X0087887Y0192708D01*
X0087717Y0192708D01*
X0086986Y0192592D01*
X0086282Y0192364D01*
X0085623Y0192028D01*
X0085025Y0191593D01*
X0084502Y0191070D01*
X0084067Y0190471D01*
X0083731Y0189812D01*
X0083502Y0189108D01*
X0083387Y0188378D01*
X0083387Y0188208D01*
X0087887Y0188208D01*
X0087887Y0187808D01*
X0088287Y0187808D01*
X0088287Y0183308D01*
X0088457Y0183308D01*
X0089187Y0183424D01*
X0088287Y0183422D02*
X0087887Y0183422D01*
X0087887Y0183308D02*
X0087887Y0187808D01*
X0083387Y0187808D01*
X0083387Y0187638D01*
X0083502Y0186907D01*
X0083731Y0186204D01*
X0084067Y0185545D01*
X0084502Y0184946D01*
X0085025Y0184423D01*
X0085623Y0183988D01*
X0086282Y0183652D01*
X0086986Y0183424D01*
X0087717Y0183308D01*
X0087887Y0183308D01*
X0087887Y0183820D02*
X0088287Y0183820D01*
X0088287Y0184219D02*
X0087887Y0184219D01*
X0087887Y0184618D02*
X0088287Y0184618D01*
X0088287Y0185016D02*
X0087887Y0185016D01*
X0087887Y0185415D02*
X0088287Y0185415D01*
X0088287Y0185813D02*
X0087887Y0185813D01*
X0087887Y0186212D02*
X0088287Y0186212D01*
X0088287Y0186610D02*
X0087887Y0186610D01*
X0087887Y0187009D02*
X0088287Y0187009D01*
X0088287Y0187407D02*
X0087887Y0187407D01*
X0087887Y0187806D02*
X0088287Y0187806D01*
X0088287Y0188204D02*
X0093787Y0188204D01*
X0093787Y0187806D02*
X0092787Y0187806D01*
X0092750Y0187407D02*
X0093787Y0187407D01*
X0093846Y0187009D02*
X0092687Y0187009D01*
X0092574Y0186610D02*
X0094011Y0186610D01*
X0094176Y0186212D02*
X0092445Y0186212D01*
X0092243Y0185813D02*
X0094341Y0185813D01*
X0094599Y0185415D02*
X0092012Y0185415D01*
X0091722Y0185016D02*
X0094997Y0185016D01*
X0095396Y0184618D02*
X0091343Y0184618D01*
X0090868Y0184219D02*
X0095997Y0184219D01*
X0096959Y0183820D02*
X0090221Y0183820D01*
X0086996Y0183422D02*
X0069177Y0183422D01*
X0069187Y0183424D02*
X0069891Y0183652D01*
X0070550Y0183988D01*
X0071148Y0184423D01*
X0071672Y0184946D01*
X0072106Y0185545D01*
X0072442Y0186204D01*
X0072671Y0186907D01*
X0072787Y0187638D01*
X0072787Y0187808D01*
X0068287Y0187808D01*
X0068287Y0188208D01*
X0072787Y0188208D01*
X0072787Y0188378D01*
X0072671Y0189108D01*
X0072442Y0189812D01*
X0072106Y0190471D01*
X0071672Y0191070D01*
X0071148Y0191593D01*
X0070550Y0192028D01*
X0069891Y0192364D01*
X0069187Y0192592D01*
X0068457Y0192708D01*
X0068287Y0192708D01*
X0068287Y0188208D01*
X0067887Y0188208D01*
X0067887Y0192708D01*
X0067717Y0192708D01*
X0066986Y0192592D01*
X0066282Y0192364D01*
X0065623Y0192028D01*
X0065025Y0191593D01*
X0064502Y0191070D01*
X0064067Y0190471D01*
X0063731Y0189812D01*
X0063502Y0189108D01*
X0063387Y0188378D01*
X0063387Y0188208D01*
X0067887Y0188208D01*
X0067887Y0187808D01*
X0068287Y0187808D01*
X0068287Y0183308D01*
X0068457Y0183308D01*
X0069187Y0183424D01*
X0068287Y0183422D02*
X0067887Y0183422D01*
X0067887Y0183308D02*
X0067887Y0187808D01*
X0063387Y0187808D01*
X0063387Y0187638D01*
X0063502Y0186907D01*
X0063731Y0186204D01*
X0064067Y0185545D01*
X0064502Y0184946D01*
X0065025Y0184423D01*
X0065623Y0183988D01*
X0066282Y0183652D01*
X0066986Y0183424D01*
X0067717Y0183308D01*
X0067887Y0183308D01*
X0067887Y0183820D02*
X0068287Y0183820D01*
X0068287Y0184219D02*
X0067887Y0184219D01*
X0067887Y0184618D02*
X0068287Y0184618D01*
X0068287Y0185016D02*
X0067887Y0185016D01*
X0067887Y0185415D02*
X0068287Y0185415D01*
X0068287Y0185813D02*
X0067887Y0185813D01*
X0067887Y0186212D02*
X0068287Y0186212D01*
X0068287Y0186610D02*
X0067887Y0186610D01*
X0067887Y0187009D02*
X0068287Y0187009D01*
X0068287Y0187407D02*
X0067887Y0187407D01*
X0067887Y0187806D02*
X0068287Y0187806D01*
X0068287Y0188204D02*
X0073787Y0188204D01*
X0073787Y0187806D02*
X0072787Y0187806D01*
X0072750Y0187407D02*
X0073787Y0187407D01*
X0073787Y0187153D02*
X0074441Y0185572D01*
X0075651Y0184363D01*
X0077231Y0183708D01*
X0078942Y0183708D01*
X0080522Y0184363D01*
X0081732Y0185572D01*
X0082387Y0187153D01*
X0082387Y0188863D01*
X0081732Y0190444D01*
X0080522Y0191653D01*
X0078942Y0192308D01*
X0077231Y0192308D01*
X0075651Y0191653D01*
X0074441Y0190444D01*
X0073787Y0188863D01*
X0073787Y0187153D01*
X0073846Y0187009D02*
X0072687Y0187009D01*
X0072574Y0186610D02*
X0074011Y0186610D01*
X0074176Y0186212D02*
X0072445Y0186212D01*
X0072243Y0185813D02*
X0074341Y0185813D01*
X0074599Y0185415D02*
X0072012Y0185415D01*
X0071722Y0185016D02*
X0074997Y0185016D01*
X0075396Y0184618D02*
X0071343Y0184618D01*
X0070868Y0184219D02*
X0075997Y0184219D01*
X0076959Y0183820D02*
X0070221Y0183820D01*
X0066996Y0183422D02*
X0027080Y0183422D01*
X0026488Y0183304D02*
X0027712Y0183548D01*
X0028906Y0183910D01*
X0030059Y0184387D01*
X0031159Y0184976D01*
X0032197Y0185669D01*
X0033161Y0186460D01*
X0034043Y0187343D01*
X0034835Y0188307D01*
X0035528Y0189345D01*
X0036117Y0190445D01*
X0036594Y0191598D01*
X0036956Y0192792D01*
X0037200Y0194016D01*
X0037322Y0195258D01*
X0037322Y0195682D01*
X0024822Y0195682D01*
X0024822Y0196082D01*
X0024422Y0196082D01*
X0024422Y0208582D01*
X0023998Y0208582D01*
X0022756Y0208460D01*
X0021532Y0208216D01*
X0020338Y0207854D01*
X0019186Y0207376D01*
X0018085Y0206788D01*
X0017048Y0206095D01*
X0016083Y0205303D01*
X0015201Y0204421D01*
X0014409Y0203456D01*
X0013716Y0202419D01*
X0013128Y0201318D01*
X0012650Y0200166D01*
X0012288Y0198971D01*
X0012044Y0197748D01*
X0011922Y0196506D01*
X0011922Y0196082D01*
X0024422Y0196082D01*
X0024422Y0195682D01*
X0011922Y0195682D01*
X0011922Y0195258D01*
X0012044Y0194016D01*
X0012288Y0192792D01*
X0012650Y0191598D01*
X0013128Y0190445D01*
X0013716Y0189345D01*
X0014409Y0188307D01*
X0015201Y0187343D01*
X0016083Y0186460D01*
X0017048Y0185669D01*
X0018085Y0184976D01*
X0019186Y0184387D01*
X0020338Y0183910D01*
X0021532Y0183548D01*
X0022756Y0183304D01*
X0023998Y0183182D01*
X0024422Y0183182D01*
X0024422Y0195682D01*
X0024822Y0195682D01*
X0024822Y0183182D01*
X0025246Y0183182D01*
X0026488Y0183304D01*
X0024822Y0183422D02*
X0024422Y0183422D01*
X0024422Y0183820D02*
X0024822Y0183820D01*
X0024822Y0184219D02*
X0024422Y0184219D01*
X0024422Y0184618D02*
X0024822Y0184618D01*
X0024822Y0185016D02*
X0024422Y0185016D01*
X0024422Y0185415D02*
X0024822Y0185415D01*
X0024822Y0185813D02*
X0024422Y0185813D01*
X0024422Y0186212D02*
X0024822Y0186212D01*
X0024822Y0186610D02*
X0024422Y0186610D01*
X0024422Y0187009D02*
X0024822Y0187009D01*
X0024822Y0187407D02*
X0024422Y0187407D01*
X0024422Y0187806D02*
X0024822Y0187806D01*
X0024822Y0188204D02*
X0024422Y0188204D01*
X0024422Y0188603D02*
X0024822Y0188603D01*
X0024822Y0189001D02*
X0024422Y0189001D01*
X0024422Y0189400D02*
X0024822Y0189400D01*
X0024822Y0189798D02*
X0024422Y0189798D01*
X0024422Y0190197D02*
X0024822Y0190197D01*
X0024822Y0190595D02*
X0024422Y0190595D01*
X0024422Y0190994D02*
X0024822Y0190994D01*
X0024822Y0191392D02*
X0024422Y0191392D01*
X0024422Y0191791D02*
X0024822Y0191791D01*
X0024822Y0192189D02*
X0024422Y0192189D01*
X0024422Y0192588D02*
X0024822Y0192588D01*
X0024822Y0192986D02*
X0024422Y0192986D01*
X0024422Y0193385D02*
X0024822Y0193385D01*
X0024822Y0193783D02*
X0024422Y0193783D01*
X0024422Y0194182D02*
X0024822Y0194182D01*
X0024822Y0194580D02*
X0024422Y0194580D01*
X0024422Y0194979D02*
X0024822Y0194979D01*
X0024822Y0195377D02*
X0024422Y0195377D01*
X0024422Y0195776D02*
X0010074Y0195776D01*
X0010074Y0196174D02*
X0011922Y0196174D01*
X0011929Y0196573D02*
X0010074Y0196573D01*
X0010074Y0196971D02*
X0011968Y0196971D01*
X0012007Y0197370D02*
X0010074Y0197370D01*
X0010074Y0197768D02*
X0012048Y0197768D01*
X0012128Y0198167D02*
X0010074Y0198167D01*
X0010074Y0198565D02*
X0012207Y0198565D01*
X0012286Y0198964D02*
X0010074Y0198964D01*
X0010074Y0199362D02*
X0012406Y0199362D01*
X0012527Y0199761D02*
X0010074Y0199761D01*
X0010074Y0200159D02*
X0012648Y0200159D01*
X0012813Y0200558D02*
X0010074Y0200558D01*
X0010074Y0200956D02*
X0012978Y0200956D01*
X0013147Y0201355D02*
X0010074Y0201355D01*
X0010074Y0201753D02*
X0013360Y0201753D01*
X0013573Y0202152D02*
X0010074Y0202152D01*
X0010074Y0202551D02*
X0013804Y0202551D01*
X0014070Y0202949D02*
X0010074Y0202949D01*
X0010074Y0203348D02*
X0014336Y0203348D01*
X0014647Y0203746D02*
X0010074Y0203746D01*
X0010074Y0204145D02*
X0014974Y0204145D01*
X0015323Y0204543D02*
X0010074Y0204543D01*
X0010074Y0204942D02*
X0015721Y0204942D01*
X0016128Y0205340D02*
X0010074Y0205340D01*
X0010074Y0205739D02*
X0016613Y0205739D01*
X0017111Y0206137D02*
X0010074Y0206137D01*
X0010074Y0206536D02*
X0017707Y0206536D01*
X0018358Y0206934D02*
X0010074Y0206934D01*
X0010074Y0207333D02*
X0019104Y0207333D01*
X0020042Y0207731D02*
X0010074Y0207731D01*
X0010074Y0208130D02*
X0021247Y0208130D01*
X0023453Y0208528D02*
X0010074Y0208528D01*
X0010074Y0208927D02*
X0220272Y0208927D01*
X0220272Y0209325D02*
X0010074Y0209325D01*
X0010074Y0209724D02*
X0220272Y0209724D01*
X0220272Y0210122D02*
X0010074Y0210122D01*
X0010074Y0210430D02*
X0220272Y0210430D01*
X0220272Y0010074D01*
X0010074Y0010074D01*
X0010074Y0210430D01*
X0024422Y0208528D02*
X0024822Y0208528D01*
X0024822Y0208582D02*
X0025246Y0208582D01*
X0026488Y0208460D01*
X0027712Y0208216D01*
X0028906Y0207854D01*
X0030059Y0207376D01*
X0031159Y0206788D01*
X0032197Y0206095D01*
X0033161Y0205303D01*
X0034043Y0204421D01*
X0034835Y0203456D01*
X0035528Y0202419D01*
X0036117Y0201318D01*
X0036594Y0200166D01*
X0036956Y0198971D01*
X0037200Y0197748D01*
X0037322Y0196506D01*
X0037322Y0196082D01*
X0024822Y0196082D01*
X0024822Y0208582D01*
X0024822Y0208130D02*
X0024422Y0208130D01*
X0024422Y0207731D02*
X0024822Y0207731D01*
X0024822Y0207333D02*
X0024422Y0207333D01*
X0024422Y0206934D02*
X0024822Y0206934D01*
X0024822Y0206536D02*
X0024422Y0206536D01*
X0024422Y0206137D02*
X0024822Y0206137D01*
X0024822Y0205739D02*
X0024422Y0205739D01*
X0024422Y0205340D02*
X0024822Y0205340D01*
X0024822Y0204942D02*
X0024422Y0204942D01*
X0024422Y0204543D02*
X0024822Y0204543D01*
X0024822Y0204145D02*
X0024422Y0204145D01*
X0024422Y0203746D02*
X0024822Y0203746D01*
X0024822Y0203348D02*
X0024422Y0203348D01*
X0024422Y0202949D02*
X0024822Y0202949D01*
X0024822Y0202551D02*
X0024422Y0202551D01*
X0024422Y0202152D02*
X0024822Y0202152D01*
X0024822Y0201753D02*
X0024422Y0201753D01*
X0024422Y0201355D02*
X0024822Y0201355D01*
X0024822Y0200956D02*
X0024422Y0200956D01*
X0024422Y0200558D02*
X0024822Y0200558D01*
X0024822Y0200159D02*
X0024422Y0200159D01*
X0024422Y0199761D02*
X0024822Y0199761D01*
X0024822Y0199362D02*
X0024422Y0199362D01*
X0024422Y0198964D02*
X0024822Y0198964D01*
X0024822Y0198565D02*
X0024422Y0198565D01*
X0024422Y0198167D02*
X0024822Y0198167D01*
X0024822Y0197768D02*
X0024422Y0197768D01*
X0024422Y0197370D02*
X0024822Y0197370D01*
X0024822Y0196971D02*
X0024422Y0196971D01*
X0024422Y0196573D02*
X0024822Y0196573D01*
X0024822Y0196174D02*
X0024422Y0196174D01*
X0024822Y0195776D02*
X0205524Y0195776D01*
X0205524Y0195682D02*
X0193024Y0195682D01*
X0193024Y0195258D01*
X0193147Y0194016D01*
X0193390Y0192792D01*
X0193752Y0191598D01*
X0194230Y0190445D01*
X0194818Y0189345D01*
X0195511Y0188307D01*
X0196303Y0187343D01*
X0197185Y0186460D01*
X0198150Y0185669D01*
X0199187Y0184976D01*
X0200288Y0184387D01*
X0201441Y0183910D01*
X0202635Y0183548D01*
X0203859Y0183304D01*
X0205100Y0183182D01*
X0205524Y0183182D01*
X0205524Y0195682D01*
X0205524Y0196082D01*
X0193024Y0196082D01*
X0193024Y0196506D01*
X0193147Y0197748D01*
X0193390Y0198971D01*
X0193752Y0200166D01*
X0194230Y0201318D01*
X0194818Y0202419D01*
X0195511Y0203456D01*
X0196303Y0204421D01*
X0197185Y0205303D01*
X0198150Y0206095D01*
X0199187Y0206788D01*
X0200288Y0207376D01*
X0201441Y0207854D01*
X0202635Y0208216D01*
X0203859Y0208460D01*
X0205100Y0208582D01*
X0205524Y0208582D01*
X0205524Y0196082D01*
X0205924Y0196082D01*
X0205924Y0208582D01*
X0206348Y0208582D01*
X0207590Y0208460D01*
X0208814Y0208216D01*
X0210008Y0207854D01*
X0211161Y0207376D01*
X0212261Y0206788D01*
X0213299Y0206095D01*
X0214263Y0205303D01*
X0215146Y0204421D01*
X0215937Y0203456D01*
X0216631Y0202419D01*
X0217219Y0201318D01*
X0217696Y0200166D01*
X0218059Y0198971D01*
X0218302Y0197748D01*
X0218424Y0196506D01*
X0218424Y0196082D01*
X0205924Y0196082D01*
X0205924Y0195682D01*
X0205924Y0183182D01*
X0206348Y0183182D01*
X0207590Y0183304D01*
X0208814Y0183548D01*
X0210008Y0183910D01*
X0211161Y0184387D01*
X0212261Y0184976D01*
X0213299Y0185669D01*
X0214263Y0186460D01*
X0215146Y0187343D01*
X0215937Y0188307D01*
X0216631Y0189345D01*
X0217219Y0190445D01*
X0217696Y0191598D01*
X0218059Y0192792D01*
X0218302Y0194016D01*
X0218424Y0195258D01*
X0218424Y0195682D01*
X0205924Y0195682D01*
X0205524Y0195682D01*
X0205524Y0195377D02*
X0205924Y0195377D01*
X0205924Y0194979D02*
X0205524Y0194979D01*
X0205524Y0194580D02*
X0205924Y0194580D01*
X0205924Y0194182D02*
X0205524Y0194182D01*
X0205524Y0193783D02*
X0205924Y0193783D01*
X0205924Y0193385D02*
X0205524Y0193385D01*
X0205524Y0192986D02*
X0205924Y0192986D01*
X0205924Y0192588D02*
X0205524Y0192588D01*
X0205524Y0192189D02*
X0205924Y0192189D01*
X0205924Y0191791D02*
X0205524Y0191791D01*
X0205524Y0191392D02*
X0205924Y0191392D01*
X0205924Y0190994D02*
X0205524Y0190994D01*
X0205524Y0190595D02*
X0205924Y0190595D01*
X0205924Y0190197D02*
X0205524Y0190197D01*
X0205524Y0189798D02*
X0205924Y0189798D01*
X0205924Y0189400D02*
X0205524Y0189400D01*
X0205524Y0189001D02*
X0205924Y0189001D01*
X0205924Y0188603D02*
X0205524Y0188603D01*
X0205524Y0188204D02*
X0205924Y0188204D01*
X0205924Y0187806D02*
X0205524Y0187806D01*
X0205524Y0187407D02*
X0205924Y0187407D01*
X0205924Y0187009D02*
X0205524Y0187009D01*
X0205524Y0186610D02*
X0205924Y0186610D01*
X0205924Y0186212D02*
X0205524Y0186212D01*
X0205524Y0185813D02*
X0205924Y0185813D01*
X0205924Y0185415D02*
X0205524Y0185415D01*
X0205524Y0185016D02*
X0205924Y0185016D01*
X0205924Y0184618D02*
X0205524Y0184618D01*
X0205524Y0184219D02*
X0205924Y0184219D01*
X0205924Y0183820D02*
X0205524Y0183820D01*
X0205524Y0183422D02*
X0205924Y0183422D01*
X0208182Y0183422D02*
X0220272Y0183422D01*
X0220272Y0183820D02*
X0209713Y0183820D01*
X0210754Y0184219D02*
X0220272Y0184219D01*
X0220272Y0184618D02*
X0211591Y0184618D01*
X0212322Y0185016D02*
X0220272Y0185016D01*
X0220272Y0185415D02*
X0212918Y0185415D01*
X0213475Y0185813D02*
X0220272Y0185813D01*
X0220272Y0186212D02*
X0213960Y0186212D01*
X0214413Y0186610D02*
X0220272Y0186610D01*
X0220272Y0187009D02*
X0214812Y0187009D01*
X0215199Y0187407D02*
X0220272Y0187407D01*
X0220272Y0187806D02*
X0215526Y0187806D01*
X0215853Y0188204D02*
X0220272Y0188204D01*
X0220272Y0188603D02*
X0216135Y0188603D01*
X0216401Y0189001D02*
X0220272Y0189001D01*
X0220272Y0189400D02*
X0216660Y0189400D01*
X0216873Y0189798D02*
X0220272Y0189798D01*
X0220272Y0190197D02*
X0217086Y0190197D01*
X0217281Y0190595D02*
X0220272Y0190595D01*
X0220272Y0190994D02*
X0217446Y0190994D01*
X0217611Y0191392D02*
X0220272Y0191392D01*
X0220272Y0191791D02*
X0217755Y0191791D01*
X0217876Y0192189D02*
X0220272Y0192189D01*
X0220272Y0192588D02*
X0217997Y0192588D01*
X0218097Y0192986D02*
X0220272Y0192986D01*
X0220272Y0193385D02*
X0218176Y0193385D01*
X0218256Y0193783D02*
X0220272Y0193783D01*
X0220272Y0194182D02*
X0218318Y0194182D01*
X0218358Y0194580D02*
X0220272Y0194580D01*
X0220272Y0194979D02*
X0218397Y0194979D01*
X0218424Y0195377D02*
X0220272Y0195377D01*
X0220272Y0195776D02*
X0205924Y0195776D01*
X0205924Y0196174D02*
X0205524Y0196174D01*
X0205524Y0196573D02*
X0205924Y0196573D01*
X0205924Y0196971D02*
X0205524Y0196971D01*
X0205524Y0197370D02*
X0205924Y0197370D01*
X0205924Y0197768D02*
X0205524Y0197768D01*
X0205524Y0198167D02*
X0205924Y0198167D01*
X0205924Y0198565D02*
X0205524Y0198565D01*
X0205524Y0198964D02*
X0205924Y0198964D01*
X0205924Y0199362D02*
X0205524Y0199362D01*
X0205524Y0199761D02*
X0205924Y0199761D01*
X0205924Y0200159D02*
X0205524Y0200159D01*
X0205524Y0200558D02*
X0205924Y0200558D01*
X0205924Y0200956D02*
X0205524Y0200956D01*
X0205524Y0201355D02*
X0205924Y0201355D01*
X0205924Y0201753D02*
X0205524Y0201753D01*
X0205524Y0202152D02*
X0205924Y0202152D01*
X0205924Y0202551D02*
X0205524Y0202551D01*
X0205524Y0202949D02*
X0205924Y0202949D01*
X0205924Y0203348D02*
X0205524Y0203348D01*
X0205524Y0203746D02*
X0205924Y0203746D01*
X0205924Y0204145D02*
X0205524Y0204145D01*
X0205524Y0204543D02*
X0205924Y0204543D01*
X0205924Y0204942D02*
X0205524Y0204942D01*
X0205524Y0205340D02*
X0205924Y0205340D01*
X0205924Y0205739D02*
X0205524Y0205739D01*
X0205524Y0206137D02*
X0205924Y0206137D01*
X0205924Y0206536D02*
X0205524Y0206536D01*
X0205524Y0206934D02*
X0205924Y0206934D01*
X0205924Y0207333D02*
X0205524Y0207333D01*
X0205524Y0207731D02*
X0205924Y0207731D01*
X0205924Y0208130D02*
X0205524Y0208130D01*
X0205524Y0208528D02*
X0205924Y0208528D01*
X0206893Y0208528D02*
X0220272Y0208528D01*
X0220272Y0208130D02*
X0209099Y0208130D01*
X0210304Y0207731D02*
X0220272Y0207731D01*
X0220272Y0207333D02*
X0211243Y0207333D01*
X0211988Y0206934D02*
X0220272Y0206934D01*
X0220272Y0206536D02*
X0212639Y0206536D01*
X0213236Y0206137D02*
X0220272Y0206137D01*
X0220272Y0205739D02*
X0213733Y0205739D01*
X0214219Y0205340D02*
X0220272Y0205340D01*
X0220272Y0204942D02*
X0214625Y0204942D01*
X0215024Y0204543D02*
X0220272Y0204543D01*
X0220272Y0204145D02*
X0215373Y0204145D01*
X0215700Y0203746D02*
X0220272Y0203746D01*
X0220272Y0203348D02*
X0216010Y0203348D01*
X0216276Y0202949D02*
X0220272Y0202949D01*
X0220272Y0202551D02*
X0216543Y0202551D01*
X0216773Y0202152D02*
X0220272Y0202152D01*
X0220272Y0201753D02*
X0216986Y0201753D01*
X0217199Y0201355D02*
X0220272Y0201355D01*
X0220272Y0200956D02*
X0217369Y0200956D01*
X0217534Y0200558D02*
X0220272Y0200558D01*
X0220272Y0200159D02*
X0217698Y0200159D01*
X0217819Y0199761D02*
X0220272Y0199761D01*
X0220272Y0199362D02*
X0217940Y0199362D01*
X0218060Y0198964D02*
X0220272Y0198964D01*
X0220272Y0198565D02*
X0218139Y0198565D01*
X0218219Y0198167D02*
X0220272Y0198167D01*
X0220272Y0197768D02*
X0218298Y0197768D01*
X0218339Y0197370D02*
X0220272Y0197370D01*
X0220272Y0196971D02*
X0218379Y0196971D01*
X0218418Y0196573D02*
X0220272Y0196573D01*
X0220272Y0196174D02*
X0218424Y0196174D01*
X0220272Y0183023D02*
X0010074Y0183023D01*
X0010074Y0182625D02*
X0220272Y0182625D01*
X0220272Y0182226D02*
X0010074Y0182226D01*
X0010074Y0181828D02*
X0220272Y0181828D01*
X0220272Y0181429D02*
X0010074Y0181429D01*
X0010074Y0181031D02*
X0220272Y0181031D01*
X0220272Y0180632D02*
X0010074Y0180632D01*
X0010074Y0180234D02*
X0220272Y0180234D01*
X0220272Y0179835D02*
X0010074Y0179835D01*
X0010074Y0179437D02*
X0220272Y0179437D01*
X0220272Y0179038D02*
X0010074Y0179038D01*
X0010074Y0178640D02*
X0220272Y0178640D01*
X0220272Y0178241D02*
X0010074Y0178241D01*
X0010074Y0177843D02*
X0220272Y0177843D01*
X0220272Y0177444D02*
X0010074Y0177444D01*
X0010074Y0177046D02*
X0220272Y0177046D01*
X0220272Y0176647D02*
X0010074Y0176647D01*
X0010074Y0176249D02*
X0220272Y0176249D01*
X0220272Y0175850D02*
X0010074Y0175850D01*
X0010074Y0175452D02*
X0220272Y0175452D01*
X0220272Y0175053D02*
X0010074Y0175053D01*
X0010074Y0174655D02*
X0220272Y0174655D01*
X0220272Y0174256D02*
X0010074Y0174256D01*
X0010074Y0173858D02*
X0220272Y0173858D01*
X0220272Y0173459D02*
X0010074Y0173459D01*
X0010074Y0173061D02*
X0220272Y0173061D01*
X0220272Y0172662D02*
X0010074Y0172662D01*
X0010074Y0172264D02*
X0220272Y0172264D01*
X0220272Y0171865D02*
X0010074Y0171865D01*
X0010074Y0171467D02*
X0220272Y0171467D01*
X0220272Y0171068D02*
X0010074Y0171068D01*
X0010074Y0170670D02*
X0220272Y0170670D01*
X0220272Y0170271D02*
X0010074Y0170271D01*
X0010074Y0169873D02*
X0220272Y0169873D01*
X0220272Y0169474D02*
X0010074Y0169474D01*
X0010074Y0169076D02*
X0220272Y0169076D01*
X0220272Y0168677D02*
X0010074Y0168677D01*
X0010074Y0168279D02*
X0220272Y0168279D01*
X0220272Y0167880D02*
X0010074Y0167880D01*
X0010074Y0167482D02*
X0220272Y0167482D01*
X0220272Y0167083D02*
X0010074Y0167083D01*
X0010074Y0166684D02*
X0220272Y0166684D01*
X0220272Y0166286D02*
X0010074Y0166286D01*
X0010074Y0165887D02*
X0220272Y0165887D01*
X0220272Y0165489D02*
X0010074Y0165489D01*
X0010074Y0165090D02*
X0220272Y0165090D01*
X0220272Y0164692D02*
X0010074Y0164692D01*
X0010074Y0164293D02*
X0220272Y0164293D01*
X0220272Y0163895D02*
X0010074Y0163895D01*
X0010074Y0163496D02*
X0220272Y0163496D01*
X0220272Y0163098D02*
X0010074Y0163098D01*
X0010074Y0162699D02*
X0220272Y0162699D01*
X0220272Y0162301D02*
X0010074Y0162301D01*
X0010074Y0161902D02*
X0220272Y0161902D01*
X0220272Y0161504D02*
X0010074Y0161504D01*
X0010074Y0161105D02*
X0220272Y0161105D01*
X0220272Y0160707D02*
X0010074Y0160707D01*
X0010074Y0160308D02*
X0220272Y0160308D01*
X0220272Y0159910D02*
X0010074Y0159910D01*
X0010074Y0159511D02*
X0220272Y0159511D01*
X0220272Y0159113D02*
X0010074Y0159113D01*
X0010074Y0158714D02*
X0220272Y0158714D01*
X0220272Y0158316D02*
X0010074Y0158316D01*
X0010074Y0157917D02*
X0220272Y0157917D01*
X0220272Y0157519D02*
X0010074Y0157519D01*
X0010074Y0157120D02*
X0220272Y0157120D01*
X0220272Y0156722D02*
X0010074Y0156722D01*
X0010074Y0156323D02*
X0220272Y0156323D01*
X0220272Y0155925D02*
X0010074Y0155925D01*
X0010074Y0155526D02*
X0220272Y0155526D01*
X0220272Y0155128D02*
X0010074Y0155128D01*
X0010074Y0154729D02*
X0220272Y0154729D01*
X0220272Y0154331D02*
X0010074Y0154331D01*
X0010074Y0153932D02*
X0220272Y0153932D01*
X0220272Y0153534D02*
X0010074Y0153534D01*
X0010074Y0153135D02*
X0220272Y0153135D01*
X0220272Y0152737D02*
X0010074Y0152737D01*
X0010074Y0152338D02*
X0220272Y0152338D01*
X0220272Y0151940D02*
X0010074Y0151940D01*
X0010074Y0151541D02*
X0220272Y0151541D01*
X0220272Y0151143D02*
X0010074Y0151143D01*
X0010074Y0150744D02*
X0220272Y0150744D01*
X0220272Y0150346D02*
X0010074Y0150346D01*
X0010074Y0149947D02*
X0220272Y0149947D01*
X0220272Y0149549D02*
X0010074Y0149549D01*
X0010074Y0149150D02*
X0220272Y0149150D01*
X0220272Y0148751D02*
X0010074Y0148751D01*
X0010074Y0148353D02*
X0220272Y0148353D01*
X0220272Y0147954D02*
X0010074Y0147954D01*
X0010074Y0147556D02*
X0220272Y0147556D01*
X0220272Y0147157D02*
X0010074Y0147157D01*
X0010074Y0146759D02*
X0220272Y0146759D01*
X0220272Y0146360D02*
X0010074Y0146360D01*
X0010074Y0145962D02*
X0220272Y0145962D01*
X0220272Y0145563D02*
X0010074Y0145563D01*
X0010074Y0145165D02*
X0220272Y0145165D01*
X0220272Y0144766D02*
X0010074Y0144766D01*
X0010074Y0144368D02*
X0220272Y0144368D01*
X0220272Y0143969D02*
X0010074Y0143969D01*
X0010074Y0143571D02*
X0220272Y0143571D01*
X0220272Y0143172D02*
X0010074Y0143172D01*
X0010074Y0142774D02*
X0220272Y0142774D01*
X0220272Y0142375D02*
X0010074Y0142375D01*
X0010074Y0141977D02*
X0220272Y0141977D01*
X0220272Y0141578D02*
X0010074Y0141578D01*
X0010074Y0141180D02*
X0220272Y0141180D01*
X0220272Y0140781D02*
X0010074Y0140781D01*
X0010074Y0140383D02*
X0220272Y0140383D01*
X0220272Y0139984D02*
X0010074Y0139984D01*
X0010074Y0139586D02*
X0220272Y0139586D01*
X0220272Y0139187D02*
X0010074Y0139187D01*
X0010074Y0138789D02*
X0220272Y0138789D01*
X0220272Y0138390D02*
X0010074Y0138390D01*
X0010074Y0137992D02*
X0220272Y0137992D01*
X0220272Y0137593D02*
X0010074Y0137593D01*
X0010074Y0137195D02*
X0220272Y0137195D01*
X0220272Y0136796D02*
X0010074Y0136796D01*
X0010074Y0136398D02*
X0220272Y0136398D01*
X0220272Y0135999D02*
X0010074Y0135999D01*
X0010074Y0135601D02*
X0220272Y0135601D01*
X0220272Y0135202D02*
X0010074Y0135202D01*
X0010074Y0134804D02*
X0220272Y0134804D01*
X0220272Y0134405D02*
X0010074Y0134405D01*
X0010074Y0134007D02*
X0220272Y0134007D01*
X0220272Y0133608D02*
X0010074Y0133608D01*
X0010074Y0133210D02*
X0220272Y0133210D01*
X0220272Y0132811D02*
X0010074Y0132811D01*
X0010074Y0132413D02*
X0220272Y0132413D01*
X0220272Y0132014D02*
X0010074Y0132014D01*
X0010074Y0131616D02*
X0220272Y0131616D01*
X0220272Y0131217D02*
X0010074Y0131217D01*
X0010074Y0126833D02*
X0220272Y0126833D01*
X0220272Y0126435D02*
X0010074Y0126435D01*
X0010074Y0126036D02*
X0220272Y0126036D01*
X0220272Y0125638D02*
X0010074Y0125638D01*
X0010074Y0125239D02*
X0220272Y0125239D01*
X0220272Y0124841D02*
X0010074Y0124841D01*
X0010074Y0124442D02*
X0220272Y0124442D01*
X0220272Y0124044D02*
X0010074Y0124044D01*
X0010074Y0123645D02*
X0220272Y0123645D01*
X0220272Y0123247D02*
X0010074Y0123247D01*
X0010074Y0122848D02*
X0220272Y0122848D01*
X0220272Y0122450D02*
X0010074Y0122450D01*
X0010074Y0122051D02*
X0220272Y0122051D01*
X0220272Y0121653D02*
X0010074Y0121653D01*
X0010074Y0121254D02*
X0220272Y0121254D01*
X0220272Y0120856D02*
X0010074Y0120856D01*
X0010074Y0120457D02*
X0220272Y0120457D01*
X0220272Y0120059D02*
X0010074Y0120059D01*
X0010074Y0119660D02*
X0220272Y0119660D01*
X0220272Y0119262D02*
X0010074Y0119262D01*
X0010074Y0118863D02*
X0220272Y0118863D01*
X0220272Y0118465D02*
X0010074Y0118465D01*
X0010074Y0118066D02*
X0220272Y0118066D01*
X0220272Y0117668D02*
X0028876Y0117668D01*
X0028509Y0117820D02*
X0026798Y0117820D01*
X0025218Y0117165D01*
X0024008Y0115955D01*
X0023354Y0114375D01*
X0023354Y0112664D01*
X0024008Y0111084D01*
X0025218Y0109874D01*
X0026798Y0109220D01*
X0028509Y0109220D01*
X0030089Y0109874D01*
X0031299Y0111084D01*
X0031954Y0112664D01*
X0031954Y0114375D01*
X0031299Y0115955D01*
X0030089Y0117165D01*
X0028509Y0117820D01*
X0029838Y0117269D02*
X0220272Y0117269D01*
X0220272Y0116871D02*
X0030384Y0116871D01*
X0030782Y0116472D02*
X0220272Y0116472D01*
X0220272Y0116074D02*
X0031181Y0116074D01*
X0031415Y0115675D02*
X0220272Y0115675D01*
X0220272Y0115277D02*
X0031580Y0115277D01*
X0031745Y0114878D02*
X0220272Y0114878D01*
X0220272Y0114480D02*
X0031910Y0114480D01*
X0031954Y0114081D02*
X0220272Y0114081D01*
X0220272Y0113682D02*
X0031954Y0113682D01*
X0031954Y0113284D02*
X0197672Y0113284D01*
X0197487Y0113099D02*
X0197487Y0105436D01*
X0197956Y0104968D01*
X0205619Y0104968D01*
X0206087Y0105436D01*
X0206087Y0113099D01*
X0205619Y0113568D01*
X0197956Y0113568D01*
X0197487Y0113099D01*
X0197487Y0112885D02*
X0031954Y0112885D01*
X0031880Y0112487D02*
X0197487Y0112487D01*
X0197487Y0112088D02*
X0031715Y0112088D01*
X0031550Y0111690D02*
X0197487Y0111690D01*
X0197487Y0111291D02*
X0031385Y0111291D01*
X0031108Y0110893D02*
X0197487Y0110893D01*
X0197487Y0110494D02*
X0030709Y0110494D01*
X0030311Y0110096D02*
X0197487Y0110096D01*
X0197487Y0109697D02*
X0029662Y0109697D01*
X0028700Y0109299D02*
X0197487Y0109299D01*
X0197487Y0108900D02*
X0010074Y0108900D01*
X0010074Y0108502D02*
X0197487Y0108502D01*
X0197487Y0108103D02*
X0010074Y0108103D01*
X0010074Y0107705D02*
X0026521Y0107705D01*
X0026798Y0107820D02*
X0025218Y0107165D01*
X0024008Y0105955D01*
X0023354Y0104375D01*
X0023354Y0102664D01*
X0024008Y0101084D01*
X0025218Y0099874D01*
X0026798Y0099220D01*
X0028509Y0099220D01*
X0030089Y0099874D01*
X0031299Y0101084D01*
X0031954Y0102664D01*
X0031954Y0104375D01*
X0031299Y0105955D01*
X0030089Y0107165D01*
X0028509Y0107820D01*
X0026798Y0107820D01*
X0025559Y0107306D02*
X0010074Y0107306D01*
X0010074Y0106908D02*
X0024961Y0106908D01*
X0024562Y0106509D02*
X0010074Y0106509D01*
X0010074Y0106111D02*
X0024164Y0106111D01*
X0023907Y0105712D02*
X0010074Y0105712D01*
X0010074Y0105314D02*
X0023742Y0105314D01*
X0023577Y0104915D02*
X0010074Y0104915D01*
X0010074Y0104517D02*
X0023412Y0104517D01*
X0023354Y0104118D02*
X0010074Y0104118D01*
X0010074Y0103720D02*
X0023354Y0103720D01*
X0023354Y0103321D02*
X0010074Y0103321D01*
X0010074Y0102923D02*
X0023354Y0102923D01*
X0023412Y0102524D02*
X0010074Y0102524D01*
X0010074Y0102126D02*
X0023577Y0102126D01*
X0023742Y0101727D02*
X0010074Y0101727D01*
X0010074Y0101329D02*
X0023907Y0101329D01*
X0024162Y0100930D02*
X0010074Y0100930D01*
X0010074Y0100532D02*
X0024560Y0100532D01*
X0024959Y0100133D02*
X0010074Y0100133D01*
X0010074Y0099735D02*
X0025555Y0099735D01*
X0026517Y0099336D02*
X0010074Y0099336D01*
X0010074Y0098938D02*
X0197087Y0098938D01*
X0197087Y0098898D02*
X0197203Y0098167D01*
X0197432Y0097464D01*
X0197768Y0096804D01*
X0198202Y0096206D01*
X0198726Y0095683D01*
X0199324Y0095248D01*
X0199983Y0094912D01*
X0200687Y0094683D01*
X0201417Y0094568D01*
X0201587Y0094568D01*
X0201587Y0099068D01*
X0197087Y0099068D01*
X0197087Y0098898D01*
X0197144Y0098539D02*
X0010074Y0098539D01*
X0010074Y0098141D02*
X0197212Y0098141D01*
X0197341Y0097742D02*
X0031563Y0097742D01*
X0031485Y0097820D02*
X0023822Y0097820D01*
X0023354Y0097351D01*
X0023354Y0089688D01*
X0023822Y0089220D01*
X0031485Y0089220D01*
X0031954Y0089688D01*
X0031954Y0097351D01*
X0031485Y0097820D01*
X0031954Y0097344D02*
X0197493Y0097344D01*
X0197696Y0096945D02*
X0031954Y0096945D01*
X0031954Y0096547D02*
X0197955Y0096547D01*
X0198260Y0096148D02*
X0031954Y0096148D01*
X0031954Y0095749D02*
X0198659Y0095749D01*
X0199182Y0095351D02*
X0031954Y0095351D01*
X0031954Y0094952D02*
X0199904Y0094952D01*
X0201587Y0094952D02*
X0201987Y0094952D01*
X0201987Y0094568D02*
X0202157Y0094568D01*
X0202888Y0094683D01*
X0203592Y0094912D01*
X0204251Y0095248D01*
X0204849Y0095683D01*
X0205372Y0096206D01*
X0205807Y0096804D01*
X0206143Y0097464D01*
X0206372Y0098167D01*
X0206487Y0098898D01*
X0206487Y0099068D01*
X0201987Y0099068D01*
X0201987Y0094568D01*
X0201987Y0095351D02*
X0201587Y0095351D01*
X0201587Y0095749D02*
X0201987Y0095749D01*
X0201987Y0096148D02*
X0201587Y0096148D01*
X0201587Y0096547D02*
X0201987Y0096547D01*
X0201987Y0096945D02*
X0201587Y0096945D01*
X0201587Y0097344D02*
X0201987Y0097344D01*
X0201987Y0097742D02*
X0201587Y0097742D01*
X0201587Y0098141D02*
X0201987Y0098141D01*
X0201987Y0098539D02*
X0201587Y0098539D01*
X0201587Y0098938D02*
X0201987Y0098938D01*
X0201987Y0099068D02*
X0201587Y0099068D01*
X0201587Y0099468D01*
X0197087Y0099468D01*
X0197087Y0099638D01*
X0197203Y0100368D01*
X0197432Y0101072D01*
X0197768Y0101731D01*
X0198202Y0102330D01*
X0198726Y0102853D01*
X0199324Y0103288D01*
X0199983Y0103623D01*
X0200687Y0103852D01*
X0201417Y0103968D01*
X0201587Y0103968D01*
X0201587Y0099468D01*
X0201987Y0099468D01*
X0201987Y0103968D01*
X0202157Y0103968D01*
X0202888Y0103852D01*
X0203592Y0103623D01*
X0204251Y0103288D01*
X0204849Y0102853D01*
X0205372Y0102330D01*
X0205807Y0101731D01*
X0206143Y0101072D01*
X0206372Y0100368D01*
X0206487Y0099638D01*
X0206487Y0099468D01*
X0201987Y0099468D01*
X0201987Y0099068D01*
X0201987Y0099336D02*
X0220272Y0099336D01*
X0220272Y0098938D02*
X0206487Y0098938D01*
X0206431Y0098539D02*
X0220272Y0098539D01*
X0220272Y0098141D02*
X0206363Y0098141D01*
X0206234Y0097742D02*
X0220272Y0097742D01*
X0220272Y0097344D02*
X0206082Y0097344D01*
X0205879Y0096945D02*
X0220272Y0096945D01*
X0220272Y0096547D02*
X0205620Y0096547D01*
X0205314Y0096148D02*
X0220272Y0096148D01*
X0220272Y0095749D02*
X0204916Y0095749D01*
X0204393Y0095351D02*
X0220272Y0095351D01*
X0220272Y0094952D02*
X0203671Y0094952D01*
X0201587Y0099336D02*
X0028790Y0099336D01*
X0029752Y0099735D02*
X0197103Y0099735D01*
X0197166Y0100133D02*
X0030348Y0100133D01*
X0030747Y0100532D02*
X0197256Y0100532D01*
X0197386Y0100930D02*
X0031145Y0100930D01*
X0031400Y0101329D02*
X0197563Y0101329D01*
X0197766Y0101727D02*
X0031565Y0101727D01*
X0031730Y0102126D02*
X0198054Y0102126D01*
X0198397Y0102524D02*
X0031895Y0102524D01*
X0031954Y0102923D02*
X0198822Y0102923D01*
X0199390Y0103321D02*
X0031954Y0103321D01*
X0031954Y0103720D02*
X0200280Y0103720D01*
X0201587Y0103720D02*
X0201987Y0103720D01*
X0201987Y0103321D02*
X0201587Y0103321D01*
X0201587Y0102923D02*
X0201987Y0102923D01*
X0201987Y0102524D02*
X0201587Y0102524D01*
X0201587Y0102126D02*
X0201987Y0102126D01*
X0201987Y0101727D02*
X0201587Y0101727D01*
X0201587Y0101329D02*
X0201987Y0101329D01*
X0201987Y0100930D02*
X0201587Y0100930D01*
X0201587Y0100532D02*
X0201987Y0100532D01*
X0201987Y0100133D02*
X0201587Y0100133D01*
X0201587Y0099735D02*
X0201987Y0099735D01*
X0204185Y0103321D02*
X0220272Y0103321D01*
X0220272Y0102923D02*
X0204753Y0102923D01*
X0205178Y0102524D02*
X0220272Y0102524D01*
X0220272Y0102126D02*
X0205520Y0102126D01*
X0205809Y0101727D02*
X0220272Y0101727D01*
X0220272Y0101329D02*
X0206012Y0101329D01*
X0206189Y0100930D02*
X0220272Y0100930D01*
X0220272Y0100532D02*
X0206319Y0100532D01*
X0206409Y0100133D02*
X0220272Y0100133D01*
X0220272Y0099735D02*
X0206472Y0099735D01*
X0203295Y0103720D02*
X0220272Y0103720D01*
X0220272Y0104118D02*
X0031954Y0104118D01*
X0031895Y0104517D02*
X0220272Y0104517D01*
X0220272Y0104915D02*
X0031730Y0104915D01*
X0031565Y0105314D02*
X0197610Y0105314D01*
X0197487Y0105712D02*
X0031400Y0105712D01*
X0031144Y0106111D02*
X0197487Y0106111D01*
X0197487Y0106509D02*
X0030745Y0106509D01*
X0030347Y0106908D02*
X0197487Y0106908D01*
X0197487Y0107306D02*
X0029748Y0107306D01*
X0028786Y0107705D02*
X0197487Y0107705D01*
X0206087Y0107705D02*
X0220272Y0107705D01*
X0220272Y0108103D02*
X0206087Y0108103D01*
X0206087Y0108502D02*
X0220272Y0108502D01*
X0220272Y0108900D02*
X0206087Y0108900D01*
X0206087Y0109299D02*
X0220272Y0109299D01*
X0220272Y0109697D02*
X0206087Y0109697D01*
X0206087Y0110096D02*
X0220272Y0110096D01*
X0220272Y0110494D02*
X0206087Y0110494D01*
X0206087Y0110893D02*
X0220272Y0110893D01*
X0220272Y0111291D02*
X0206087Y0111291D01*
X0206087Y0111690D02*
X0220272Y0111690D01*
X0220272Y0112088D02*
X0206087Y0112088D01*
X0206087Y0112487D02*
X0220272Y0112487D01*
X0220272Y0112885D02*
X0206087Y0112885D01*
X0205902Y0113284D02*
X0220272Y0113284D01*
X0220272Y0107306D02*
X0206087Y0107306D01*
X0206087Y0106908D02*
X0220272Y0106908D01*
X0220272Y0106509D02*
X0206087Y0106509D01*
X0206087Y0106111D02*
X0220272Y0106111D01*
X0220272Y0105712D02*
X0206087Y0105712D01*
X0205965Y0105314D02*
X0220272Y0105314D01*
X0220272Y0094554D02*
X0031954Y0094554D01*
X0031954Y0094155D02*
X0220272Y0094155D01*
X0220272Y0093757D02*
X0031954Y0093757D01*
X0031954Y0093358D02*
X0220272Y0093358D01*
X0220272Y0092960D02*
X0031954Y0092960D01*
X0031954Y0092561D02*
X0220272Y0092561D01*
X0220272Y0092163D02*
X0031954Y0092163D01*
X0031954Y0091764D02*
X0220272Y0091764D01*
X0220272Y0091366D02*
X0031954Y0091366D01*
X0031954Y0090967D02*
X0220272Y0090967D01*
X0220272Y0090569D02*
X0031954Y0090569D01*
X0031954Y0090170D02*
X0220272Y0090170D01*
X0220272Y0089772D02*
X0031954Y0089772D01*
X0031639Y0089373D02*
X0220272Y0089373D01*
X0220272Y0088975D02*
X0010074Y0088975D01*
X0010074Y0089373D02*
X0023669Y0089373D01*
X0023354Y0089772D02*
X0010074Y0089772D01*
X0010074Y0090170D02*
X0023354Y0090170D01*
X0023354Y0090569D02*
X0010074Y0090569D01*
X0010074Y0090967D02*
X0023354Y0090967D01*
X0023354Y0091366D02*
X0010074Y0091366D01*
X0010074Y0091764D02*
X0023354Y0091764D01*
X0023354Y0092163D02*
X0010074Y0092163D01*
X0010074Y0092561D02*
X0023354Y0092561D01*
X0023354Y0092960D02*
X0010074Y0092960D01*
X0010074Y0093358D02*
X0023354Y0093358D01*
X0023354Y0093757D02*
X0010074Y0093757D01*
X0010074Y0094155D02*
X0023354Y0094155D01*
X0023354Y0094554D02*
X0010074Y0094554D01*
X0010074Y0094952D02*
X0023354Y0094952D01*
X0023354Y0095351D02*
X0010074Y0095351D01*
X0010074Y0095749D02*
X0023354Y0095749D01*
X0023354Y0096148D02*
X0010074Y0096148D01*
X0010074Y0096547D02*
X0023354Y0096547D01*
X0023354Y0096945D02*
X0010074Y0096945D01*
X0010074Y0097344D02*
X0023354Y0097344D01*
X0023745Y0097742D02*
X0010074Y0097742D01*
X0010074Y0088576D02*
X0220272Y0088576D01*
X0220272Y0088178D02*
X0010074Y0088178D01*
X0010074Y0087779D02*
X0220272Y0087779D01*
X0220272Y0087381D02*
X0010074Y0087381D01*
X0010074Y0086982D02*
X0220272Y0086982D01*
X0220272Y0086584D02*
X0010074Y0086584D01*
X0010074Y0086185D02*
X0220272Y0086185D01*
X0220272Y0085787D02*
X0010074Y0085787D01*
X0010074Y0085388D02*
X0220272Y0085388D01*
X0220272Y0084990D02*
X0010074Y0084990D01*
X0010074Y0084591D02*
X0220272Y0084591D01*
X0220272Y0084193D02*
X0010074Y0084193D01*
X0010074Y0083794D02*
X0220272Y0083794D01*
X0220272Y0083396D02*
X0010074Y0083396D01*
X0010074Y0082997D02*
X0220272Y0082997D01*
X0220272Y0082599D02*
X0010074Y0082599D01*
X0010074Y0082200D02*
X0220272Y0082200D01*
X0220272Y0081802D02*
X0010074Y0081802D01*
X0010074Y0081403D02*
X0220272Y0081403D01*
X0220272Y0081005D02*
X0010074Y0081005D01*
X0010074Y0080606D02*
X0220272Y0080606D01*
X0220272Y0080208D02*
X0010074Y0080208D01*
X0010074Y0079809D02*
X0220272Y0079809D01*
X0220272Y0079411D02*
X0010074Y0079411D01*
X0010074Y0079012D02*
X0220272Y0079012D01*
X0220272Y0078613D02*
X0010074Y0078613D01*
X0010074Y0078215D02*
X0220272Y0078215D01*
X0220272Y0077816D02*
X0010074Y0077816D01*
X0010074Y0077418D02*
X0220272Y0077418D01*
X0220272Y0077019D02*
X0010074Y0077019D01*
X0010074Y0076621D02*
X0220272Y0076621D01*
X0220272Y0076222D02*
X0010074Y0076222D01*
X0010074Y0075824D02*
X0220272Y0075824D01*
X0220272Y0075425D02*
X0010074Y0075425D01*
X0010074Y0075027D02*
X0220272Y0075027D01*
X0220272Y0074628D02*
X0010074Y0074628D01*
X0010074Y0074230D02*
X0220272Y0074230D01*
X0220272Y0073831D02*
X0010074Y0073831D01*
X0010074Y0073433D02*
X0220272Y0073433D01*
X0220272Y0073034D02*
X0010074Y0073034D01*
X0010074Y0072636D02*
X0220272Y0072636D01*
X0220272Y0072237D02*
X0010074Y0072237D01*
X0010074Y0071839D02*
X0220272Y0071839D01*
X0220272Y0071440D02*
X0010074Y0071440D01*
X0010074Y0071042D02*
X0220272Y0071042D01*
X0220272Y0070643D02*
X0010074Y0070643D01*
X0010074Y0070245D02*
X0220272Y0070245D01*
X0220272Y0069846D02*
X0010074Y0069846D01*
X0010074Y0069448D02*
X0220272Y0069448D01*
X0220272Y0069049D02*
X0010074Y0069049D01*
X0010074Y0068651D02*
X0220272Y0068651D01*
X0220272Y0068252D02*
X0010074Y0068252D01*
X0010074Y0067854D02*
X0220272Y0067854D01*
X0220272Y0067455D02*
X0010074Y0067455D01*
X0010074Y0067057D02*
X0220272Y0067057D01*
X0220272Y0066658D02*
X0010074Y0066658D01*
X0010074Y0066260D02*
X0220272Y0066260D01*
X0220272Y0065861D02*
X0010074Y0065861D01*
X0010074Y0065463D02*
X0220272Y0065463D01*
X0220272Y0065064D02*
X0010074Y0065064D01*
X0010074Y0064666D02*
X0220272Y0064666D01*
X0220272Y0064267D02*
X0010074Y0064267D01*
X0010074Y0063869D02*
X0220272Y0063869D01*
X0220272Y0063470D02*
X0010074Y0063470D01*
X0010074Y0063072D02*
X0220272Y0063072D01*
X0220272Y0062673D02*
X0010074Y0062673D01*
X0010074Y0062275D02*
X0220272Y0062275D01*
X0220272Y0061876D02*
X0010074Y0061876D01*
X0010074Y0061478D02*
X0220272Y0061478D01*
X0220272Y0061079D02*
X0010074Y0061079D01*
X0010074Y0060680D02*
X0220272Y0060680D01*
X0220272Y0060282D02*
X0010074Y0060282D01*
X0010074Y0059883D02*
X0220272Y0059883D01*
X0220272Y0059485D02*
X0010074Y0059485D01*
X0010074Y0059086D02*
X0220272Y0059086D01*
X0220272Y0058688D02*
X0010074Y0058688D01*
X0010074Y0058289D02*
X0220272Y0058289D01*
X0220272Y0057891D02*
X0010074Y0057891D01*
X0010074Y0057492D02*
X0220272Y0057492D01*
X0220272Y0057094D02*
X0010074Y0057094D01*
X0010074Y0056695D02*
X0220272Y0056695D01*
X0220272Y0056297D02*
X0010074Y0056297D01*
X0010074Y0055898D02*
X0220272Y0055898D01*
X0220272Y0055500D02*
X0010074Y0055500D01*
X0010074Y0055101D02*
X0220272Y0055101D01*
X0220272Y0054703D02*
X0010074Y0054703D01*
X0010074Y0054304D02*
X0220272Y0054304D01*
X0220272Y0053906D02*
X0010074Y0053906D01*
X0010074Y0053507D02*
X0220272Y0053507D01*
X0220272Y0053109D02*
X0010074Y0053109D01*
X0010074Y0052710D02*
X0220272Y0052710D01*
X0220272Y0052312D02*
X0010074Y0052312D01*
X0010074Y0051913D02*
X0220272Y0051913D01*
X0220272Y0051515D02*
X0010074Y0051515D01*
X0010074Y0051116D02*
X0220272Y0051116D01*
X0220272Y0050718D02*
X0010074Y0050718D01*
X0010074Y0050319D02*
X0220272Y0050319D01*
X0220272Y0049921D02*
X0010074Y0049921D01*
X0010074Y0049522D02*
X0220272Y0049522D01*
X0220272Y0049124D02*
X0010074Y0049124D01*
X0010074Y0048725D02*
X0220272Y0048725D01*
X0220272Y0048327D02*
X0010074Y0048327D01*
X0010074Y0047928D02*
X0220272Y0047928D01*
X0220272Y0047530D02*
X0010074Y0047530D01*
X0010074Y0047131D02*
X0220272Y0047131D01*
X0220272Y0046733D02*
X0010074Y0046733D01*
X0010074Y0046334D02*
X0220272Y0046334D01*
X0220272Y0045936D02*
X0010074Y0045936D01*
X0010074Y0045537D02*
X0220272Y0045537D01*
X0220272Y0045139D02*
X0010074Y0045139D01*
X0010074Y0044740D02*
X0220272Y0044740D01*
X0220272Y0044342D02*
X0010074Y0044342D01*
X0010074Y0043943D02*
X0220272Y0043943D01*
X0220272Y0043545D02*
X0010074Y0043545D01*
X0010074Y0043146D02*
X0220272Y0043146D01*
X0220272Y0042747D02*
X0010074Y0042747D01*
X0010074Y0042349D02*
X0220272Y0042349D01*
X0220272Y0041950D02*
X0010074Y0041950D01*
X0010074Y0041552D02*
X0220272Y0041552D01*
X0220272Y0041153D02*
X0010074Y0041153D01*
X0010074Y0040755D02*
X0220272Y0040755D01*
X0220272Y0040356D02*
X0010074Y0040356D01*
X0010074Y0039958D02*
X0220272Y0039958D01*
X0220272Y0039559D02*
X0010074Y0039559D01*
X0010074Y0039161D02*
X0220272Y0039161D01*
X0220272Y0038762D02*
X0010074Y0038762D01*
X0010074Y0038364D02*
X0220272Y0038364D01*
X0220272Y0037965D02*
X0010074Y0037965D01*
X0010074Y0037567D02*
X0220272Y0037567D01*
X0220272Y0037168D02*
X0207748Y0037168D01*
X0207590Y0037200D02*
X0206348Y0037322D01*
X0205924Y0037322D01*
X0205924Y0024822D01*
X0205524Y0024822D01*
X0205524Y0024422D01*
X0193024Y0024422D01*
X0193024Y0023998D01*
X0193147Y0022756D01*
X0193390Y0021532D01*
X0193752Y0020338D01*
X0194230Y0019186D01*
X0194818Y0018085D01*
X0195511Y0017048D01*
X0196303Y0016083D01*
X0197185Y0015201D01*
X0198150Y0014409D01*
X0199187Y0013716D01*
X0200288Y0013128D01*
X0201441Y0012650D01*
X0202635Y0012288D01*
X0203859Y0012044D01*
X0205100Y0011922D01*
X0205524Y0011922D01*
X0205524Y0024422D01*
X0205924Y0024422D01*
X0205924Y0011922D01*
X0206348Y0011922D01*
X0207590Y0012044D01*
X0208814Y0012288D01*
X0210008Y0012650D01*
X0211161Y0013128D01*
X0212261Y0013716D01*
X0213299Y0014409D01*
X0214263Y0015201D01*
X0215146Y0016083D01*
X0215937Y0017048D01*
X0216631Y0018085D01*
X0217219Y0019186D01*
X0217696Y0020338D01*
X0218059Y0021532D01*
X0218302Y0022756D01*
X0218424Y0023998D01*
X0218424Y0024422D01*
X0205924Y0024422D01*
X0205924Y0024822D01*
X0218424Y0024822D01*
X0218424Y0025246D01*
X0218302Y0026488D01*
X0218059Y0027712D01*
X0217696Y0028906D01*
X0217219Y0030059D01*
X0216631Y0031159D01*
X0215937Y0032197D01*
X0215146Y0033161D01*
X0214263Y0034043D01*
X0213299Y0034835D01*
X0212261Y0035528D01*
X0211161Y0036117D01*
X0210008Y0036594D01*
X0208814Y0036956D01*
X0207590Y0037200D01*
X0205924Y0037168D02*
X0205524Y0037168D01*
X0205524Y0037322D02*
X0205100Y0037322D01*
X0203859Y0037200D01*
X0202635Y0036956D01*
X0201441Y0036594D01*
X0200288Y0036117D01*
X0199187Y0035528D01*
X0198150Y0034835D01*
X0197185Y0034043D01*
X0196303Y0033161D01*
X0195511Y0032197D01*
X0194818Y0031159D01*
X0194230Y0030059D01*
X0193752Y0028906D01*
X0193390Y0027712D01*
X0193147Y0026488D01*
X0193024Y0025246D01*
X0193024Y0024822D01*
X0205524Y0024822D01*
X0205524Y0037322D01*
X0205524Y0036770D02*
X0205924Y0036770D01*
X0205924Y0036371D02*
X0205524Y0036371D01*
X0205524Y0035973D02*
X0205924Y0035973D01*
X0205924Y0035574D02*
X0205524Y0035574D01*
X0205524Y0035176D02*
X0205924Y0035176D01*
X0205924Y0034777D02*
X0205524Y0034777D01*
X0205524Y0034379D02*
X0205924Y0034379D01*
X0205924Y0033980D02*
X0205524Y0033980D01*
X0205524Y0033582D02*
X0205924Y0033582D01*
X0205924Y0033183D02*
X0205524Y0033183D01*
X0205524Y0032785D02*
X0205924Y0032785D01*
X0205924Y0032386D02*
X0205524Y0032386D01*
X0205524Y0031988D02*
X0205924Y0031988D01*
X0205924Y0031589D02*
X0205524Y0031589D01*
X0205524Y0031191D02*
X0205924Y0031191D01*
X0205924Y0030792D02*
X0205524Y0030792D01*
X0205524Y0030394D02*
X0205924Y0030394D01*
X0205924Y0029995D02*
X0205524Y0029995D01*
X0205524Y0029597D02*
X0205924Y0029597D01*
X0205924Y0029198D02*
X0205524Y0029198D01*
X0205524Y0028800D02*
X0205924Y0028800D01*
X0205924Y0028401D02*
X0205524Y0028401D01*
X0205524Y0028003D02*
X0205924Y0028003D01*
X0205924Y0027604D02*
X0205524Y0027604D01*
X0205524Y0027206D02*
X0205924Y0027206D01*
X0205924Y0026807D02*
X0205524Y0026807D01*
X0205524Y0026409D02*
X0205924Y0026409D01*
X0205924Y0026010D02*
X0205524Y0026010D01*
X0205524Y0025611D02*
X0205924Y0025611D01*
X0205924Y0025213D02*
X0205524Y0025213D01*
X0205524Y0024814D02*
X0024822Y0024814D01*
X0024822Y0024822D02*
X0037322Y0024822D01*
X0037322Y0025246D01*
X0037200Y0026488D01*
X0036956Y0027712D01*
X0036594Y0028906D01*
X0036117Y0030059D01*
X0035528Y0031159D01*
X0034835Y0032197D01*
X0034043Y0033161D01*
X0033161Y0034043D01*
X0032197Y0034835D01*
X0031159Y0035528D01*
X0030059Y0036117D01*
X0028906Y0036594D01*
X0027712Y0036956D01*
X0026488Y0037200D01*
X0025246Y0037322D01*
X0024822Y0037322D01*
X0024822Y0024822D01*
X0024822Y0024422D01*
X0024822Y0011922D01*
X0025246Y0011922D01*
X0026488Y0012044D01*
X0027712Y0012288D01*
X0028906Y0012650D01*
X0030059Y0013128D01*
X0031159Y0013716D01*
X0032197Y0014409D01*
X0033161Y0015201D01*
X0034043Y0016083D01*
X0034835Y0017048D01*
X0035528Y0018085D01*
X0036117Y0019186D01*
X0036594Y0020338D01*
X0036956Y0021532D01*
X0037200Y0022756D01*
X0037322Y0023998D01*
X0037322Y0024422D01*
X0024822Y0024422D01*
X0024422Y0024422D01*
X0024422Y0011922D01*
X0023998Y0011922D01*
X0022756Y0012044D01*
X0021532Y0012288D01*
X0020338Y0012650D01*
X0019186Y0013128D01*
X0018085Y0013716D01*
X0017048Y0014409D01*
X0016083Y0015201D01*
X0015201Y0016083D01*
X0014409Y0017048D01*
X0013716Y0018085D01*
X0013128Y0019186D01*
X0012650Y0020338D01*
X0012288Y0021532D01*
X0012044Y0022756D01*
X0011922Y0023998D01*
X0011922Y0024422D01*
X0024422Y0024422D01*
X0024422Y0024822D01*
X0011922Y0024822D01*
X0011922Y0025246D01*
X0012044Y0026488D01*
X0012288Y0027712D01*
X0012650Y0028906D01*
X0013128Y0030059D01*
X0013716Y0031159D01*
X0014409Y0032197D01*
X0015201Y0033161D01*
X0016083Y0034043D01*
X0017048Y0034835D01*
X0018085Y0035528D01*
X0019186Y0036117D01*
X0020338Y0036594D01*
X0021532Y0036956D01*
X0022756Y0037200D01*
X0023998Y0037322D01*
X0024422Y0037322D01*
X0024422Y0024822D01*
X0024822Y0024822D01*
X0024822Y0025213D02*
X0024422Y0025213D01*
X0024422Y0025611D02*
X0024822Y0025611D01*
X0024822Y0026010D02*
X0024422Y0026010D01*
X0024422Y0026409D02*
X0024822Y0026409D01*
X0024822Y0026807D02*
X0024422Y0026807D01*
X0024422Y0027206D02*
X0024822Y0027206D01*
X0024822Y0027604D02*
X0024422Y0027604D01*
X0024422Y0028003D02*
X0024822Y0028003D01*
X0024822Y0028401D02*
X0024422Y0028401D01*
X0024422Y0028800D02*
X0024822Y0028800D01*
X0024822Y0029198D02*
X0024422Y0029198D01*
X0024422Y0029597D02*
X0024822Y0029597D01*
X0024822Y0029995D02*
X0024422Y0029995D01*
X0024422Y0030394D02*
X0024822Y0030394D01*
X0024822Y0030792D02*
X0024422Y0030792D01*
X0024422Y0031191D02*
X0024822Y0031191D01*
X0024822Y0031589D02*
X0024422Y0031589D01*
X0024422Y0031988D02*
X0024822Y0031988D01*
X0024822Y0032386D02*
X0024422Y0032386D01*
X0024422Y0032785D02*
X0024822Y0032785D01*
X0024822Y0033183D02*
X0024422Y0033183D01*
X0024422Y0033582D02*
X0024822Y0033582D01*
X0024822Y0033980D02*
X0024422Y0033980D01*
X0024422Y0034379D02*
X0024822Y0034379D01*
X0024822Y0034777D02*
X0024422Y0034777D01*
X0024422Y0035176D02*
X0024822Y0035176D01*
X0024822Y0035574D02*
X0024422Y0035574D01*
X0024422Y0035973D02*
X0024822Y0035973D01*
X0024822Y0036371D02*
X0024422Y0036371D01*
X0024422Y0036770D02*
X0024822Y0036770D01*
X0024822Y0037168D02*
X0024422Y0037168D01*
X0022598Y0037168D02*
X0010074Y0037168D01*
X0010074Y0036770D02*
X0020918Y0036770D01*
X0019801Y0036371D02*
X0010074Y0036371D01*
X0010074Y0035973D02*
X0018917Y0035973D01*
X0018171Y0035574D02*
X0010074Y0035574D01*
X0010074Y0035176D02*
X0017557Y0035176D01*
X0016977Y0034777D02*
X0010074Y0034777D01*
X0010074Y0034379D02*
X0016491Y0034379D01*
X0016020Y0033980D02*
X0010074Y0033980D01*
X0010074Y0033582D02*
X0015621Y0033582D01*
X0015223Y0033183D02*
X0010074Y0033183D01*
X0010074Y0032785D02*
X0014892Y0032785D01*
X0014565Y0032386D02*
X0010074Y0032386D01*
X0010074Y0031988D02*
X0014269Y0031988D01*
X0014003Y0031589D02*
X0010074Y0031589D01*
X0010074Y0031191D02*
X0013737Y0031191D01*
X0013520Y0030792D02*
X0010074Y0030792D01*
X0010074Y0030394D02*
X0013307Y0030394D01*
X0013101Y0029995D02*
X0010074Y0029995D01*
X0010074Y0029597D02*
X0012936Y0029597D01*
X0012771Y0029198D02*
X0010074Y0029198D01*
X0010074Y0028800D02*
X0012618Y0028800D01*
X0012497Y0028401D02*
X0010074Y0028401D01*
X0010074Y0028003D02*
X0012376Y0028003D01*
X0012266Y0027604D02*
X0010074Y0027604D01*
X0010074Y0027206D02*
X0012187Y0027206D01*
X0012108Y0026807D02*
X0010074Y0026807D01*
X0010074Y0026409D02*
X0012037Y0026409D01*
X0011997Y0026010D02*
X0010074Y0026010D01*
X0010074Y0025611D02*
X0011958Y0025611D01*
X0011922Y0025213D02*
X0010074Y0025213D01*
X0010074Y0024814D02*
X0024422Y0024814D01*
X0024422Y0024416D02*
X0024822Y0024416D01*
X0024822Y0024017D02*
X0024422Y0024017D01*
X0024422Y0023619D02*
X0024822Y0023619D01*
X0024822Y0023220D02*
X0024422Y0023220D01*
X0024422Y0022822D02*
X0024822Y0022822D01*
X0024822Y0022423D02*
X0024422Y0022423D01*
X0024422Y0022025D02*
X0024822Y0022025D01*
X0024822Y0021626D02*
X0024422Y0021626D01*
X0024422Y0021228D02*
X0024822Y0021228D01*
X0024822Y0020829D02*
X0024422Y0020829D01*
X0024422Y0020431D02*
X0024822Y0020431D01*
X0024822Y0020032D02*
X0024422Y0020032D01*
X0024422Y0019634D02*
X0024822Y0019634D01*
X0024822Y0019235D02*
X0024422Y0019235D01*
X0024422Y0018837D02*
X0024822Y0018837D01*
X0024822Y0018438D02*
X0024422Y0018438D01*
X0024422Y0018040D02*
X0024822Y0018040D01*
X0024822Y0017641D02*
X0024422Y0017641D01*
X0024422Y0017243D02*
X0024822Y0017243D01*
X0024822Y0016844D02*
X0024422Y0016844D01*
X0024422Y0016446D02*
X0024822Y0016446D01*
X0024822Y0016047D02*
X0024422Y0016047D01*
X0024422Y0015649D02*
X0024822Y0015649D01*
X0024822Y0015250D02*
X0024422Y0015250D01*
X0024422Y0014852D02*
X0024822Y0014852D01*
X0024822Y0014453D02*
X0024422Y0014453D01*
X0024422Y0014055D02*
X0024822Y0014055D01*
X0024822Y0013656D02*
X0024422Y0013656D01*
X0024422Y0013258D02*
X0024822Y0013258D01*
X0024822Y0012859D02*
X0024422Y0012859D01*
X0024422Y0012461D02*
X0024822Y0012461D01*
X0024822Y0012062D02*
X0024422Y0012062D01*
X0022667Y0012062D02*
X0010074Y0012062D01*
X0010074Y0011664D02*
X0220272Y0011664D01*
X0220272Y0012062D02*
X0207679Y0012062D01*
X0209384Y0012461D02*
X0220272Y0012461D01*
X0220272Y0012859D02*
X0210513Y0012859D01*
X0211404Y0013258D02*
X0220272Y0013258D01*
X0220272Y0013656D02*
X0212150Y0013656D01*
X0212769Y0014055D02*
X0220272Y0014055D01*
X0220272Y0014453D02*
X0213353Y0014453D01*
X0213838Y0014852D02*
X0220272Y0014852D01*
X0220272Y0015250D02*
X0214313Y0015250D01*
X0214712Y0015649D02*
X0220272Y0015649D01*
X0220272Y0016047D02*
X0215110Y0016047D01*
X0215444Y0016446D02*
X0220272Y0016446D01*
X0220272Y0016844D02*
X0215771Y0016844D01*
X0216068Y0017243D02*
X0220272Y0017243D01*
X0220272Y0017641D02*
X0216334Y0017641D01*
X0216600Y0018040D02*
X0220272Y0018040D01*
X0220272Y0018438D02*
X0216819Y0018438D01*
X0217032Y0018837D02*
X0220272Y0018837D01*
X0220272Y0019235D02*
X0217240Y0019235D01*
X0217405Y0019634D02*
X0220272Y0019634D01*
X0220272Y0020032D02*
X0217570Y0020032D01*
X0217724Y0020431D02*
X0220272Y0020431D01*
X0220272Y0020829D02*
X0217845Y0020829D01*
X0217966Y0021228D02*
X0220272Y0021228D01*
X0220272Y0021626D02*
X0218077Y0021626D01*
X0218157Y0022025D02*
X0220272Y0022025D01*
X0220272Y0022423D02*
X0218236Y0022423D01*
X0218309Y0022822D02*
X0220272Y0022822D01*
X0220272Y0023220D02*
X0218348Y0023220D01*
X0218387Y0023619D02*
X0220272Y0023619D01*
X0220272Y0024017D02*
X0218424Y0024017D01*
X0218424Y0024416D02*
X0220272Y0024416D01*
X0220272Y0024814D02*
X0205924Y0024814D01*
X0205924Y0024416D02*
X0205524Y0024416D01*
X0205524Y0024017D02*
X0205924Y0024017D01*
X0205924Y0023619D02*
X0205524Y0023619D01*
X0205524Y0023220D02*
X0205924Y0023220D01*
X0205924Y0022822D02*
X0205524Y0022822D01*
X0205524Y0022423D02*
X0205924Y0022423D01*
X0205924Y0022025D02*
X0205524Y0022025D01*
X0205524Y0021626D02*
X0205924Y0021626D01*
X0205924Y0021228D02*
X0205524Y0021228D01*
X0205524Y0020829D02*
X0205924Y0020829D01*
X0205924Y0020431D02*
X0205524Y0020431D01*
X0205524Y0020032D02*
X0205924Y0020032D01*
X0205924Y0019634D02*
X0205524Y0019634D01*
X0205524Y0019235D02*
X0205924Y0019235D01*
X0205924Y0018837D02*
X0205524Y0018837D01*
X0205524Y0018438D02*
X0205924Y0018438D01*
X0205924Y0018040D02*
X0205524Y0018040D01*
X0205524Y0017641D02*
X0205924Y0017641D01*
X0205924Y0017243D02*
X0205524Y0017243D01*
X0205524Y0016844D02*
X0205924Y0016844D01*
X0205924Y0016446D02*
X0205524Y0016446D01*
X0205524Y0016047D02*
X0205924Y0016047D01*
X0205924Y0015649D02*
X0205524Y0015649D01*
X0205524Y0015250D02*
X0205924Y0015250D01*
X0205924Y0014852D02*
X0205524Y0014852D01*
X0205524Y0014453D02*
X0205924Y0014453D01*
X0205924Y0014055D02*
X0205524Y0014055D01*
X0205524Y0013656D02*
X0205924Y0013656D01*
X0205924Y0013258D02*
X0205524Y0013258D01*
X0205524Y0012859D02*
X0205924Y0012859D01*
X0205924Y0012461D02*
X0205524Y0012461D01*
X0205524Y0012062D02*
X0205924Y0012062D01*
X0203769Y0012062D02*
X0026577Y0012062D01*
X0028281Y0012461D02*
X0202065Y0012461D01*
X0200936Y0012859D02*
X0029411Y0012859D01*
X0030302Y0013258D02*
X0200044Y0013258D01*
X0199299Y0013656D02*
X0031047Y0013656D01*
X0031666Y0014055D02*
X0198680Y0014055D01*
X0198096Y0014453D02*
X0032250Y0014453D01*
X0032736Y0014852D02*
X0197610Y0014852D01*
X0197136Y0015250D02*
X0033211Y0015250D01*
X0033609Y0015649D02*
X0196737Y0015649D01*
X0196339Y0016047D02*
X0034008Y0016047D01*
X0034341Y0016446D02*
X0196005Y0016446D01*
X0195678Y0016844D02*
X0034668Y0016844D01*
X0034966Y0017243D02*
X0195381Y0017243D01*
X0195115Y0017641D02*
X0035232Y0017641D01*
X0035498Y0018040D02*
X0194848Y0018040D01*
X0194629Y0018438D02*
X0035717Y0018438D01*
X0035930Y0018837D02*
X0194416Y0018837D01*
X0194209Y0019235D02*
X0036137Y0019235D01*
X0036302Y0019634D02*
X0194044Y0019634D01*
X0193879Y0020032D02*
X0036467Y0020032D01*
X0036622Y0020431D02*
X0193724Y0020431D01*
X0193603Y0020829D02*
X0036743Y0020829D01*
X0036864Y0021228D02*
X0193483Y0021228D01*
X0193371Y0021626D02*
X0036975Y0021626D01*
X0037054Y0022025D02*
X0193292Y0022025D01*
X0193213Y0022423D02*
X0037134Y0022423D01*
X0037206Y0022822D02*
X0193140Y0022822D01*
X0193101Y0023220D02*
X0037245Y0023220D01*
X0037285Y0023619D02*
X0193062Y0023619D01*
X0193024Y0024017D02*
X0037322Y0024017D01*
X0037322Y0024416D02*
X0193024Y0024416D01*
X0193024Y0025213D02*
X0037322Y0025213D01*
X0037286Y0025611D02*
X0193060Y0025611D01*
X0193100Y0026010D02*
X0171361Y0026010D01*
X0171156Y0025943D02*
X0171859Y0026172D01*
X0172518Y0026508D01*
X0173117Y0026943D01*
X0173640Y0027466D01*
X0174075Y0028064D01*
X0174411Y0028723D01*
X0174639Y0029427D01*
X0174755Y0030158D01*
X0174755Y0030328D01*
X0170255Y0030328D01*
X0170255Y0030728D01*
X0169855Y0030728D01*
X0169855Y0035228D01*
X0169685Y0035228D01*
X0168955Y0035112D01*
X0168251Y0034883D01*
X0167592Y0034547D01*
X0166993Y0034113D01*
X0166470Y0033589D01*
X0166035Y0032991D01*
X0165699Y0032332D01*
X0165471Y0031628D01*
X0165355Y0030897D01*
X0165355Y0030728D01*
X0169855Y0030728D01*
X0169855Y0030328D01*
X0165355Y0030328D01*
X0165355Y0030158D01*
X0165471Y0029427D01*
X0165699Y0028723D01*
X0166035Y0028064D01*
X0166470Y0027466D01*
X0166993Y0026943D01*
X0167592Y0026508D01*
X0168251Y0026172D01*
X0168955Y0025943D01*
X0169685Y0025828D01*
X0169855Y0025828D01*
X0169855Y0030327D01*
X0170255Y0030327D01*
X0170255Y0025828D01*
X0170425Y0025828D01*
X0171156Y0025943D01*
X0170255Y0026010D02*
X0169855Y0026010D01*
X0169855Y0026409D02*
X0170255Y0026409D01*
X0170255Y0026807D02*
X0169855Y0026807D01*
X0169855Y0027206D02*
X0170255Y0027206D01*
X0170255Y0027604D02*
X0169855Y0027604D01*
X0169855Y0028003D02*
X0170255Y0028003D01*
X0170255Y0028401D02*
X0169855Y0028401D01*
X0169855Y0028800D02*
X0170255Y0028800D01*
X0170255Y0029198D02*
X0169855Y0029198D01*
X0169855Y0029597D02*
X0170255Y0029597D01*
X0170255Y0029995D02*
X0169855Y0029995D01*
X0169855Y0030394D02*
X0164355Y0030394D01*
X0164355Y0030792D02*
X0165355Y0030792D01*
X0165402Y0031191D02*
X0164355Y0031191D01*
X0164355Y0031383D02*
X0163700Y0032963D01*
X0162491Y0034173D01*
X0160910Y0034828D01*
X0159200Y0034828D01*
X0157619Y0034173D01*
X0156410Y0032963D01*
X0155755Y0031383D01*
X0155755Y0029672D01*
X0156410Y0028092D01*
X0157619Y0026882D01*
X0159200Y0026228D01*
X0160910Y0026228D01*
X0162491Y0026882D01*
X0163700Y0028092D01*
X0164355Y0029672D01*
X0164355Y0031383D01*
X0164270Y0031589D02*
X0165465Y0031589D01*
X0165588Y0031988D02*
X0164105Y0031988D01*
X0163940Y0032386D02*
X0165727Y0032386D01*
X0165930Y0032785D02*
X0163774Y0032785D01*
X0163481Y0033183D02*
X0166175Y0033183D01*
X0166465Y0033582D02*
X0163082Y0033582D01*
X0162684Y0033980D02*
X0166861Y0033980D01*
X0167360Y0034379D02*
X0161994Y0034379D01*
X0161032Y0034777D02*
X0168043Y0034777D01*
X0169358Y0035176D02*
X0150752Y0035176D01*
X0150425Y0035228D02*
X0150255Y0035228D01*
X0150255Y0030728D01*
X0149855Y0030728D01*
X0149855Y0035228D01*
X0149685Y0035228D01*
X0148955Y0035112D01*
X0148251Y0034883D01*
X0147592Y0034547D01*
X0146993Y0034113D01*
X0146470Y0033589D01*
X0146035Y0032991D01*
X0145699Y0032332D01*
X0145471Y0031628D01*
X0145355Y0030897D01*
X0145355Y0030728D01*
X0149855Y0030728D01*
X0149855Y0030328D01*
X0145355Y0030328D01*
X0145355Y0030158D01*
X0145471Y0029427D01*
X0145699Y0028723D01*
X0146035Y0028064D01*
X0146470Y0027466D01*
X0146993Y0026943D01*
X0147592Y0026508D01*
X0148251Y0026172D01*
X0148955Y0025943D01*
X0149685Y0025828D01*
X0149855Y0025828D01*
X0149855Y0030327D01*
X0150255Y0030327D01*
X0150255Y0025828D01*
X0150425Y0025828D01*
X0151156Y0025943D01*
X0151859Y0026172D01*
X0152518Y0026508D01*
X0153117Y0026943D01*
X0153640Y0027466D01*
X0154075Y0028064D01*
X0154411Y0028723D01*
X0154639Y0029427D01*
X0154755Y0030158D01*
X0154755Y0030328D01*
X0150255Y0030328D01*
X0150255Y0030728D01*
X0154755Y0030728D01*
X0154755Y0030897D01*
X0154639Y0031628D01*
X0154411Y0032332D01*
X0154075Y0032991D01*
X0153640Y0033589D01*
X0153117Y0034113D01*
X0152518Y0034547D01*
X0151859Y0034883D01*
X0151156Y0035112D01*
X0150425Y0035228D01*
X0150255Y0035176D02*
X0149855Y0035176D01*
X0149855Y0034777D02*
X0150255Y0034777D01*
X0150255Y0034379D02*
X0149855Y0034379D01*
X0149855Y0033980D02*
X0150255Y0033980D01*
X0150255Y0033582D02*
X0149855Y0033582D01*
X0149855Y0033183D02*
X0150255Y0033183D01*
X0150255Y0032785D02*
X0149855Y0032785D01*
X0149855Y0032386D02*
X0150255Y0032386D01*
X0150255Y0031988D02*
X0149855Y0031988D01*
X0149855Y0031589D02*
X0150255Y0031589D01*
X0150255Y0031191D02*
X0149855Y0031191D01*
X0149855Y0030792D02*
X0150255Y0030792D01*
X0150255Y0030394D02*
X0155755Y0030394D01*
X0155755Y0030792D02*
X0154755Y0030792D01*
X0154709Y0031191D02*
X0155755Y0031191D01*
X0155841Y0031589D02*
X0154646Y0031589D01*
X0154523Y0031988D02*
X0156006Y0031988D01*
X0156171Y0032386D02*
X0154383Y0032386D01*
X0154180Y0032785D02*
X0156336Y0032785D01*
X0156630Y0033183D02*
X0153935Y0033183D01*
X0153646Y0033582D02*
X0157028Y0033582D01*
X0157427Y0033980D02*
X0153249Y0033980D01*
X0152751Y0034379D02*
X0158116Y0034379D01*
X0159078Y0034777D02*
X0152067Y0034777D01*
X0149358Y0035176D02*
X0130752Y0035176D01*
X0130425Y0035228D02*
X0130255Y0035228D01*
X0130255Y0030728D01*
X0129855Y0030728D01*
X0129855Y0035228D01*
X0129685Y0035228D01*
X0128955Y0035112D01*
X0128251Y0034883D01*
X0127592Y0034547D01*
X0126993Y0034113D01*
X0126470Y0033589D01*
X0126035Y0032991D01*
X0125699Y0032332D01*
X0125471Y0031628D01*
X0125355Y0030897D01*
X0125355Y0030728D01*
X0129855Y0030728D01*
X0129855Y0030328D01*
X0125355Y0030328D01*
X0125355Y0030158D01*
X0125471Y0029427D01*
X0125699Y0028723D01*
X0126035Y0028064D01*
X0126470Y0027466D01*
X0126993Y0026943D01*
X0127592Y0026508D01*
X0128251Y0026172D01*
X0128955Y0025943D01*
X0129685Y0025828D01*
X0129855Y0025828D01*
X0129855Y0030327D01*
X0130255Y0030327D01*
X0130255Y0025828D01*
X0130425Y0025828D01*
X0131156Y0025943D01*
X0131859Y0026172D01*
X0132518Y0026508D01*
X0133117Y0026943D01*
X0133640Y0027466D01*
X0134075Y0028064D01*
X0134411Y0028723D01*
X0134639Y0029427D01*
X0134755Y0030158D01*
X0134755Y0030328D01*
X0130255Y0030328D01*
X0130255Y0030728D01*
X0134755Y0030728D01*
X0134755Y0030897D01*
X0134639Y0031628D01*
X0134411Y0032332D01*
X0134075Y0032991D01*
X0133640Y0033589D01*
X0133117Y0034113D01*
X0132518Y0034547D01*
X0131859Y0034883D01*
X0131156Y0035112D01*
X0130425Y0035228D01*
X0130255Y0035176D02*
X0129855Y0035176D01*
X0129855Y0034777D02*
X0130255Y0034777D01*
X0130255Y0034379D02*
X0129855Y0034379D01*
X0129855Y0033980D02*
X0130255Y0033980D01*
X0130255Y0033582D02*
X0129855Y0033582D01*
X0129855Y0033183D02*
X0130255Y0033183D01*
X0130255Y0032785D02*
X0129855Y0032785D01*
X0129855Y0032386D02*
X0130255Y0032386D01*
X0130255Y0031988D02*
X0129855Y0031988D01*
X0129855Y0031589D02*
X0130255Y0031589D01*
X0130255Y0031191D02*
X0129855Y0031191D01*
X0129855Y0030792D02*
X0130255Y0030792D01*
X0130255Y0030394D02*
X0135755Y0030394D01*
X0135755Y0030792D02*
X0134755Y0030792D01*
X0134709Y0031191D02*
X0135755Y0031191D01*
X0135755Y0031383D02*
X0135755Y0029672D01*
X0136410Y0028092D01*
X0137619Y0026882D01*
X0139200Y0026228D01*
X0140910Y0026228D01*
X0142491Y0026882D01*
X0143700Y0028092D01*
X0144355Y0029672D01*
X0144355Y0031383D01*
X0143700Y0032963D01*
X0142491Y0034173D01*
X0140910Y0034828D01*
X0139200Y0034828D01*
X0137619Y0034173D01*
X0136410Y0032963D01*
X0135755Y0031383D01*
X0135841Y0031589D02*
X0134646Y0031589D01*
X0134523Y0031988D02*
X0136006Y0031988D01*
X0136171Y0032386D02*
X0134383Y0032386D01*
X0134180Y0032785D02*
X0136336Y0032785D01*
X0136630Y0033183D02*
X0133935Y0033183D01*
X0133646Y0033582D02*
X0137028Y0033582D01*
X0137427Y0033980D02*
X0133249Y0033980D01*
X0132751Y0034379D02*
X0138116Y0034379D01*
X0139078Y0034777D02*
X0132067Y0034777D01*
X0129358Y0035176D02*
X0110752Y0035176D01*
X0110425Y0035228D02*
X0111156Y0035112D01*
X0111859Y0034883D01*
X0112518Y0034547D01*
X0113117Y0034113D01*
X0113640Y0033589D01*
X0114075Y0032991D01*
X0114411Y0032332D01*
X0114639Y0031628D01*
X0114755Y0030897D01*
X0114755Y0030728D01*
X0110255Y0030728D01*
X0109855Y0030728D01*
X0109855Y0035228D01*
X0109685Y0035228D01*
X0108955Y0035112D01*
X0108251Y0034883D01*
X0107592Y0034547D01*
X0106993Y0034113D01*
X0106470Y0033589D01*
X0106035Y0032991D01*
X0105699Y0032332D01*
X0105471Y0031628D01*
X0105355Y0030897D01*
X0105355Y0030728D01*
X0109855Y0030728D01*
X0109855Y0030328D01*
X0105355Y0030328D01*
X0105355Y0030158D01*
X0105471Y0029427D01*
X0105699Y0028723D01*
X0106035Y0028064D01*
X0106470Y0027466D01*
X0106993Y0026943D01*
X0107592Y0026508D01*
X0108251Y0026172D01*
X0108955Y0025943D01*
X0109685Y0025828D01*
X0109855Y0025828D01*
X0109855Y0030327D01*
X0110255Y0030327D01*
X0110255Y0025828D01*
X0110425Y0025828D01*
X0111156Y0025943D01*
X0111859Y0026172D01*
X0112518Y0026508D01*
X0113117Y0026943D01*
X0113640Y0027466D01*
X0114075Y0028064D01*
X0114411Y0028723D01*
X0114639Y0029427D01*
X0114755Y0030158D01*
X0114755Y0030328D01*
X0110255Y0030328D01*
X0110255Y0030728D01*
X0110255Y0035228D01*
X0110425Y0035228D01*
X0110255Y0035176D02*
X0109855Y0035176D01*
X0109855Y0034777D02*
X0110255Y0034777D01*
X0110255Y0034379D02*
X0109855Y0034379D01*
X0109855Y0033980D02*
X0110255Y0033980D01*
X0110255Y0033582D02*
X0109855Y0033582D01*
X0109855Y0033183D02*
X0110255Y0033183D01*
X0110255Y0032785D02*
X0109855Y0032785D01*
X0109855Y0032386D02*
X0110255Y0032386D01*
X0110255Y0031988D02*
X0109855Y0031988D01*
X0109855Y0031589D02*
X0110255Y0031589D01*
X0110255Y0031191D02*
X0109855Y0031191D01*
X0109855Y0030792D02*
X0110255Y0030792D01*
X0110255Y0030394D02*
X0115755Y0030394D01*
X0115755Y0030792D02*
X0114755Y0030792D01*
X0114709Y0031191D02*
X0115755Y0031191D01*
X0115755Y0031383D02*
X0115755Y0029672D01*
X0116410Y0028092D01*
X0117619Y0026882D01*
X0119200Y0026228D01*
X0120910Y0026228D01*
X0122491Y0026882D01*
X0123700Y0028092D01*
X0124355Y0029672D01*
X0124355Y0031383D01*
X0123700Y0032963D01*
X0122491Y0034173D01*
X0120910Y0034828D01*
X0119200Y0034828D01*
X0117619Y0034173D01*
X0116410Y0032963D01*
X0115755Y0031383D01*
X0115841Y0031589D02*
X0114646Y0031589D01*
X0114523Y0031988D02*
X0116006Y0031988D01*
X0116171Y0032386D02*
X0114383Y0032386D01*
X0114180Y0032785D02*
X0116336Y0032785D01*
X0116630Y0033183D02*
X0113935Y0033183D01*
X0113646Y0033582D02*
X0117028Y0033582D01*
X0117427Y0033980D02*
X0113249Y0033980D01*
X0112751Y0034379D02*
X0118116Y0034379D01*
X0119078Y0034777D02*
X0112067Y0034777D01*
X0109358Y0035176D02*
X0090752Y0035176D01*
X0090425Y0035228D02*
X0090255Y0035228D01*
X0090255Y0030728D01*
X0089855Y0030728D01*
X0089855Y0035228D01*
X0089685Y0035228D01*
X0088955Y0035112D01*
X0088251Y0034883D01*
X0087592Y0034547D01*
X0086993Y0034113D01*
X0086470Y0033589D01*
X0086035Y0032991D01*
X0085699Y0032332D01*
X0085471Y0031628D01*
X0085355Y0030897D01*
X0085355Y0030728D01*
X0089855Y0030728D01*
X0089855Y0030328D01*
X0085355Y0030328D01*
X0085355Y0030158D01*
X0085471Y0029427D01*
X0085699Y0028723D01*
X0086035Y0028064D01*
X0086470Y0027466D01*
X0086993Y0026943D01*
X0087592Y0026508D01*
X0088251Y0026172D01*
X0088955Y0025943D01*
X0089685Y0025828D01*
X0089855Y0025828D01*
X0089855Y0030327D01*
X0090255Y0030327D01*
X0090255Y0025828D01*
X0090425Y0025828D01*
X0091156Y0025943D01*
X0091859Y0026172D01*
X0092518Y0026508D01*
X0093117Y0026943D01*
X0093640Y0027466D01*
X0094075Y0028064D01*
X0094411Y0028723D01*
X0094639Y0029427D01*
X0094755Y0030158D01*
X0094755Y0030328D01*
X0090255Y0030328D01*
X0090255Y0030728D01*
X0094755Y0030728D01*
X0094755Y0030897D01*
X0094639Y0031628D01*
X0094411Y0032332D01*
X0094075Y0032991D01*
X0093640Y0033589D01*
X0093117Y0034113D01*
X0092518Y0034547D01*
X0091859Y0034883D01*
X0091156Y0035112D01*
X0090425Y0035228D01*
X0090255Y0035176D02*
X0089855Y0035176D01*
X0089855Y0034777D02*
X0090255Y0034777D01*
X0090255Y0034379D02*
X0089855Y0034379D01*
X0089855Y0033980D02*
X0090255Y0033980D01*
X0090255Y0033582D02*
X0089855Y0033582D01*
X0089855Y0033183D02*
X0090255Y0033183D01*
X0090255Y0032785D02*
X0089855Y0032785D01*
X0089855Y0032386D02*
X0090255Y0032386D01*
X0090255Y0031988D02*
X0089855Y0031988D01*
X0089855Y0031589D02*
X0090255Y0031589D01*
X0090255Y0031191D02*
X0089855Y0031191D01*
X0089855Y0030792D02*
X0090255Y0030792D01*
X0090255Y0030394D02*
X0095755Y0030394D01*
X0095755Y0030792D02*
X0094755Y0030792D01*
X0094709Y0031191D02*
X0095755Y0031191D01*
X0095755Y0031383D02*
X0095755Y0029672D01*
X0096410Y0028092D01*
X0097619Y0026882D01*
X0099200Y0026228D01*
X0100910Y0026228D01*
X0102491Y0026882D01*
X0103700Y0028092D01*
X0104355Y0029672D01*
X0104355Y0031383D01*
X0103700Y0032963D01*
X0102491Y0034173D01*
X0100910Y0034828D01*
X0099200Y0034828D01*
X0097619Y0034173D01*
X0096410Y0032963D01*
X0095755Y0031383D01*
X0095841Y0031589D02*
X0094646Y0031589D01*
X0094523Y0031988D02*
X0096006Y0031988D01*
X0096171Y0032386D02*
X0094383Y0032386D01*
X0094180Y0032785D02*
X0096336Y0032785D01*
X0096630Y0033183D02*
X0093935Y0033183D01*
X0093646Y0033582D02*
X0097028Y0033582D01*
X0097427Y0033980D02*
X0093249Y0033980D01*
X0092751Y0034379D02*
X0098116Y0034379D01*
X0099078Y0034777D02*
X0092067Y0034777D01*
X0089358Y0035176D02*
X0070752Y0035176D01*
X0070425Y0035228D02*
X0070255Y0035228D01*
X0070255Y0030728D01*
X0069855Y0030728D01*
X0069855Y0035228D01*
X0069685Y0035228D01*
X0068955Y0035112D01*
X0068251Y0034883D01*
X0067592Y0034547D01*
X0066993Y0034113D01*
X0066470Y0033589D01*
X0066035Y0032991D01*
X0065699Y0032332D01*
X0065471Y0031628D01*
X0065355Y0030897D01*
X0065355Y0030728D01*
X0069855Y0030728D01*
X0069855Y0030328D01*
X0065355Y0030328D01*
X0065355Y0030158D01*
X0065471Y0029427D01*
X0065699Y0028723D01*
X0066035Y0028064D01*
X0066470Y0027466D01*
X0066993Y0026943D01*
X0067592Y0026508D01*
X0068251Y0026172D01*
X0068955Y0025943D01*
X0069685Y0025828D01*
X0069855Y0025828D01*
X0069855Y0030327D01*
X0070255Y0030327D01*
X0070255Y0025828D01*
X0070425Y0025828D01*
X0071156Y0025943D01*
X0071859Y0026172D01*
X0072518Y0026508D01*
X0073117Y0026943D01*
X0073640Y0027466D01*
X0074075Y0028064D01*
X0074411Y0028723D01*
X0074639Y0029427D01*
X0074755Y0030158D01*
X0074755Y0030328D01*
X0070255Y0030328D01*
X0070255Y0030728D01*
X0074755Y0030728D01*
X0074755Y0030897D01*
X0074639Y0031628D01*
X0074411Y0032332D01*
X0074075Y0032991D01*
X0073640Y0033589D01*
X0073117Y0034113D01*
X0072518Y0034547D01*
X0071859Y0034883D01*
X0071156Y0035112D01*
X0070425Y0035228D01*
X0070255Y0035176D02*
X0069855Y0035176D01*
X0069855Y0034777D02*
X0070255Y0034777D01*
X0070255Y0034379D02*
X0069855Y0034379D01*
X0069855Y0033980D02*
X0070255Y0033980D01*
X0070255Y0033582D02*
X0069855Y0033582D01*
X0069855Y0033183D02*
X0070255Y0033183D01*
X0070255Y0032785D02*
X0069855Y0032785D01*
X0069855Y0032386D02*
X0070255Y0032386D01*
X0070255Y0031988D02*
X0069855Y0031988D01*
X0069855Y0031589D02*
X0070255Y0031589D01*
X0070255Y0031191D02*
X0069855Y0031191D01*
X0069855Y0030792D02*
X0070255Y0030792D01*
X0070255Y0030394D02*
X0075755Y0030394D01*
X0075755Y0030792D02*
X0074755Y0030792D01*
X0074709Y0031191D02*
X0075755Y0031191D01*
X0075755Y0031383D02*
X0075755Y0029672D01*
X0076410Y0028092D01*
X0077619Y0026882D01*
X0079200Y0026228D01*
X0080910Y0026228D01*
X0082491Y0026882D01*
X0083700Y0028092D01*
X0084355Y0029672D01*
X0084355Y0031383D01*
X0083700Y0032963D01*
X0082491Y0034173D01*
X0080910Y0034828D01*
X0079200Y0034828D01*
X0077619Y0034173D01*
X0076410Y0032963D01*
X0075755Y0031383D01*
X0075841Y0031589D02*
X0074646Y0031589D01*
X0074523Y0031988D02*
X0076006Y0031988D01*
X0076171Y0032386D02*
X0074383Y0032386D01*
X0074180Y0032785D02*
X0076336Y0032785D01*
X0076630Y0033183D02*
X0073935Y0033183D01*
X0073646Y0033582D02*
X0077028Y0033582D01*
X0077427Y0033980D02*
X0073249Y0033980D01*
X0072751Y0034379D02*
X0078116Y0034379D01*
X0079078Y0034777D02*
X0072067Y0034777D01*
X0069358Y0035176D02*
X0031687Y0035176D01*
X0032267Y0034777D02*
X0059078Y0034777D01*
X0059200Y0034828D02*
X0057619Y0034173D01*
X0056410Y0032963D01*
X0055755Y0031383D01*
X0055755Y0029672D01*
X0056410Y0028092D01*
X0057619Y0026882D01*
X0059200Y0026228D01*
X0060910Y0026228D01*
X0062491Y0026882D01*
X0063700Y0028092D01*
X0064355Y0029672D01*
X0064355Y0031383D01*
X0063700Y0032963D01*
X0062491Y0034173D01*
X0060910Y0034828D01*
X0059200Y0034828D01*
X0058116Y0034379D02*
X0032753Y0034379D01*
X0033224Y0033980D02*
X0057427Y0033980D01*
X0057028Y0033582D02*
X0033623Y0033582D01*
X0034021Y0033183D02*
X0056630Y0033183D01*
X0056336Y0032785D02*
X0034352Y0032785D01*
X0034679Y0032386D02*
X0056171Y0032386D01*
X0056006Y0031988D02*
X0034975Y0031988D01*
X0035241Y0031589D02*
X0055841Y0031589D01*
X0055755Y0031191D02*
X0035507Y0031191D01*
X0035724Y0030792D02*
X0055755Y0030792D01*
X0055755Y0030394D02*
X0035937Y0030394D01*
X0036143Y0029995D02*
X0055755Y0029995D01*
X0055786Y0029597D02*
X0036308Y0029597D01*
X0036473Y0029198D02*
X0055952Y0029198D01*
X0056117Y0028800D02*
X0036626Y0028800D01*
X0036747Y0028401D02*
X0056282Y0028401D01*
X0056499Y0028003D02*
X0036868Y0028003D01*
X0036978Y0027604D02*
X0056898Y0027604D01*
X0057296Y0027206D02*
X0037057Y0027206D01*
X0037136Y0026807D02*
X0057801Y0026807D01*
X0058763Y0026409D02*
X0037208Y0026409D01*
X0037247Y0026010D02*
X0068749Y0026010D01*
X0067787Y0026409D02*
X0061347Y0026409D01*
X0062309Y0026807D02*
X0067180Y0026807D01*
X0066730Y0027206D02*
X0062814Y0027206D01*
X0063213Y0027604D02*
X0066370Y0027604D01*
X0066080Y0028003D02*
X0063611Y0028003D01*
X0063829Y0028401D02*
X0065864Y0028401D01*
X0065675Y0028800D02*
X0063994Y0028800D01*
X0064159Y0029198D02*
X0065545Y0029198D01*
X0065444Y0029597D02*
X0064324Y0029597D01*
X0064355Y0029995D02*
X0065381Y0029995D01*
X0065355Y0030792D02*
X0064355Y0030792D01*
X0064355Y0030394D02*
X0069855Y0030394D01*
X0069855Y0029995D02*
X0070255Y0029995D01*
X0070255Y0029597D02*
X0069855Y0029597D01*
X0069855Y0029198D02*
X0070255Y0029198D01*
X0070255Y0028800D02*
X0069855Y0028800D01*
X0069855Y0028401D02*
X0070255Y0028401D01*
X0070255Y0028003D02*
X0069855Y0028003D01*
X0069855Y0027604D02*
X0070255Y0027604D01*
X0070255Y0027206D02*
X0069855Y0027206D01*
X0069855Y0026807D02*
X0070255Y0026807D01*
X0070255Y0026409D02*
X0069855Y0026409D01*
X0069855Y0026010D02*
X0070255Y0026010D01*
X0071361Y0026010D02*
X0088749Y0026010D01*
X0087787Y0026409D02*
X0081347Y0026409D01*
X0082309Y0026807D02*
X0087180Y0026807D01*
X0086730Y0027206D02*
X0082814Y0027206D01*
X0083213Y0027604D02*
X0086370Y0027604D01*
X0086080Y0028003D02*
X0083611Y0028003D01*
X0083829Y0028401D02*
X0085864Y0028401D01*
X0085675Y0028800D02*
X0083994Y0028800D01*
X0084159Y0029198D02*
X0085545Y0029198D01*
X0085444Y0029597D02*
X0084324Y0029597D01*
X0084355Y0029995D02*
X0085381Y0029995D01*
X0085355Y0030792D02*
X0084355Y0030792D01*
X0084355Y0030394D02*
X0089855Y0030394D01*
X0089855Y0029995D02*
X0090255Y0029995D01*
X0090255Y0029597D02*
X0089855Y0029597D01*
X0089855Y0029198D02*
X0090255Y0029198D01*
X0090255Y0028800D02*
X0089855Y0028800D01*
X0089855Y0028401D02*
X0090255Y0028401D01*
X0090255Y0028003D02*
X0089855Y0028003D01*
X0089855Y0027604D02*
X0090255Y0027604D01*
X0090255Y0027206D02*
X0089855Y0027206D01*
X0089855Y0026807D02*
X0090255Y0026807D01*
X0090255Y0026409D02*
X0089855Y0026409D01*
X0089855Y0026010D02*
X0090255Y0026010D01*
X0091361Y0026010D02*
X0108749Y0026010D01*
X0107787Y0026409D02*
X0101347Y0026409D01*
X0102309Y0026807D02*
X0107180Y0026807D01*
X0106730Y0027206D02*
X0102814Y0027206D01*
X0103213Y0027604D02*
X0106370Y0027604D01*
X0106080Y0028003D02*
X0103611Y0028003D01*
X0103829Y0028401D02*
X0105864Y0028401D01*
X0105675Y0028800D02*
X0103994Y0028800D01*
X0104159Y0029198D02*
X0105545Y0029198D01*
X0105444Y0029597D02*
X0104324Y0029597D01*
X0104355Y0029995D02*
X0105381Y0029995D01*
X0105355Y0030792D02*
X0104355Y0030792D01*
X0104355Y0030394D02*
X0109855Y0030394D01*
X0109855Y0029995D02*
X0110255Y0029995D01*
X0110255Y0029597D02*
X0109855Y0029597D01*
X0109855Y0029198D02*
X0110255Y0029198D01*
X0110255Y0028800D02*
X0109855Y0028800D01*
X0109855Y0028401D02*
X0110255Y0028401D01*
X0110255Y0028003D02*
X0109855Y0028003D01*
X0109855Y0027604D02*
X0110255Y0027604D01*
X0110255Y0027206D02*
X0109855Y0027206D01*
X0109855Y0026807D02*
X0110255Y0026807D01*
X0110255Y0026409D02*
X0109855Y0026409D01*
X0109855Y0026010D02*
X0110255Y0026010D01*
X0111361Y0026010D02*
X0128749Y0026010D01*
X0127787Y0026409D02*
X0121347Y0026409D01*
X0122309Y0026807D02*
X0127180Y0026807D01*
X0126730Y0027206D02*
X0122814Y0027206D01*
X0123213Y0027604D02*
X0126370Y0027604D01*
X0126080Y0028003D02*
X0123611Y0028003D01*
X0123829Y0028401D02*
X0125864Y0028401D01*
X0125675Y0028800D02*
X0123994Y0028800D01*
X0124159Y0029198D02*
X0125545Y0029198D01*
X0125444Y0029597D02*
X0124324Y0029597D01*
X0124355Y0029995D02*
X0125381Y0029995D01*
X0125355Y0030792D02*
X0124355Y0030792D01*
X0124355Y0030394D02*
X0129855Y0030394D01*
X0129855Y0029995D02*
X0130255Y0029995D01*
X0130255Y0029597D02*
X0129855Y0029597D01*
X0129855Y0029198D02*
X0130255Y0029198D01*
X0130255Y0028800D02*
X0129855Y0028800D01*
X0129855Y0028401D02*
X0130255Y0028401D01*
X0130255Y0028003D02*
X0129855Y0028003D01*
X0129855Y0027604D02*
X0130255Y0027604D01*
X0130255Y0027206D02*
X0129855Y0027206D01*
X0129855Y0026807D02*
X0130255Y0026807D01*
X0130255Y0026409D02*
X0129855Y0026409D01*
X0129855Y0026010D02*
X0130255Y0026010D01*
X0131361Y0026010D02*
X0148749Y0026010D01*
X0147787Y0026409D02*
X0141347Y0026409D01*
X0142309Y0026807D02*
X0147180Y0026807D01*
X0146730Y0027206D02*
X0142814Y0027206D01*
X0143213Y0027604D02*
X0146370Y0027604D01*
X0146080Y0028003D02*
X0143611Y0028003D01*
X0143829Y0028401D02*
X0145864Y0028401D01*
X0145675Y0028800D02*
X0143994Y0028800D01*
X0144159Y0029198D02*
X0145545Y0029198D01*
X0145444Y0029597D02*
X0144324Y0029597D01*
X0144355Y0029995D02*
X0145381Y0029995D01*
X0145355Y0030792D02*
X0144355Y0030792D01*
X0144355Y0030394D02*
X0149855Y0030394D01*
X0149855Y0029995D02*
X0150255Y0029995D01*
X0150255Y0029597D02*
X0149855Y0029597D01*
X0149855Y0029198D02*
X0150255Y0029198D01*
X0150255Y0028800D02*
X0149855Y0028800D01*
X0149855Y0028401D02*
X0150255Y0028401D01*
X0150255Y0028003D02*
X0149855Y0028003D01*
X0149855Y0027604D02*
X0150255Y0027604D01*
X0150255Y0027206D02*
X0149855Y0027206D01*
X0149855Y0026807D02*
X0150255Y0026807D01*
X0150255Y0026409D02*
X0149855Y0026409D01*
X0149855Y0026010D02*
X0150255Y0026010D01*
X0151361Y0026010D02*
X0168749Y0026010D01*
X0167787Y0026409D02*
X0161347Y0026409D01*
X0162309Y0026807D02*
X0167180Y0026807D01*
X0166730Y0027206D02*
X0162814Y0027206D01*
X0163213Y0027604D02*
X0166370Y0027604D01*
X0166080Y0028003D02*
X0163611Y0028003D01*
X0163829Y0028401D02*
X0165864Y0028401D01*
X0165675Y0028800D02*
X0163994Y0028800D01*
X0164159Y0029198D02*
X0165545Y0029198D01*
X0165444Y0029597D02*
X0164324Y0029597D01*
X0164355Y0029995D02*
X0165381Y0029995D01*
X0169855Y0030792D02*
X0170255Y0030792D01*
X0170255Y0030728D02*
X0170255Y0035228D01*
X0170425Y0035228D01*
X0171156Y0035112D01*
X0171859Y0034883D01*
X0172518Y0034547D01*
X0173117Y0034113D01*
X0173640Y0033589D01*
X0174075Y0032991D01*
X0174411Y0032332D01*
X0174639Y0031628D01*
X0174755Y0030897D01*
X0174755Y0030728D01*
X0170255Y0030728D01*
X0170255Y0030394D02*
X0194409Y0030394D01*
X0194204Y0029995D02*
X0174729Y0029995D01*
X0174666Y0029597D02*
X0194039Y0029597D01*
X0193873Y0029198D02*
X0174565Y0029198D01*
X0174436Y0028800D02*
X0193720Y0028800D01*
X0193599Y0028401D02*
X0174247Y0028401D01*
X0174030Y0028003D02*
X0193478Y0028003D01*
X0193369Y0027604D02*
X0173741Y0027604D01*
X0173380Y0027206D02*
X0193289Y0027206D01*
X0193210Y0026807D02*
X0172930Y0026807D01*
X0172324Y0026409D02*
X0193139Y0026409D01*
X0194622Y0030792D02*
X0174755Y0030792D01*
X0174709Y0031191D02*
X0194839Y0031191D01*
X0195106Y0031589D02*
X0174646Y0031589D01*
X0174523Y0031988D02*
X0195372Y0031988D01*
X0195667Y0032386D02*
X0174383Y0032386D01*
X0174180Y0032785D02*
X0195994Y0032785D01*
X0196325Y0033183D02*
X0173935Y0033183D01*
X0173646Y0033582D02*
X0196724Y0033582D01*
X0197122Y0033980D02*
X0173249Y0033980D01*
X0172751Y0034379D02*
X0197594Y0034379D01*
X0198079Y0034777D02*
X0172067Y0034777D01*
X0170752Y0035176D02*
X0198660Y0035176D01*
X0199273Y0035574D02*
X0031073Y0035574D01*
X0030327Y0035973D02*
X0200019Y0035973D01*
X0200903Y0036371D02*
X0029444Y0036371D01*
X0028326Y0036770D02*
X0202020Y0036770D01*
X0203701Y0037168D02*
X0026646Y0037168D01*
X0011922Y0024416D02*
X0010074Y0024416D01*
X0010074Y0024017D02*
X0011922Y0024017D01*
X0011959Y0023619D02*
X0010074Y0023619D01*
X0010074Y0023220D02*
X0011999Y0023220D01*
X0012038Y0022822D02*
X0010074Y0022822D01*
X0010074Y0022423D02*
X0012111Y0022423D01*
X0012190Y0022025D02*
X0010074Y0022025D01*
X0010074Y0021626D02*
X0012269Y0021626D01*
X0012380Y0021228D02*
X0010074Y0021228D01*
X0010074Y0020829D02*
X0012501Y0020829D01*
X0012622Y0020431D02*
X0010074Y0020431D01*
X0010074Y0020032D02*
X0012777Y0020032D01*
X0012942Y0019634D02*
X0010074Y0019634D01*
X0010074Y0019235D02*
X0013107Y0019235D01*
X0013314Y0018837D02*
X0010074Y0018837D01*
X0010074Y0018438D02*
X0013527Y0018438D01*
X0013746Y0018040D02*
X0010074Y0018040D01*
X0010074Y0017641D02*
X0014012Y0017641D01*
X0014279Y0017243D02*
X0010074Y0017243D01*
X0010074Y0016844D02*
X0014576Y0016844D01*
X0014903Y0016446D02*
X0010074Y0016446D01*
X0010074Y0016047D02*
X0015236Y0016047D01*
X0015635Y0015649D02*
X0010074Y0015649D01*
X0010074Y0015250D02*
X0016033Y0015250D01*
X0016508Y0014852D02*
X0010074Y0014852D01*
X0010074Y0014453D02*
X0016994Y0014453D01*
X0017578Y0014055D02*
X0010074Y0014055D01*
X0010074Y0013656D02*
X0018197Y0013656D01*
X0018942Y0013258D02*
X0010074Y0013258D01*
X0010074Y0012859D02*
X0019834Y0012859D01*
X0020963Y0012461D02*
X0010074Y0012461D01*
X0010074Y0011265D02*
X0220272Y0011265D01*
X0220272Y0010867D02*
X0010074Y0010867D01*
X0010074Y0010468D02*
X0220272Y0010468D01*
X0220272Y0025213D02*
X0218424Y0025213D01*
X0218388Y0025611D02*
X0220272Y0025611D01*
X0220272Y0026010D02*
X0218349Y0026010D01*
X0218310Y0026409D02*
X0220272Y0026409D01*
X0220272Y0026807D02*
X0218239Y0026807D01*
X0218159Y0027206D02*
X0220272Y0027206D01*
X0220272Y0027604D02*
X0218080Y0027604D01*
X0217970Y0028003D02*
X0220272Y0028003D01*
X0220272Y0028401D02*
X0217850Y0028401D01*
X0217729Y0028800D02*
X0220272Y0028800D01*
X0220272Y0029198D02*
X0217575Y0029198D01*
X0217410Y0029597D02*
X0220272Y0029597D01*
X0220272Y0029995D02*
X0217245Y0029995D01*
X0217040Y0030394D02*
X0220272Y0030394D01*
X0220272Y0030792D02*
X0216827Y0030792D01*
X0216610Y0031191D02*
X0220272Y0031191D01*
X0220272Y0031589D02*
X0216343Y0031589D01*
X0216077Y0031988D02*
X0220272Y0031988D01*
X0220272Y0032386D02*
X0215782Y0032386D01*
X0215455Y0032785D02*
X0220272Y0032785D01*
X0220272Y0033183D02*
X0215124Y0033183D01*
X0214725Y0033582D02*
X0220272Y0033582D01*
X0220272Y0033980D02*
X0214327Y0033980D01*
X0213855Y0034379D02*
X0220272Y0034379D01*
X0220272Y0034777D02*
X0213369Y0034777D01*
X0212789Y0035176D02*
X0220272Y0035176D01*
X0220272Y0035574D02*
X0212175Y0035574D01*
X0211430Y0035973D02*
X0220272Y0035973D01*
X0220272Y0036371D02*
X0210546Y0036371D01*
X0209429Y0036770D02*
X0220272Y0036770D01*
X0170255Y0035176D02*
X0169855Y0035176D01*
X0169855Y0034777D02*
X0170255Y0034777D01*
X0170255Y0034379D02*
X0169855Y0034379D01*
X0169855Y0033980D02*
X0170255Y0033980D01*
X0170255Y0033582D02*
X0169855Y0033582D01*
X0169855Y0033183D02*
X0170255Y0033183D01*
X0170255Y0032785D02*
X0169855Y0032785D01*
X0169855Y0032386D02*
X0170255Y0032386D01*
X0170255Y0031988D02*
X0169855Y0031988D01*
X0169855Y0031589D02*
X0170255Y0031589D01*
X0170255Y0031191D02*
X0169855Y0031191D01*
X0158763Y0026409D02*
X0152324Y0026409D01*
X0152930Y0026807D02*
X0157801Y0026807D01*
X0157296Y0027206D02*
X0153380Y0027206D01*
X0153741Y0027604D02*
X0156898Y0027604D01*
X0156499Y0028003D02*
X0154030Y0028003D01*
X0154247Y0028401D02*
X0156282Y0028401D01*
X0156117Y0028800D02*
X0154436Y0028800D01*
X0154565Y0029198D02*
X0155952Y0029198D01*
X0155786Y0029597D02*
X0154666Y0029597D01*
X0154729Y0029995D02*
X0155755Y0029995D01*
X0148043Y0034777D02*
X0141032Y0034777D01*
X0141994Y0034379D02*
X0147360Y0034379D01*
X0146861Y0033980D02*
X0142684Y0033980D01*
X0143082Y0033582D02*
X0146465Y0033582D01*
X0146175Y0033183D02*
X0143481Y0033183D01*
X0143774Y0032785D02*
X0145930Y0032785D01*
X0145727Y0032386D02*
X0143940Y0032386D01*
X0144105Y0031988D02*
X0145588Y0031988D01*
X0145465Y0031589D02*
X0144270Y0031589D01*
X0144355Y0031191D02*
X0145402Y0031191D01*
X0138763Y0026409D02*
X0132324Y0026409D01*
X0132930Y0026807D02*
X0137801Y0026807D01*
X0137296Y0027206D02*
X0133380Y0027206D01*
X0133741Y0027604D02*
X0136898Y0027604D01*
X0136499Y0028003D02*
X0134030Y0028003D01*
X0134247Y0028401D02*
X0136282Y0028401D01*
X0136117Y0028800D02*
X0134436Y0028800D01*
X0134565Y0029198D02*
X0135952Y0029198D01*
X0135786Y0029597D02*
X0134666Y0029597D01*
X0134729Y0029995D02*
X0135755Y0029995D01*
X0128043Y0034777D02*
X0121032Y0034777D01*
X0121994Y0034379D02*
X0127360Y0034379D01*
X0126861Y0033980D02*
X0122684Y0033980D01*
X0123082Y0033582D02*
X0126465Y0033582D01*
X0126175Y0033183D02*
X0123481Y0033183D01*
X0123774Y0032785D02*
X0125930Y0032785D01*
X0125727Y0032386D02*
X0123940Y0032386D01*
X0124105Y0031988D02*
X0125588Y0031988D01*
X0125465Y0031589D02*
X0124270Y0031589D01*
X0124355Y0031191D02*
X0125402Y0031191D01*
X0118763Y0026409D02*
X0112324Y0026409D01*
X0112930Y0026807D02*
X0117801Y0026807D01*
X0117296Y0027206D02*
X0113380Y0027206D01*
X0113741Y0027604D02*
X0116898Y0027604D01*
X0116499Y0028003D02*
X0114030Y0028003D01*
X0114247Y0028401D02*
X0116282Y0028401D01*
X0116117Y0028800D02*
X0114436Y0028800D01*
X0114565Y0029198D02*
X0115952Y0029198D01*
X0115786Y0029597D02*
X0114666Y0029597D01*
X0114729Y0029995D02*
X0115755Y0029995D01*
X0108043Y0034777D02*
X0101032Y0034777D01*
X0101994Y0034379D02*
X0107360Y0034379D01*
X0106861Y0033980D02*
X0102684Y0033980D01*
X0103082Y0033582D02*
X0106465Y0033582D01*
X0106175Y0033183D02*
X0103481Y0033183D01*
X0103774Y0032785D02*
X0105930Y0032785D01*
X0105727Y0032386D02*
X0103940Y0032386D01*
X0104105Y0031988D02*
X0105588Y0031988D01*
X0105465Y0031589D02*
X0104270Y0031589D01*
X0104355Y0031191D02*
X0105402Y0031191D01*
X0098763Y0026409D02*
X0092324Y0026409D01*
X0092930Y0026807D02*
X0097801Y0026807D01*
X0097296Y0027206D02*
X0093380Y0027206D01*
X0093741Y0027604D02*
X0096898Y0027604D01*
X0096499Y0028003D02*
X0094030Y0028003D01*
X0094247Y0028401D02*
X0096282Y0028401D01*
X0096117Y0028800D02*
X0094436Y0028800D01*
X0094565Y0029198D02*
X0095952Y0029198D01*
X0095786Y0029597D02*
X0094666Y0029597D01*
X0094729Y0029995D02*
X0095755Y0029995D01*
X0088043Y0034777D02*
X0081032Y0034777D01*
X0081994Y0034379D02*
X0087360Y0034379D01*
X0086861Y0033980D02*
X0082684Y0033980D01*
X0083082Y0033582D02*
X0086465Y0033582D01*
X0086175Y0033183D02*
X0083481Y0033183D01*
X0083774Y0032785D02*
X0085930Y0032785D01*
X0085727Y0032386D02*
X0083940Y0032386D01*
X0084105Y0031988D02*
X0085588Y0031988D01*
X0085465Y0031589D02*
X0084270Y0031589D01*
X0084355Y0031191D02*
X0085402Y0031191D01*
X0078763Y0026409D02*
X0072324Y0026409D01*
X0072930Y0026807D02*
X0077801Y0026807D01*
X0077296Y0027206D02*
X0073380Y0027206D01*
X0073741Y0027604D02*
X0076898Y0027604D01*
X0076499Y0028003D02*
X0074030Y0028003D01*
X0074247Y0028401D02*
X0076282Y0028401D01*
X0076117Y0028800D02*
X0074436Y0028800D01*
X0074565Y0029198D02*
X0075952Y0029198D01*
X0075786Y0029597D02*
X0074666Y0029597D01*
X0074729Y0029995D02*
X0075755Y0029995D01*
X0068043Y0034777D02*
X0061032Y0034777D01*
X0061994Y0034379D02*
X0067360Y0034379D01*
X0066861Y0033980D02*
X0062684Y0033980D01*
X0063082Y0033582D02*
X0066465Y0033582D01*
X0066175Y0033183D02*
X0063481Y0033183D01*
X0063774Y0032785D02*
X0065930Y0032785D01*
X0065727Y0032386D02*
X0063940Y0032386D01*
X0064105Y0031988D02*
X0065588Y0031988D01*
X0065465Y0031589D02*
X0064270Y0031589D01*
X0064355Y0031191D02*
X0065402Y0031191D01*
X0026607Y0109299D02*
X0010074Y0109299D01*
X0010074Y0109697D02*
X0025645Y0109697D01*
X0024996Y0110096D02*
X0010074Y0110096D01*
X0010074Y0110494D02*
X0024598Y0110494D01*
X0024199Y0110893D02*
X0010074Y0110893D01*
X0010074Y0111291D02*
X0023922Y0111291D01*
X0023757Y0111690D02*
X0010074Y0111690D01*
X0010074Y0112088D02*
X0023592Y0112088D01*
X0023427Y0112487D02*
X0010074Y0112487D01*
X0010074Y0112885D02*
X0023354Y0112885D01*
X0023354Y0113284D02*
X0010074Y0113284D01*
X0010074Y0113682D02*
X0023354Y0113682D01*
X0023354Y0114081D02*
X0010074Y0114081D01*
X0010074Y0114480D02*
X0023397Y0114480D01*
X0023562Y0114878D02*
X0010074Y0114878D01*
X0010074Y0115277D02*
X0023727Y0115277D01*
X0023892Y0115675D02*
X0010074Y0115675D01*
X0010074Y0116074D02*
X0024126Y0116074D01*
X0024525Y0116472D02*
X0010074Y0116472D01*
X0010074Y0116871D02*
X0024923Y0116871D01*
X0025469Y0117269D02*
X0010074Y0117269D01*
X0010074Y0117668D02*
X0026431Y0117668D01*
X0022164Y0183422D02*
X0010074Y0183422D01*
X0010074Y0183820D02*
X0020633Y0183820D01*
X0019592Y0184219D02*
X0010074Y0184219D01*
X0010074Y0184618D02*
X0018755Y0184618D01*
X0018025Y0185016D02*
X0010074Y0185016D01*
X0010074Y0185415D02*
X0017428Y0185415D01*
X0016872Y0185813D02*
X0010074Y0185813D01*
X0010074Y0186212D02*
X0016386Y0186212D01*
X0015933Y0186610D02*
X0010074Y0186610D01*
X0010074Y0187009D02*
X0015535Y0187009D01*
X0015148Y0187407D02*
X0010074Y0187407D01*
X0010074Y0187806D02*
X0014821Y0187806D01*
X0014494Y0188204D02*
X0010074Y0188204D01*
X0010074Y0188603D02*
X0014212Y0188603D01*
X0013945Y0189001D02*
X0010074Y0189001D01*
X0010074Y0189400D02*
X0013686Y0189400D01*
X0013473Y0189798D02*
X0010074Y0189798D01*
X0010074Y0190197D02*
X0013260Y0190197D01*
X0013065Y0190595D02*
X0010074Y0190595D01*
X0010074Y0190994D02*
X0012900Y0190994D01*
X0012735Y0191392D02*
X0010074Y0191392D01*
X0010074Y0191791D02*
X0012592Y0191791D01*
X0012471Y0192189D02*
X0010074Y0192189D01*
X0010074Y0192588D02*
X0012350Y0192588D01*
X0012249Y0192986D02*
X0010074Y0192986D01*
X0010074Y0193385D02*
X0012170Y0193385D01*
X0012091Y0193783D02*
X0010074Y0193783D01*
X0010074Y0194182D02*
X0012028Y0194182D01*
X0011989Y0194580D02*
X0010074Y0194580D01*
X0010074Y0194979D02*
X0011950Y0194979D01*
X0011922Y0195377D02*
X0010074Y0195377D01*
X0025791Y0208528D02*
X0204555Y0208528D01*
X0202350Y0208130D02*
X0027997Y0208130D01*
X0029202Y0207731D02*
X0201144Y0207731D01*
X0200206Y0207333D02*
X0030140Y0207333D01*
X0030886Y0206934D02*
X0199461Y0206934D01*
X0198809Y0206536D02*
X0031537Y0206536D01*
X0032133Y0206137D02*
X0198213Y0206137D01*
X0197716Y0205739D02*
X0032631Y0205739D01*
X0033116Y0205340D02*
X0197230Y0205340D01*
X0196824Y0204942D02*
X0033523Y0204942D01*
X0033921Y0204543D02*
X0196425Y0204543D01*
X0196076Y0204145D02*
X0034270Y0204145D01*
X0034597Y0203746D02*
X0195749Y0203746D01*
X0195439Y0203348D02*
X0034908Y0203348D01*
X0035174Y0202949D02*
X0195172Y0202949D01*
X0194906Y0202551D02*
X0035440Y0202551D01*
X0035671Y0202152D02*
X0194675Y0202152D01*
X0194462Y0201753D02*
X0035884Y0201753D01*
X0036097Y0201355D02*
X0194249Y0201355D01*
X0194080Y0200956D02*
X0036266Y0200956D01*
X0036432Y0200558D02*
X0193915Y0200558D01*
X0193751Y0200159D02*
X0036596Y0200159D01*
X0036717Y0199761D02*
X0193630Y0199761D01*
X0193509Y0199362D02*
X0036838Y0199362D01*
X0036958Y0198964D02*
X0193389Y0198964D01*
X0193309Y0198565D02*
X0037037Y0198565D01*
X0037116Y0198167D02*
X0193230Y0198167D01*
X0193151Y0197768D02*
X0037196Y0197768D01*
X0037237Y0197370D02*
X0193110Y0197370D01*
X0193070Y0196971D02*
X0037276Y0196971D01*
X0037315Y0196573D02*
X0193031Y0196573D01*
X0193024Y0196174D02*
X0037322Y0196174D01*
X0037322Y0195377D02*
X0193024Y0195377D01*
X0193052Y0194979D02*
X0037295Y0194979D01*
X0037255Y0194580D02*
X0193091Y0194580D01*
X0193130Y0194182D02*
X0037216Y0194182D01*
X0037153Y0193783D02*
X0193193Y0193783D01*
X0193272Y0193385D02*
X0037074Y0193385D01*
X0036995Y0192986D02*
X0193352Y0192986D01*
X0193452Y0192588D02*
X0149201Y0192588D01*
X0149187Y0192592D02*
X0148457Y0192708D01*
X0148287Y0192708D01*
X0148287Y0188208D01*
X0152787Y0188208D01*
X0152787Y0188378D01*
X0152671Y0189108D01*
X0152442Y0189812D01*
X0152106Y0190471D01*
X0151672Y0191070D01*
X0151148Y0191593D01*
X0150550Y0192028D01*
X0149891Y0192364D01*
X0149187Y0192592D01*
X0148287Y0192588D02*
X0147887Y0192588D01*
X0147887Y0192708D02*
X0147717Y0192708D01*
X0146986Y0192592D01*
X0146282Y0192364D01*
X0145623Y0192028D01*
X0145025Y0191593D01*
X0144502Y0191070D01*
X0144067Y0190471D01*
X0143731Y0189812D01*
X0143502Y0189108D01*
X0143387Y0188378D01*
X0143387Y0188208D01*
X0147887Y0188208D01*
X0147887Y0192708D01*
X0147887Y0192189D02*
X0148287Y0192189D01*
X0148287Y0191791D02*
X0147887Y0191791D01*
X0147887Y0191392D02*
X0148287Y0191392D01*
X0148287Y0190994D02*
X0147887Y0190994D01*
X0147887Y0190595D02*
X0148287Y0190595D01*
X0148287Y0190197D02*
X0147887Y0190197D01*
X0147887Y0189798D02*
X0148287Y0189798D01*
X0148287Y0189400D02*
X0147887Y0189400D01*
X0147887Y0189001D02*
X0148287Y0189001D01*
X0148287Y0188603D02*
X0147887Y0188603D01*
X0147887Y0188208D02*
X0148287Y0188208D01*
X0148287Y0187808D01*
X0152787Y0187808D01*
X0152787Y0187638D01*
X0152671Y0186907D01*
X0152442Y0186204D01*
X0152106Y0185545D01*
X0151672Y0184946D01*
X0151148Y0184423D01*
X0150550Y0183988D01*
X0149891Y0183652D01*
X0149187Y0183424D01*
X0148457Y0183308D01*
X0148287Y0183308D01*
X0148287Y0187808D01*
X0147887Y0187808D01*
X0147887Y0183308D01*
X0147717Y0183308D01*
X0146986Y0183424D01*
X0146282Y0183652D01*
X0145623Y0183988D01*
X0145025Y0184423D01*
X0144502Y0184946D01*
X0144067Y0185545D01*
X0143731Y0186204D01*
X0143502Y0186907D01*
X0143387Y0187638D01*
X0143387Y0187808D01*
X0147887Y0187808D01*
X0147887Y0188208D01*
X0147887Y0188204D02*
X0142387Y0188204D01*
X0142387Y0187806D02*
X0143387Y0187806D01*
X0143423Y0187407D02*
X0142387Y0187407D01*
X0142387Y0187153D02*
X0141732Y0185572D01*
X0140522Y0184363D01*
X0138942Y0183708D01*
X0137231Y0183708D01*
X0135651Y0184363D01*
X0134441Y0185572D01*
X0133787Y0187153D01*
X0133787Y0188863D01*
X0134441Y0190444D01*
X0135651Y0191653D01*
X0137231Y0192308D01*
X0138942Y0192308D01*
X0140522Y0191653D01*
X0141732Y0190444D01*
X0142387Y0188863D01*
X0142387Y0187153D01*
X0142327Y0187009D02*
X0143486Y0187009D01*
X0143599Y0186610D02*
X0142162Y0186610D01*
X0141997Y0186212D02*
X0143728Y0186212D01*
X0143930Y0185813D02*
X0141832Y0185813D01*
X0141574Y0185415D02*
X0144161Y0185415D01*
X0144451Y0185016D02*
X0141176Y0185016D01*
X0140777Y0184618D02*
X0144830Y0184618D01*
X0145305Y0184219D02*
X0140176Y0184219D01*
X0139214Y0183820D02*
X0145952Y0183820D01*
X0146996Y0183422D02*
X0129177Y0183422D01*
X0129187Y0183424D02*
X0129891Y0183652D01*
X0130550Y0183988D01*
X0131148Y0184423D01*
X0131672Y0184946D01*
X0132106Y0185545D01*
X0132442Y0186204D01*
X0132671Y0186907D01*
X0132787Y0187638D01*
X0132787Y0187808D01*
X0128287Y0187808D01*
X0128287Y0188208D01*
X0132787Y0188208D01*
X0132787Y0188378D01*
X0132671Y0189108D01*
X0132442Y0189812D01*
X0132106Y0190471D01*
X0131672Y0191070D01*
X0131148Y0191593D01*
X0130550Y0192028D01*
X0129891Y0192364D01*
X0129187Y0192592D01*
X0128457Y0192708D01*
X0128287Y0192708D01*
X0128287Y0188208D01*
X0127887Y0188208D01*
X0127887Y0192708D01*
X0127717Y0192708D01*
X0126986Y0192592D01*
X0126282Y0192364D01*
X0125623Y0192028D01*
X0125025Y0191593D01*
X0124502Y0191070D01*
X0124067Y0190471D01*
X0123731Y0189812D01*
X0123502Y0189108D01*
X0123387Y0188378D01*
X0123387Y0188208D01*
X0127887Y0188208D01*
X0127887Y0187808D01*
X0128287Y0187808D01*
X0128287Y0183308D01*
X0128457Y0183308D01*
X0129187Y0183424D01*
X0128287Y0183422D02*
X0127887Y0183422D01*
X0127887Y0183308D02*
X0127887Y0187808D01*
X0123387Y0187808D01*
X0123387Y0187638D01*
X0123502Y0186907D01*
X0123731Y0186204D01*
X0124067Y0185545D01*
X0124502Y0184946D01*
X0125025Y0184423D01*
X0125623Y0183988D01*
X0126282Y0183652D01*
X0126986Y0183424D01*
X0127717Y0183308D01*
X0127887Y0183308D01*
X0127887Y0183820D02*
X0128287Y0183820D01*
X0128287Y0184219D02*
X0127887Y0184219D01*
X0127887Y0184618D02*
X0128287Y0184618D01*
X0128287Y0185016D02*
X0127887Y0185016D01*
X0127887Y0185415D02*
X0128287Y0185415D01*
X0128287Y0185813D02*
X0127887Y0185813D01*
X0127887Y0186212D02*
X0128287Y0186212D01*
X0128287Y0186610D02*
X0127887Y0186610D01*
X0127887Y0187009D02*
X0128287Y0187009D01*
X0128287Y0187407D02*
X0127887Y0187407D01*
X0127887Y0187806D02*
X0128287Y0187806D01*
X0128287Y0188204D02*
X0133787Y0188204D01*
X0133787Y0187806D02*
X0132787Y0187806D01*
X0132750Y0187407D02*
X0133787Y0187407D01*
X0133846Y0187009D02*
X0132687Y0187009D01*
X0132574Y0186610D02*
X0134011Y0186610D01*
X0134176Y0186212D02*
X0132445Y0186212D01*
X0132243Y0185813D02*
X0134341Y0185813D01*
X0134599Y0185415D02*
X0132012Y0185415D01*
X0131722Y0185016D02*
X0134997Y0185016D01*
X0135396Y0184618D02*
X0131343Y0184618D01*
X0130868Y0184219D02*
X0135997Y0184219D01*
X0136959Y0183820D02*
X0130221Y0183820D01*
X0126996Y0183422D02*
X0109177Y0183422D01*
X0110221Y0183820D02*
X0116959Y0183820D01*
X0117231Y0183708D02*
X0118942Y0183708D01*
X0120522Y0184363D01*
X0121732Y0185572D01*
X0122387Y0187153D01*
X0122387Y0188863D01*
X0121732Y0190444D01*
X0120522Y0191653D01*
X0118942Y0192308D01*
X0117231Y0192308D01*
X0115651Y0191653D01*
X0114441Y0190444D01*
X0113787Y0188863D01*
X0113787Y0187153D01*
X0114441Y0185572D01*
X0115651Y0184363D01*
X0117231Y0183708D01*
X0115997Y0184219D02*
X0110868Y0184219D01*
X0111343Y0184618D02*
X0115396Y0184618D01*
X0114997Y0185016D02*
X0111722Y0185016D01*
X0112012Y0185415D02*
X0114599Y0185415D01*
X0114341Y0185813D02*
X0112243Y0185813D01*
X0112445Y0186212D02*
X0114176Y0186212D01*
X0114011Y0186610D02*
X0112574Y0186610D01*
X0112687Y0187009D02*
X0113846Y0187009D01*
X0113787Y0187407D02*
X0112750Y0187407D01*
X0112787Y0187806D02*
X0113787Y0187806D01*
X0113787Y0188204D02*
X0108287Y0188204D01*
X0108287Y0188603D02*
X0107887Y0188603D01*
X0107887Y0189001D02*
X0108287Y0189001D01*
X0108287Y0189400D02*
X0107887Y0189400D01*
X0107887Y0189798D02*
X0108287Y0189798D01*
X0108287Y0190197D02*
X0107887Y0190197D01*
X0107887Y0190595D02*
X0108287Y0190595D01*
X0108287Y0190994D02*
X0107887Y0190994D01*
X0107887Y0191392D02*
X0108287Y0191392D01*
X0108287Y0191791D02*
X0107887Y0191791D01*
X0107887Y0192189D02*
X0108287Y0192189D01*
X0108287Y0192588D02*
X0107887Y0192588D01*
X0106972Y0192588D02*
X0089201Y0192588D01*
X0088287Y0192588D02*
X0087887Y0192588D01*
X0087887Y0192189D02*
X0088287Y0192189D01*
X0088287Y0191791D02*
X0087887Y0191791D01*
X0087887Y0191392D02*
X0088287Y0191392D01*
X0088287Y0190994D02*
X0087887Y0190994D01*
X0087887Y0190595D02*
X0088287Y0190595D01*
X0088287Y0190197D02*
X0087887Y0190197D01*
X0087887Y0189798D02*
X0088287Y0189798D01*
X0088287Y0189400D02*
X0087887Y0189400D01*
X0087887Y0189001D02*
X0088287Y0189001D01*
X0088287Y0188603D02*
X0087887Y0188603D01*
X0087887Y0188204D02*
X0082387Y0188204D01*
X0082387Y0187806D02*
X0083387Y0187806D01*
X0083423Y0187407D02*
X0082387Y0187407D01*
X0082327Y0187009D02*
X0083486Y0187009D01*
X0083599Y0186610D02*
X0082162Y0186610D01*
X0081997Y0186212D02*
X0083728Y0186212D01*
X0083930Y0185813D02*
X0081832Y0185813D01*
X0081574Y0185415D02*
X0084161Y0185415D01*
X0084451Y0185016D02*
X0081176Y0185016D01*
X0080777Y0184618D02*
X0084830Y0184618D01*
X0085305Y0184219D02*
X0080176Y0184219D01*
X0079214Y0183820D02*
X0085952Y0183820D01*
X0083422Y0188603D02*
X0082387Y0188603D01*
X0082329Y0189001D02*
X0083485Y0189001D01*
X0083597Y0189400D02*
X0082164Y0189400D01*
X0081999Y0189798D02*
X0083726Y0189798D01*
X0083927Y0190197D02*
X0081834Y0190197D01*
X0081580Y0190595D02*
X0084157Y0190595D01*
X0084446Y0190994D02*
X0081182Y0190994D01*
X0080783Y0191392D02*
X0084824Y0191392D01*
X0085297Y0191791D02*
X0080190Y0191791D01*
X0079228Y0192189D02*
X0085940Y0192189D01*
X0086972Y0192588D02*
X0069201Y0192588D01*
X0068287Y0192588D02*
X0067887Y0192588D01*
X0067887Y0192189D02*
X0068287Y0192189D01*
X0068287Y0191791D02*
X0067887Y0191791D01*
X0067887Y0191392D02*
X0068287Y0191392D01*
X0068287Y0190994D02*
X0067887Y0190994D01*
X0067887Y0190595D02*
X0068287Y0190595D01*
X0068287Y0190197D02*
X0067887Y0190197D01*
X0067887Y0189798D02*
X0068287Y0189798D01*
X0068287Y0189400D02*
X0067887Y0189400D01*
X0067887Y0189001D02*
X0068287Y0189001D01*
X0068287Y0188603D02*
X0067887Y0188603D01*
X0067887Y0188204D02*
X0062387Y0188204D01*
X0062387Y0187806D02*
X0063387Y0187806D01*
X0063423Y0187407D02*
X0062387Y0187407D01*
X0062387Y0187153D02*
X0061732Y0185572D01*
X0060522Y0184363D01*
X0058942Y0183708D01*
X0057231Y0183708D01*
X0055651Y0184363D01*
X0054441Y0185572D01*
X0053787Y0187153D01*
X0053787Y0188863D01*
X0054441Y0190444D01*
X0055651Y0191653D01*
X0057231Y0192308D01*
X0058942Y0192308D01*
X0060522Y0191653D01*
X0061732Y0190444D01*
X0062387Y0188863D01*
X0062387Y0187153D01*
X0062327Y0187009D02*
X0063486Y0187009D01*
X0063599Y0186610D02*
X0062162Y0186610D01*
X0061997Y0186212D02*
X0063728Y0186212D01*
X0063930Y0185813D02*
X0061832Y0185813D01*
X0061574Y0185415D02*
X0064161Y0185415D01*
X0064451Y0185016D02*
X0061176Y0185016D01*
X0060777Y0184618D02*
X0064830Y0184618D01*
X0065305Y0184219D02*
X0060176Y0184219D01*
X0059214Y0183820D02*
X0065952Y0183820D01*
X0063422Y0188603D02*
X0062387Y0188603D01*
X0062329Y0189001D02*
X0063485Y0189001D01*
X0063597Y0189400D02*
X0062164Y0189400D01*
X0061999Y0189798D02*
X0063726Y0189798D01*
X0063927Y0190197D02*
X0061834Y0190197D01*
X0061580Y0190595D02*
X0064157Y0190595D01*
X0064446Y0190994D02*
X0061182Y0190994D01*
X0060783Y0191392D02*
X0064824Y0191392D01*
X0065297Y0191791D02*
X0060190Y0191791D01*
X0059228Y0192189D02*
X0065940Y0192189D01*
X0066972Y0192588D02*
X0036894Y0192588D01*
X0036773Y0192189D02*
X0056945Y0192189D01*
X0055983Y0191791D02*
X0036652Y0191791D01*
X0036509Y0191392D02*
X0055390Y0191392D01*
X0054991Y0190994D02*
X0036344Y0190994D01*
X0036179Y0190595D02*
X0054593Y0190595D01*
X0054339Y0190197D02*
X0035984Y0190197D01*
X0035771Y0189798D02*
X0054174Y0189798D01*
X0054009Y0189400D02*
X0035558Y0189400D01*
X0035299Y0189001D02*
X0053844Y0189001D01*
X0053787Y0188603D02*
X0035032Y0188603D01*
X0034750Y0188204D02*
X0053787Y0188204D01*
X0053787Y0187806D02*
X0034423Y0187806D01*
X0034096Y0187407D02*
X0053787Y0187407D01*
X0053846Y0187009D02*
X0033709Y0187009D01*
X0033311Y0186610D02*
X0054011Y0186610D01*
X0054176Y0186212D02*
X0032858Y0186212D01*
X0032372Y0185813D02*
X0054341Y0185813D01*
X0054599Y0185415D02*
X0031816Y0185415D01*
X0031220Y0185016D02*
X0054997Y0185016D01*
X0055396Y0184618D02*
X0030489Y0184618D01*
X0029652Y0184219D02*
X0055997Y0184219D01*
X0056959Y0183820D02*
X0028611Y0183820D01*
X0070233Y0192189D02*
X0076945Y0192189D01*
X0075983Y0191791D02*
X0070876Y0191791D01*
X0071349Y0191392D02*
X0075390Y0191392D01*
X0074991Y0190994D02*
X0071727Y0190994D01*
X0072016Y0190595D02*
X0074593Y0190595D01*
X0074339Y0190197D02*
X0072246Y0190197D01*
X0072447Y0189798D02*
X0074174Y0189798D01*
X0074009Y0189400D02*
X0072576Y0189400D01*
X0072688Y0189001D02*
X0073844Y0189001D01*
X0073787Y0188603D02*
X0072751Y0188603D01*
X0090233Y0192189D02*
X0096945Y0192189D01*
X0095983Y0191791D02*
X0090876Y0191791D01*
X0091349Y0191392D02*
X0095390Y0191392D01*
X0094991Y0190994D02*
X0091727Y0190994D01*
X0092016Y0190595D02*
X0094593Y0190595D01*
X0094339Y0190197D02*
X0092246Y0190197D01*
X0092447Y0189798D02*
X0094174Y0189798D01*
X0094009Y0189400D02*
X0092576Y0189400D01*
X0092688Y0189001D02*
X0093844Y0189001D01*
X0093787Y0188603D02*
X0092751Y0188603D01*
X0099228Y0192189D02*
X0105940Y0192189D01*
X0105297Y0191791D02*
X0100190Y0191791D01*
X0100783Y0191392D02*
X0104824Y0191392D01*
X0104446Y0190994D02*
X0101182Y0190994D01*
X0101580Y0190595D02*
X0104157Y0190595D01*
X0103927Y0190197D02*
X0101834Y0190197D01*
X0101999Y0189798D02*
X0103726Y0189798D01*
X0103597Y0189400D02*
X0102164Y0189400D01*
X0102329Y0189001D02*
X0103485Y0189001D01*
X0103422Y0188603D02*
X0102387Y0188603D01*
X0109201Y0192588D02*
X0126972Y0192588D01*
X0127887Y0192588D02*
X0128287Y0192588D01*
X0128287Y0192189D02*
X0127887Y0192189D01*
X0127887Y0191791D02*
X0128287Y0191791D01*
X0128287Y0191392D02*
X0127887Y0191392D01*
X0127887Y0190994D02*
X0128287Y0190994D01*
X0128287Y0190595D02*
X0127887Y0190595D01*
X0127887Y0190197D02*
X0128287Y0190197D01*
X0128287Y0189798D02*
X0127887Y0189798D01*
X0127887Y0189400D02*
X0128287Y0189400D01*
X0128287Y0189001D02*
X0127887Y0189001D01*
X0127887Y0188603D02*
X0128287Y0188603D01*
X0127887Y0188204D02*
X0122387Y0188204D01*
X0122387Y0187806D02*
X0123387Y0187806D01*
X0123423Y0187407D02*
X0122387Y0187407D01*
X0122327Y0187009D02*
X0123486Y0187009D01*
X0123599Y0186610D02*
X0122162Y0186610D01*
X0121997Y0186212D02*
X0123728Y0186212D01*
X0123930Y0185813D02*
X0121832Y0185813D01*
X0121574Y0185415D02*
X0124161Y0185415D01*
X0124451Y0185016D02*
X0121176Y0185016D01*
X0120777Y0184618D02*
X0124830Y0184618D01*
X0125305Y0184219D02*
X0120176Y0184219D01*
X0119214Y0183820D02*
X0125952Y0183820D01*
X0123422Y0188603D02*
X0122387Y0188603D01*
X0122329Y0189001D02*
X0123485Y0189001D01*
X0123597Y0189400D02*
X0122164Y0189400D01*
X0121999Y0189798D02*
X0123726Y0189798D01*
X0123927Y0190197D02*
X0121834Y0190197D01*
X0121580Y0190595D02*
X0124157Y0190595D01*
X0124446Y0190994D02*
X0121182Y0190994D01*
X0120783Y0191392D02*
X0124824Y0191392D01*
X0125297Y0191791D02*
X0120190Y0191791D01*
X0119228Y0192189D02*
X0125940Y0192189D01*
X0129201Y0192588D02*
X0146972Y0192588D01*
X0145940Y0192189D02*
X0139228Y0192189D01*
X0140190Y0191791D02*
X0145297Y0191791D01*
X0144824Y0191392D02*
X0140783Y0191392D01*
X0141182Y0190994D02*
X0144446Y0190994D01*
X0144157Y0190595D02*
X0141580Y0190595D01*
X0141834Y0190197D02*
X0143927Y0190197D01*
X0143726Y0189798D02*
X0141999Y0189798D01*
X0142164Y0189400D02*
X0143597Y0189400D01*
X0143485Y0189001D02*
X0142329Y0189001D01*
X0142387Y0188603D02*
X0143422Y0188603D01*
X0147887Y0187806D02*
X0148287Y0187806D01*
X0148287Y0188204D02*
X0153787Y0188204D01*
X0153787Y0187806D02*
X0152787Y0187806D01*
X0152750Y0187407D02*
X0153787Y0187407D01*
X0153787Y0187153D02*
X0154441Y0185572D01*
X0155651Y0184363D01*
X0157231Y0183708D01*
X0158942Y0183708D01*
X0160522Y0184363D01*
X0161732Y0185572D01*
X0162387Y0187153D01*
X0162387Y0188863D01*
X0161732Y0190444D01*
X0160522Y0191653D01*
X0158942Y0192308D01*
X0157231Y0192308D01*
X0155651Y0191653D01*
X0154441Y0190444D01*
X0153787Y0188863D01*
X0153787Y0187153D01*
X0153846Y0187009D02*
X0152687Y0187009D01*
X0152574Y0186610D02*
X0154011Y0186610D01*
X0154176Y0186212D02*
X0152445Y0186212D01*
X0152243Y0185813D02*
X0154341Y0185813D01*
X0154599Y0185415D02*
X0152012Y0185415D01*
X0151722Y0185016D02*
X0154997Y0185016D01*
X0155396Y0184618D02*
X0151343Y0184618D01*
X0150868Y0184219D02*
X0155997Y0184219D01*
X0156959Y0183820D02*
X0150221Y0183820D01*
X0149177Y0183422D02*
X0203267Y0183422D01*
X0201735Y0183820D02*
X0169214Y0183820D01*
X0168942Y0183708D02*
X0170522Y0184363D01*
X0171732Y0185572D01*
X0172387Y0187153D01*
X0172387Y0188863D01*
X0171732Y0190444D01*
X0170522Y0191653D01*
X0168942Y0192308D01*
X0167231Y0192308D01*
X0165651Y0191653D01*
X0164441Y0190444D01*
X0163787Y0188863D01*
X0163787Y0187153D01*
X0164441Y0185572D01*
X0165651Y0184363D01*
X0167231Y0183708D01*
X0168942Y0183708D01*
X0170176Y0184219D02*
X0200694Y0184219D01*
X0199857Y0184618D02*
X0170777Y0184618D01*
X0171176Y0185016D02*
X0199127Y0185016D01*
X0198531Y0185415D02*
X0171574Y0185415D01*
X0171832Y0185813D02*
X0197974Y0185813D01*
X0197489Y0186212D02*
X0171997Y0186212D01*
X0172162Y0186610D02*
X0197036Y0186610D01*
X0196637Y0187009D02*
X0172327Y0187009D01*
X0172387Y0187407D02*
X0196250Y0187407D01*
X0195923Y0187806D02*
X0172387Y0187806D01*
X0172387Y0188204D02*
X0195596Y0188204D01*
X0195314Y0188603D02*
X0172387Y0188603D01*
X0172329Y0189001D02*
X0195048Y0189001D01*
X0194789Y0189400D02*
X0172164Y0189400D01*
X0171999Y0189798D02*
X0194576Y0189798D01*
X0194363Y0190197D02*
X0171834Y0190197D01*
X0171580Y0190595D02*
X0194168Y0190595D01*
X0194003Y0190994D02*
X0171182Y0190994D01*
X0170783Y0191392D02*
X0193838Y0191392D01*
X0193694Y0191791D02*
X0170190Y0191791D01*
X0169228Y0192189D02*
X0193573Y0192189D01*
X0166945Y0192189D02*
X0159228Y0192189D01*
X0160190Y0191791D02*
X0165983Y0191791D01*
X0165390Y0191392D02*
X0160783Y0191392D01*
X0161182Y0190994D02*
X0164991Y0190994D01*
X0164593Y0190595D02*
X0161580Y0190595D01*
X0161834Y0190197D02*
X0164339Y0190197D01*
X0164174Y0189798D02*
X0161999Y0189798D01*
X0162164Y0189400D02*
X0164009Y0189400D01*
X0163844Y0189001D02*
X0162329Y0189001D01*
X0162387Y0188603D02*
X0163787Y0188603D01*
X0163787Y0188204D02*
X0162387Y0188204D01*
X0162387Y0187806D02*
X0163787Y0187806D01*
X0163787Y0187407D02*
X0162387Y0187407D01*
X0162327Y0187009D02*
X0163846Y0187009D01*
X0164011Y0186610D02*
X0162162Y0186610D01*
X0161997Y0186212D02*
X0164176Y0186212D01*
X0164341Y0185813D02*
X0161832Y0185813D01*
X0161574Y0185415D02*
X0164599Y0185415D01*
X0164997Y0185016D02*
X0161176Y0185016D01*
X0160777Y0184618D02*
X0165396Y0184618D01*
X0165997Y0184219D02*
X0160176Y0184219D01*
X0159214Y0183820D02*
X0166959Y0183820D01*
X0156945Y0192189D02*
X0150233Y0192189D01*
X0150876Y0191791D02*
X0155983Y0191791D01*
X0155390Y0191392D02*
X0151349Y0191392D01*
X0151727Y0190994D02*
X0154991Y0190994D01*
X0154593Y0190595D02*
X0152016Y0190595D01*
X0152246Y0190197D02*
X0154339Y0190197D01*
X0154174Y0189798D02*
X0152447Y0189798D01*
X0152576Y0189400D02*
X0154009Y0189400D01*
X0153844Y0189001D02*
X0152688Y0189001D01*
X0152751Y0188603D02*
X0153787Y0188603D01*
X0148287Y0187407D02*
X0147887Y0187407D01*
X0147887Y0187009D02*
X0148287Y0187009D01*
X0148287Y0186610D02*
X0147887Y0186610D01*
X0147887Y0186212D02*
X0148287Y0186212D01*
X0148287Y0185813D02*
X0147887Y0185813D01*
X0147887Y0185415D02*
X0148287Y0185415D01*
X0148287Y0185016D02*
X0147887Y0185016D01*
X0147887Y0184618D02*
X0148287Y0184618D01*
X0148287Y0184219D02*
X0147887Y0184219D01*
X0147887Y0183820D02*
X0148287Y0183820D01*
X0148287Y0183422D02*
X0147887Y0183422D01*
X0136945Y0192189D02*
X0130233Y0192189D01*
X0130876Y0191791D02*
X0135983Y0191791D01*
X0135390Y0191392D02*
X0131349Y0191392D01*
X0131727Y0190994D02*
X0134991Y0190994D01*
X0134593Y0190595D02*
X0132016Y0190595D01*
X0132246Y0190197D02*
X0134339Y0190197D01*
X0134174Y0189798D02*
X0132447Y0189798D01*
X0132576Y0189400D02*
X0134009Y0189400D01*
X0133844Y0189001D02*
X0132688Y0189001D01*
X0132751Y0188603D02*
X0133787Y0188603D01*
X0116945Y0192189D02*
X0110233Y0192189D01*
X0110876Y0191791D02*
X0115983Y0191791D01*
X0115390Y0191392D02*
X0111349Y0191392D01*
X0111727Y0190994D02*
X0114991Y0190994D01*
X0114593Y0190595D02*
X0112016Y0190595D01*
X0112246Y0190197D02*
X0114339Y0190197D01*
X0114174Y0189798D02*
X0112447Y0189798D01*
X0112576Y0189400D02*
X0114009Y0189400D01*
X0113844Y0189001D02*
X0112688Y0189001D01*
X0112751Y0188603D02*
X0113787Y0188603D01*
M02*
