G75*
%MOIN*%
%OFA0B0*%
%FSLAX25Y25*%
%IPPOS*%
%LPD*%
%AMOC8*
5,1,8,0,0,1.08239X$1,22.5*
%
%ADD10C,0.00000*%
%ADD11R,0.06699X0.10636*%
%ADD12C,0.01388*%
%ADD13R,0.03156X0.07487*%
%ADD14R,0.07400X0.07400*%
%ADD15C,0.07400*%
%ADD16C,0.23400*%
D10*
X0024622Y0008874D02*
X0288402Y0008874D01*
X0288783Y0008879D01*
X0289163Y0008892D01*
X0289543Y0008915D01*
X0289922Y0008948D01*
X0290300Y0008989D01*
X0290677Y0009039D01*
X0291053Y0009099D01*
X0291428Y0009167D01*
X0291800Y0009245D01*
X0292171Y0009332D01*
X0292539Y0009427D01*
X0292905Y0009532D01*
X0293268Y0009645D01*
X0293629Y0009767D01*
X0293986Y0009897D01*
X0294340Y0010037D01*
X0294691Y0010184D01*
X0295038Y0010341D01*
X0295381Y0010505D01*
X0295720Y0010678D01*
X0296055Y0010859D01*
X0296386Y0011048D01*
X0296711Y0011245D01*
X0297032Y0011449D01*
X0297348Y0011662D01*
X0297658Y0011882D01*
X0297964Y0012109D01*
X0298263Y0012344D01*
X0298557Y0012586D01*
X0298845Y0012834D01*
X0299127Y0013090D01*
X0299402Y0013353D01*
X0299671Y0013622D01*
X0299934Y0013897D01*
X0300190Y0014179D01*
X0300438Y0014467D01*
X0300680Y0014761D01*
X0300915Y0015060D01*
X0301142Y0015366D01*
X0301362Y0015676D01*
X0301575Y0015992D01*
X0301779Y0016313D01*
X0301976Y0016638D01*
X0302165Y0016969D01*
X0302346Y0017304D01*
X0302519Y0017643D01*
X0302683Y0017986D01*
X0302840Y0018333D01*
X0302987Y0018684D01*
X0303127Y0019038D01*
X0303257Y0019395D01*
X0303379Y0019756D01*
X0303492Y0020119D01*
X0303597Y0020485D01*
X0303692Y0020853D01*
X0303779Y0021224D01*
X0303857Y0021596D01*
X0303925Y0021971D01*
X0303985Y0022347D01*
X0304035Y0022724D01*
X0304076Y0023102D01*
X0304109Y0023481D01*
X0304132Y0023861D01*
X0304145Y0024241D01*
X0304150Y0024622D01*
X0304150Y0189976D01*
X0304145Y0190357D01*
X0304132Y0190737D01*
X0304109Y0191117D01*
X0304076Y0191496D01*
X0304035Y0191874D01*
X0303985Y0192251D01*
X0303925Y0192627D01*
X0303857Y0193002D01*
X0303779Y0193374D01*
X0303692Y0193745D01*
X0303597Y0194113D01*
X0303492Y0194479D01*
X0303379Y0194842D01*
X0303257Y0195203D01*
X0303127Y0195560D01*
X0302987Y0195914D01*
X0302840Y0196265D01*
X0302683Y0196612D01*
X0302519Y0196955D01*
X0302346Y0197294D01*
X0302165Y0197629D01*
X0301976Y0197960D01*
X0301779Y0198285D01*
X0301575Y0198606D01*
X0301362Y0198922D01*
X0301142Y0199232D01*
X0300915Y0199538D01*
X0300680Y0199837D01*
X0300438Y0200131D01*
X0300190Y0200419D01*
X0299934Y0200701D01*
X0299671Y0200976D01*
X0299402Y0201245D01*
X0299127Y0201508D01*
X0298845Y0201764D01*
X0298557Y0202012D01*
X0298263Y0202254D01*
X0297964Y0202489D01*
X0297658Y0202716D01*
X0297348Y0202936D01*
X0297032Y0203149D01*
X0296711Y0203353D01*
X0296386Y0203550D01*
X0296055Y0203739D01*
X0295720Y0203920D01*
X0295381Y0204093D01*
X0295038Y0204257D01*
X0294691Y0204414D01*
X0294340Y0204561D01*
X0293986Y0204701D01*
X0293629Y0204831D01*
X0293268Y0204953D01*
X0292905Y0205066D01*
X0292539Y0205171D01*
X0292171Y0205266D01*
X0291800Y0205353D01*
X0291428Y0205431D01*
X0291053Y0205499D01*
X0290677Y0205559D01*
X0290300Y0205609D01*
X0289922Y0205650D01*
X0289543Y0205683D01*
X0289163Y0205706D01*
X0288783Y0205719D01*
X0288402Y0205724D01*
X0024622Y0205724D01*
X0024241Y0205719D01*
X0023861Y0205706D01*
X0023481Y0205683D01*
X0023102Y0205650D01*
X0022724Y0205609D01*
X0022347Y0205559D01*
X0021971Y0205499D01*
X0021596Y0205431D01*
X0021224Y0205353D01*
X0020853Y0205266D01*
X0020485Y0205171D01*
X0020119Y0205066D01*
X0019756Y0204953D01*
X0019395Y0204831D01*
X0019038Y0204701D01*
X0018684Y0204561D01*
X0018333Y0204414D01*
X0017986Y0204257D01*
X0017643Y0204093D01*
X0017304Y0203920D01*
X0016969Y0203739D01*
X0016638Y0203550D01*
X0016313Y0203353D01*
X0015992Y0203149D01*
X0015676Y0202936D01*
X0015366Y0202716D01*
X0015060Y0202489D01*
X0014761Y0202254D01*
X0014467Y0202012D01*
X0014179Y0201764D01*
X0013897Y0201508D01*
X0013622Y0201245D01*
X0013353Y0200976D01*
X0013090Y0200701D01*
X0012834Y0200419D01*
X0012586Y0200131D01*
X0012344Y0199837D01*
X0012109Y0199538D01*
X0011882Y0199232D01*
X0011662Y0198922D01*
X0011449Y0198606D01*
X0011245Y0198285D01*
X0011048Y0197960D01*
X0010859Y0197629D01*
X0010678Y0197294D01*
X0010505Y0196955D01*
X0010341Y0196612D01*
X0010184Y0196265D01*
X0010037Y0195914D01*
X0009897Y0195560D01*
X0009767Y0195203D01*
X0009645Y0194842D01*
X0009532Y0194479D01*
X0009427Y0194113D01*
X0009332Y0193745D01*
X0009245Y0193374D01*
X0009167Y0193002D01*
X0009099Y0192627D01*
X0009039Y0192251D01*
X0008989Y0191874D01*
X0008948Y0191496D01*
X0008915Y0191117D01*
X0008892Y0190737D01*
X0008879Y0190357D01*
X0008874Y0189976D01*
X0008874Y0024622D01*
X0008879Y0024241D01*
X0008892Y0023861D01*
X0008915Y0023481D01*
X0008948Y0023102D01*
X0008989Y0022724D01*
X0009039Y0022347D01*
X0009099Y0021971D01*
X0009167Y0021596D01*
X0009245Y0021224D01*
X0009332Y0020853D01*
X0009427Y0020485D01*
X0009532Y0020119D01*
X0009645Y0019756D01*
X0009767Y0019395D01*
X0009897Y0019038D01*
X0010037Y0018684D01*
X0010184Y0018333D01*
X0010341Y0017986D01*
X0010505Y0017643D01*
X0010678Y0017304D01*
X0010859Y0016969D01*
X0011048Y0016638D01*
X0011245Y0016313D01*
X0011449Y0015992D01*
X0011662Y0015676D01*
X0011882Y0015366D01*
X0012109Y0015060D01*
X0012344Y0014761D01*
X0012586Y0014467D01*
X0012834Y0014179D01*
X0013090Y0013897D01*
X0013353Y0013622D01*
X0013622Y0013353D01*
X0013897Y0013090D01*
X0014179Y0012834D01*
X0014467Y0012586D01*
X0014761Y0012344D01*
X0015060Y0012109D01*
X0015366Y0011882D01*
X0015676Y0011662D01*
X0015992Y0011449D01*
X0016313Y0011245D01*
X0016638Y0011048D01*
X0016969Y0010859D01*
X0017304Y0010678D01*
X0017643Y0010505D01*
X0017986Y0010341D01*
X0018333Y0010184D01*
X0018684Y0010037D01*
X0019038Y0009897D01*
X0019395Y0009767D01*
X0019756Y0009645D01*
X0020119Y0009532D01*
X0020485Y0009427D01*
X0020853Y0009332D01*
X0021224Y0009245D01*
X0021596Y0009167D01*
X0021971Y0009099D01*
X0022347Y0009039D01*
X0022724Y0008989D01*
X0023102Y0008948D01*
X0023481Y0008915D01*
X0023861Y0008892D01*
X0024241Y0008879D01*
X0024622Y0008874D01*
D11*
X0093520Y0056906D03*
X0093520Y0071079D03*
X0119110Y0071079D03*
X0119110Y0056906D03*
X0144701Y0056906D03*
X0144701Y0071079D03*
X0170291Y0071079D03*
X0170291Y0056906D03*
X0195882Y0056906D03*
X0195882Y0071079D03*
X0221472Y0071079D03*
X0221472Y0056906D03*
X0223441Y0143520D03*
X0223441Y0157693D03*
X0197850Y0157693D03*
X0197850Y0143520D03*
X0172260Y0143520D03*
X0172260Y0157693D03*
X0146669Y0157693D03*
X0146669Y0143520D03*
X0121079Y0143520D03*
X0121079Y0157693D03*
X0095488Y0157693D03*
X0095488Y0143520D03*
D12*
X0095584Y0166652D02*
X0092636Y0166652D01*
X0092636Y0169994D01*
X0095584Y0169994D01*
X0095584Y0166652D01*
X0095584Y0167971D02*
X0092636Y0167971D01*
X0092636Y0169290D02*
X0095584Y0169290D01*
X0099329Y0166652D02*
X0102277Y0166652D01*
X0099329Y0166652D02*
X0099329Y0169994D01*
X0102277Y0169994D01*
X0102277Y0166652D01*
X0102277Y0167971D02*
X0099329Y0167971D01*
X0099329Y0169290D02*
X0102277Y0169290D01*
X0116258Y0169994D02*
X0119206Y0169994D01*
X0119206Y0166652D01*
X0116258Y0166652D01*
X0116258Y0169994D01*
X0116258Y0167971D02*
X0119206Y0167971D01*
X0119206Y0169290D02*
X0116258Y0169290D01*
X0122951Y0169994D02*
X0125899Y0169994D01*
X0125899Y0166652D01*
X0122951Y0166652D01*
X0122951Y0169994D01*
X0122951Y0167971D02*
X0125899Y0167971D01*
X0125899Y0169290D02*
X0122951Y0169290D01*
X0141849Y0169994D02*
X0144797Y0169994D01*
X0144797Y0166652D01*
X0141849Y0166652D01*
X0141849Y0169994D01*
X0141849Y0167971D02*
X0144797Y0167971D01*
X0144797Y0169290D02*
X0141849Y0169290D01*
X0148542Y0169994D02*
X0151490Y0169994D01*
X0151490Y0166652D01*
X0148542Y0166652D01*
X0148542Y0169994D01*
X0148542Y0167971D02*
X0151490Y0167971D01*
X0151490Y0169290D02*
X0148542Y0169290D01*
X0167439Y0169994D02*
X0170387Y0169994D01*
X0170387Y0166652D01*
X0167439Y0166652D01*
X0167439Y0169994D01*
X0167439Y0167971D02*
X0170387Y0167971D01*
X0170387Y0169290D02*
X0167439Y0169290D01*
X0174132Y0169994D02*
X0177080Y0169994D01*
X0177080Y0166652D01*
X0174132Y0166652D01*
X0174132Y0169994D01*
X0174132Y0167971D02*
X0177080Y0167971D01*
X0177080Y0169290D02*
X0174132Y0169290D01*
X0193030Y0169994D02*
X0195978Y0169994D01*
X0195978Y0166652D01*
X0193030Y0166652D01*
X0193030Y0169994D01*
X0193030Y0167971D02*
X0195978Y0167971D01*
X0195978Y0169290D02*
X0193030Y0169290D01*
X0199723Y0169994D02*
X0202671Y0169994D01*
X0202671Y0166652D01*
X0199723Y0166652D01*
X0199723Y0169994D01*
X0199723Y0167971D02*
X0202671Y0167971D01*
X0202671Y0169290D02*
X0199723Y0169290D01*
X0218620Y0169994D02*
X0221568Y0169994D01*
X0221568Y0166652D01*
X0218620Y0166652D01*
X0218620Y0169994D01*
X0218620Y0167971D02*
X0221568Y0167971D01*
X0221568Y0169290D02*
X0218620Y0169290D01*
X0225313Y0169994D02*
X0228261Y0169994D01*
X0228261Y0166652D01*
X0225313Y0166652D01*
X0225313Y0169994D01*
X0225313Y0167971D02*
X0228261Y0167971D01*
X0228261Y0169290D02*
X0225313Y0169290D01*
X0235549Y0155427D02*
X0235549Y0152479D01*
X0235549Y0155427D02*
X0238891Y0155427D01*
X0238891Y0152479D01*
X0235549Y0152479D01*
X0235549Y0153798D02*
X0238891Y0153798D01*
X0238891Y0155117D02*
X0235549Y0155117D01*
X0235549Y0148734D02*
X0235549Y0145786D01*
X0235549Y0148734D02*
X0238891Y0148734D01*
X0238891Y0145786D01*
X0235549Y0145786D01*
X0235549Y0147105D02*
X0238891Y0147105D01*
X0238891Y0148424D02*
X0235549Y0148424D01*
X0167238Y0129250D02*
X0164290Y0129250D01*
X0164290Y0132592D01*
X0167238Y0132592D01*
X0167238Y0129250D01*
X0167238Y0130569D02*
X0164290Y0130569D01*
X0164290Y0131888D02*
X0167238Y0131888D01*
X0160545Y0129250D02*
X0157597Y0129250D01*
X0157597Y0132592D01*
X0160545Y0132592D01*
X0160545Y0129250D01*
X0160545Y0130569D02*
X0157597Y0130569D01*
X0157597Y0131888D02*
X0160545Y0131888D01*
X0155427Y0129250D02*
X0152479Y0129250D01*
X0152479Y0132592D01*
X0155427Y0132592D01*
X0155427Y0129250D01*
X0155427Y0130569D02*
X0152479Y0130569D01*
X0152479Y0131888D02*
X0155427Y0131888D01*
X0148734Y0129250D02*
X0145786Y0129250D01*
X0145786Y0132592D01*
X0148734Y0132592D01*
X0148734Y0129250D01*
X0148734Y0130569D02*
X0145786Y0130569D01*
X0145786Y0131888D02*
X0148734Y0131888D01*
X0148542Y0047947D02*
X0151490Y0047947D01*
X0151490Y0044605D01*
X0148542Y0044605D01*
X0148542Y0047947D01*
X0148542Y0045924D02*
X0151490Y0045924D01*
X0151490Y0047243D02*
X0148542Y0047243D01*
X0144797Y0047947D02*
X0141849Y0047947D01*
X0144797Y0047947D02*
X0144797Y0044605D01*
X0141849Y0044605D01*
X0141849Y0047947D01*
X0141849Y0045924D02*
X0144797Y0045924D01*
X0144797Y0047243D02*
X0141849Y0047243D01*
X0125899Y0047947D02*
X0122951Y0047947D01*
X0125899Y0047947D02*
X0125899Y0044605D01*
X0122951Y0044605D01*
X0122951Y0047947D01*
X0122951Y0045924D02*
X0125899Y0045924D01*
X0125899Y0047243D02*
X0122951Y0047243D01*
X0119206Y0047947D02*
X0116258Y0047947D01*
X0119206Y0047947D02*
X0119206Y0044605D01*
X0116258Y0044605D01*
X0116258Y0047947D01*
X0116258Y0045924D02*
X0119206Y0045924D01*
X0119206Y0047243D02*
X0116258Y0047243D01*
X0100309Y0047947D02*
X0097361Y0047947D01*
X0100309Y0047947D02*
X0100309Y0044605D01*
X0097361Y0044605D01*
X0097361Y0047947D01*
X0097361Y0045924D02*
X0100309Y0045924D01*
X0100309Y0047243D02*
X0097361Y0047243D01*
X0093616Y0047947D02*
X0090668Y0047947D01*
X0093616Y0047947D02*
X0093616Y0044605D01*
X0090668Y0044605D01*
X0090668Y0047947D01*
X0090668Y0045924D02*
X0093616Y0045924D01*
X0093616Y0047243D02*
X0090668Y0047243D01*
X0165471Y0047947D02*
X0168419Y0047947D01*
X0168419Y0044605D01*
X0165471Y0044605D01*
X0165471Y0047947D01*
X0165471Y0045924D02*
X0168419Y0045924D01*
X0168419Y0047243D02*
X0165471Y0047243D01*
X0172164Y0047947D02*
X0175112Y0047947D01*
X0175112Y0044605D01*
X0172164Y0044605D01*
X0172164Y0047947D01*
X0172164Y0045924D02*
X0175112Y0045924D01*
X0175112Y0047243D02*
X0172164Y0047243D01*
X0191061Y0047947D02*
X0194009Y0047947D01*
X0194009Y0044605D01*
X0191061Y0044605D01*
X0191061Y0047947D01*
X0191061Y0045924D02*
X0194009Y0045924D01*
X0194009Y0047243D02*
X0191061Y0047243D01*
X0197754Y0047947D02*
X0200702Y0047947D01*
X0200702Y0044605D01*
X0197754Y0044605D01*
X0197754Y0047947D01*
X0197754Y0045924D02*
X0200702Y0045924D01*
X0200702Y0047243D02*
X0197754Y0047243D01*
X0216652Y0047947D02*
X0219600Y0047947D01*
X0219600Y0044605D01*
X0216652Y0044605D01*
X0216652Y0047947D01*
X0216652Y0045924D02*
X0219600Y0045924D01*
X0219600Y0047243D02*
X0216652Y0047243D01*
X0223345Y0047947D02*
X0226293Y0047947D01*
X0226293Y0044605D01*
X0223345Y0044605D01*
X0223345Y0047947D01*
X0223345Y0045924D02*
X0226293Y0045924D01*
X0226293Y0047243D02*
X0223345Y0047243D01*
D13*
X0179012Y0084740D03*
X0174012Y0084740D03*
X0169012Y0084740D03*
X0164012Y0084740D03*
X0159012Y0084740D03*
X0154012Y0084740D03*
X0149012Y0084740D03*
X0144012Y0084740D03*
X0139012Y0084740D03*
X0134012Y0084740D03*
X0134012Y0121984D03*
X0139012Y0121984D03*
X0144012Y0121984D03*
X0149012Y0121984D03*
X0154012Y0121984D03*
X0159012Y0121984D03*
X0164012Y0121984D03*
X0169012Y0121984D03*
X0174012Y0121984D03*
X0179012Y0121984D03*
D14*
X0239189Y0188008D03*
X0058087Y0188008D03*
D15*
X0068087Y0188008D03*
X0078087Y0188008D03*
X0101394Y0188008D03*
X0111394Y0188008D03*
X0121394Y0188008D03*
X0131394Y0188008D03*
X0141394Y0188008D03*
X0151394Y0188008D03*
X0161394Y0188008D03*
X0171394Y0188008D03*
X0181394Y0188008D03*
X0191394Y0188008D03*
X0201394Y0188008D03*
X0211394Y0188008D03*
X0249189Y0188008D03*
X0213362Y0026591D03*
X0203362Y0026591D03*
X0193362Y0026591D03*
X0183362Y0026591D03*
X0173362Y0026591D03*
X0163362Y0026591D03*
X0153362Y0026591D03*
X0143362Y0026591D03*
X0133362Y0026591D03*
X0123362Y0026591D03*
X0113362Y0026591D03*
X0103362Y0026591D03*
D16*
X0024622Y0024622D03*
X0024622Y0189976D03*
X0288402Y0189976D03*
X0288402Y0024622D03*
M02*
