G75*
%MOIN*%
%OFA0B0*%
%FSLAX25Y25*%
%IPPOS*%
%LPD*%
%AMOC8*
5,1,8,0,0,1.08239X$1,22.5*
%
%ADD10C,0.00000*%
%ADD11C,0.00039*%
%ADD12C,0.00200*%
%ADD13C,0.00400*%
D10*
X0008874Y0008874D02*
X0008874Y0211630D01*
X0221472Y0211630D01*
X0221472Y0008874D01*
X0008874Y0008874D01*
D11*
X0081781Y0075201D02*
X0083559Y0075201D01*
X0083709Y0075272D01*
X0083698Y0085938D01*
X0081921Y0085938D01*
X0081775Y0085861D01*
X0081775Y0075417D01*
X0081781Y0075201D01*
X0081781Y0075204D02*
X0083566Y0075204D01*
X0083646Y0075242D02*
X0081780Y0075242D01*
X0081779Y0075280D02*
X0083709Y0075280D01*
X0083709Y0075318D02*
X0081778Y0075318D01*
X0081777Y0075356D02*
X0083709Y0075356D01*
X0083709Y0075394D02*
X0081776Y0075394D01*
X0081775Y0075432D02*
X0083709Y0075432D01*
X0083709Y0075470D02*
X0081775Y0075470D01*
X0081775Y0075507D02*
X0083709Y0075507D01*
X0083709Y0075545D02*
X0081775Y0075545D01*
X0081775Y0075583D02*
X0083709Y0075583D01*
X0083709Y0075621D02*
X0081775Y0075621D01*
X0081775Y0075659D02*
X0083709Y0075659D01*
X0083709Y0075697D02*
X0081775Y0075697D01*
X0081775Y0075735D02*
X0083709Y0075735D01*
X0083709Y0075773D02*
X0081775Y0075773D01*
X0081775Y0075810D02*
X0083709Y0075810D01*
X0083709Y0075848D02*
X0081775Y0075848D01*
X0081775Y0075886D02*
X0083709Y0075886D01*
X0083709Y0075924D02*
X0081775Y0075924D01*
X0081775Y0075962D02*
X0083709Y0075962D01*
X0083709Y0076000D02*
X0081775Y0076000D01*
X0081775Y0076038D02*
X0083709Y0076038D01*
X0083708Y0076076D02*
X0081775Y0076076D01*
X0081775Y0076113D02*
X0083708Y0076113D01*
X0083708Y0076151D02*
X0081775Y0076151D01*
X0081775Y0076189D02*
X0083708Y0076189D01*
X0083708Y0076227D02*
X0081775Y0076227D01*
X0081775Y0076265D02*
X0083708Y0076265D01*
X0083708Y0076303D02*
X0081775Y0076303D01*
X0081775Y0076341D02*
X0083708Y0076341D01*
X0083708Y0076379D02*
X0081775Y0076379D01*
X0081775Y0076417D02*
X0083708Y0076417D01*
X0083708Y0076454D02*
X0081775Y0076454D01*
X0081775Y0076492D02*
X0083708Y0076492D01*
X0083708Y0076530D02*
X0081775Y0076530D01*
X0081775Y0076568D02*
X0083708Y0076568D01*
X0083708Y0076606D02*
X0081775Y0076606D01*
X0081775Y0076644D02*
X0083708Y0076644D01*
X0083708Y0076682D02*
X0081775Y0076682D01*
X0081775Y0076720D02*
X0083708Y0076720D01*
X0083708Y0076757D02*
X0081775Y0076757D01*
X0081775Y0076795D02*
X0083708Y0076795D01*
X0083708Y0076833D02*
X0081775Y0076833D01*
X0081775Y0076871D02*
X0083708Y0076871D01*
X0083708Y0076909D02*
X0081775Y0076909D01*
X0081775Y0076947D02*
X0083708Y0076947D01*
X0083708Y0076985D02*
X0081775Y0076985D01*
X0081775Y0077023D02*
X0083708Y0077023D01*
X0083707Y0077061D02*
X0081775Y0077061D01*
X0081775Y0077098D02*
X0083707Y0077098D01*
X0083707Y0077136D02*
X0081775Y0077136D01*
X0081775Y0077174D02*
X0083707Y0077174D01*
X0083707Y0077212D02*
X0081775Y0077212D01*
X0081775Y0077250D02*
X0083707Y0077250D01*
X0083707Y0077288D02*
X0081775Y0077288D01*
X0081775Y0077326D02*
X0083707Y0077326D01*
X0083707Y0077364D02*
X0081775Y0077364D01*
X0081775Y0077401D02*
X0083707Y0077401D01*
X0083707Y0077439D02*
X0081775Y0077439D01*
X0081775Y0077477D02*
X0083707Y0077477D01*
X0083707Y0077515D02*
X0081775Y0077515D01*
X0081775Y0077553D02*
X0083707Y0077553D01*
X0083707Y0077591D02*
X0081775Y0077591D01*
X0081775Y0077629D02*
X0083707Y0077629D01*
X0083707Y0077667D02*
X0081775Y0077667D01*
X0081775Y0077705D02*
X0083707Y0077705D01*
X0083707Y0077742D02*
X0081775Y0077742D01*
X0081775Y0077780D02*
X0083707Y0077780D01*
X0083707Y0077818D02*
X0081775Y0077818D01*
X0081775Y0077856D02*
X0083707Y0077856D01*
X0083707Y0077894D02*
X0081775Y0077894D01*
X0081775Y0077932D02*
X0083707Y0077932D01*
X0083707Y0077970D02*
X0081775Y0077970D01*
X0081775Y0078008D02*
X0083706Y0078008D01*
X0083706Y0078045D02*
X0081775Y0078045D01*
X0081775Y0078083D02*
X0083706Y0078083D01*
X0083706Y0078121D02*
X0081775Y0078121D01*
X0081775Y0078159D02*
X0083706Y0078159D01*
X0083706Y0078197D02*
X0081775Y0078197D01*
X0081775Y0078235D02*
X0083706Y0078235D01*
X0083706Y0078273D02*
X0081775Y0078273D01*
X0081775Y0078311D02*
X0083706Y0078311D01*
X0083706Y0078348D02*
X0081775Y0078348D01*
X0081775Y0078386D02*
X0083706Y0078386D01*
X0083706Y0078424D02*
X0081775Y0078424D01*
X0081775Y0078462D02*
X0083706Y0078462D01*
X0083706Y0078500D02*
X0081775Y0078500D01*
X0081775Y0078538D02*
X0083706Y0078538D01*
X0083706Y0078576D02*
X0081775Y0078576D01*
X0081775Y0078614D02*
X0083706Y0078614D01*
X0083706Y0078652D02*
X0081775Y0078652D01*
X0081775Y0078689D02*
X0083706Y0078689D01*
X0083706Y0078727D02*
X0081775Y0078727D01*
X0081775Y0078765D02*
X0083706Y0078765D01*
X0083706Y0078803D02*
X0081775Y0078803D01*
X0081775Y0078841D02*
X0083706Y0078841D01*
X0083706Y0078879D02*
X0081775Y0078879D01*
X0081775Y0078917D02*
X0083706Y0078917D01*
X0083706Y0078955D02*
X0081775Y0078955D01*
X0081775Y0078992D02*
X0083705Y0078992D01*
X0083705Y0079030D02*
X0081775Y0079030D01*
X0081775Y0079068D02*
X0083705Y0079068D01*
X0083705Y0079106D02*
X0081775Y0079106D01*
X0081775Y0079144D02*
X0083705Y0079144D01*
X0083705Y0079182D02*
X0081775Y0079182D01*
X0081775Y0079220D02*
X0083705Y0079220D01*
X0083705Y0079258D02*
X0081775Y0079258D01*
X0081775Y0079296D02*
X0083705Y0079296D01*
X0083705Y0079333D02*
X0081775Y0079333D01*
X0081775Y0079371D02*
X0083705Y0079371D01*
X0083705Y0079409D02*
X0081775Y0079409D01*
X0081775Y0079447D02*
X0083705Y0079447D01*
X0083705Y0079485D02*
X0081775Y0079485D01*
X0081775Y0079523D02*
X0083705Y0079523D01*
X0083705Y0079561D02*
X0081775Y0079561D01*
X0081775Y0079599D02*
X0083705Y0079599D01*
X0083705Y0079636D02*
X0081775Y0079636D01*
X0081775Y0079674D02*
X0083705Y0079674D01*
X0083705Y0079712D02*
X0081775Y0079712D01*
X0081775Y0079750D02*
X0083705Y0079750D01*
X0083705Y0079788D02*
X0081775Y0079788D01*
X0081775Y0079826D02*
X0083705Y0079826D01*
X0083705Y0079864D02*
X0081775Y0079864D01*
X0081775Y0079902D02*
X0083705Y0079902D01*
X0083704Y0079940D02*
X0081775Y0079940D01*
X0081775Y0079977D02*
X0083704Y0079977D01*
X0083704Y0080015D02*
X0081775Y0080015D01*
X0081775Y0080053D02*
X0083704Y0080053D01*
X0083704Y0080091D02*
X0081775Y0080091D01*
X0081775Y0080129D02*
X0083704Y0080129D01*
X0083704Y0080167D02*
X0081775Y0080167D01*
X0081775Y0080205D02*
X0083704Y0080205D01*
X0083704Y0080243D02*
X0081775Y0080243D01*
X0081775Y0080280D02*
X0083704Y0080280D01*
X0083704Y0080318D02*
X0081775Y0080318D01*
X0081775Y0080356D02*
X0083704Y0080356D01*
X0083704Y0080394D02*
X0081775Y0080394D01*
X0081775Y0080432D02*
X0083704Y0080432D01*
X0083704Y0080470D02*
X0081775Y0080470D01*
X0081775Y0080508D02*
X0083704Y0080508D01*
X0083704Y0080546D02*
X0081775Y0080546D01*
X0081775Y0080584D02*
X0083704Y0080584D01*
X0083704Y0080621D02*
X0081775Y0080621D01*
X0081775Y0080659D02*
X0083704Y0080659D01*
X0083704Y0080697D02*
X0081775Y0080697D01*
X0081775Y0080735D02*
X0083704Y0080735D01*
X0083704Y0080773D02*
X0081775Y0080773D01*
X0081775Y0080811D02*
X0083704Y0080811D01*
X0083704Y0080849D02*
X0081775Y0080849D01*
X0081775Y0080887D02*
X0083704Y0080887D01*
X0083703Y0080924D02*
X0081775Y0080924D01*
X0081775Y0080962D02*
X0083703Y0080962D01*
X0083703Y0081000D02*
X0081775Y0081000D01*
X0081775Y0081038D02*
X0083703Y0081038D01*
X0083703Y0081076D02*
X0081775Y0081076D01*
X0081775Y0081114D02*
X0083703Y0081114D01*
X0083703Y0081152D02*
X0081775Y0081152D01*
X0081775Y0081190D02*
X0083703Y0081190D01*
X0083703Y0081227D02*
X0081775Y0081227D01*
X0081775Y0081265D02*
X0083703Y0081265D01*
X0083703Y0081303D02*
X0081775Y0081303D01*
X0081775Y0081341D02*
X0083703Y0081341D01*
X0083703Y0081379D02*
X0081775Y0081379D01*
X0081775Y0081417D02*
X0083703Y0081417D01*
X0083703Y0081455D02*
X0081775Y0081455D01*
X0081775Y0081493D02*
X0083703Y0081493D01*
X0083703Y0081531D02*
X0081775Y0081531D01*
X0081775Y0081568D02*
X0083703Y0081568D01*
X0083703Y0081606D02*
X0081775Y0081606D01*
X0081775Y0081644D02*
X0083703Y0081644D01*
X0083703Y0081682D02*
X0081775Y0081682D01*
X0081775Y0081720D02*
X0083703Y0081720D01*
X0083703Y0081758D02*
X0081775Y0081758D01*
X0081775Y0081796D02*
X0083703Y0081796D01*
X0083703Y0081834D02*
X0081775Y0081834D01*
X0081775Y0081871D02*
X0083702Y0081871D01*
X0083702Y0081909D02*
X0081775Y0081909D01*
X0081775Y0081947D02*
X0083702Y0081947D01*
X0083702Y0081985D02*
X0081775Y0081985D01*
X0081775Y0082023D02*
X0083702Y0082023D01*
X0083702Y0082061D02*
X0081775Y0082061D01*
X0081775Y0082099D02*
X0083702Y0082099D01*
X0083702Y0082137D02*
X0081775Y0082137D01*
X0081775Y0082175D02*
X0083702Y0082175D01*
X0083702Y0082212D02*
X0081775Y0082212D01*
X0081775Y0082250D02*
X0083702Y0082250D01*
X0083702Y0082288D02*
X0081775Y0082288D01*
X0081775Y0082326D02*
X0083702Y0082326D01*
X0083702Y0082364D02*
X0081775Y0082364D01*
X0081775Y0082402D02*
X0083702Y0082402D01*
X0083702Y0082440D02*
X0081775Y0082440D01*
X0081775Y0082478D02*
X0083702Y0082478D01*
X0083702Y0082515D02*
X0081775Y0082515D01*
X0081775Y0082553D02*
X0083702Y0082553D01*
X0083702Y0082591D02*
X0081775Y0082591D01*
X0081775Y0082629D02*
X0083702Y0082629D01*
X0083702Y0082667D02*
X0081775Y0082667D01*
X0081775Y0082705D02*
X0083702Y0082705D01*
X0083702Y0082743D02*
X0081775Y0082743D01*
X0081775Y0082781D02*
X0083702Y0082781D01*
X0083702Y0082819D02*
X0081775Y0082819D01*
X0081775Y0082856D02*
X0083701Y0082856D01*
X0083701Y0082894D02*
X0081775Y0082894D01*
X0081775Y0082932D02*
X0083701Y0082932D01*
X0083701Y0082970D02*
X0081775Y0082970D01*
X0081775Y0083008D02*
X0083701Y0083008D01*
X0083701Y0083046D02*
X0081775Y0083046D01*
X0081775Y0083084D02*
X0083701Y0083084D01*
X0083701Y0083122D02*
X0081775Y0083122D01*
X0081775Y0083159D02*
X0083701Y0083159D01*
X0083701Y0083197D02*
X0081775Y0083197D01*
X0081775Y0083235D02*
X0083701Y0083235D01*
X0083701Y0083273D02*
X0081775Y0083273D01*
X0081775Y0083311D02*
X0083701Y0083311D01*
X0083701Y0083349D02*
X0081775Y0083349D01*
X0081775Y0083387D02*
X0083701Y0083387D01*
X0083701Y0083425D02*
X0081775Y0083425D01*
X0081775Y0083462D02*
X0083701Y0083462D01*
X0083701Y0083500D02*
X0081775Y0083500D01*
X0081775Y0083538D02*
X0083701Y0083538D01*
X0083701Y0083576D02*
X0081775Y0083576D01*
X0081775Y0083614D02*
X0083701Y0083614D01*
X0083701Y0083652D02*
X0081775Y0083652D01*
X0081775Y0083690D02*
X0083701Y0083690D01*
X0083701Y0083728D02*
X0081775Y0083728D01*
X0081775Y0083766D02*
X0083701Y0083766D01*
X0083700Y0083803D02*
X0081775Y0083803D01*
X0081775Y0083841D02*
X0083700Y0083841D01*
X0083700Y0083879D02*
X0081775Y0083879D01*
X0081775Y0083917D02*
X0083700Y0083917D01*
X0083700Y0083955D02*
X0081775Y0083955D01*
X0081775Y0083993D02*
X0083700Y0083993D01*
X0083700Y0084031D02*
X0081775Y0084031D01*
X0081775Y0084069D02*
X0083700Y0084069D01*
X0083700Y0084106D02*
X0081775Y0084106D01*
X0081775Y0084144D02*
X0083700Y0084144D01*
X0083700Y0084182D02*
X0081775Y0084182D01*
X0081775Y0084220D02*
X0083700Y0084220D01*
X0083700Y0084258D02*
X0081775Y0084258D01*
X0081775Y0084296D02*
X0083700Y0084296D01*
X0083700Y0084334D02*
X0081775Y0084334D01*
X0081775Y0084372D02*
X0083700Y0084372D01*
X0083700Y0084410D02*
X0081775Y0084410D01*
X0081775Y0084447D02*
X0083700Y0084447D01*
X0083700Y0084485D02*
X0081775Y0084485D01*
X0081775Y0084523D02*
X0083700Y0084523D01*
X0083700Y0084561D02*
X0081775Y0084561D01*
X0081775Y0084599D02*
X0083700Y0084599D01*
X0083700Y0084637D02*
X0081775Y0084637D01*
X0081775Y0084675D02*
X0083700Y0084675D01*
X0083700Y0084713D02*
X0081775Y0084713D01*
X0081775Y0084750D02*
X0083700Y0084750D01*
X0083699Y0084788D02*
X0081775Y0084788D01*
X0081775Y0084826D02*
X0083699Y0084826D01*
X0083699Y0084864D02*
X0081775Y0084864D01*
X0081775Y0084902D02*
X0083699Y0084902D01*
X0083699Y0084940D02*
X0081775Y0084940D01*
X0081775Y0084978D02*
X0083699Y0084978D01*
X0083699Y0085016D02*
X0081775Y0085016D01*
X0081775Y0085054D02*
X0083699Y0085054D01*
X0083699Y0085091D02*
X0081775Y0085091D01*
X0081775Y0085129D02*
X0083699Y0085129D01*
X0083699Y0085167D02*
X0081775Y0085167D01*
X0081775Y0085205D02*
X0083699Y0085205D01*
X0083699Y0085243D02*
X0081775Y0085243D01*
X0081775Y0085281D02*
X0083699Y0085281D01*
X0083699Y0085319D02*
X0081775Y0085319D01*
X0081775Y0085357D02*
X0083699Y0085357D01*
X0083699Y0085394D02*
X0081775Y0085394D01*
X0081775Y0085432D02*
X0083699Y0085432D01*
X0083699Y0085470D02*
X0081775Y0085470D01*
X0081775Y0085508D02*
X0083699Y0085508D01*
X0083699Y0085546D02*
X0081775Y0085546D01*
X0081775Y0085584D02*
X0083699Y0085584D01*
X0083699Y0085622D02*
X0081775Y0085622D01*
X0081775Y0085660D02*
X0083699Y0085660D01*
X0083699Y0085697D02*
X0081775Y0085697D01*
X0081775Y0085735D02*
X0083698Y0085735D01*
X0083698Y0085773D02*
X0081775Y0085773D01*
X0081775Y0085811D02*
X0083698Y0085811D01*
X0083698Y0085849D02*
X0081775Y0085849D01*
X0081824Y0085887D02*
X0083698Y0085887D01*
X0083698Y0085925D02*
X0081896Y0085925D01*
X0086172Y0082578D02*
X0086036Y0082402D01*
X0085912Y0082218D01*
X0085799Y0082027D01*
X0085697Y0081829D01*
X0085607Y0081627D01*
X0085528Y0081419D01*
X0085461Y0081207D01*
X0085407Y0080992D01*
X0085365Y0080774D01*
X0085336Y0080554D01*
X0085319Y0080333D01*
X0085316Y0080111D01*
X0085321Y0079889D01*
X0085321Y0075226D01*
X0085518Y0075201D01*
X0087073Y0075201D01*
X0087255Y0075240D01*
X0087255Y0079459D01*
X0087249Y0079681D01*
X0087255Y0079903D01*
X0087278Y0080124D01*
X0087318Y0080342D01*
X0087374Y0080557D01*
X0087447Y0080767D01*
X0087536Y0080970D01*
X0087640Y0081166D01*
X0087787Y0081332D01*
X0087958Y0081472D01*
X0088148Y0081588D01*
X0088351Y0081676D01*
X0088565Y0081735D01*
X0088785Y0081763D01*
X0089007Y0081760D01*
X0089226Y0081727D01*
X0089439Y0081663D01*
X0089641Y0081571D01*
X0089827Y0081451D01*
X0089996Y0081306D01*
X0090134Y0081134D01*
X0090237Y0080938D01*
X0090326Y0080734D01*
X0090399Y0080524D01*
X0090456Y0080310D01*
X0090497Y0080092D01*
X0090521Y0079871D01*
X0090530Y0079649D01*
X0090523Y0079427D01*
X0090526Y0075212D01*
X0092303Y0075212D01*
X0092457Y0075280D01*
X0090526Y0075280D01*
X0090526Y0075242D02*
X0092372Y0075242D01*
X0092457Y0075280D02*
X0092413Y0085938D01*
X0090636Y0085938D01*
X0090479Y0085874D01*
X0090479Y0082765D01*
X0090377Y0082776D01*
X0090206Y0082917D01*
X0090025Y0083045D01*
X0089835Y0083160D01*
X0089636Y0083259D01*
X0089431Y0083344D01*
X0089220Y0083413D01*
X0089005Y0083466D01*
X0088786Y0083502D01*
X0088564Y0083522D01*
X0088343Y0083527D01*
X0088121Y0083521D01*
X0087900Y0083498D01*
X0087681Y0083459D01*
X0087467Y0083402D01*
X0087257Y0083329D01*
X0087054Y0083241D01*
X0086858Y0083136D01*
X0086670Y0083017D01*
X0086493Y0082884D01*
X0086326Y0082737D01*
X0086172Y0082578D01*
X0086185Y0082591D02*
X0092426Y0082591D01*
X0092427Y0082553D02*
X0086153Y0082553D01*
X0086124Y0082515D02*
X0092427Y0082515D01*
X0092427Y0082478D02*
X0086094Y0082478D01*
X0086065Y0082440D02*
X0092427Y0082440D01*
X0092427Y0082402D02*
X0086036Y0082402D01*
X0086011Y0082364D02*
X0092427Y0082364D01*
X0092428Y0082326D02*
X0085985Y0082326D01*
X0085960Y0082288D02*
X0092428Y0082288D01*
X0092428Y0082250D02*
X0085934Y0082250D01*
X0085909Y0082212D02*
X0092428Y0082212D01*
X0092428Y0082175D02*
X0085887Y0082175D01*
X0085864Y0082137D02*
X0092428Y0082137D01*
X0092429Y0082099D02*
X0085842Y0082099D01*
X0085819Y0082061D02*
X0092429Y0082061D01*
X0092429Y0082023D02*
X0085797Y0082023D01*
X0085777Y0081985D02*
X0092429Y0081985D01*
X0092429Y0081947D02*
X0085758Y0081947D01*
X0085738Y0081909D02*
X0092429Y0081909D01*
X0092429Y0081871D02*
X0085719Y0081871D01*
X0085699Y0081834D02*
X0092430Y0081834D01*
X0092430Y0081796D02*
X0085682Y0081796D01*
X0085665Y0081758D02*
X0088746Y0081758D01*
X0088512Y0081720D02*
X0085648Y0081720D01*
X0085631Y0081682D02*
X0088374Y0081682D01*
X0088278Y0081644D02*
X0085614Y0081644D01*
X0085599Y0081606D02*
X0088190Y0081606D01*
X0088116Y0081568D02*
X0085584Y0081568D01*
X0085570Y0081531D02*
X0088054Y0081531D01*
X0087991Y0081493D02*
X0085556Y0081493D01*
X0085541Y0081455D02*
X0087937Y0081455D01*
X0087891Y0081417D02*
X0085527Y0081417D01*
X0085515Y0081379D02*
X0087844Y0081379D01*
X0087798Y0081341D02*
X0085503Y0081341D01*
X0085491Y0081303D02*
X0087762Y0081303D01*
X0087728Y0081265D02*
X0085479Y0081265D01*
X0085468Y0081227D02*
X0087695Y0081227D01*
X0087661Y0081190D02*
X0085457Y0081190D01*
X0085447Y0081152D02*
X0087633Y0081152D01*
X0087612Y0081114D02*
X0085438Y0081114D01*
X0085428Y0081076D02*
X0087592Y0081076D01*
X0087572Y0081038D02*
X0085419Y0081038D01*
X0085409Y0081000D02*
X0087552Y0081000D01*
X0087533Y0080962D02*
X0085401Y0080962D01*
X0085394Y0080924D02*
X0087516Y0080924D01*
X0087499Y0080887D02*
X0085387Y0080887D01*
X0085379Y0080849D02*
X0087483Y0080849D01*
X0087466Y0080811D02*
X0085372Y0080811D01*
X0085365Y0080773D02*
X0087450Y0080773D01*
X0087436Y0080735D02*
X0085360Y0080735D01*
X0085355Y0080697D02*
X0087423Y0080697D01*
X0087410Y0080659D02*
X0085350Y0080659D01*
X0085345Y0080621D02*
X0087397Y0080621D01*
X0087383Y0080584D02*
X0085340Y0080584D01*
X0085335Y0080546D02*
X0087371Y0080546D01*
X0087361Y0080508D02*
X0085332Y0080508D01*
X0085330Y0080470D02*
X0087351Y0080470D01*
X0087341Y0080432D02*
X0085327Y0080432D01*
X0085324Y0080394D02*
X0087331Y0080394D01*
X0087321Y0080356D02*
X0085321Y0080356D01*
X0085319Y0080318D02*
X0087313Y0080318D01*
X0087306Y0080280D02*
X0085319Y0080280D01*
X0085318Y0080243D02*
X0087299Y0080243D01*
X0087292Y0080205D02*
X0085317Y0080205D01*
X0085317Y0080167D02*
X0087285Y0080167D01*
X0087279Y0080129D02*
X0085316Y0080129D01*
X0085316Y0080091D02*
X0087274Y0080091D01*
X0087270Y0080053D02*
X0085317Y0080053D01*
X0085318Y0080015D02*
X0087266Y0080015D01*
X0087262Y0079977D02*
X0085319Y0079977D01*
X0085320Y0079940D02*
X0087259Y0079940D01*
X0087255Y0079902D02*
X0085321Y0079902D01*
X0085321Y0079864D02*
X0087254Y0079864D01*
X0087253Y0079826D02*
X0085321Y0079826D01*
X0085321Y0079788D02*
X0087252Y0079788D01*
X0087251Y0079750D02*
X0085321Y0079750D01*
X0085321Y0079712D02*
X0087250Y0079712D01*
X0087249Y0079674D02*
X0085321Y0079674D01*
X0085321Y0079636D02*
X0087250Y0079636D01*
X0087251Y0079599D02*
X0085321Y0079599D01*
X0085321Y0079561D02*
X0087252Y0079561D01*
X0087253Y0079523D02*
X0085321Y0079523D01*
X0085321Y0079485D02*
X0087254Y0079485D01*
X0087255Y0079447D02*
X0085321Y0079447D01*
X0085321Y0079409D02*
X0087255Y0079409D01*
X0087255Y0079371D02*
X0085321Y0079371D01*
X0085321Y0079333D02*
X0087255Y0079333D01*
X0087255Y0079296D02*
X0085321Y0079296D01*
X0085321Y0079258D02*
X0087255Y0079258D01*
X0087255Y0079220D02*
X0085321Y0079220D01*
X0085321Y0079182D02*
X0087255Y0079182D01*
X0087255Y0079144D02*
X0085321Y0079144D01*
X0085321Y0079106D02*
X0087255Y0079106D01*
X0087255Y0079068D02*
X0085321Y0079068D01*
X0085321Y0079030D02*
X0087255Y0079030D01*
X0087255Y0078992D02*
X0085321Y0078992D01*
X0085321Y0078955D02*
X0087255Y0078955D01*
X0087255Y0078917D02*
X0085321Y0078917D01*
X0085321Y0078879D02*
X0087255Y0078879D01*
X0087255Y0078841D02*
X0085321Y0078841D01*
X0085321Y0078803D02*
X0087255Y0078803D01*
X0087255Y0078765D02*
X0085321Y0078765D01*
X0085321Y0078727D02*
X0087255Y0078727D01*
X0087255Y0078689D02*
X0085321Y0078689D01*
X0085321Y0078652D02*
X0087255Y0078652D01*
X0087255Y0078614D02*
X0085321Y0078614D01*
X0085321Y0078576D02*
X0087255Y0078576D01*
X0087255Y0078538D02*
X0085321Y0078538D01*
X0085321Y0078500D02*
X0087255Y0078500D01*
X0087255Y0078462D02*
X0085321Y0078462D01*
X0085321Y0078424D02*
X0087255Y0078424D01*
X0087255Y0078386D02*
X0085321Y0078386D01*
X0085321Y0078348D02*
X0087255Y0078348D01*
X0087255Y0078311D02*
X0085321Y0078311D01*
X0085321Y0078273D02*
X0087255Y0078273D01*
X0087255Y0078235D02*
X0085321Y0078235D01*
X0085321Y0078197D02*
X0087255Y0078197D01*
X0087255Y0078159D02*
X0085321Y0078159D01*
X0085321Y0078121D02*
X0087255Y0078121D01*
X0087255Y0078083D02*
X0085321Y0078083D01*
X0085321Y0078045D02*
X0087255Y0078045D01*
X0087255Y0078008D02*
X0085321Y0078008D01*
X0085321Y0077970D02*
X0087255Y0077970D01*
X0087255Y0077932D02*
X0085321Y0077932D01*
X0085321Y0077894D02*
X0087255Y0077894D01*
X0087255Y0077856D02*
X0085321Y0077856D01*
X0085321Y0077818D02*
X0087255Y0077818D01*
X0087255Y0077780D02*
X0085321Y0077780D01*
X0085321Y0077742D02*
X0087255Y0077742D01*
X0087255Y0077705D02*
X0085321Y0077705D01*
X0085321Y0077667D02*
X0087255Y0077667D01*
X0087255Y0077629D02*
X0085321Y0077629D01*
X0085321Y0077591D02*
X0087255Y0077591D01*
X0087255Y0077553D02*
X0085321Y0077553D01*
X0085321Y0077515D02*
X0087255Y0077515D01*
X0087255Y0077477D02*
X0085321Y0077477D01*
X0085321Y0077439D02*
X0087255Y0077439D01*
X0087255Y0077401D02*
X0085321Y0077401D01*
X0085321Y0077364D02*
X0087255Y0077364D01*
X0087255Y0077326D02*
X0085321Y0077326D01*
X0085321Y0077288D02*
X0087255Y0077288D01*
X0087255Y0077250D02*
X0085321Y0077250D01*
X0085321Y0077212D02*
X0087255Y0077212D01*
X0087255Y0077174D02*
X0085321Y0077174D01*
X0085321Y0077136D02*
X0087255Y0077136D01*
X0087255Y0077098D02*
X0085321Y0077098D01*
X0085321Y0077061D02*
X0087255Y0077061D01*
X0087255Y0077023D02*
X0085321Y0077023D01*
X0085321Y0076985D02*
X0087255Y0076985D01*
X0087255Y0076947D02*
X0085321Y0076947D01*
X0085321Y0076909D02*
X0087255Y0076909D01*
X0087255Y0076871D02*
X0085321Y0076871D01*
X0085321Y0076833D02*
X0087255Y0076833D01*
X0087255Y0076795D02*
X0085321Y0076795D01*
X0085321Y0076757D02*
X0087255Y0076757D01*
X0087255Y0076720D02*
X0085321Y0076720D01*
X0085321Y0076682D02*
X0087255Y0076682D01*
X0087255Y0076644D02*
X0085321Y0076644D01*
X0085321Y0076606D02*
X0087255Y0076606D01*
X0087255Y0076568D02*
X0085321Y0076568D01*
X0085321Y0076530D02*
X0087255Y0076530D01*
X0087255Y0076492D02*
X0085321Y0076492D01*
X0085321Y0076454D02*
X0087255Y0076454D01*
X0087255Y0076417D02*
X0085321Y0076417D01*
X0085321Y0076379D02*
X0087255Y0076379D01*
X0087255Y0076341D02*
X0085321Y0076341D01*
X0085321Y0076303D02*
X0087255Y0076303D01*
X0087255Y0076265D02*
X0085321Y0076265D01*
X0085321Y0076227D02*
X0087255Y0076227D01*
X0087255Y0076189D02*
X0085321Y0076189D01*
X0085321Y0076151D02*
X0087255Y0076151D01*
X0087255Y0076113D02*
X0085321Y0076113D01*
X0085321Y0076076D02*
X0087255Y0076076D01*
X0087255Y0076038D02*
X0085321Y0076038D01*
X0085321Y0076000D02*
X0087255Y0076000D01*
X0087255Y0075962D02*
X0085321Y0075962D01*
X0085321Y0075924D02*
X0087255Y0075924D01*
X0087255Y0075886D02*
X0085321Y0075886D01*
X0085321Y0075848D02*
X0087255Y0075848D01*
X0087255Y0075810D02*
X0085321Y0075810D01*
X0085321Y0075773D02*
X0087255Y0075773D01*
X0087255Y0075735D02*
X0085321Y0075735D01*
X0085321Y0075697D02*
X0087255Y0075697D01*
X0087255Y0075659D02*
X0085321Y0075659D01*
X0085321Y0075621D02*
X0087255Y0075621D01*
X0087255Y0075583D02*
X0085321Y0075583D01*
X0085321Y0075545D02*
X0087255Y0075545D01*
X0087255Y0075507D02*
X0085321Y0075507D01*
X0085321Y0075470D02*
X0087255Y0075470D01*
X0087255Y0075432D02*
X0085321Y0075432D01*
X0085321Y0075394D02*
X0087255Y0075394D01*
X0087255Y0075356D02*
X0085321Y0075356D01*
X0085321Y0075318D02*
X0087255Y0075318D01*
X0087255Y0075280D02*
X0085321Y0075280D01*
X0085321Y0075242D02*
X0087255Y0075242D01*
X0087089Y0075204D02*
X0085489Y0075204D01*
X0090526Y0075318D02*
X0092457Y0075318D01*
X0092456Y0075356D02*
X0090526Y0075356D01*
X0090526Y0075394D02*
X0092456Y0075394D01*
X0092456Y0075432D02*
X0090526Y0075432D01*
X0090526Y0075470D02*
X0092456Y0075470D01*
X0092456Y0075507D02*
X0090526Y0075507D01*
X0090526Y0075545D02*
X0092456Y0075545D01*
X0092456Y0075583D02*
X0090526Y0075583D01*
X0090526Y0075621D02*
X0092455Y0075621D01*
X0092455Y0075659D02*
X0090526Y0075659D01*
X0090526Y0075697D02*
X0092455Y0075697D01*
X0092455Y0075735D02*
X0090526Y0075735D01*
X0090526Y0075773D02*
X0092455Y0075773D01*
X0092455Y0075810D02*
X0090526Y0075810D01*
X0090526Y0075848D02*
X0092454Y0075848D01*
X0092454Y0075886D02*
X0090526Y0075886D01*
X0090526Y0075924D02*
X0092454Y0075924D01*
X0092454Y0075962D02*
X0090526Y0075962D01*
X0090526Y0076000D02*
X0092454Y0076000D01*
X0092454Y0076038D02*
X0090526Y0076038D01*
X0090526Y0076076D02*
X0092453Y0076076D01*
X0092453Y0076113D02*
X0090526Y0076113D01*
X0090526Y0076151D02*
X0092453Y0076151D01*
X0092453Y0076189D02*
X0090526Y0076189D01*
X0090526Y0076227D02*
X0092453Y0076227D01*
X0092453Y0076265D02*
X0090526Y0076265D01*
X0090526Y0076303D02*
X0092453Y0076303D01*
X0092452Y0076341D02*
X0090526Y0076341D01*
X0090526Y0076379D02*
X0092452Y0076379D01*
X0092452Y0076417D02*
X0090525Y0076417D01*
X0090525Y0076454D02*
X0092452Y0076454D01*
X0092452Y0076492D02*
X0090525Y0076492D01*
X0090525Y0076530D02*
X0092452Y0076530D01*
X0092451Y0076568D02*
X0090525Y0076568D01*
X0090525Y0076606D02*
X0092451Y0076606D01*
X0092451Y0076644D02*
X0090525Y0076644D01*
X0090525Y0076682D02*
X0092451Y0076682D01*
X0092451Y0076720D02*
X0090525Y0076720D01*
X0090525Y0076757D02*
X0092451Y0076757D01*
X0092450Y0076795D02*
X0090525Y0076795D01*
X0090525Y0076833D02*
X0092450Y0076833D01*
X0092450Y0076871D02*
X0090525Y0076871D01*
X0090525Y0076909D02*
X0092450Y0076909D01*
X0092450Y0076947D02*
X0090525Y0076947D01*
X0090525Y0076985D02*
X0092450Y0076985D01*
X0092450Y0077023D02*
X0090525Y0077023D01*
X0090525Y0077061D02*
X0092449Y0077061D01*
X0092449Y0077098D02*
X0090525Y0077098D01*
X0090525Y0077136D02*
X0092449Y0077136D01*
X0092449Y0077174D02*
X0090525Y0077174D01*
X0090525Y0077212D02*
X0092449Y0077212D01*
X0092449Y0077250D02*
X0090525Y0077250D01*
X0090525Y0077288D02*
X0092448Y0077288D01*
X0092448Y0077326D02*
X0090525Y0077326D01*
X0090525Y0077364D02*
X0092448Y0077364D01*
X0092448Y0077401D02*
X0090525Y0077401D01*
X0090525Y0077439D02*
X0092448Y0077439D01*
X0092448Y0077477D02*
X0090525Y0077477D01*
X0090525Y0077515D02*
X0092448Y0077515D01*
X0092447Y0077553D02*
X0090525Y0077553D01*
X0090525Y0077591D02*
X0092447Y0077591D01*
X0092447Y0077629D02*
X0090524Y0077629D01*
X0090524Y0077667D02*
X0092447Y0077667D01*
X0092447Y0077705D02*
X0090524Y0077705D01*
X0090524Y0077742D02*
X0092447Y0077742D01*
X0092446Y0077780D02*
X0090524Y0077780D01*
X0090524Y0077818D02*
X0092446Y0077818D01*
X0092446Y0077856D02*
X0090524Y0077856D01*
X0090524Y0077894D02*
X0092446Y0077894D01*
X0092446Y0077932D02*
X0090524Y0077932D01*
X0090524Y0077970D02*
X0092446Y0077970D01*
X0092445Y0078008D02*
X0090524Y0078008D01*
X0090524Y0078045D02*
X0092445Y0078045D01*
X0092445Y0078083D02*
X0090524Y0078083D01*
X0090524Y0078121D02*
X0092445Y0078121D01*
X0092445Y0078159D02*
X0090524Y0078159D01*
X0090524Y0078197D02*
X0092445Y0078197D01*
X0092445Y0078235D02*
X0090524Y0078235D01*
X0090524Y0078273D02*
X0092444Y0078273D01*
X0092444Y0078311D02*
X0090524Y0078311D01*
X0090524Y0078348D02*
X0092444Y0078348D01*
X0092444Y0078386D02*
X0090524Y0078386D01*
X0090524Y0078424D02*
X0092444Y0078424D01*
X0092444Y0078462D02*
X0090524Y0078462D01*
X0090524Y0078500D02*
X0092443Y0078500D01*
X0092443Y0078538D02*
X0090524Y0078538D01*
X0090524Y0078576D02*
X0092443Y0078576D01*
X0092443Y0078614D02*
X0090524Y0078614D01*
X0090524Y0078652D02*
X0092443Y0078652D01*
X0092443Y0078689D02*
X0090524Y0078689D01*
X0090524Y0078727D02*
X0092442Y0078727D01*
X0092442Y0078765D02*
X0090524Y0078765D01*
X0090524Y0078803D02*
X0092442Y0078803D01*
X0092442Y0078841D02*
X0090523Y0078841D01*
X0090523Y0078879D02*
X0092442Y0078879D01*
X0092442Y0078917D02*
X0090523Y0078917D01*
X0090523Y0078955D02*
X0092442Y0078955D01*
X0092441Y0078992D02*
X0090523Y0078992D01*
X0090523Y0079030D02*
X0092441Y0079030D01*
X0092441Y0079068D02*
X0090523Y0079068D01*
X0090523Y0079106D02*
X0092441Y0079106D01*
X0092441Y0079144D02*
X0090523Y0079144D01*
X0090523Y0079182D02*
X0092441Y0079182D01*
X0092440Y0079220D02*
X0090523Y0079220D01*
X0090523Y0079258D02*
X0092440Y0079258D01*
X0092440Y0079296D02*
X0090523Y0079296D01*
X0090523Y0079333D02*
X0092440Y0079333D01*
X0092440Y0079371D02*
X0090523Y0079371D01*
X0090523Y0079409D02*
X0092440Y0079409D01*
X0092440Y0079447D02*
X0090524Y0079447D01*
X0090525Y0079485D02*
X0092439Y0079485D01*
X0092439Y0079523D02*
X0090526Y0079523D01*
X0090527Y0079561D02*
X0092439Y0079561D01*
X0092439Y0079599D02*
X0090528Y0079599D01*
X0090529Y0079636D02*
X0092439Y0079636D01*
X0092439Y0079674D02*
X0090529Y0079674D01*
X0090527Y0079712D02*
X0092438Y0079712D01*
X0092438Y0079750D02*
X0090526Y0079750D01*
X0090524Y0079788D02*
X0092438Y0079788D01*
X0092438Y0079826D02*
X0090523Y0079826D01*
X0090522Y0079864D02*
X0092438Y0079864D01*
X0092438Y0079902D02*
X0090518Y0079902D01*
X0090514Y0079940D02*
X0092437Y0079940D01*
X0092437Y0079977D02*
X0090509Y0079977D01*
X0090505Y0080015D02*
X0092437Y0080015D01*
X0092437Y0080053D02*
X0090501Y0080053D01*
X0090497Y0080091D02*
X0092437Y0080091D01*
X0092437Y0080129D02*
X0090490Y0080129D01*
X0090482Y0080167D02*
X0092437Y0080167D01*
X0092436Y0080205D02*
X0090475Y0080205D01*
X0090468Y0080243D02*
X0092436Y0080243D01*
X0092436Y0080280D02*
X0090461Y0080280D01*
X0090453Y0080318D02*
X0092436Y0080318D01*
X0092436Y0080356D02*
X0090443Y0080356D01*
X0090433Y0080394D02*
X0092436Y0080394D01*
X0092435Y0080432D02*
X0090423Y0080432D01*
X0090413Y0080470D02*
X0092435Y0080470D01*
X0092435Y0080508D02*
X0090403Y0080508D01*
X0090391Y0080546D02*
X0092435Y0080546D01*
X0092435Y0080584D02*
X0090378Y0080584D01*
X0090365Y0080621D02*
X0092435Y0080621D01*
X0092434Y0080659D02*
X0090352Y0080659D01*
X0090338Y0080697D02*
X0092434Y0080697D01*
X0092434Y0080735D02*
X0090325Y0080735D01*
X0090309Y0080773D02*
X0092434Y0080773D01*
X0092434Y0080811D02*
X0090292Y0080811D01*
X0090276Y0080849D02*
X0092434Y0080849D01*
X0092434Y0080887D02*
X0090260Y0080887D01*
X0090243Y0080924D02*
X0092433Y0080924D01*
X0092433Y0080962D02*
X0090225Y0080962D01*
X0090205Y0081000D02*
X0092433Y0081000D01*
X0092433Y0081038D02*
X0090185Y0081038D01*
X0090165Y0081076D02*
X0092433Y0081076D01*
X0092433Y0081114D02*
X0090145Y0081114D01*
X0090120Y0081152D02*
X0092432Y0081152D01*
X0092432Y0081190D02*
X0090090Y0081190D01*
X0090059Y0081227D02*
X0092432Y0081227D01*
X0092432Y0081265D02*
X0090028Y0081265D01*
X0089998Y0081303D02*
X0092432Y0081303D01*
X0092432Y0081341D02*
X0089955Y0081341D01*
X0089911Y0081379D02*
X0092432Y0081379D01*
X0092431Y0081417D02*
X0089867Y0081417D01*
X0089821Y0081455D02*
X0092431Y0081455D01*
X0092431Y0081493D02*
X0089762Y0081493D01*
X0089703Y0081531D02*
X0092431Y0081531D01*
X0092431Y0081568D02*
X0089644Y0081568D01*
X0089563Y0081606D02*
X0092431Y0081606D01*
X0092430Y0081644D02*
X0089481Y0081644D01*
X0089376Y0081682D02*
X0092430Y0081682D01*
X0092430Y0081720D02*
X0089250Y0081720D01*
X0089024Y0081758D02*
X0092430Y0081758D01*
X0092426Y0082629D02*
X0086221Y0082629D01*
X0086258Y0082667D02*
X0092426Y0082667D01*
X0092426Y0082705D02*
X0086295Y0082705D01*
X0086333Y0082743D02*
X0092426Y0082743D01*
X0092426Y0082781D02*
X0090479Y0082781D01*
X0090479Y0082819D02*
X0092426Y0082819D01*
X0092425Y0082856D02*
X0090479Y0082856D01*
X0090479Y0082894D02*
X0092425Y0082894D01*
X0092425Y0082932D02*
X0090479Y0082932D01*
X0090479Y0082970D02*
X0092425Y0082970D01*
X0092425Y0083008D02*
X0090479Y0083008D01*
X0090479Y0083046D02*
X0092425Y0083046D01*
X0092424Y0083084D02*
X0090479Y0083084D01*
X0090479Y0083122D02*
X0092424Y0083122D01*
X0092424Y0083159D02*
X0090479Y0083159D01*
X0090479Y0083197D02*
X0092424Y0083197D01*
X0092424Y0083235D02*
X0090479Y0083235D01*
X0090479Y0083273D02*
X0092424Y0083273D01*
X0092423Y0083311D02*
X0090479Y0083311D01*
X0090479Y0083349D02*
X0092423Y0083349D01*
X0092423Y0083387D02*
X0090479Y0083387D01*
X0090479Y0083425D02*
X0092423Y0083425D01*
X0092423Y0083462D02*
X0090479Y0083462D01*
X0090479Y0083500D02*
X0092423Y0083500D01*
X0092423Y0083538D02*
X0090479Y0083538D01*
X0090479Y0083576D02*
X0092422Y0083576D01*
X0092422Y0083614D02*
X0090479Y0083614D01*
X0090479Y0083652D02*
X0092422Y0083652D01*
X0092422Y0083690D02*
X0090479Y0083690D01*
X0090479Y0083728D02*
X0092422Y0083728D01*
X0092422Y0083766D02*
X0090479Y0083766D01*
X0090479Y0083803D02*
X0092421Y0083803D01*
X0092421Y0083841D02*
X0090479Y0083841D01*
X0090479Y0083879D02*
X0092421Y0083879D01*
X0092421Y0083917D02*
X0090479Y0083917D01*
X0090479Y0083955D02*
X0092421Y0083955D01*
X0092421Y0083993D02*
X0090479Y0083993D01*
X0090479Y0084031D02*
X0092421Y0084031D01*
X0092420Y0084069D02*
X0090479Y0084069D01*
X0090479Y0084106D02*
X0092420Y0084106D01*
X0092420Y0084144D02*
X0090479Y0084144D01*
X0090479Y0084182D02*
X0092420Y0084182D01*
X0092420Y0084220D02*
X0090479Y0084220D01*
X0090479Y0084258D02*
X0092420Y0084258D01*
X0092419Y0084296D02*
X0090479Y0084296D01*
X0090479Y0084334D02*
X0092419Y0084334D01*
X0092419Y0084372D02*
X0090479Y0084372D01*
X0090479Y0084410D02*
X0092419Y0084410D01*
X0092419Y0084447D02*
X0090479Y0084447D01*
X0090479Y0084485D02*
X0092419Y0084485D01*
X0092418Y0084523D02*
X0090479Y0084523D01*
X0090479Y0084561D02*
X0092418Y0084561D01*
X0092418Y0084599D02*
X0090479Y0084599D01*
X0090479Y0084637D02*
X0092418Y0084637D01*
X0092418Y0084675D02*
X0090479Y0084675D01*
X0090479Y0084713D02*
X0092418Y0084713D01*
X0092418Y0084750D02*
X0090479Y0084750D01*
X0090479Y0084788D02*
X0092417Y0084788D01*
X0092417Y0084826D02*
X0090479Y0084826D01*
X0090479Y0084864D02*
X0092417Y0084864D01*
X0092417Y0084902D02*
X0090479Y0084902D01*
X0090479Y0084940D02*
X0092417Y0084940D01*
X0092417Y0084978D02*
X0090479Y0084978D01*
X0090479Y0085016D02*
X0092416Y0085016D01*
X0092416Y0085054D02*
X0090479Y0085054D01*
X0090479Y0085091D02*
X0092416Y0085091D01*
X0092416Y0085129D02*
X0090479Y0085129D01*
X0090479Y0085167D02*
X0092416Y0085167D01*
X0092416Y0085205D02*
X0090479Y0085205D01*
X0090479Y0085243D02*
X0092416Y0085243D01*
X0092415Y0085281D02*
X0090479Y0085281D01*
X0090479Y0085319D02*
X0092415Y0085319D01*
X0092415Y0085357D02*
X0090479Y0085357D01*
X0090479Y0085394D02*
X0092415Y0085394D01*
X0092415Y0085432D02*
X0090479Y0085432D01*
X0090479Y0085470D02*
X0092415Y0085470D01*
X0092414Y0085508D02*
X0090479Y0085508D01*
X0090479Y0085546D02*
X0092414Y0085546D01*
X0092414Y0085584D02*
X0090479Y0085584D01*
X0090479Y0085622D02*
X0092414Y0085622D01*
X0092414Y0085660D02*
X0090479Y0085660D01*
X0090479Y0085697D02*
X0092414Y0085697D01*
X0092413Y0085735D02*
X0090479Y0085735D01*
X0090479Y0085773D02*
X0092413Y0085773D01*
X0092413Y0085811D02*
X0090479Y0085811D01*
X0090479Y0085849D02*
X0092413Y0085849D01*
X0092413Y0085887D02*
X0090511Y0085887D01*
X0090604Y0085925D02*
X0092413Y0085925D01*
X0093941Y0083293D02*
X0093880Y0083132D01*
X0093880Y0075349D01*
X0093998Y0075245D01*
X0095554Y0075245D01*
X0095658Y0075364D01*
X0095658Y0076031D01*
X0095744Y0076030D01*
X0096652Y0077166D01*
X0096487Y0077306D01*
X0096334Y0077468D01*
X0096199Y0077644D01*
X0096079Y0077832D01*
X0095975Y0078028D01*
X0095886Y0078232D01*
X0095815Y0078442D01*
X0095760Y0078658D01*
X0095724Y0078877D01*
X0095705Y0079098D01*
X0095704Y0079321D01*
X0095720Y0079542D01*
X0095754Y0079762D01*
X0095807Y0079978D01*
X0095876Y0080189D01*
X0095962Y0080394D01*
X0093880Y0080394D01*
X0093880Y0080356D02*
X0095946Y0080356D01*
X0095930Y0080318D02*
X0093880Y0080318D01*
X0093880Y0080280D02*
X0095914Y0080280D01*
X0095898Y0080243D02*
X0093880Y0080243D01*
X0093880Y0080205D02*
X0095882Y0080205D01*
X0095868Y0080167D02*
X0093880Y0080167D01*
X0093880Y0080129D02*
X0095856Y0080129D01*
X0095844Y0080091D02*
X0093880Y0080091D01*
X0093880Y0080053D02*
X0095831Y0080053D01*
X0095819Y0080015D02*
X0093880Y0080015D01*
X0093880Y0079977D02*
X0095806Y0079977D01*
X0095797Y0079940D02*
X0093880Y0079940D01*
X0093880Y0079902D02*
X0095788Y0079902D01*
X0095779Y0079864D02*
X0093880Y0079864D01*
X0093880Y0079826D02*
X0095770Y0079826D01*
X0095761Y0079788D02*
X0093880Y0079788D01*
X0093880Y0079750D02*
X0095753Y0079750D01*
X0095747Y0079712D02*
X0093880Y0079712D01*
X0093880Y0079674D02*
X0095741Y0079674D01*
X0095735Y0079636D02*
X0093880Y0079636D01*
X0093880Y0079599D02*
X0095729Y0079599D01*
X0095723Y0079561D02*
X0093880Y0079561D01*
X0093880Y0079523D02*
X0095719Y0079523D01*
X0095716Y0079485D02*
X0093880Y0079485D01*
X0093880Y0079447D02*
X0095713Y0079447D01*
X0095710Y0079409D02*
X0093880Y0079409D01*
X0093880Y0079371D02*
X0095707Y0079371D01*
X0095704Y0079333D02*
X0093880Y0079333D01*
X0093880Y0079296D02*
X0095704Y0079296D01*
X0095704Y0079258D02*
X0093880Y0079258D01*
X0093880Y0079220D02*
X0095704Y0079220D01*
X0095704Y0079182D02*
X0093880Y0079182D01*
X0093880Y0079144D02*
X0095704Y0079144D01*
X0095705Y0079106D02*
X0093880Y0079106D01*
X0093880Y0079068D02*
X0095707Y0079068D01*
X0095710Y0079030D02*
X0093880Y0079030D01*
X0093880Y0078992D02*
X0095714Y0078992D01*
X0095717Y0078955D02*
X0093880Y0078955D01*
X0093880Y0078917D02*
X0095720Y0078917D01*
X0095723Y0078879D02*
X0093880Y0078879D01*
X0093880Y0078841D02*
X0095730Y0078841D01*
X0095736Y0078803D02*
X0093880Y0078803D01*
X0093880Y0078765D02*
X0095742Y0078765D01*
X0095749Y0078727D02*
X0093880Y0078727D01*
X0093880Y0078689D02*
X0095755Y0078689D01*
X0095762Y0078652D02*
X0093880Y0078652D01*
X0093880Y0078614D02*
X0095772Y0078614D01*
X0095781Y0078576D02*
X0093880Y0078576D01*
X0093880Y0078538D02*
X0095791Y0078538D01*
X0095800Y0078500D02*
X0093880Y0078500D01*
X0093880Y0078462D02*
X0095810Y0078462D01*
X0095821Y0078424D02*
X0093880Y0078424D01*
X0093880Y0078386D02*
X0095834Y0078386D01*
X0095847Y0078348D02*
X0093880Y0078348D01*
X0093880Y0078311D02*
X0095859Y0078311D01*
X0095872Y0078273D02*
X0093880Y0078273D01*
X0093880Y0078235D02*
X0095885Y0078235D01*
X0095901Y0078197D02*
X0093880Y0078197D01*
X0093880Y0078159D02*
X0095918Y0078159D01*
X0095934Y0078121D02*
X0093880Y0078121D01*
X0093880Y0078083D02*
X0095951Y0078083D01*
X0095967Y0078045D02*
X0093880Y0078045D01*
X0093880Y0078008D02*
X0095985Y0078008D01*
X0096006Y0077970D02*
X0093880Y0077970D01*
X0093880Y0077932D02*
X0096026Y0077932D01*
X0096046Y0077894D02*
X0093880Y0077894D01*
X0093880Y0077856D02*
X0096066Y0077856D01*
X0096088Y0077818D02*
X0093880Y0077818D01*
X0093880Y0077780D02*
X0096112Y0077780D01*
X0096136Y0077742D02*
X0093880Y0077742D01*
X0093880Y0077705D02*
X0096161Y0077705D01*
X0096185Y0077667D02*
X0093880Y0077667D01*
X0093880Y0077629D02*
X0096211Y0077629D01*
X0096240Y0077591D02*
X0093880Y0077591D01*
X0093880Y0077553D02*
X0096269Y0077553D01*
X0096298Y0077515D02*
X0093880Y0077515D01*
X0093880Y0077477D02*
X0096327Y0077477D01*
X0096361Y0077439D02*
X0093880Y0077439D01*
X0093880Y0077401D02*
X0096397Y0077401D01*
X0096433Y0077364D02*
X0093880Y0077364D01*
X0093880Y0077326D02*
X0096469Y0077326D01*
X0096509Y0077288D02*
X0093880Y0077288D01*
X0093880Y0077250D02*
X0096553Y0077250D01*
X0096598Y0077212D02*
X0093880Y0077212D01*
X0093880Y0077174D02*
X0096642Y0077174D01*
X0096660Y0077160D02*
X0095752Y0076027D01*
X0095910Y0075877D01*
X0096081Y0075735D01*
X0096259Y0075602D01*
X0096445Y0075481D01*
X0096639Y0075371D01*
X0096838Y0075272D01*
X0097043Y0075186D01*
X0097252Y0075112D01*
X0097466Y0075050D01*
X0097683Y0075002D01*
X0097902Y0074966D01*
X0098124Y0074944D01*
X0098346Y0074934D01*
X0098393Y0074934D01*
X0098615Y0074938D01*
X0098837Y0074955D01*
X0099057Y0074986D01*
X0099275Y0075029D01*
X0099490Y0075086D01*
X0099701Y0075155D01*
X0099908Y0075237D01*
X0100109Y0075330D01*
X0100305Y0075436D01*
X0100494Y0075553D01*
X0100675Y0075682D01*
X0100849Y0075821D01*
X0101014Y0075970D01*
X0101170Y0076128D01*
X0101318Y0076294D01*
X0101458Y0076467D01*
X0101589Y0076646D01*
X0101711Y0076832D01*
X0101824Y0077023D01*
X0099288Y0077023D01*
X0099225Y0076985D02*
X0101801Y0076985D01*
X0101779Y0076947D02*
X0099159Y0076947D01*
X0099171Y0076953D02*
X0098970Y0076857D01*
X0098762Y0076782D01*
X0098546Y0076726D01*
X0098327Y0076692D01*
X0098105Y0076678D01*
X0097883Y0076686D01*
X0097662Y0076715D01*
X0097446Y0076765D01*
X0097235Y0076836D01*
X0097032Y0076926D01*
X0096838Y0077035D01*
X0096660Y0077160D01*
X0096641Y0077136D02*
X0096694Y0077136D01*
X0096629Y0077136D02*
X0093880Y0077136D01*
X0093880Y0077098D02*
X0096599Y0077098D01*
X0096611Y0077098D02*
X0096748Y0077098D01*
X0096802Y0077061D02*
X0096581Y0077061D01*
X0096568Y0077061D02*
X0093880Y0077061D01*
X0093880Y0077023D02*
X0096538Y0077023D01*
X0096550Y0077023D02*
X0096860Y0077023D01*
X0096927Y0076985D02*
X0096520Y0076985D01*
X0096508Y0076985D02*
X0093880Y0076985D01*
X0093880Y0076947D02*
X0096477Y0076947D01*
X0096490Y0076947D02*
X0096995Y0076947D01*
X0097070Y0076909D02*
X0096459Y0076909D01*
X0096447Y0076909D02*
X0093880Y0076909D01*
X0093880Y0076871D02*
X0096417Y0076871D01*
X0096429Y0076871D02*
X0097155Y0076871D01*
X0097242Y0076833D02*
X0096399Y0076833D01*
X0096386Y0076833D02*
X0093880Y0076833D01*
X0093880Y0076795D02*
X0096356Y0076795D01*
X0096368Y0076795D02*
X0097355Y0076795D01*
X0097479Y0076757D02*
X0096338Y0076757D01*
X0096326Y0076757D02*
X0093880Y0076757D01*
X0093880Y0076720D02*
X0096295Y0076720D01*
X0096308Y0076720D02*
X0097643Y0076720D01*
X0098006Y0076682D02*
X0096277Y0076682D01*
X0096265Y0076682D02*
X0093880Y0076682D01*
X0093880Y0076644D02*
X0096235Y0076644D01*
X0096247Y0076644D02*
X0101587Y0076644D01*
X0101612Y0076682D02*
X0098163Y0076682D01*
X0098504Y0076720D02*
X0101637Y0076720D01*
X0101662Y0076757D02*
X0098668Y0076757D01*
X0098800Y0076795D02*
X0101687Y0076795D01*
X0101712Y0076833D02*
X0098904Y0076833D01*
X0098999Y0076871D02*
X0101734Y0076871D01*
X0101757Y0076909D02*
X0099079Y0076909D01*
X0099171Y0076953D02*
X0099362Y0077067D01*
X0099541Y0077198D01*
X0099707Y0077347D01*
X0099854Y0077513D01*
X0099985Y0077692D01*
X0100101Y0077882D01*
X0100202Y0078080D01*
X0100286Y0078286D01*
X0100353Y0078498D01*
X0100402Y0078715D01*
X0100435Y0078935D01*
X0100449Y0079156D01*
X0100445Y0079379D01*
X0100424Y0079600D01*
X0100385Y0079819D01*
X0100329Y0080034D01*
X0100255Y0080243D01*
X0100165Y0080446D01*
X0100058Y0080642D01*
X0099936Y0080827D01*
X0099799Y0081003D01*
X0099646Y0081164D01*
X0099477Y0081308D01*
X0099295Y0081435D01*
X0099100Y0081543D01*
X0098896Y0081630D01*
X0098684Y0081698D01*
X0098467Y0081743D01*
X0098246Y0081767D01*
X0098070Y0081770D01*
X0097848Y0081763D01*
X0097628Y0081733D01*
X0097412Y0081682D01*
X0093880Y0081682D01*
X0093880Y0081644D02*
X0097302Y0081644D01*
X0097201Y0081609D02*
X0097412Y0081682D01*
X0097572Y0081720D02*
X0093880Y0081720D01*
X0093880Y0081758D02*
X0097812Y0081758D01*
X0098329Y0081758D02*
X0101610Y0081758D01*
X0101584Y0081796D02*
X0093880Y0081796D01*
X0093880Y0081834D02*
X0101558Y0081834D01*
X0101540Y0081860D02*
X0101406Y0082037D01*
X0101113Y0082372D01*
X0100955Y0082528D01*
X0100788Y0082675D01*
X0100612Y0082811D01*
X0100429Y0082937D01*
X0100239Y0083052D01*
X0100041Y0083154D01*
X0099839Y0083245D01*
X0099631Y0083324D01*
X0099418Y0083390D01*
X0099203Y0083443D01*
X0098984Y0083484D01*
X0098763Y0083510D01*
X0098541Y0083524D01*
X0098097Y0083522D01*
X0097875Y0083504D01*
X0097655Y0083472D01*
X0097437Y0083427D01*
X0097223Y0083369D01*
X0097012Y0083297D01*
X0096806Y0083214D01*
X0096606Y0083118D01*
X0096411Y0083010D01*
X0096224Y0082890D01*
X0096044Y0082759D01*
X0095873Y0082618D01*
X0095710Y0082467D01*
X0095658Y0082563D01*
X0095658Y0083231D01*
X0095498Y0083293D01*
X0093941Y0083293D01*
X0093934Y0083273D02*
X0095548Y0083273D01*
X0095646Y0083235D02*
X0093919Y0083235D01*
X0093905Y0083197D02*
X0095658Y0083197D01*
X0095658Y0083159D02*
X0093890Y0083159D01*
X0093880Y0083122D02*
X0095658Y0083122D01*
X0095658Y0083084D02*
X0093880Y0083084D01*
X0093880Y0083046D02*
X0095658Y0083046D01*
X0095658Y0083008D02*
X0093880Y0083008D01*
X0093880Y0082970D02*
X0095658Y0082970D01*
X0095658Y0082932D02*
X0093880Y0082932D01*
X0093880Y0082894D02*
X0095658Y0082894D01*
X0095658Y0082856D02*
X0093880Y0082856D01*
X0093880Y0082819D02*
X0095658Y0082819D01*
X0095658Y0082781D02*
X0093880Y0082781D01*
X0093880Y0082743D02*
X0095658Y0082743D01*
X0095658Y0082705D02*
X0093880Y0082705D01*
X0093880Y0082667D02*
X0095658Y0082667D01*
X0095658Y0082629D02*
X0093880Y0082629D01*
X0093880Y0082591D02*
X0095658Y0082591D01*
X0095664Y0082553D02*
X0093880Y0082553D01*
X0093880Y0082515D02*
X0095684Y0082515D01*
X0095704Y0082478D02*
X0093880Y0082478D01*
X0093880Y0082440D02*
X0101044Y0082440D01*
X0101006Y0082478D02*
X0095722Y0082478D01*
X0095762Y0082515D02*
X0100968Y0082515D01*
X0100926Y0082553D02*
X0095803Y0082553D01*
X0095844Y0082591D02*
X0100883Y0082591D01*
X0100840Y0082629D02*
X0095886Y0082629D01*
X0095932Y0082667D02*
X0100797Y0082667D01*
X0100749Y0082705D02*
X0095978Y0082705D01*
X0096024Y0082743D02*
X0100701Y0082743D01*
X0100652Y0082781D02*
X0096073Y0082781D01*
X0096125Y0082819D02*
X0100602Y0082819D01*
X0100547Y0082856D02*
X0096178Y0082856D01*
X0096231Y0082894D02*
X0100492Y0082894D01*
X0100436Y0082932D02*
X0096290Y0082932D01*
X0096349Y0082970D02*
X0100374Y0082970D01*
X0100311Y0083008D02*
X0096409Y0083008D01*
X0096476Y0083046D02*
X0100248Y0083046D01*
X0100177Y0083084D02*
X0096544Y0083084D01*
X0096614Y0083122D02*
X0100104Y0083122D01*
X0100030Y0083159D02*
X0096693Y0083159D01*
X0096772Y0083197D02*
X0099946Y0083197D01*
X0099861Y0083235D02*
X0096859Y0083235D01*
X0096952Y0083273D02*
X0099765Y0083273D01*
X0099665Y0083311D02*
X0097052Y0083311D01*
X0097165Y0083349D02*
X0099551Y0083349D01*
X0099429Y0083387D02*
X0097290Y0083387D01*
X0097429Y0083425D02*
X0099278Y0083425D01*
X0099098Y0083462D02*
X0097610Y0083462D01*
X0097853Y0083500D02*
X0098846Y0083500D01*
X0098577Y0081720D02*
X0101636Y0081720D01*
X0101662Y0081682D02*
X0098733Y0081682D01*
X0098853Y0081644D02*
X0101686Y0081644D01*
X0101666Y0081677D02*
X0101540Y0081860D01*
X0101531Y0081871D02*
X0093880Y0081871D01*
X0093880Y0081909D02*
X0101503Y0081909D01*
X0101474Y0081947D02*
X0093880Y0081947D01*
X0093880Y0081985D02*
X0101445Y0081985D01*
X0101416Y0082023D02*
X0093880Y0082023D01*
X0093880Y0082061D02*
X0101385Y0082061D01*
X0101351Y0082099D02*
X0093880Y0082099D01*
X0093880Y0082137D02*
X0101318Y0082137D01*
X0101285Y0082175D02*
X0093880Y0082175D01*
X0093880Y0082212D02*
X0101252Y0082212D01*
X0101219Y0082250D02*
X0093880Y0082250D01*
X0093880Y0082288D02*
X0101186Y0082288D01*
X0101153Y0082326D02*
X0093880Y0082326D01*
X0093880Y0082364D02*
X0101120Y0082364D01*
X0101083Y0082402D02*
X0093880Y0082402D01*
X0093880Y0081606D02*
X0097195Y0081606D01*
X0097201Y0081609D02*
X0097000Y0081516D01*
X0096808Y0081403D01*
X0096629Y0081272D01*
X0096464Y0081123D01*
X0096315Y0080958D01*
X0096182Y0080780D01*
X0096064Y0080591D01*
X0095962Y0080394D01*
X0095981Y0080432D02*
X0093880Y0080432D01*
X0093880Y0080470D02*
X0096001Y0080470D01*
X0096021Y0080508D02*
X0093880Y0080508D01*
X0093880Y0080546D02*
X0096041Y0080546D01*
X0096060Y0080584D02*
X0093880Y0080584D01*
X0093880Y0080621D02*
X0096083Y0080621D01*
X0096107Y0080659D02*
X0093880Y0080659D01*
X0093880Y0080697D02*
X0096131Y0080697D01*
X0096154Y0080735D02*
X0093880Y0080735D01*
X0093880Y0080773D02*
X0096178Y0080773D01*
X0096205Y0080811D02*
X0093880Y0080811D01*
X0093880Y0080849D02*
X0096234Y0080849D01*
X0096262Y0080887D02*
X0093880Y0080887D01*
X0093880Y0080924D02*
X0096290Y0080924D01*
X0096319Y0080962D02*
X0093880Y0080962D01*
X0093880Y0081000D02*
X0096353Y0081000D01*
X0096387Y0081038D02*
X0093880Y0081038D01*
X0093880Y0081076D02*
X0096421Y0081076D01*
X0096455Y0081114D02*
X0093880Y0081114D01*
X0093880Y0081152D02*
X0096495Y0081152D01*
X0096537Y0081190D02*
X0093880Y0081190D01*
X0093880Y0081227D02*
X0096580Y0081227D01*
X0096622Y0081265D02*
X0093880Y0081265D01*
X0093880Y0081303D02*
X0096672Y0081303D01*
X0096723Y0081341D02*
X0093880Y0081341D01*
X0093880Y0081379D02*
X0096775Y0081379D01*
X0096831Y0081417D02*
X0093880Y0081417D01*
X0093880Y0081455D02*
X0096895Y0081455D01*
X0096960Y0081493D02*
X0093880Y0081493D01*
X0093880Y0081531D02*
X0097031Y0081531D01*
X0097113Y0081568D02*
X0093880Y0081568D01*
X0090372Y0082781D02*
X0086376Y0082781D01*
X0086419Y0082819D02*
X0090326Y0082819D01*
X0090280Y0082856D02*
X0086462Y0082856D01*
X0086507Y0082894D02*
X0090234Y0082894D01*
X0090185Y0082932D02*
X0086558Y0082932D01*
X0086608Y0082970D02*
X0090132Y0082970D01*
X0090078Y0083008D02*
X0086658Y0083008D01*
X0086716Y0083046D02*
X0090025Y0083046D01*
X0089962Y0083084D02*
X0086775Y0083084D01*
X0086835Y0083122D02*
X0089898Y0083122D01*
X0089835Y0083159D02*
X0086901Y0083159D01*
X0086972Y0083197D02*
X0089760Y0083197D01*
X0089685Y0083235D02*
X0087044Y0083235D01*
X0087128Y0083273D02*
X0089603Y0083273D01*
X0089511Y0083311D02*
X0087215Y0083311D01*
X0087313Y0083349D02*
X0089416Y0083349D01*
X0089300Y0083387D02*
X0087422Y0083387D01*
X0087552Y0083425D02*
X0089172Y0083425D01*
X0089017Y0083462D02*
X0087702Y0083462D01*
X0087918Y0083500D02*
X0088796Y0083500D01*
X0093880Y0076606D02*
X0096204Y0076606D01*
X0096216Y0076606D02*
X0101559Y0076606D01*
X0101532Y0076568D02*
X0096186Y0076568D01*
X0096174Y0076568D02*
X0093880Y0076568D01*
X0093880Y0076530D02*
X0096144Y0076530D01*
X0096156Y0076530D02*
X0101504Y0076530D01*
X0101476Y0076492D02*
X0096125Y0076492D01*
X0096114Y0076492D02*
X0093880Y0076492D01*
X0093880Y0076454D02*
X0096083Y0076454D01*
X0096095Y0076454D02*
X0101447Y0076454D01*
X0101417Y0076417D02*
X0096065Y0076417D01*
X0096053Y0076417D02*
X0093880Y0076417D01*
X0093880Y0076379D02*
X0096023Y0076379D01*
X0096034Y0076379D02*
X0101386Y0076379D01*
X0101355Y0076341D02*
X0096004Y0076341D01*
X0095992Y0076341D02*
X0093880Y0076341D01*
X0093880Y0076303D02*
X0095962Y0076303D01*
X0095974Y0076303D02*
X0101325Y0076303D01*
X0101292Y0076265D02*
X0095943Y0076265D01*
X0095932Y0076265D02*
X0093880Y0076265D01*
X0093880Y0076227D02*
X0095901Y0076227D01*
X0095913Y0076227D02*
X0101258Y0076227D01*
X0101224Y0076189D02*
X0095882Y0076189D01*
X0095871Y0076189D02*
X0093880Y0076189D01*
X0093880Y0076151D02*
X0095841Y0076151D01*
X0095852Y0076151D02*
X0101190Y0076151D01*
X0101155Y0076113D02*
X0095822Y0076113D01*
X0095810Y0076113D02*
X0093880Y0076113D01*
X0093880Y0076076D02*
X0095780Y0076076D01*
X0095791Y0076076D02*
X0101118Y0076076D01*
X0101081Y0076038D02*
X0095761Y0076038D01*
X0095750Y0076038D02*
X0093880Y0076038D01*
X0093880Y0076000D02*
X0095658Y0076000D01*
X0095658Y0075962D02*
X0093880Y0075962D01*
X0093880Y0075924D02*
X0095658Y0075924D01*
X0095658Y0075886D02*
X0093880Y0075886D01*
X0093880Y0075848D02*
X0095658Y0075848D01*
X0095658Y0075810D02*
X0093880Y0075810D01*
X0093880Y0075773D02*
X0095658Y0075773D01*
X0095658Y0075735D02*
X0093880Y0075735D01*
X0093880Y0075697D02*
X0095658Y0075697D01*
X0095658Y0075659D02*
X0093880Y0075659D01*
X0093880Y0075621D02*
X0095658Y0075621D01*
X0095658Y0075583D02*
X0093880Y0075583D01*
X0093880Y0075545D02*
X0095658Y0075545D01*
X0095658Y0075507D02*
X0093880Y0075507D01*
X0093880Y0075470D02*
X0095658Y0075470D01*
X0095658Y0075432D02*
X0093880Y0075432D01*
X0093880Y0075394D02*
X0095658Y0075394D01*
X0095651Y0075356D02*
X0093880Y0075356D01*
X0093915Y0075318D02*
X0095618Y0075318D01*
X0095585Y0075280D02*
X0093958Y0075280D01*
X0095780Y0076000D02*
X0101044Y0076000D01*
X0101006Y0075962D02*
X0095820Y0075962D01*
X0095861Y0075924D02*
X0100964Y0075924D01*
X0100922Y0075886D02*
X0095901Y0075886D01*
X0095945Y0075848D02*
X0100880Y0075848D01*
X0100836Y0075810D02*
X0095990Y0075810D01*
X0096035Y0075773D02*
X0100789Y0075773D01*
X0100742Y0075735D02*
X0096080Y0075735D01*
X0096132Y0075697D02*
X0100694Y0075697D01*
X0100643Y0075659D02*
X0096183Y0075659D01*
X0096234Y0075621D02*
X0100590Y0075621D01*
X0100536Y0075583D02*
X0096289Y0075583D01*
X0096347Y0075545D02*
X0100481Y0075545D01*
X0100420Y0075507D02*
X0096405Y0075507D01*
X0096465Y0075470D02*
X0100359Y0075470D01*
X0100297Y0075432D02*
X0096532Y0075432D01*
X0096598Y0075394D02*
X0100227Y0075394D01*
X0100156Y0075356D02*
X0096669Y0075356D01*
X0096745Y0075318D02*
X0100083Y0075318D01*
X0100001Y0075280D02*
X0096822Y0075280D01*
X0096909Y0075242D02*
X0099920Y0075242D01*
X0099826Y0075204D02*
X0096999Y0075204D01*
X0097098Y0075166D02*
X0099730Y0075166D01*
X0099621Y0075129D02*
X0097205Y0075129D01*
X0097326Y0075091D02*
X0099505Y0075091D01*
X0099365Y0075053D02*
X0097458Y0075053D01*
X0097624Y0075015D02*
X0099204Y0075015D01*
X0098995Y0074977D02*
X0097835Y0074977D01*
X0098227Y0074939D02*
X0098630Y0074939D01*
X0099352Y0077061D02*
X0101844Y0077061D01*
X0101864Y0077098D02*
X0099405Y0077098D01*
X0099457Y0077136D02*
X0101884Y0077136D01*
X0101903Y0077174D02*
X0099508Y0077174D01*
X0099556Y0077212D02*
X0101923Y0077212D01*
X0101928Y0077220D02*
X0102021Y0077422D01*
X0102105Y0077628D01*
X0102178Y0077838D01*
X0102240Y0078051D01*
X0102292Y0078267D01*
X0102334Y0078486D01*
X0102364Y0078706D01*
X0102384Y0078928D01*
X0102393Y0079150D01*
X0102391Y0079372D01*
X0102378Y0079594D01*
X0102354Y0079815D01*
X0102319Y0080035D01*
X0102274Y0080252D01*
X0102218Y0080467D01*
X0102151Y0080680D01*
X0102074Y0080888D01*
X0101987Y0081093D01*
X0101890Y0081293D01*
X0101783Y0081487D01*
X0101666Y0081677D01*
X0101709Y0081606D02*
X0098952Y0081606D01*
X0099040Y0081568D02*
X0101733Y0081568D01*
X0101756Y0081531D02*
X0099122Y0081531D01*
X0099190Y0081493D02*
X0101779Y0081493D01*
X0101801Y0081455D02*
X0099258Y0081455D01*
X0099320Y0081417D02*
X0101821Y0081417D01*
X0101842Y0081379D02*
X0099375Y0081379D01*
X0099429Y0081341D02*
X0101863Y0081341D01*
X0101884Y0081303D02*
X0099483Y0081303D01*
X0099527Y0081265D02*
X0101903Y0081265D01*
X0101921Y0081227D02*
X0099571Y0081227D01*
X0099616Y0081190D02*
X0101940Y0081190D01*
X0101958Y0081152D02*
X0099658Y0081152D01*
X0099694Y0081114D02*
X0101977Y0081114D01*
X0101994Y0081076D02*
X0099730Y0081076D01*
X0099766Y0081038D02*
X0102010Y0081038D01*
X0102026Y0081000D02*
X0099801Y0081000D01*
X0099831Y0080962D02*
X0102043Y0080962D01*
X0102059Y0080924D02*
X0099860Y0080924D01*
X0099890Y0080887D02*
X0102075Y0080887D01*
X0102089Y0080849D02*
X0099919Y0080849D01*
X0099947Y0080811D02*
X0102103Y0080811D01*
X0102117Y0080773D02*
X0099972Y0080773D01*
X0099997Y0080735D02*
X0102131Y0080735D01*
X0102145Y0080697D02*
X0100021Y0080697D01*
X0100046Y0080659D02*
X0102158Y0080659D01*
X0102170Y0080621D02*
X0100069Y0080621D01*
X0100090Y0080584D02*
X0102181Y0080584D01*
X0102193Y0080546D02*
X0100110Y0080546D01*
X0100131Y0080508D02*
X0102205Y0080508D01*
X0102217Y0080470D02*
X0100152Y0080470D01*
X0100171Y0080432D02*
X0102227Y0080432D01*
X0102237Y0080394D02*
X0100188Y0080394D01*
X0100205Y0080356D02*
X0102247Y0080356D01*
X0102257Y0080318D02*
X0100222Y0080318D01*
X0100239Y0080280D02*
X0102267Y0080280D01*
X0102276Y0080243D02*
X0100255Y0080243D01*
X0100269Y0080205D02*
X0102284Y0080205D01*
X0102292Y0080167D02*
X0100282Y0080167D01*
X0100295Y0080129D02*
X0102300Y0080129D01*
X0102308Y0080091D02*
X0100309Y0080091D01*
X0100322Y0080053D02*
X0102316Y0080053D01*
X0102323Y0080015D02*
X0100334Y0080015D01*
X0100343Y0079977D02*
X0102328Y0079977D01*
X0102334Y0079940D02*
X0100353Y0079940D01*
X0100363Y0079902D02*
X0102340Y0079902D01*
X0102346Y0079864D02*
X0100373Y0079864D01*
X0100383Y0079826D02*
X0102352Y0079826D01*
X0102357Y0079788D02*
X0100391Y0079788D01*
X0100397Y0079750D02*
X0102361Y0079750D01*
X0102365Y0079712D02*
X0100404Y0079712D01*
X0100411Y0079674D02*
X0102369Y0079674D01*
X0102373Y0079636D02*
X0100418Y0079636D01*
X0100424Y0079599D02*
X0102377Y0079599D01*
X0102380Y0079561D02*
X0100428Y0079561D01*
X0100432Y0079523D02*
X0102382Y0079523D01*
X0102384Y0079485D02*
X0100435Y0079485D01*
X0100439Y0079447D02*
X0102387Y0079447D01*
X0102389Y0079409D02*
X0100443Y0079409D01*
X0100446Y0079371D02*
X0102391Y0079371D01*
X0102391Y0079333D02*
X0100446Y0079333D01*
X0100447Y0079296D02*
X0102392Y0079296D01*
X0102392Y0079258D02*
X0100447Y0079258D01*
X0100448Y0079220D02*
X0102392Y0079220D01*
X0102393Y0079182D02*
X0100449Y0079182D01*
X0100448Y0079144D02*
X0102393Y0079144D01*
X0102391Y0079106D02*
X0100446Y0079106D01*
X0100443Y0079068D02*
X0102390Y0079068D01*
X0102388Y0079030D02*
X0100441Y0079030D01*
X0100438Y0078992D02*
X0102387Y0078992D01*
X0102385Y0078955D02*
X0100436Y0078955D01*
X0100432Y0078917D02*
X0102383Y0078917D01*
X0102380Y0078879D02*
X0100426Y0078879D01*
X0100421Y0078841D02*
X0102376Y0078841D01*
X0102373Y0078803D02*
X0100415Y0078803D01*
X0100410Y0078765D02*
X0102370Y0078765D01*
X0102366Y0078727D02*
X0100404Y0078727D01*
X0100397Y0078689D02*
X0102362Y0078689D01*
X0102357Y0078652D02*
X0100388Y0078652D01*
X0100379Y0078614D02*
X0102352Y0078614D01*
X0102346Y0078576D02*
X0100371Y0078576D01*
X0100362Y0078538D02*
X0102341Y0078538D01*
X0102336Y0078500D02*
X0100353Y0078500D01*
X0100341Y0078462D02*
X0102329Y0078462D01*
X0102322Y0078424D02*
X0100329Y0078424D01*
X0100317Y0078386D02*
X0102315Y0078386D01*
X0102308Y0078348D02*
X0100305Y0078348D01*
X0100293Y0078311D02*
X0102301Y0078311D01*
X0102293Y0078273D02*
X0100280Y0078273D01*
X0100265Y0078235D02*
X0102285Y0078235D01*
X0102275Y0078197D02*
X0100249Y0078197D01*
X0100234Y0078159D02*
X0102266Y0078159D01*
X0102257Y0078121D02*
X0100218Y0078121D01*
X0100203Y0078083D02*
X0102248Y0078083D01*
X0102239Y0078045D02*
X0100184Y0078045D01*
X0100165Y0078008D02*
X0102228Y0078008D01*
X0102216Y0077970D02*
X0100146Y0077970D01*
X0100127Y0077932D02*
X0102205Y0077932D01*
X0102194Y0077894D02*
X0100107Y0077894D01*
X0100085Y0077856D02*
X0102183Y0077856D01*
X0102171Y0077818D02*
X0100062Y0077818D01*
X0100039Y0077780D02*
X0102158Y0077780D01*
X0102144Y0077742D02*
X0100016Y0077742D01*
X0099992Y0077705D02*
X0102131Y0077705D01*
X0102118Y0077667D02*
X0099966Y0077667D01*
X0099939Y0077629D02*
X0102105Y0077629D01*
X0102090Y0077591D02*
X0099911Y0077591D01*
X0099884Y0077553D02*
X0102074Y0077553D01*
X0102059Y0077515D02*
X0099856Y0077515D01*
X0099823Y0077477D02*
X0102044Y0077477D01*
X0102028Y0077439D02*
X0099789Y0077439D01*
X0099755Y0077401D02*
X0102012Y0077401D01*
X0101994Y0077364D02*
X0099722Y0077364D01*
X0099683Y0077326D02*
X0101977Y0077326D01*
X0101959Y0077288D02*
X0099641Y0077288D01*
X0099599Y0077250D02*
X0101941Y0077250D01*
X0101928Y0077220D02*
X0101824Y0077023D01*
X0103417Y0077023D02*
X0105845Y0077023D01*
X0105855Y0077023D02*
X0106400Y0077023D01*
X0106216Y0077147D01*
X0106048Y0077285D01*
X0105157Y0076071D01*
X0105311Y0075918D01*
X0105478Y0075772D01*
X0105654Y0075636D01*
X0105838Y0075511D01*
X0106029Y0075397D01*
X0106226Y0075295D01*
X0106429Y0075205D01*
X0106638Y0075127D01*
X0106850Y0075063D01*
X0107066Y0075011D01*
X0107285Y0074972D01*
X0107506Y0074946D01*
X0107728Y0074934D01*
X0107885Y0074934D01*
X0108107Y0074938D01*
X0108329Y0074955D01*
X0108549Y0074986D01*
X0108767Y0075030D01*
X0108981Y0075087D01*
X0109193Y0075156D01*
X0109399Y0075239D01*
X0109600Y0075333D01*
X0109795Y0075439D01*
X0109984Y0075557D01*
X0110165Y0075686D01*
X0110338Y0075825D01*
X0110502Y0075975D01*
X0110806Y0076299D01*
X0110948Y0076470D01*
X0111081Y0076648D01*
X0111204Y0076833D01*
X0108371Y0076833D01*
X0108326Y0076816D02*
X0108113Y0076754D01*
X0107894Y0076713D01*
X0107673Y0076694D01*
X0107451Y0076696D01*
X0107230Y0076720D01*
X0107012Y0076765D01*
X0106800Y0076831D01*
X0106595Y0076917D01*
X0106400Y0077023D01*
X0106344Y0077061D02*
X0105883Y0077061D01*
X0105873Y0077061D02*
X0103417Y0077061D01*
X0103417Y0077098D02*
X0105900Y0077098D01*
X0105911Y0077098D02*
X0106288Y0077098D01*
X0106231Y0077136D02*
X0105939Y0077136D01*
X0105928Y0077136D02*
X0103417Y0077136D01*
X0103417Y0077174D02*
X0105955Y0077174D01*
X0105967Y0077174D02*
X0106182Y0077174D01*
X0106136Y0077212D02*
X0105994Y0077212D01*
X0105983Y0077212D02*
X0103417Y0077212D01*
X0103417Y0077250D02*
X0106010Y0077250D01*
X0106022Y0077250D02*
X0106090Y0077250D01*
X0106038Y0077288D02*
X0103417Y0077288D01*
X0103417Y0077326D02*
X0106007Y0077326D01*
X0106041Y0077292D02*
X0105888Y0077446D01*
X0105751Y0077621D01*
X0105629Y0077807D01*
X0105522Y0078002D01*
X0105431Y0078204D01*
X0105357Y0078414D01*
X0105300Y0078629D01*
X0105261Y0078847D01*
X0105239Y0079068D01*
X0103417Y0079068D01*
X0103417Y0079030D02*
X0105243Y0079030D01*
X0105247Y0078992D02*
X0103417Y0078992D01*
X0103417Y0078955D02*
X0105250Y0078955D01*
X0105254Y0078917D02*
X0103417Y0078917D01*
X0103417Y0078879D02*
X0105258Y0078879D01*
X0105262Y0078841D02*
X0103417Y0078841D01*
X0103417Y0078803D02*
X0105269Y0078803D01*
X0105276Y0078765D02*
X0103417Y0078765D01*
X0103417Y0078727D02*
X0105282Y0078727D01*
X0105289Y0078689D02*
X0103417Y0078689D01*
X0103417Y0078652D02*
X0105296Y0078652D01*
X0105304Y0078614D02*
X0103417Y0078614D01*
X0103417Y0078576D02*
X0105314Y0078576D01*
X0105324Y0078538D02*
X0103417Y0078538D01*
X0103417Y0078500D02*
X0105334Y0078500D01*
X0105344Y0078462D02*
X0103417Y0078462D01*
X0103417Y0078424D02*
X0105354Y0078424D01*
X0105367Y0078386D02*
X0103417Y0078386D01*
X0103417Y0078348D02*
X0105380Y0078348D01*
X0105393Y0078311D02*
X0103417Y0078311D01*
X0103417Y0078273D02*
X0105407Y0078273D01*
X0105420Y0078235D02*
X0103417Y0078235D01*
X0103417Y0078197D02*
X0105434Y0078197D01*
X0105451Y0078159D02*
X0103417Y0078159D01*
X0103417Y0078121D02*
X0105468Y0078121D01*
X0105485Y0078083D02*
X0103417Y0078083D01*
X0103417Y0078045D02*
X0105502Y0078045D01*
X0105519Y0078008D02*
X0103417Y0078008D01*
X0103417Y0077970D02*
X0105539Y0077970D01*
X0105560Y0077932D02*
X0103417Y0077932D01*
X0103417Y0077894D02*
X0105581Y0077894D01*
X0105602Y0077856D02*
X0103417Y0077856D01*
X0103417Y0077818D02*
X0105623Y0077818D01*
X0105646Y0077780D02*
X0103417Y0077780D01*
X0103417Y0077742D02*
X0105671Y0077742D01*
X0105696Y0077705D02*
X0103417Y0077705D01*
X0103417Y0077667D02*
X0105721Y0077667D01*
X0105747Y0077629D02*
X0103417Y0077629D01*
X0103417Y0077591D02*
X0105775Y0077591D01*
X0105805Y0077553D02*
X0103417Y0077553D01*
X0103417Y0077515D02*
X0105835Y0077515D01*
X0105864Y0077477D02*
X0103417Y0077477D01*
X0103417Y0077439D02*
X0105895Y0077439D01*
X0105933Y0077401D02*
X0103417Y0077401D01*
X0103417Y0077364D02*
X0105970Y0077364D01*
X0106041Y0077292D02*
X0105152Y0076069D01*
X0105117Y0075942D01*
X0105117Y0075275D01*
X0104925Y0075245D01*
X0103592Y0075245D01*
X0103417Y0075293D01*
X0103417Y0085961D01*
X0103618Y0085982D01*
X0105173Y0085982D01*
X0105351Y0085938D01*
X0105351Y0082826D01*
X0105384Y0082678D01*
X0105554Y0082820D01*
X0105734Y0082951D01*
X0105921Y0083071D01*
X0106115Y0083179D01*
X0106316Y0083274D01*
X0106522Y0083357D01*
X0106733Y0083426D01*
X0106948Y0083483D01*
X0107166Y0083525D01*
X0107387Y0083554D01*
X0107608Y0083568D01*
X0107831Y0083571D01*
X0108053Y0083563D01*
X0108274Y0083542D01*
X0108494Y0083509D01*
X0108711Y0083463D01*
X0108926Y0083405D01*
X0109136Y0083335D01*
X0109343Y0083252D01*
X0109544Y0083159D01*
X0109740Y0083053D01*
X0109930Y0082937D01*
X0110112Y0082810D01*
X0110287Y0082673D01*
X0110454Y0082527D01*
X0110764Y0082209D01*
X0110910Y0082041D01*
X0111047Y0081866D01*
X0111174Y0081684D01*
X0111292Y0081495D01*
X0111399Y0081300D01*
X0111496Y0081100D01*
X0111582Y0080895D01*
X0111657Y0080686D01*
X0111721Y0080473D01*
X0111773Y0080258D01*
X0111814Y0080039D01*
X0111844Y0079819D01*
X0111861Y0079597D01*
X0111867Y0079375D01*
X0111861Y0078931D01*
X0111845Y0078709D01*
X0111818Y0078488D01*
X0111780Y0078270D01*
X0111730Y0078053D01*
X0111669Y0077839D01*
X0111597Y0077629D01*
X0111514Y0077423D01*
X0111421Y0077221D01*
X0111318Y0077024D01*
X0111204Y0076833D01*
X0111227Y0076871D02*
X0108466Y0076871D01*
X0108533Y0076898D02*
X0108326Y0076816D01*
X0108256Y0076795D02*
X0111179Y0076795D01*
X0111153Y0076757D02*
X0108125Y0076757D01*
X0107928Y0076720D02*
X0111128Y0076720D01*
X0111103Y0076682D02*
X0105605Y0076682D01*
X0105597Y0076682D02*
X0103417Y0076682D01*
X0103417Y0076720D02*
X0105625Y0076720D01*
X0105633Y0076720D02*
X0107233Y0076720D01*
X0107049Y0076757D02*
X0105661Y0076757D01*
X0105652Y0076757D02*
X0103417Y0076757D01*
X0103417Y0076795D02*
X0105680Y0076795D01*
X0105688Y0076795D02*
X0106915Y0076795D01*
X0106795Y0076833D02*
X0105716Y0076833D01*
X0105707Y0076833D02*
X0103417Y0076833D01*
X0103417Y0076871D02*
X0105735Y0076871D01*
X0105744Y0076871D02*
X0106705Y0076871D01*
X0106615Y0076909D02*
X0105772Y0076909D01*
X0105762Y0076909D02*
X0103417Y0076909D01*
X0103417Y0076947D02*
X0105790Y0076947D01*
X0105800Y0076947D02*
X0106540Y0076947D01*
X0106470Y0076985D02*
X0105828Y0076985D01*
X0105817Y0076985D02*
X0103417Y0076985D01*
X0103417Y0076644D02*
X0105570Y0076644D01*
X0105577Y0076644D02*
X0111077Y0076644D01*
X0111049Y0076606D02*
X0105549Y0076606D01*
X0105542Y0076606D02*
X0103417Y0076606D01*
X0103417Y0076568D02*
X0105514Y0076568D01*
X0105522Y0076568D02*
X0111021Y0076568D01*
X0110993Y0076530D02*
X0105494Y0076530D01*
X0105487Y0076530D02*
X0103417Y0076530D01*
X0103417Y0076492D02*
X0105459Y0076492D01*
X0105466Y0076492D02*
X0110964Y0076492D01*
X0110935Y0076454D02*
X0105438Y0076454D01*
X0105432Y0076454D02*
X0103417Y0076454D01*
X0103417Y0076417D02*
X0105404Y0076417D01*
X0105410Y0076417D02*
X0110903Y0076417D01*
X0110872Y0076379D02*
X0105383Y0076379D01*
X0105377Y0076379D02*
X0103417Y0076379D01*
X0103417Y0076341D02*
X0105349Y0076341D01*
X0105355Y0076341D02*
X0110841Y0076341D01*
X0110809Y0076303D02*
X0105327Y0076303D01*
X0105322Y0076303D02*
X0103417Y0076303D01*
X0103417Y0076265D02*
X0105294Y0076265D01*
X0105299Y0076265D02*
X0110774Y0076265D01*
X0110739Y0076227D02*
X0105271Y0076227D01*
X0105266Y0076227D02*
X0103417Y0076227D01*
X0103417Y0076189D02*
X0105239Y0076189D01*
X0105244Y0076189D02*
X0110703Y0076189D01*
X0110668Y0076151D02*
X0105216Y0076151D01*
X0105211Y0076151D02*
X0103417Y0076151D01*
X0103417Y0076113D02*
X0105184Y0076113D01*
X0105188Y0076113D02*
X0110632Y0076113D01*
X0110596Y0076076D02*
X0105160Y0076076D01*
X0105156Y0076076D02*
X0103417Y0076076D01*
X0103417Y0076038D02*
X0105143Y0076038D01*
X0105133Y0076000D02*
X0103417Y0076000D01*
X0103417Y0075962D02*
X0105123Y0075962D01*
X0105117Y0075924D02*
X0103417Y0075924D01*
X0103417Y0075886D02*
X0105117Y0075886D01*
X0105117Y0075848D02*
X0103417Y0075848D01*
X0103417Y0075810D02*
X0105117Y0075810D01*
X0105117Y0075773D02*
X0103417Y0075773D01*
X0103417Y0075735D02*
X0105117Y0075735D01*
X0105117Y0075697D02*
X0103417Y0075697D01*
X0103417Y0075659D02*
X0105117Y0075659D01*
X0105117Y0075621D02*
X0103417Y0075621D01*
X0103417Y0075583D02*
X0105117Y0075583D01*
X0105117Y0075545D02*
X0103417Y0075545D01*
X0103417Y0075507D02*
X0105117Y0075507D01*
X0105117Y0075470D02*
X0103417Y0075470D01*
X0103417Y0075432D02*
X0105117Y0075432D01*
X0105117Y0075394D02*
X0103417Y0075394D01*
X0103417Y0075356D02*
X0105117Y0075356D01*
X0105117Y0075318D02*
X0103417Y0075318D01*
X0103463Y0075280D02*
X0105117Y0075280D01*
X0105477Y0075773D02*
X0110272Y0075773D01*
X0110319Y0075810D02*
X0105434Y0075810D01*
X0105391Y0075848D02*
X0110363Y0075848D01*
X0110404Y0075886D02*
X0105348Y0075886D01*
X0105305Y0075924D02*
X0110446Y0075924D01*
X0110488Y0075962D02*
X0105267Y0075962D01*
X0105228Y0076000D02*
X0110525Y0076000D01*
X0110561Y0076038D02*
X0105190Y0076038D01*
X0105526Y0075735D02*
X0110225Y0075735D01*
X0110178Y0075697D02*
X0105575Y0075697D01*
X0105624Y0075659D02*
X0110127Y0075659D01*
X0110074Y0075621D02*
X0105676Y0075621D01*
X0105731Y0075583D02*
X0110021Y0075583D01*
X0109965Y0075545D02*
X0105787Y0075545D01*
X0105843Y0075507D02*
X0109904Y0075507D01*
X0109844Y0075470D02*
X0105907Y0075470D01*
X0105970Y0075432D02*
X0109781Y0075432D01*
X0109712Y0075394D02*
X0106035Y0075394D01*
X0106108Y0075356D02*
X0109642Y0075356D01*
X0109568Y0075318D02*
X0106181Y0075318D01*
X0106259Y0075280D02*
X0109488Y0075280D01*
X0109407Y0075242D02*
X0106345Y0075242D01*
X0106431Y0075204D02*
X0109313Y0075204D01*
X0109218Y0075166D02*
X0106532Y0075166D01*
X0106634Y0075129D02*
X0109108Y0075129D01*
X0108993Y0075091D02*
X0106758Y0075091D01*
X0106891Y0075053D02*
X0108853Y0075053D01*
X0108692Y0075015D02*
X0107048Y0075015D01*
X0107256Y0074977D02*
X0108483Y0074977D01*
X0108121Y0074939D02*
X0107640Y0074939D01*
X0108533Y0076898D02*
X0108730Y0076999D01*
X0108917Y0077120D01*
X0109091Y0077257D01*
X0109251Y0077412D01*
X0109390Y0077585D01*
X0109515Y0077768D01*
X0109625Y0077962D01*
X0109719Y0078163D01*
X0109796Y0078371D01*
X0109856Y0078585D01*
X0109899Y0078803D01*
X0111852Y0078803D01*
X0111849Y0078765D02*
X0109891Y0078765D01*
X0109884Y0078727D02*
X0111847Y0078727D01*
X0111843Y0078689D02*
X0109877Y0078689D01*
X0109869Y0078652D02*
X0111838Y0078652D01*
X0111834Y0078614D02*
X0109862Y0078614D01*
X0109854Y0078576D02*
X0111829Y0078576D01*
X0111824Y0078538D02*
X0109843Y0078538D01*
X0109832Y0078500D02*
X0111820Y0078500D01*
X0111814Y0078462D02*
X0109822Y0078462D01*
X0109811Y0078424D02*
X0111807Y0078424D01*
X0111800Y0078386D02*
X0109800Y0078386D01*
X0109788Y0078348D02*
X0111794Y0078348D01*
X0111787Y0078311D02*
X0109774Y0078311D01*
X0109760Y0078273D02*
X0111780Y0078273D01*
X0111772Y0078235D02*
X0109746Y0078235D01*
X0109732Y0078197D02*
X0111763Y0078197D01*
X0111754Y0078159D02*
X0109717Y0078159D01*
X0109700Y0078121D02*
X0111746Y0078121D01*
X0111737Y0078083D02*
X0109682Y0078083D01*
X0109664Y0078045D02*
X0111728Y0078045D01*
X0111717Y0078008D02*
X0109647Y0078008D01*
X0109629Y0077970D02*
X0111706Y0077970D01*
X0111695Y0077932D02*
X0109608Y0077932D01*
X0109587Y0077894D02*
X0111685Y0077894D01*
X0111674Y0077856D02*
X0109565Y0077856D01*
X0109544Y0077818D02*
X0111662Y0077818D01*
X0111649Y0077780D02*
X0109522Y0077780D01*
X0109498Y0077742D02*
X0111636Y0077742D01*
X0111623Y0077705D02*
X0109472Y0077705D01*
X0109446Y0077667D02*
X0111610Y0077667D01*
X0111597Y0077629D02*
X0109420Y0077629D01*
X0109395Y0077591D02*
X0111582Y0077591D01*
X0111567Y0077553D02*
X0109365Y0077553D01*
X0109334Y0077515D02*
X0111552Y0077515D01*
X0111536Y0077477D02*
X0109304Y0077477D01*
X0109273Y0077439D02*
X0111521Y0077439D01*
X0111505Y0077401D02*
X0109241Y0077401D01*
X0109201Y0077364D02*
X0111487Y0077364D01*
X0111470Y0077326D02*
X0109162Y0077326D01*
X0109123Y0077288D02*
X0111452Y0077288D01*
X0111435Y0077250D02*
X0109082Y0077250D01*
X0109034Y0077212D02*
X0111417Y0077212D01*
X0111397Y0077174D02*
X0108986Y0077174D01*
X0108938Y0077136D02*
X0111377Y0077136D01*
X0111357Y0077098D02*
X0108884Y0077098D01*
X0108825Y0077061D02*
X0111337Y0077061D01*
X0111317Y0077023D02*
X0108766Y0077023D01*
X0108702Y0076985D02*
X0111294Y0076985D01*
X0111272Y0076947D02*
X0108628Y0076947D01*
X0108555Y0076909D02*
X0111249Y0076909D01*
X0112897Y0076871D02*
X0116259Y0076871D01*
X0116207Y0076894D02*
X0116013Y0077003D01*
X0115831Y0077131D01*
X0115663Y0077277D01*
X0115510Y0077439D01*
X0115372Y0077614D01*
X0115250Y0077800D01*
X0115142Y0077995D01*
X0115051Y0078198D01*
X0114977Y0078407D01*
X0114920Y0078623D01*
X0114880Y0078842D01*
X0114858Y0079063D01*
X0114854Y0079286D01*
X0114868Y0079508D01*
X0114900Y0079728D01*
X0114949Y0079945D01*
X0115016Y0080158D01*
X0115099Y0080364D01*
X0115200Y0080563D01*
X0115316Y0080753D01*
X0115446Y0080933D01*
X0115592Y0081101D01*
X0115750Y0081251D01*
X0114803Y0082382D01*
X0114776Y0082530D01*
X0114776Y0083198D01*
X0114604Y0083248D01*
X0113045Y0083248D01*
X0112898Y0083173D01*
X0112898Y0076938D01*
X0112893Y0076493D01*
X0112899Y0076271D01*
X0112915Y0076049D01*
X0112941Y0075827D01*
X0112977Y0075608D01*
X0113022Y0075390D01*
X0113078Y0075174D01*
X0113143Y0074961D01*
X0113218Y0074752D01*
X0113302Y0074545D01*
X0113395Y0074343D01*
X0113497Y0074146D01*
X0113609Y0073953D01*
X0113728Y0073765D01*
X0113856Y0073583D01*
X0113992Y0073406D01*
X0114137Y0073238D01*
X0114295Y0073081D01*
X0114461Y0072932D01*
X0114635Y0072793D01*
X0114816Y0072664D01*
X0115004Y0072544D01*
X0115198Y0072435D01*
X0115397Y0072336D01*
X0115602Y0072248D01*
X0115811Y0072171D01*
X0116023Y0072105D01*
X0116239Y0072051D01*
X0116458Y0072008D01*
X0116678Y0071977D01*
X0116900Y0071958D01*
X0117123Y0071951D01*
X0117568Y0071956D01*
X0117790Y0071969D01*
X0118011Y0071993D01*
X0118231Y0072028D01*
X0118449Y0072074D01*
X0118664Y0072130D01*
X0118877Y0072198D01*
X0119085Y0072276D01*
X0119290Y0072364D01*
X0119489Y0072462D01*
X0119684Y0072571D01*
X0119873Y0072689D01*
X0120054Y0072818D01*
X0114605Y0072818D01*
X0114557Y0072856D02*
X0120101Y0072856D01*
X0120148Y0072894D02*
X0114510Y0072894D01*
X0114463Y0072931D02*
X0120195Y0072931D01*
X0120227Y0072958D02*
X0120391Y0073108D01*
X0120546Y0073268D01*
X0120690Y0073438D01*
X0120823Y0073616D01*
X0120945Y0073802D01*
X0121056Y0073996D01*
X0121154Y0074195D01*
X0121239Y0074401D01*
X0121312Y0074611D01*
X0119087Y0074609D01*
X0118968Y0074421D01*
X0118822Y0074253D01*
X0118653Y0074108D01*
X0118466Y0073989D01*
X0118265Y0073893D01*
X0118057Y0073813D01*
X0117843Y0073751D01*
X0117625Y0073708D01*
X0117404Y0073684D01*
X0117244Y0073678D01*
X0117021Y0073682D01*
X0116800Y0073706D01*
X0116582Y0073751D01*
X0116369Y0073815D01*
X0116162Y0073898D01*
X0115964Y0073999D01*
X0115776Y0074118D01*
X0115600Y0074254D01*
X0115437Y0074405D01*
X0115290Y0074572D01*
X0115158Y0074752D01*
X0115041Y0074941D01*
X0114940Y0075140D01*
X0114855Y0075345D01*
X0114787Y0075557D01*
X0114735Y0075774D01*
X0114702Y0075994D01*
X0114720Y0076132D01*
X0114877Y0075974D01*
X0115043Y0075826D01*
X0115217Y0075687D01*
X0115399Y0075559D01*
X0115588Y0075442D01*
X0115784Y0075336D01*
X0115986Y0075242D01*
X0116193Y0075160D01*
X0116404Y0075091D01*
X0118615Y0075091D01*
X0118601Y0075086D02*
X0118812Y0075156D01*
X0119019Y0075239D01*
X0119221Y0075333D01*
X0119416Y0075440D01*
X0119604Y0075559D01*
X0119785Y0075689D01*
X0119958Y0075829D01*
X0120122Y0075979D01*
X0120277Y0076140D01*
X0120423Y0076307D01*
X0120562Y0076482D01*
X0120691Y0076663D01*
X0120812Y0076850D01*
X0120924Y0077042D01*
X0121025Y0077240D01*
X0121117Y0077443D01*
X0121199Y0077650D01*
X0121271Y0077861D01*
X0121332Y0078075D01*
X0121383Y0078292D01*
X0121422Y0078511D01*
X0121452Y0078732D01*
X0121470Y0078953D01*
X0121477Y0079176D01*
X0121474Y0079399D01*
X0121460Y0079621D01*
X0121435Y0079842D01*
X0121399Y0080062D01*
X0121353Y0080279D01*
X0121296Y0080495D01*
X0121228Y0080707D01*
X0121150Y0080915D01*
X0121062Y0081120D01*
X0120964Y0081320D01*
X0120856Y0081514D01*
X0120739Y0081704D01*
X0120613Y0081887D01*
X0120477Y0082064D01*
X0120334Y0082234D01*
X0120184Y0082399D01*
X0120025Y0082555D01*
X0119857Y0082701D01*
X0119680Y0082836D01*
X0119496Y0082960D01*
X0119304Y0083073D01*
X0119105Y0083175D01*
X0118901Y0083264D01*
X0118692Y0083340D01*
X0118479Y0083404D01*
X0118262Y0083454D01*
X0118043Y0083491D01*
X0117821Y0083515D01*
X0117599Y0083526D01*
X0117376Y0083526D01*
X0117154Y0083515D01*
X0116933Y0083490D01*
X0116713Y0083452D01*
X0116497Y0083401D01*
X0116284Y0083336D01*
X0116076Y0083258D01*
X0115872Y0083167D01*
X0115675Y0083064D01*
X0115484Y0082949D01*
X0115301Y0082822D01*
X0115126Y0082684D01*
X0114960Y0082536D01*
X0114807Y0082381D01*
X0115757Y0081257D01*
X0115930Y0081390D01*
X0116119Y0081506D01*
X0116320Y0081603D01*
X0116530Y0081678D01*
X0116746Y0081731D01*
X0116966Y0081762D01*
X0117188Y0081770D01*
X0117251Y0081770D01*
X0117473Y0081755D01*
X0117693Y0081718D01*
X0117908Y0081660D01*
X0118115Y0081580D01*
X0118314Y0081480D01*
X0118502Y0081360D01*
X0118677Y0081223D01*
X0118837Y0081068D01*
X0118979Y0080897D01*
X0119105Y0080713D01*
X0119216Y0080520D01*
X0119312Y0080319D01*
X0119391Y0080111D01*
X0119453Y0079898D01*
X0119498Y0079680D01*
X0119525Y0079459D01*
X0119535Y0079236D01*
X0119527Y0079014D01*
X0119502Y0078793D01*
X0119459Y0078574D01*
X0119398Y0078360D01*
X0119321Y0078151D01*
X0119227Y0077950D01*
X0119117Y0077756D01*
X0118993Y0077571D01*
X0118853Y0077398D01*
X0118697Y0077240D01*
X0118525Y0077098D01*
X0118340Y0076975D01*
X0118143Y0076870D01*
X0117937Y0076786D01*
X0117724Y0076723D01*
X0117505Y0076681D01*
X0117284Y0076662D01*
X0117061Y0076664D01*
X0116840Y0076689D01*
X0116622Y0076736D01*
X0116411Y0076805D01*
X0116207Y0076894D01*
X0116180Y0076909D02*
X0112898Y0076909D01*
X0112898Y0076947D02*
X0116113Y0076947D01*
X0116046Y0076985D02*
X0112898Y0076985D01*
X0112898Y0077023D02*
X0115985Y0077023D01*
X0115931Y0077061D02*
X0112898Y0077061D01*
X0112898Y0077098D02*
X0115878Y0077098D01*
X0115825Y0077136D02*
X0112898Y0077136D01*
X0112898Y0077174D02*
X0115781Y0077174D01*
X0115738Y0077212D02*
X0112898Y0077212D01*
X0112898Y0077250D02*
X0115694Y0077250D01*
X0115652Y0077288D02*
X0112898Y0077288D01*
X0112898Y0077326D02*
X0115617Y0077326D01*
X0115581Y0077364D02*
X0112898Y0077364D01*
X0112898Y0077401D02*
X0115545Y0077401D01*
X0115509Y0077439D02*
X0112898Y0077439D01*
X0112898Y0077477D02*
X0115480Y0077477D01*
X0115450Y0077515D02*
X0112898Y0077515D01*
X0112898Y0077553D02*
X0115420Y0077553D01*
X0115390Y0077591D02*
X0112898Y0077591D01*
X0112898Y0077629D02*
X0115363Y0077629D01*
X0115338Y0077667D02*
X0112898Y0077667D01*
X0112898Y0077705D02*
X0115313Y0077705D01*
X0115288Y0077742D02*
X0112898Y0077742D01*
X0112898Y0077780D02*
X0115263Y0077780D01*
X0115240Y0077818D02*
X0112898Y0077818D01*
X0112898Y0077856D02*
X0115219Y0077856D01*
X0115198Y0077894D02*
X0112898Y0077894D01*
X0112898Y0077932D02*
X0115177Y0077932D01*
X0115156Y0077970D02*
X0112898Y0077970D01*
X0112898Y0078008D02*
X0115137Y0078008D01*
X0115120Y0078045D02*
X0112898Y0078045D01*
X0112898Y0078083D02*
X0115103Y0078083D01*
X0115086Y0078121D02*
X0112898Y0078121D01*
X0112898Y0078159D02*
X0115069Y0078159D01*
X0115052Y0078197D02*
X0112898Y0078197D01*
X0112898Y0078235D02*
X0115038Y0078235D01*
X0115025Y0078273D02*
X0112898Y0078273D01*
X0112898Y0078311D02*
X0115011Y0078311D01*
X0114998Y0078348D02*
X0112898Y0078348D01*
X0112898Y0078386D02*
X0114984Y0078386D01*
X0114972Y0078424D02*
X0112898Y0078424D01*
X0112898Y0078462D02*
X0114962Y0078462D01*
X0114952Y0078500D02*
X0112898Y0078500D01*
X0112898Y0078538D02*
X0114942Y0078538D01*
X0114932Y0078576D02*
X0112898Y0078576D01*
X0112898Y0078614D02*
X0114922Y0078614D01*
X0114914Y0078652D02*
X0112898Y0078652D01*
X0112898Y0078689D02*
X0114907Y0078689D01*
X0114901Y0078727D02*
X0112898Y0078727D01*
X0112898Y0078765D02*
X0114894Y0078765D01*
X0114887Y0078803D02*
X0112898Y0078803D01*
X0112898Y0078841D02*
X0114880Y0078841D01*
X0114876Y0078879D02*
X0112898Y0078879D01*
X0112898Y0078917D02*
X0114873Y0078917D01*
X0114869Y0078955D02*
X0112898Y0078955D01*
X0112898Y0078992D02*
X0114865Y0078992D01*
X0114861Y0079030D02*
X0112898Y0079030D01*
X0112898Y0079068D02*
X0114858Y0079068D01*
X0114857Y0079106D02*
X0112898Y0079106D01*
X0112898Y0079144D02*
X0114857Y0079144D01*
X0114856Y0079182D02*
X0112898Y0079182D01*
X0112898Y0079220D02*
X0114855Y0079220D01*
X0114854Y0079258D02*
X0112898Y0079258D01*
X0112898Y0079296D02*
X0114855Y0079296D01*
X0114857Y0079333D02*
X0112898Y0079333D01*
X0112898Y0079371D02*
X0114859Y0079371D01*
X0114862Y0079409D02*
X0112898Y0079409D01*
X0112898Y0079447D02*
X0114864Y0079447D01*
X0114866Y0079485D02*
X0112898Y0079485D01*
X0112898Y0079523D02*
X0114870Y0079523D01*
X0114876Y0079561D02*
X0112898Y0079561D01*
X0112898Y0079599D02*
X0114881Y0079599D01*
X0114886Y0079636D02*
X0112898Y0079636D01*
X0112898Y0079674D02*
X0114892Y0079674D01*
X0114897Y0079712D02*
X0112898Y0079712D01*
X0112898Y0079750D02*
X0114905Y0079750D01*
X0114913Y0079788D02*
X0112898Y0079788D01*
X0112898Y0079826D02*
X0114922Y0079826D01*
X0114930Y0079864D02*
X0112898Y0079864D01*
X0112898Y0079902D02*
X0114939Y0079902D01*
X0114948Y0079940D02*
X0112898Y0079940D01*
X0112898Y0079977D02*
X0114959Y0079977D01*
X0114971Y0080015D02*
X0112898Y0080015D01*
X0112898Y0080053D02*
X0114983Y0080053D01*
X0114995Y0080091D02*
X0112898Y0080091D01*
X0112898Y0080129D02*
X0115007Y0080129D01*
X0115020Y0080167D02*
X0112898Y0080167D01*
X0112898Y0080205D02*
X0115035Y0080205D01*
X0115050Y0080243D02*
X0112898Y0080243D01*
X0112898Y0080280D02*
X0115066Y0080280D01*
X0115081Y0080318D02*
X0112898Y0080318D01*
X0112898Y0080356D02*
X0115096Y0080356D01*
X0115115Y0080394D02*
X0112898Y0080394D01*
X0112898Y0080432D02*
X0115134Y0080432D01*
X0115153Y0080470D02*
X0112898Y0080470D01*
X0112898Y0080508D02*
X0115172Y0080508D01*
X0115191Y0080546D02*
X0112898Y0080546D01*
X0112898Y0080584D02*
X0115212Y0080584D01*
X0115235Y0080621D02*
X0112898Y0080621D01*
X0112898Y0080659D02*
X0115259Y0080659D01*
X0115282Y0080697D02*
X0112898Y0080697D01*
X0112898Y0080735D02*
X0115305Y0080735D01*
X0115330Y0080773D02*
X0112898Y0080773D01*
X0112898Y0080811D02*
X0115358Y0080811D01*
X0115385Y0080849D02*
X0112898Y0080849D01*
X0112898Y0080887D02*
X0115413Y0080887D01*
X0115440Y0080924D02*
X0112898Y0080924D01*
X0112898Y0080962D02*
X0115472Y0080962D01*
X0115505Y0081000D02*
X0112898Y0081000D01*
X0112898Y0081038D02*
X0115537Y0081038D01*
X0115570Y0081076D02*
X0112898Y0081076D01*
X0112898Y0081114D02*
X0115605Y0081114D01*
X0115645Y0081152D02*
X0112898Y0081152D01*
X0112898Y0081190D02*
X0115685Y0081190D01*
X0115725Y0081227D02*
X0112898Y0081227D01*
X0112898Y0081265D02*
X0115738Y0081265D01*
X0115750Y0081265D02*
X0115768Y0081265D01*
X0115718Y0081303D02*
X0115817Y0081303D01*
X0115867Y0081341D02*
X0115686Y0081341D01*
X0115674Y0081341D02*
X0112898Y0081341D01*
X0112898Y0081303D02*
X0115706Y0081303D01*
X0115654Y0081379D02*
X0115916Y0081379D01*
X0115974Y0081417D02*
X0115622Y0081417D01*
X0115611Y0081417D02*
X0112898Y0081417D01*
X0112898Y0081455D02*
X0115579Y0081455D01*
X0115590Y0081455D02*
X0116036Y0081455D01*
X0116097Y0081493D02*
X0115558Y0081493D01*
X0115547Y0081493D02*
X0112898Y0081493D01*
X0112898Y0081531D02*
X0115516Y0081531D01*
X0115526Y0081531D02*
X0116170Y0081531D01*
X0116249Y0081568D02*
X0115494Y0081568D01*
X0115484Y0081568D02*
X0112898Y0081568D01*
X0112898Y0081606D02*
X0115452Y0081606D01*
X0115462Y0081606D02*
X0116330Y0081606D01*
X0116436Y0081644D02*
X0115430Y0081644D01*
X0115421Y0081644D02*
X0112898Y0081644D01*
X0112898Y0081682D02*
X0115389Y0081682D01*
X0115398Y0081682D02*
X0116546Y0081682D01*
X0116700Y0081720D02*
X0115366Y0081720D01*
X0115357Y0081720D02*
X0112898Y0081720D01*
X0112898Y0081758D02*
X0115326Y0081758D01*
X0115334Y0081758D02*
X0116936Y0081758D01*
X0117430Y0081758D02*
X0120702Y0081758D01*
X0120728Y0081720D02*
X0117683Y0081720D01*
X0117826Y0081682D02*
X0120752Y0081682D01*
X0120776Y0081644D02*
X0117948Y0081644D01*
X0118047Y0081606D02*
X0120799Y0081606D01*
X0120823Y0081568D02*
X0118138Y0081568D01*
X0118214Y0081531D02*
X0120846Y0081531D01*
X0120868Y0081493D02*
X0118289Y0081493D01*
X0118354Y0081455D02*
X0120889Y0081455D01*
X0120910Y0081417D02*
X0118413Y0081417D01*
X0118473Y0081379D02*
X0120931Y0081379D01*
X0120952Y0081341D02*
X0118527Y0081341D01*
X0118575Y0081303D02*
X0120972Y0081303D01*
X0120991Y0081265D02*
X0118623Y0081265D01*
X0118671Y0081227D02*
X0121009Y0081227D01*
X0121028Y0081190D02*
X0118711Y0081190D01*
X0118751Y0081152D02*
X0121046Y0081152D01*
X0121065Y0081114D02*
X0118790Y0081114D01*
X0118829Y0081076D02*
X0121081Y0081076D01*
X0121097Y0081038D02*
X0118862Y0081038D01*
X0118893Y0081000D02*
X0121114Y0081000D01*
X0121130Y0080962D02*
X0118924Y0080962D01*
X0118956Y0080924D02*
X0121146Y0080924D01*
X0121161Y0080887D02*
X0118985Y0080887D01*
X0119012Y0080849D02*
X0121175Y0080849D01*
X0121189Y0080811D02*
X0119038Y0080811D01*
X0119064Y0080773D02*
X0121203Y0080773D01*
X0121217Y0080735D02*
X0119090Y0080735D01*
X0119114Y0080697D02*
X0121231Y0080697D01*
X0121243Y0080659D02*
X0119136Y0080659D01*
X0119158Y0080621D02*
X0121255Y0080621D01*
X0121267Y0080584D02*
X0119180Y0080584D01*
X0119202Y0080546D02*
X0121279Y0080546D01*
X0121291Y0080508D02*
X0119222Y0080508D01*
X0119240Y0080470D02*
X0121302Y0080470D01*
X0121312Y0080432D02*
X0119258Y0080432D01*
X0119276Y0080394D02*
X0121322Y0080394D01*
X0121332Y0080356D02*
X0119294Y0080356D01*
X0119312Y0080318D02*
X0121342Y0080318D01*
X0121352Y0080280D02*
X0119326Y0080280D01*
X0119341Y0080243D02*
X0121361Y0080243D01*
X0121369Y0080205D02*
X0119355Y0080205D01*
X0119370Y0080167D02*
X0121377Y0080167D01*
X0121385Y0080129D02*
X0119384Y0080129D01*
X0119397Y0080091D02*
X0121393Y0080091D01*
X0121401Y0080053D02*
X0119408Y0080053D01*
X0119419Y0080015D02*
X0121407Y0080015D01*
X0121413Y0079977D02*
X0119430Y0079977D01*
X0119441Y0079940D02*
X0121419Y0079940D01*
X0121425Y0079902D02*
X0119452Y0079902D01*
X0119460Y0079864D02*
X0121431Y0079864D01*
X0121437Y0079826D02*
X0119468Y0079826D01*
X0119475Y0079788D02*
X0121441Y0079788D01*
X0121445Y0079750D02*
X0119483Y0079750D01*
X0119491Y0079712D02*
X0121450Y0079712D01*
X0121454Y0079674D02*
X0119498Y0079674D01*
X0119503Y0079636D02*
X0121458Y0079636D01*
X0121461Y0079599D02*
X0119508Y0079599D01*
X0119513Y0079561D02*
X0121464Y0079561D01*
X0121466Y0079523D02*
X0119517Y0079523D01*
X0119522Y0079485D02*
X0121469Y0079485D01*
X0121471Y0079447D02*
X0119526Y0079447D01*
X0119527Y0079409D02*
X0121473Y0079409D01*
X0121475Y0079371D02*
X0119529Y0079371D01*
X0119531Y0079333D02*
X0121475Y0079333D01*
X0121476Y0079296D02*
X0119532Y0079296D01*
X0119534Y0079258D02*
X0121476Y0079258D01*
X0121477Y0079220D02*
X0119534Y0079220D01*
X0119533Y0079182D02*
X0121477Y0079182D01*
X0121476Y0079144D02*
X0119532Y0079144D01*
X0119530Y0079106D02*
X0121475Y0079106D01*
X0121474Y0079068D02*
X0119529Y0079068D01*
X0119528Y0079030D02*
X0121473Y0079030D01*
X0121471Y0078992D02*
X0119525Y0078992D01*
X0119520Y0078955D02*
X0121470Y0078955D01*
X0121467Y0078917D02*
X0119516Y0078917D01*
X0119512Y0078879D02*
X0121464Y0078879D01*
X0121461Y0078841D02*
X0119507Y0078841D01*
X0119503Y0078803D02*
X0121457Y0078803D01*
X0121454Y0078765D02*
X0119496Y0078765D01*
X0119489Y0078727D02*
X0121451Y0078727D01*
X0121446Y0078689D02*
X0119481Y0078689D01*
X0119474Y0078652D02*
X0121441Y0078652D01*
X0121436Y0078614D02*
X0119466Y0078614D01*
X0119459Y0078576D02*
X0121431Y0078576D01*
X0121426Y0078538D02*
X0119448Y0078538D01*
X0119438Y0078500D02*
X0121420Y0078500D01*
X0121414Y0078462D02*
X0119427Y0078462D01*
X0119416Y0078424D02*
X0121407Y0078424D01*
X0121400Y0078386D02*
X0119406Y0078386D01*
X0119394Y0078348D02*
X0121393Y0078348D01*
X0121386Y0078311D02*
X0119380Y0078311D01*
X0119366Y0078273D02*
X0121378Y0078273D01*
X0121369Y0078235D02*
X0119352Y0078235D01*
X0119338Y0078197D02*
X0121360Y0078197D01*
X0121352Y0078159D02*
X0119324Y0078159D01*
X0119307Y0078121D02*
X0121343Y0078121D01*
X0121334Y0078083D02*
X0119289Y0078083D01*
X0119272Y0078045D02*
X0121324Y0078045D01*
X0121313Y0078008D02*
X0119254Y0078008D01*
X0119236Y0077970D02*
X0121302Y0077970D01*
X0121291Y0077932D02*
X0119217Y0077932D01*
X0119196Y0077894D02*
X0121280Y0077894D01*
X0121269Y0077856D02*
X0119174Y0077856D01*
X0119153Y0077818D02*
X0121256Y0077818D01*
X0121243Y0077780D02*
X0119131Y0077780D01*
X0119108Y0077742D02*
X0121231Y0077742D01*
X0121218Y0077705D02*
X0119083Y0077705D01*
X0119057Y0077667D02*
X0121205Y0077667D01*
X0121191Y0077629D02*
X0119032Y0077629D01*
X0119006Y0077591D02*
X0121176Y0077591D01*
X0121161Y0077553D02*
X0118978Y0077553D01*
X0118948Y0077515D02*
X0121146Y0077515D01*
X0121131Y0077477D02*
X0118917Y0077477D01*
X0118887Y0077439D02*
X0121116Y0077439D01*
X0121098Y0077401D02*
X0118856Y0077401D01*
X0118820Y0077364D02*
X0121081Y0077364D01*
X0121064Y0077326D02*
X0118782Y0077326D01*
X0118744Y0077288D02*
X0121047Y0077288D01*
X0121030Y0077250D02*
X0118707Y0077250D01*
X0118663Y0077212D02*
X0121011Y0077212D01*
X0120991Y0077174D02*
X0118617Y0077174D01*
X0118571Y0077136D02*
X0120972Y0077136D01*
X0120952Y0077098D02*
X0118525Y0077098D01*
X0118468Y0077061D02*
X0120933Y0077061D01*
X0120912Y0077023D02*
X0118412Y0077023D01*
X0118355Y0076985D02*
X0120890Y0076985D01*
X0120868Y0076947D02*
X0118288Y0076947D01*
X0118216Y0076909D02*
X0120846Y0076909D01*
X0120825Y0076871D02*
X0118145Y0076871D01*
X0118053Y0076833D02*
X0120802Y0076833D01*
X0120777Y0076795D02*
X0117960Y0076795D01*
X0117841Y0076757D02*
X0120753Y0076757D01*
X0120728Y0076720D02*
X0117707Y0076720D01*
X0117508Y0076682D02*
X0120704Y0076682D01*
X0120678Y0076644D02*
X0112894Y0076644D01*
X0112895Y0076682D02*
X0116907Y0076682D01*
X0116699Y0076720D02*
X0112895Y0076720D01*
X0112896Y0076757D02*
X0116557Y0076757D01*
X0116439Y0076795D02*
X0112896Y0076795D01*
X0112897Y0076833D02*
X0116346Y0076833D01*
X0115544Y0075470D02*
X0119462Y0075470D01*
X0119523Y0075507D02*
X0115483Y0075507D01*
X0115421Y0075545D02*
X0119583Y0075545D01*
X0119638Y0075583D02*
X0115365Y0075583D01*
X0115311Y0075621D02*
X0119691Y0075621D01*
X0119744Y0075659D02*
X0115257Y0075659D01*
X0115205Y0075697D02*
X0119795Y0075697D01*
X0119842Y0075735D02*
X0115157Y0075735D01*
X0115110Y0075773D02*
X0119889Y0075773D01*
X0119936Y0075810D02*
X0115062Y0075810D01*
X0115017Y0075848D02*
X0119979Y0075848D01*
X0120021Y0075886D02*
X0114975Y0075886D01*
X0114933Y0075924D02*
X0120062Y0075924D01*
X0120103Y0075962D02*
X0114891Y0075962D01*
X0114852Y0076000D02*
X0120142Y0076000D01*
X0120178Y0076038D02*
X0114814Y0076038D01*
X0114776Y0076076D02*
X0120215Y0076076D01*
X0120251Y0076113D02*
X0114739Y0076113D01*
X0114718Y0076113D02*
X0112910Y0076113D01*
X0112913Y0076076D02*
X0114713Y0076076D01*
X0114707Y0076038D02*
X0112916Y0076038D01*
X0112920Y0076000D02*
X0114702Y0076000D01*
X0114706Y0075962D02*
X0112925Y0075962D01*
X0112929Y0075924D02*
X0114712Y0075924D01*
X0114718Y0075886D02*
X0112934Y0075886D01*
X0112938Y0075848D02*
X0114724Y0075848D01*
X0114730Y0075810D02*
X0112944Y0075810D01*
X0112950Y0075773D02*
X0114736Y0075773D01*
X0114745Y0075735D02*
X0112956Y0075735D01*
X0112962Y0075697D02*
X0114754Y0075697D01*
X0114762Y0075659D02*
X0112968Y0075659D01*
X0112975Y0075621D02*
X0114771Y0075621D01*
X0114780Y0075583D02*
X0112982Y0075583D01*
X0112990Y0075545D02*
X0114790Y0075545D01*
X0114803Y0075507D02*
X0112998Y0075507D01*
X0113006Y0075470D02*
X0114815Y0075470D01*
X0114827Y0075432D02*
X0113014Y0075432D01*
X0113022Y0075394D02*
X0114839Y0075394D01*
X0114851Y0075356D02*
X0113031Y0075356D01*
X0113041Y0075318D02*
X0114866Y0075318D01*
X0114882Y0075280D02*
X0113051Y0075280D01*
X0113060Y0075242D02*
X0114898Y0075242D01*
X0114913Y0075204D02*
X0113070Y0075204D01*
X0113080Y0075166D02*
X0114929Y0075166D01*
X0114946Y0075129D02*
X0113092Y0075129D01*
X0113104Y0075091D02*
X0114965Y0075091D01*
X0114984Y0075053D02*
X0113115Y0075053D01*
X0113127Y0075015D02*
X0115004Y0075015D01*
X0115023Y0074977D02*
X0113138Y0074977D01*
X0113151Y0074939D02*
X0115043Y0074939D01*
X0115066Y0074901D02*
X0113165Y0074901D01*
X0113178Y0074863D02*
X0115089Y0074863D01*
X0115113Y0074826D02*
X0113192Y0074826D01*
X0113205Y0074788D02*
X0115136Y0074788D01*
X0115160Y0074750D02*
X0113219Y0074750D01*
X0113234Y0074712D02*
X0115188Y0074712D01*
X0115215Y0074674D02*
X0113250Y0074674D01*
X0113265Y0074636D02*
X0115243Y0074636D01*
X0115271Y0074598D02*
X0113280Y0074598D01*
X0113296Y0074560D02*
X0115300Y0074560D01*
X0115334Y0074522D02*
X0113313Y0074522D01*
X0113330Y0074485D02*
X0115367Y0074485D01*
X0115400Y0074447D02*
X0113348Y0074447D01*
X0113365Y0074409D02*
X0115433Y0074409D01*
X0115473Y0074371D02*
X0113383Y0074371D01*
X0113401Y0074333D02*
X0115514Y0074333D01*
X0115555Y0074295D02*
X0113420Y0074295D01*
X0113440Y0074257D02*
X0115596Y0074257D01*
X0115645Y0074219D02*
X0113459Y0074219D01*
X0113479Y0074182D02*
X0115694Y0074182D01*
X0115743Y0074144D02*
X0113499Y0074144D01*
X0113520Y0074106D02*
X0115796Y0074106D01*
X0115856Y0074068D02*
X0113542Y0074068D01*
X0113564Y0074030D02*
X0115916Y0074030D01*
X0115978Y0073992D02*
X0113586Y0073992D01*
X0113608Y0073954D02*
X0116052Y0073954D01*
X0116126Y0073916D02*
X0113632Y0073916D01*
X0113656Y0073878D02*
X0116210Y0073878D01*
X0116304Y0073841D02*
X0113680Y0073841D01*
X0113704Y0073803D02*
X0116408Y0073803D01*
X0116535Y0073765D02*
X0113728Y0073765D01*
X0113755Y0073727D02*
X0116698Y0073727D01*
X0116957Y0073689D02*
X0113781Y0073689D01*
X0113808Y0073651D02*
X0120846Y0073651D01*
X0120821Y0073613D02*
X0113835Y0073613D01*
X0113862Y0073575D02*
X0120793Y0073575D01*
X0120764Y0073538D02*
X0113891Y0073538D01*
X0113920Y0073500D02*
X0120736Y0073500D01*
X0120708Y0073462D02*
X0113950Y0073462D01*
X0113979Y0073424D02*
X0120678Y0073424D01*
X0120646Y0073386D02*
X0114010Y0073386D01*
X0114042Y0073348D02*
X0120613Y0073348D01*
X0120581Y0073310D02*
X0114075Y0073310D01*
X0114107Y0073272D02*
X0120549Y0073272D01*
X0120513Y0073235D02*
X0114140Y0073235D01*
X0114178Y0073197D02*
X0120477Y0073197D01*
X0120440Y0073159D02*
X0114217Y0073159D01*
X0114255Y0073121D02*
X0120404Y0073121D01*
X0120364Y0073083D02*
X0114293Y0073083D01*
X0114335Y0073045D02*
X0120323Y0073045D01*
X0120281Y0073007D02*
X0114378Y0073007D01*
X0114420Y0072969D02*
X0120240Y0072969D01*
X0120227Y0072958D02*
X0120054Y0072818D01*
X0120001Y0072780D02*
X0114654Y0072780D01*
X0114707Y0072742D02*
X0119948Y0072742D01*
X0119894Y0072704D02*
X0114760Y0072704D01*
X0114813Y0072666D02*
X0119837Y0072666D01*
X0119776Y0072628D02*
X0114872Y0072628D01*
X0114931Y0072591D02*
X0119715Y0072591D01*
X0119651Y0072553D02*
X0114991Y0072553D01*
X0115056Y0072515D02*
X0119583Y0072515D01*
X0119515Y0072477D02*
X0115123Y0072477D01*
X0115191Y0072439D02*
X0119442Y0072439D01*
X0119365Y0072401D02*
X0115266Y0072401D01*
X0115342Y0072363D02*
X0119288Y0072363D01*
X0119200Y0072325D02*
X0115422Y0072325D01*
X0115510Y0072287D02*
X0119112Y0072287D01*
X0119015Y0072250D02*
X0115598Y0072250D01*
X0115700Y0072212D02*
X0118914Y0072212D01*
X0118801Y0072174D02*
X0115803Y0072174D01*
X0115924Y0072136D02*
X0118682Y0072136D01*
X0118542Y0072098D02*
X0116051Y0072098D01*
X0116202Y0072060D02*
X0118385Y0072060D01*
X0118197Y0072022D02*
X0116386Y0072022D01*
X0116628Y0071984D02*
X0117933Y0071984D01*
X0117721Y0073727D02*
X0120896Y0073727D01*
X0120921Y0073765D02*
X0117890Y0073765D01*
X0118022Y0073803D02*
X0120946Y0073803D01*
X0120967Y0073841D02*
X0118129Y0073841D01*
X0118228Y0073878D02*
X0120989Y0073878D01*
X0121010Y0073916D02*
X0118314Y0073916D01*
X0118393Y0073954D02*
X0121032Y0073954D01*
X0121054Y0073992D02*
X0118471Y0073992D01*
X0118530Y0074030D02*
X0121073Y0074030D01*
X0121091Y0074068D02*
X0118590Y0074068D01*
X0118650Y0074106D02*
X0121110Y0074106D01*
X0121128Y0074144D02*
X0118695Y0074144D01*
X0118739Y0074182D02*
X0121147Y0074182D01*
X0121164Y0074219D02*
X0118783Y0074219D01*
X0118826Y0074257D02*
X0121180Y0074257D01*
X0121195Y0074295D02*
X0118859Y0074295D01*
X0118892Y0074333D02*
X0121211Y0074333D01*
X0121227Y0074371D02*
X0118924Y0074371D01*
X0118957Y0074409D02*
X0121242Y0074409D01*
X0121255Y0074447D02*
X0118984Y0074447D01*
X0119008Y0074485D02*
X0121268Y0074485D01*
X0121281Y0074522D02*
X0119033Y0074522D01*
X0119057Y0074560D02*
X0121294Y0074560D01*
X0121308Y0074598D02*
X0119081Y0074598D01*
X0118838Y0075166D02*
X0116177Y0075166D01*
X0116082Y0075204D02*
X0118933Y0075204D01*
X0119027Y0075242D02*
X0115986Y0075242D01*
X0115905Y0075280D02*
X0119107Y0075280D01*
X0119188Y0075318D02*
X0115823Y0075318D01*
X0115748Y0075356D02*
X0119262Y0075356D01*
X0119331Y0075394D02*
X0115678Y0075394D01*
X0115608Y0075432D02*
X0119400Y0075432D01*
X0118729Y0075129D02*
X0116289Y0075129D01*
X0116404Y0075091D02*
X0116620Y0075033D01*
X0116838Y0074989D01*
X0117058Y0074958D01*
X0117280Y0074939D01*
X0117503Y0074934D01*
X0117725Y0074938D01*
X0117947Y0074955D01*
X0118168Y0074985D01*
X0118386Y0075029D01*
X0118601Y0075086D01*
X0118475Y0075053D02*
X0116546Y0075053D01*
X0116710Y0075015D02*
X0118315Y0075015D01*
X0118107Y0074977D02*
X0116922Y0074977D01*
X0117285Y0074939D02*
X0117743Y0074939D01*
X0117453Y0073689D02*
X0120871Y0073689D01*
X0120287Y0076151D02*
X0112907Y0076151D01*
X0112905Y0076189D02*
X0120320Y0076189D01*
X0120353Y0076227D02*
X0112902Y0076227D01*
X0112899Y0076265D02*
X0120386Y0076265D01*
X0120419Y0076303D02*
X0112898Y0076303D01*
X0112897Y0076341D02*
X0120450Y0076341D01*
X0120480Y0076379D02*
X0112896Y0076379D01*
X0112895Y0076417D02*
X0120510Y0076417D01*
X0120540Y0076454D02*
X0112894Y0076454D01*
X0112893Y0076492D02*
X0120569Y0076492D01*
X0120596Y0076530D02*
X0112893Y0076530D01*
X0112894Y0076568D02*
X0120624Y0076568D01*
X0120651Y0076606D02*
X0112894Y0076606D01*
X0111855Y0078841D02*
X0109903Y0078841D01*
X0109899Y0078803D02*
X0109924Y0079024D01*
X0109931Y0079246D01*
X0109920Y0079468D01*
X0109892Y0079688D01*
X0109846Y0079906D01*
X0109783Y0080119D01*
X0109702Y0080326D01*
X0109605Y0080526D01*
X0109492Y0080717D01*
X0109364Y0080899D01*
X0109222Y0081069D01*
X0109062Y0081223D01*
X0108887Y0081361D01*
X0108700Y0081480D01*
X0108501Y0081580D01*
X0108294Y0081659D01*
X0108079Y0081718D01*
X0107860Y0081755D01*
X0107639Y0081770D01*
X0107574Y0081770D01*
X0107352Y0081759D01*
X0107132Y0081727D01*
X0106917Y0081672D01*
X0106708Y0081597D01*
X0106507Y0081501D01*
X0106318Y0081385D01*
X0106141Y0081251D01*
X0105978Y0081100D01*
X0105831Y0080933D01*
X0105700Y0080754D01*
X0105584Y0080564D01*
X0105483Y0080366D01*
X0105399Y0080160D01*
X0105332Y0079949D01*
X0105282Y0079732D01*
X0105250Y0079512D01*
X0105236Y0079291D01*
X0105239Y0079068D01*
X0105239Y0079106D02*
X0103417Y0079106D01*
X0103417Y0079144D02*
X0105238Y0079144D01*
X0105237Y0079182D02*
X0103417Y0079182D01*
X0103417Y0079220D02*
X0105237Y0079220D01*
X0105236Y0079258D02*
X0103417Y0079258D01*
X0103417Y0079296D02*
X0105236Y0079296D01*
X0105238Y0079333D02*
X0103417Y0079333D01*
X0103417Y0079371D02*
X0105241Y0079371D01*
X0105243Y0079409D02*
X0103417Y0079409D01*
X0103417Y0079447D02*
X0105246Y0079447D01*
X0105248Y0079485D02*
X0103417Y0079485D01*
X0103417Y0079523D02*
X0105252Y0079523D01*
X0105257Y0079561D02*
X0103417Y0079561D01*
X0103417Y0079599D02*
X0105263Y0079599D01*
X0105268Y0079636D02*
X0103417Y0079636D01*
X0103417Y0079674D02*
X0105274Y0079674D01*
X0105279Y0079712D02*
X0103417Y0079712D01*
X0103417Y0079750D02*
X0105286Y0079750D01*
X0105295Y0079788D02*
X0103417Y0079788D01*
X0103417Y0079826D02*
X0105304Y0079826D01*
X0105312Y0079864D02*
X0103417Y0079864D01*
X0103417Y0079902D02*
X0105321Y0079902D01*
X0105330Y0079940D02*
X0103417Y0079940D01*
X0103417Y0079977D02*
X0105341Y0079977D01*
X0105353Y0080015D02*
X0103417Y0080015D01*
X0103417Y0080053D02*
X0105365Y0080053D01*
X0105377Y0080091D02*
X0103417Y0080091D01*
X0103417Y0080129D02*
X0105389Y0080129D01*
X0105402Y0080167D02*
X0103417Y0080167D01*
X0103417Y0080205D02*
X0105417Y0080205D01*
X0105433Y0080243D02*
X0103417Y0080243D01*
X0103417Y0080280D02*
X0105448Y0080280D01*
X0105464Y0080318D02*
X0103417Y0080318D01*
X0103417Y0080356D02*
X0105479Y0080356D01*
X0105497Y0080394D02*
X0103417Y0080394D01*
X0103417Y0080432D02*
X0105517Y0080432D01*
X0105536Y0080470D02*
X0103417Y0080470D01*
X0103417Y0080508D02*
X0105555Y0080508D01*
X0105574Y0080546D02*
X0103417Y0080546D01*
X0103417Y0080584D02*
X0105596Y0080584D01*
X0105619Y0080621D02*
X0103417Y0080621D01*
X0103417Y0080659D02*
X0105642Y0080659D01*
X0105665Y0080697D02*
X0103417Y0080697D01*
X0103417Y0080735D02*
X0105689Y0080735D01*
X0105714Y0080773D02*
X0103417Y0080773D01*
X0103417Y0080811D02*
X0105742Y0080811D01*
X0105770Y0080849D02*
X0103417Y0080849D01*
X0103417Y0080887D02*
X0105797Y0080887D01*
X0105825Y0080924D02*
X0103417Y0080924D01*
X0103417Y0080962D02*
X0105857Y0080962D01*
X0105890Y0081000D02*
X0103417Y0081000D01*
X0103417Y0081038D02*
X0105923Y0081038D01*
X0105956Y0081076D02*
X0103417Y0081076D01*
X0103417Y0081114D02*
X0105992Y0081114D01*
X0106033Y0081152D02*
X0103417Y0081152D01*
X0103417Y0081190D02*
X0106074Y0081190D01*
X0106115Y0081227D02*
X0103417Y0081227D01*
X0103417Y0081265D02*
X0106160Y0081265D01*
X0106210Y0081303D02*
X0103417Y0081303D01*
X0103417Y0081341D02*
X0106260Y0081341D01*
X0106310Y0081379D02*
X0103417Y0081379D01*
X0103417Y0081417D02*
X0106370Y0081417D01*
X0106432Y0081455D02*
X0103417Y0081455D01*
X0103417Y0081493D02*
X0106494Y0081493D01*
X0106570Y0081531D02*
X0103417Y0081531D01*
X0103417Y0081568D02*
X0106649Y0081568D01*
X0106735Y0081606D02*
X0103417Y0081606D01*
X0103417Y0081644D02*
X0106839Y0081644D01*
X0106956Y0081682D02*
X0103417Y0081682D01*
X0103417Y0081720D02*
X0107106Y0081720D01*
X0107342Y0081758D02*
X0103417Y0081758D01*
X0103417Y0081796D02*
X0111096Y0081796D01*
X0111070Y0081834D02*
X0103417Y0081834D01*
X0103417Y0081871D02*
X0111043Y0081871D01*
X0111013Y0081909D02*
X0103417Y0081909D01*
X0103417Y0081947D02*
X0110983Y0081947D01*
X0110954Y0081985D02*
X0103417Y0081985D01*
X0103417Y0082023D02*
X0110924Y0082023D01*
X0110893Y0082061D02*
X0103417Y0082061D01*
X0103417Y0082099D02*
X0110860Y0082099D01*
X0110827Y0082137D02*
X0103417Y0082137D01*
X0103417Y0082175D02*
X0110794Y0082175D01*
X0110761Y0082212D02*
X0103417Y0082212D01*
X0103417Y0082250D02*
X0110724Y0082250D01*
X0110687Y0082288D02*
X0103417Y0082288D01*
X0103417Y0082326D02*
X0110650Y0082326D01*
X0110613Y0082364D02*
X0103417Y0082364D01*
X0103417Y0082402D02*
X0110576Y0082402D01*
X0110539Y0082440D02*
X0103417Y0082440D01*
X0103417Y0082478D02*
X0110502Y0082478D01*
X0110465Y0082515D02*
X0103417Y0082515D01*
X0103417Y0082553D02*
X0110423Y0082553D01*
X0110380Y0082591D02*
X0103417Y0082591D01*
X0103417Y0082629D02*
X0110337Y0082629D01*
X0110294Y0082667D02*
X0103417Y0082667D01*
X0103417Y0082705D02*
X0105378Y0082705D01*
X0105416Y0082705D02*
X0110247Y0082705D01*
X0110198Y0082743D02*
X0105462Y0082743D01*
X0105507Y0082781D02*
X0110150Y0082781D01*
X0110100Y0082819D02*
X0105553Y0082819D01*
X0105604Y0082856D02*
X0110046Y0082856D01*
X0109991Y0082894D02*
X0105656Y0082894D01*
X0105707Y0082932D02*
X0109937Y0082932D01*
X0109876Y0082970D02*
X0105763Y0082970D01*
X0105822Y0083008D02*
X0109814Y0083008D01*
X0109753Y0083046D02*
X0105881Y0083046D01*
X0105943Y0083084D02*
X0109684Y0083084D01*
X0109613Y0083122D02*
X0106012Y0083122D01*
X0106080Y0083159D02*
X0109543Y0083159D01*
X0109461Y0083197D02*
X0106154Y0083197D01*
X0106233Y0083235D02*
X0109380Y0083235D01*
X0109291Y0083273D02*
X0106313Y0083273D01*
X0106407Y0083311D02*
X0109196Y0083311D01*
X0109094Y0083349D02*
X0106502Y0083349D01*
X0106613Y0083387D02*
X0108980Y0083387D01*
X0108853Y0083425D02*
X0106728Y0083425D01*
X0106871Y0083462D02*
X0108713Y0083462D01*
X0108534Y0083500D02*
X0107040Y0083500D01*
X0107269Y0083538D02*
X0108299Y0083538D01*
X0108068Y0081720D02*
X0111149Y0081720D01*
X0111123Y0081758D02*
X0107815Y0081758D01*
X0108211Y0081682D02*
X0111175Y0081682D01*
X0111199Y0081644D02*
X0108334Y0081644D01*
X0108432Y0081606D02*
X0111222Y0081606D01*
X0111246Y0081568D02*
X0108524Y0081568D01*
X0108599Y0081531D02*
X0111270Y0081531D01*
X0111293Y0081493D02*
X0108674Y0081493D01*
X0108739Y0081455D02*
X0111314Y0081455D01*
X0111335Y0081417D02*
X0108799Y0081417D01*
X0108858Y0081379D02*
X0111356Y0081379D01*
X0111377Y0081341D02*
X0108912Y0081341D01*
X0108960Y0081303D02*
X0111397Y0081303D01*
X0111416Y0081265D02*
X0109008Y0081265D01*
X0109056Y0081227D02*
X0111434Y0081227D01*
X0111453Y0081190D02*
X0109097Y0081190D01*
X0109136Y0081152D02*
X0111471Y0081152D01*
X0111489Y0081114D02*
X0109175Y0081114D01*
X0109215Y0081076D02*
X0111506Y0081076D01*
X0111522Y0081038D02*
X0109248Y0081038D01*
X0109279Y0081000D02*
X0111538Y0081000D01*
X0111554Y0080962D02*
X0109311Y0080962D01*
X0109343Y0080924D02*
X0111570Y0080924D01*
X0111585Y0080887D02*
X0109373Y0080887D01*
X0109400Y0080849D02*
X0111599Y0080849D01*
X0111612Y0080811D02*
X0109426Y0080811D01*
X0109453Y0080773D02*
X0111626Y0080773D01*
X0111639Y0080735D02*
X0109480Y0080735D01*
X0109504Y0080697D02*
X0111653Y0080697D01*
X0111665Y0080659D02*
X0109526Y0080659D01*
X0109549Y0080621D02*
X0111676Y0080621D01*
X0111688Y0080584D02*
X0109571Y0080584D01*
X0109593Y0080546D02*
X0111699Y0080546D01*
X0111711Y0080508D02*
X0109614Y0080508D01*
X0109632Y0080470D02*
X0111722Y0080470D01*
X0111731Y0080432D02*
X0109650Y0080432D01*
X0109669Y0080394D02*
X0111740Y0080394D01*
X0111749Y0080356D02*
X0109687Y0080356D01*
X0109705Y0080318D02*
X0111759Y0080318D01*
X0111768Y0080280D02*
X0109720Y0080280D01*
X0109734Y0080243D02*
X0111776Y0080243D01*
X0111783Y0080205D02*
X0109749Y0080205D01*
X0109764Y0080167D02*
X0111790Y0080167D01*
X0111798Y0080129D02*
X0109779Y0080129D01*
X0109791Y0080091D02*
X0111805Y0080091D01*
X0111812Y0080053D02*
X0109802Y0080053D01*
X0109813Y0080015D02*
X0111818Y0080015D01*
X0111823Y0079977D02*
X0109825Y0079977D01*
X0109836Y0079940D02*
X0111828Y0079940D01*
X0111833Y0079902D02*
X0109847Y0079902D01*
X0109855Y0079864D02*
X0111838Y0079864D01*
X0111843Y0079826D02*
X0109863Y0079826D01*
X0109871Y0079788D02*
X0111846Y0079788D01*
X0111849Y0079750D02*
X0109879Y0079750D01*
X0109887Y0079712D02*
X0111852Y0079712D01*
X0111855Y0079674D02*
X0109894Y0079674D01*
X0109899Y0079636D02*
X0111858Y0079636D01*
X0111861Y0079599D02*
X0109904Y0079599D01*
X0109908Y0079561D02*
X0111862Y0079561D01*
X0111863Y0079523D02*
X0109913Y0079523D01*
X0109918Y0079485D02*
X0111864Y0079485D01*
X0111865Y0079447D02*
X0109921Y0079447D01*
X0109923Y0079409D02*
X0111866Y0079409D01*
X0111867Y0079371D02*
X0109925Y0079371D01*
X0109927Y0079333D02*
X0111867Y0079333D01*
X0111866Y0079296D02*
X0109929Y0079296D01*
X0109930Y0079258D02*
X0111866Y0079258D01*
X0111865Y0079220D02*
X0109930Y0079220D01*
X0109929Y0079182D02*
X0111864Y0079182D01*
X0111864Y0079144D02*
X0109928Y0079144D01*
X0109926Y0079106D02*
X0111863Y0079106D01*
X0111863Y0079068D02*
X0109925Y0079068D01*
X0109924Y0079030D02*
X0111862Y0079030D01*
X0111862Y0078992D02*
X0109920Y0078992D01*
X0109916Y0078955D02*
X0111861Y0078955D01*
X0111860Y0078917D02*
X0109912Y0078917D01*
X0109907Y0078879D02*
X0111857Y0078879D01*
X0112898Y0081379D02*
X0115642Y0081379D01*
X0115302Y0081796D02*
X0120676Y0081796D01*
X0120649Y0081834D02*
X0115270Y0081834D01*
X0115262Y0081834D02*
X0112898Y0081834D01*
X0112898Y0081871D02*
X0115230Y0081871D01*
X0115238Y0081871D02*
X0120623Y0081871D01*
X0120596Y0081909D02*
X0115206Y0081909D01*
X0115199Y0081909D02*
X0112898Y0081909D01*
X0112898Y0081947D02*
X0115167Y0081947D01*
X0115174Y0081947D02*
X0120567Y0081947D01*
X0120538Y0081985D02*
X0115142Y0081985D01*
X0115135Y0081985D02*
X0112898Y0081985D01*
X0112898Y0082023D02*
X0115104Y0082023D01*
X0115110Y0082023D02*
X0120509Y0082023D01*
X0120480Y0082061D02*
X0115078Y0082061D01*
X0115072Y0082061D02*
X0112898Y0082061D01*
X0112898Y0082099D02*
X0115040Y0082099D01*
X0115046Y0082099D02*
X0120448Y0082099D01*
X0120416Y0082137D02*
X0115014Y0082137D01*
X0115009Y0082137D02*
X0112898Y0082137D01*
X0112898Y0082175D02*
X0114977Y0082175D01*
X0114982Y0082175D02*
X0120384Y0082175D01*
X0120352Y0082212D02*
X0114950Y0082212D01*
X0114945Y0082212D02*
X0112898Y0082212D01*
X0112898Y0082250D02*
X0114914Y0082250D01*
X0114918Y0082250D02*
X0120319Y0082250D01*
X0120285Y0082288D02*
X0114886Y0082288D01*
X0114882Y0082288D02*
X0112898Y0082288D01*
X0112898Y0082326D02*
X0114850Y0082326D01*
X0114854Y0082326D02*
X0120250Y0082326D01*
X0120216Y0082364D02*
X0114822Y0082364D01*
X0114818Y0082364D02*
X0112898Y0082364D01*
X0112898Y0082402D02*
X0114799Y0082402D01*
X0114828Y0082402D02*
X0120181Y0082402D01*
X0120142Y0082440D02*
X0114865Y0082440D01*
X0114903Y0082478D02*
X0120104Y0082478D01*
X0120065Y0082515D02*
X0114940Y0082515D01*
X0114980Y0082553D02*
X0120026Y0082553D01*
X0119983Y0082591D02*
X0115022Y0082591D01*
X0115065Y0082629D02*
X0119939Y0082629D01*
X0119896Y0082667D02*
X0115107Y0082667D01*
X0115153Y0082705D02*
X0119851Y0082705D01*
X0119802Y0082743D02*
X0115201Y0082743D01*
X0115249Y0082781D02*
X0119752Y0082781D01*
X0119703Y0082819D02*
X0115297Y0082819D01*
X0115351Y0082856D02*
X0119650Y0082856D01*
X0119594Y0082894D02*
X0115406Y0082894D01*
X0115461Y0082932D02*
X0119537Y0082932D01*
X0119479Y0082970D02*
X0115520Y0082970D01*
X0115583Y0083008D02*
X0119415Y0083008D01*
X0119351Y0083046D02*
X0115645Y0083046D01*
X0115713Y0083084D02*
X0119284Y0083084D01*
X0119209Y0083122D02*
X0115786Y0083122D01*
X0115858Y0083159D02*
X0119135Y0083159D01*
X0119053Y0083197D02*
X0115941Y0083197D01*
X0116026Y0083235D02*
X0118966Y0083235D01*
X0118875Y0083273D02*
X0116117Y0083273D01*
X0116218Y0083311D02*
X0118772Y0083311D01*
X0118663Y0083349D02*
X0116327Y0083349D01*
X0116452Y0083387D02*
X0118536Y0083387D01*
X0118389Y0083425D02*
X0116598Y0083425D01*
X0116772Y0083462D02*
X0118213Y0083462D01*
X0117959Y0083500D02*
X0117022Y0083500D01*
X0114776Y0083197D02*
X0112946Y0083197D01*
X0112898Y0083159D02*
X0114776Y0083159D01*
X0114776Y0083122D02*
X0112898Y0083122D01*
X0112898Y0083084D02*
X0114776Y0083084D01*
X0114776Y0083046D02*
X0112898Y0083046D01*
X0112898Y0083008D02*
X0114776Y0083008D01*
X0114776Y0082970D02*
X0112898Y0082970D01*
X0112898Y0082932D02*
X0114776Y0082932D01*
X0114776Y0082894D02*
X0112898Y0082894D01*
X0112898Y0082856D02*
X0114776Y0082856D01*
X0114776Y0082819D02*
X0112898Y0082819D01*
X0112898Y0082781D02*
X0114776Y0082781D01*
X0114776Y0082743D02*
X0112898Y0082743D01*
X0112898Y0082705D02*
X0114776Y0082705D01*
X0114776Y0082667D02*
X0112898Y0082667D01*
X0112898Y0082629D02*
X0114776Y0082629D01*
X0114776Y0082591D02*
X0112898Y0082591D01*
X0112898Y0082553D02*
X0114776Y0082553D01*
X0114779Y0082515D02*
X0112898Y0082515D01*
X0112898Y0082478D02*
X0114786Y0082478D01*
X0114793Y0082440D02*
X0112898Y0082440D01*
X0112898Y0081796D02*
X0115294Y0081796D01*
X0114648Y0083235D02*
X0113020Y0083235D01*
X0121990Y0083235D02*
X0123270Y0083235D01*
X0123220Y0083269D02*
X0123022Y0083370D01*
X0122815Y0083447D01*
X0122599Y0083500D01*
X0122379Y0083527D01*
X0122158Y0083529D01*
X0121990Y0083472D01*
X0121990Y0081698D01*
X0122413Y0081632D01*
X0122627Y0081572D01*
X0122833Y0081491D01*
X0123029Y0081388D01*
X0123213Y0081264D01*
X0123364Y0081102D01*
X0123490Y0080920D01*
X0123593Y0080723D01*
X0123669Y0080515D01*
X0123719Y0080299D01*
X0123741Y0080079D01*
X0123735Y0079857D01*
X0123736Y0075201D01*
X0125511Y0075201D01*
X0125669Y0075264D01*
X0125669Y0083248D01*
X0123895Y0083248D01*
X0123869Y0083053D01*
X0123869Y0082831D01*
X0123853Y0082660D01*
X0123724Y0082840D01*
X0123573Y0083002D01*
X0123404Y0083146D01*
X0123220Y0083269D01*
X0123211Y0083273D02*
X0121990Y0083273D01*
X0121990Y0083311D02*
X0123137Y0083311D01*
X0123063Y0083349D02*
X0121990Y0083349D01*
X0121990Y0083387D02*
X0122976Y0083387D01*
X0122874Y0083425D02*
X0121990Y0083425D01*
X0121990Y0083462D02*
X0122751Y0083462D01*
X0122593Y0083500D02*
X0122074Y0083500D01*
X0121990Y0083197D02*
X0123327Y0083197D01*
X0123384Y0083159D02*
X0121990Y0083159D01*
X0121990Y0083122D02*
X0123433Y0083122D01*
X0123477Y0083084D02*
X0121990Y0083084D01*
X0121990Y0083046D02*
X0123522Y0083046D01*
X0123566Y0083008D02*
X0121990Y0083008D01*
X0121990Y0082970D02*
X0123603Y0082970D01*
X0123639Y0082932D02*
X0121990Y0082932D01*
X0121990Y0082894D02*
X0123674Y0082894D01*
X0123709Y0082856D02*
X0121990Y0082856D01*
X0121990Y0082819D02*
X0123740Y0082819D01*
X0123767Y0082781D02*
X0121990Y0082781D01*
X0121990Y0082743D02*
X0123794Y0082743D01*
X0123821Y0082705D02*
X0121990Y0082705D01*
X0121990Y0082667D02*
X0123848Y0082667D01*
X0123854Y0082667D02*
X0125669Y0082667D01*
X0125669Y0082705D02*
X0123857Y0082705D01*
X0123861Y0082743D02*
X0125669Y0082743D01*
X0125669Y0082781D02*
X0123864Y0082781D01*
X0123868Y0082819D02*
X0125669Y0082819D01*
X0125669Y0082856D02*
X0123869Y0082856D01*
X0123869Y0082894D02*
X0125669Y0082894D01*
X0125669Y0082932D02*
X0123869Y0082932D01*
X0123869Y0082970D02*
X0125669Y0082970D01*
X0125669Y0083008D02*
X0123869Y0083008D01*
X0123869Y0083046D02*
X0125669Y0083046D01*
X0125669Y0083084D02*
X0123873Y0083084D01*
X0123878Y0083122D02*
X0125669Y0083122D01*
X0125669Y0083159D02*
X0123883Y0083159D01*
X0123888Y0083197D02*
X0125669Y0083197D01*
X0125669Y0083235D02*
X0123893Y0083235D01*
X0125669Y0082629D02*
X0121990Y0082629D01*
X0121990Y0082591D02*
X0125669Y0082591D01*
X0125669Y0082553D02*
X0121990Y0082553D01*
X0121990Y0082515D02*
X0125669Y0082515D01*
X0125669Y0082478D02*
X0121990Y0082478D01*
X0121990Y0082440D02*
X0125669Y0082440D01*
X0125669Y0082402D02*
X0121990Y0082402D01*
X0121990Y0082364D02*
X0125669Y0082364D01*
X0125669Y0082326D02*
X0121990Y0082326D01*
X0121990Y0082288D02*
X0125669Y0082288D01*
X0125669Y0082250D02*
X0121990Y0082250D01*
X0121990Y0082212D02*
X0125669Y0082212D01*
X0125669Y0082175D02*
X0121990Y0082175D01*
X0121990Y0082137D02*
X0125669Y0082137D01*
X0125669Y0082099D02*
X0121990Y0082099D01*
X0121990Y0082061D02*
X0125669Y0082061D01*
X0125669Y0082023D02*
X0121990Y0082023D01*
X0121990Y0081985D02*
X0125669Y0081985D01*
X0125669Y0081947D02*
X0121990Y0081947D01*
X0121990Y0081909D02*
X0125669Y0081909D01*
X0125669Y0081871D02*
X0121990Y0081871D01*
X0121990Y0081834D02*
X0125669Y0081834D01*
X0125669Y0081796D02*
X0121990Y0081796D01*
X0121990Y0081758D02*
X0125669Y0081758D01*
X0125669Y0081720D02*
X0121990Y0081720D01*
X0122090Y0081682D02*
X0125669Y0081682D01*
X0125669Y0081644D02*
X0122334Y0081644D01*
X0122505Y0081606D02*
X0125669Y0081606D01*
X0125669Y0081568D02*
X0122637Y0081568D01*
X0122733Y0081531D02*
X0125669Y0081531D01*
X0125669Y0081493D02*
X0122828Y0081493D01*
X0122901Y0081455D02*
X0125669Y0081455D01*
X0125669Y0081417D02*
X0122973Y0081417D01*
X0123042Y0081379D02*
X0125669Y0081379D01*
X0125669Y0081341D02*
X0123098Y0081341D01*
X0123155Y0081303D02*
X0125669Y0081303D01*
X0125669Y0081265D02*
X0123211Y0081265D01*
X0123247Y0081227D02*
X0125669Y0081227D01*
X0125669Y0081190D02*
X0123283Y0081190D01*
X0123318Y0081152D02*
X0125669Y0081152D01*
X0125669Y0081114D02*
X0123353Y0081114D01*
X0123382Y0081076D02*
X0125669Y0081076D01*
X0125669Y0081038D02*
X0123408Y0081038D01*
X0123435Y0081000D02*
X0125669Y0081000D01*
X0125669Y0080962D02*
X0123461Y0080962D01*
X0123487Y0080924D02*
X0125669Y0080924D01*
X0125669Y0080887D02*
X0123508Y0080887D01*
X0123527Y0080849D02*
X0125669Y0080849D01*
X0125669Y0080811D02*
X0123547Y0080811D01*
X0123567Y0080773D02*
X0125669Y0080773D01*
X0125669Y0080735D02*
X0123587Y0080735D01*
X0123602Y0080697D02*
X0125669Y0080697D01*
X0125669Y0080659D02*
X0123616Y0080659D01*
X0123630Y0080621D02*
X0125669Y0080621D01*
X0125669Y0080584D02*
X0123644Y0080584D01*
X0123658Y0080546D02*
X0125669Y0080546D01*
X0125669Y0080508D02*
X0123671Y0080508D01*
X0123680Y0080470D02*
X0125669Y0080470D01*
X0125669Y0080432D02*
X0123688Y0080432D01*
X0123697Y0080394D02*
X0125669Y0080394D01*
X0125669Y0080356D02*
X0123706Y0080356D01*
X0123714Y0080318D02*
X0125669Y0080318D01*
X0125669Y0080280D02*
X0123721Y0080280D01*
X0123724Y0080243D02*
X0125669Y0080243D01*
X0125669Y0080205D02*
X0123728Y0080205D01*
X0123732Y0080167D02*
X0125669Y0080167D01*
X0125669Y0080129D02*
X0123736Y0080129D01*
X0123739Y0080091D02*
X0125669Y0080091D01*
X0125669Y0080053D02*
X0123740Y0080053D01*
X0123739Y0080015D02*
X0125669Y0080015D01*
X0125669Y0079977D02*
X0123738Y0079977D01*
X0123737Y0079940D02*
X0125669Y0079940D01*
X0125669Y0079902D02*
X0123736Y0079902D01*
X0123735Y0079864D02*
X0125669Y0079864D01*
X0125669Y0079826D02*
X0123735Y0079826D01*
X0123735Y0079788D02*
X0125669Y0079788D01*
X0125669Y0079750D02*
X0123735Y0079750D01*
X0123735Y0079712D02*
X0125669Y0079712D01*
X0125669Y0079674D02*
X0123735Y0079674D01*
X0123735Y0079636D02*
X0125669Y0079636D01*
X0125669Y0079599D02*
X0123735Y0079599D01*
X0123735Y0079561D02*
X0125669Y0079561D01*
X0125669Y0079523D02*
X0123735Y0079523D01*
X0123735Y0079485D02*
X0125669Y0079485D01*
X0125669Y0079447D02*
X0123735Y0079447D01*
X0123735Y0079409D02*
X0125669Y0079409D01*
X0125669Y0079371D02*
X0123735Y0079371D01*
X0123735Y0079333D02*
X0125669Y0079333D01*
X0125669Y0079296D02*
X0123735Y0079296D01*
X0123735Y0079258D02*
X0125669Y0079258D01*
X0125669Y0079220D02*
X0123735Y0079220D01*
X0123735Y0079182D02*
X0125669Y0079182D01*
X0125669Y0079144D02*
X0123735Y0079144D01*
X0123735Y0079106D02*
X0125669Y0079106D01*
X0125669Y0079068D02*
X0123735Y0079068D01*
X0123735Y0079030D02*
X0125669Y0079030D01*
X0125669Y0078992D02*
X0123736Y0078992D01*
X0123736Y0078955D02*
X0125669Y0078955D01*
X0125669Y0078917D02*
X0123736Y0078917D01*
X0123736Y0078879D02*
X0125669Y0078879D01*
X0125669Y0078841D02*
X0123736Y0078841D01*
X0123736Y0078803D02*
X0125669Y0078803D01*
X0125669Y0078765D02*
X0123736Y0078765D01*
X0123736Y0078727D02*
X0125669Y0078727D01*
X0125669Y0078689D02*
X0123736Y0078689D01*
X0123736Y0078652D02*
X0125669Y0078652D01*
X0125669Y0078614D02*
X0123736Y0078614D01*
X0123736Y0078576D02*
X0125669Y0078576D01*
X0125669Y0078538D02*
X0123736Y0078538D01*
X0123736Y0078500D02*
X0125669Y0078500D01*
X0125669Y0078462D02*
X0123736Y0078462D01*
X0123736Y0078424D02*
X0125669Y0078424D01*
X0125669Y0078386D02*
X0123736Y0078386D01*
X0123736Y0078348D02*
X0125669Y0078348D01*
X0125669Y0078311D02*
X0123736Y0078311D01*
X0123736Y0078273D02*
X0125669Y0078273D01*
X0125669Y0078235D02*
X0123736Y0078235D01*
X0123736Y0078197D02*
X0125669Y0078197D01*
X0125669Y0078159D02*
X0123736Y0078159D01*
X0123736Y0078121D02*
X0125669Y0078121D01*
X0125669Y0078083D02*
X0123736Y0078083D01*
X0123736Y0078045D02*
X0125669Y0078045D01*
X0125669Y0078008D02*
X0123736Y0078008D01*
X0123736Y0077970D02*
X0125669Y0077970D01*
X0125669Y0077932D02*
X0123736Y0077932D01*
X0123736Y0077894D02*
X0125669Y0077894D01*
X0125669Y0077856D02*
X0123736Y0077856D01*
X0123736Y0077818D02*
X0125669Y0077818D01*
X0125669Y0077780D02*
X0123736Y0077780D01*
X0123736Y0077742D02*
X0125669Y0077742D01*
X0125669Y0077705D02*
X0123736Y0077705D01*
X0123736Y0077667D02*
X0125669Y0077667D01*
X0125669Y0077629D02*
X0123736Y0077629D01*
X0123736Y0077591D02*
X0125669Y0077591D01*
X0125669Y0077553D02*
X0123736Y0077553D01*
X0123736Y0077515D02*
X0125669Y0077515D01*
X0125669Y0077477D02*
X0123736Y0077477D01*
X0123736Y0077439D02*
X0125669Y0077439D01*
X0125669Y0077401D02*
X0123736Y0077401D01*
X0123736Y0077364D02*
X0125669Y0077364D01*
X0125669Y0077326D02*
X0123736Y0077326D01*
X0123736Y0077288D02*
X0125669Y0077288D01*
X0125669Y0077250D02*
X0123736Y0077250D01*
X0123736Y0077212D02*
X0125669Y0077212D01*
X0125669Y0077174D02*
X0123736Y0077174D01*
X0123736Y0077136D02*
X0125669Y0077136D01*
X0125669Y0077098D02*
X0123736Y0077098D01*
X0123736Y0077061D02*
X0125669Y0077061D01*
X0125669Y0077023D02*
X0123736Y0077023D01*
X0123736Y0076985D02*
X0125669Y0076985D01*
X0125669Y0076947D02*
X0123736Y0076947D01*
X0123736Y0076909D02*
X0125669Y0076909D01*
X0125669Y0076871D02*
X0123736Y0076871D01*
X0123736Y0076833D02*
X0125669Y0076833D01*
X0125669Y0076795D02*
X0123736Y0076795D01*
X0123736Y0076757D02*
X0125669Y0076757D01*
X0125669Y0076720D02*
X0123736Y0076720D01*
X0123736Y0076682D02*
X0125669Y0076682D01*
X0125669Y0076644D02*
X0123736Y0076644D01*
X0123736Y0076606D02*
X0125669Y0076606D01*
X0125669Y0076568D02*
X0123736Y0076568D01*
X0123736Y0076530D02*
X0125669Y0076530D01*
X0125669Y0076492D02*
X0123736Y0076492D01*
X0123736Y0076454D02*
X0125669Y0076454D01*
X0125669Y0076417D02*
X0123736Y0076417D01*
X0123736Y0076379D02*
X0125669Y0076379D01*
X0125669Y0076341D02*
X0123736Y0076341D01*
X0123736Y0076303D02*
X0125669Y0076303D01*
X0125669Y0076265D02*
X0123736Y0076265D01*
X0123736Y0076227D02*
X0125669Y0076227D01*
X0125669Y0076189D02*
X0123736Y0076189D01*
X0123736Y0076151D02*
X0125669Y0076151D01*
X0125669Y0076113D02*
X0123736Y0076113D01*
X0123736Y0076076D02*
X0125669Y0076076D01*
X0125669Y0076038D02*
X0123736Y0076038D01*
X0123736Y0076000D02*
X0125669Y0076000D01*
X0125669Y0075962D02*
X0123736Y0075962D01*
X0123736Y0075924D02*
X0125669Y0075924D01*
X0125669Y0075886D02*
X0123736Y0075886D01*
X0123736Y0075848D02*
X0125669Y0075848D01*
X0125669Y0075810D02*
X0123736Y0075810D01*
X0123736Y0075773D02*
X0125669Y0075773D01*
X0125669Y0075735D02*
X0123736Y0075735D01*
X0123736Y0075697D02*
X0125669Y0075697D01*
X0125669Y0075659D02*
X0123736Y0075659D01*
X0123736Y0075621D02*
X0125669Y0075621D01*
X0125669Y0075583D02*
X0123736Y0075583D01*
X0123736Y0075545D02*
X0125669Y0075545D01*
X0125669Y0075507D02*
X0123736Y0075507D01*
X0123736Y0075470D02*
X0125669Y0075470D01*
X0125669Y0075432D02*
X0123736Y0075432D01*
X0123736Y0075394D02*
X0125669Y0075394D01*
X0125669Y0075356D02*
X0123736Y0075356D01*
X0123736Y0075318D02*
X0125669Y0075318D01*
X0125669Y0075280D02*
X0123736Y0075280D01*
X0123736Y0075242D02*
X0125615Y0075242D01*
X0125520Y0075204D02*
X0123736Y0075204D01*
X0127532Y0077103D02*
X0127638Y0076908D01*
X0127754Y0076718D01*
X0127882Y0076536D01*
X0128019Y0076362D01*
X0128167Y0076196D01*
X0128323Y0076039D01*
X0128489Y0075890D01*
X0128663Y0075752D01*
X0128845Y0075625D01*
X0129034Y0075509D01*
X0129229Y0075403D01*
X0129430Y0075307D01*
X0129635Y0075221D01*
X0129844Y0075147D01*
X0130057Y0075083D01*
X0130273Y0075030D01*
X0130491Y0074989D01*
X0130711Y0074959D01*
X0130932Y0074941D01*
X0131154Y0074934D01*
X0131227Y0074934D01*
X0131449Y0074936D01*
X0131671Y0074951D01*
X0131891Y0074978D01*
X0132110Y0075017D01*
X0132326Y0075068D01*
X0132539Y0075131D01*
X0132748Y0075205D01*
X0132953Y0075291D01*
X0133153Y0075388D01*
X0133347Y0075496D01*
X0133535Y0075614D01*
X0133716Y0075743D01*
X0133890Y0075882D01*
X0134055Y0076029D01*
X0134213Y0076186D01*
X0134360Y0076352D01*
X0134499Y0076526D01*
X0134629Y0076706D01*
X0134751Y0076892D01*
X0134862Y0077084D01*
X0134964Y0077281D01*
X0135056Y0077483D01*
X0135137Y0077690D01*
X0135208Y0077901D01*
X0135269Y0078114D01*
X0135318Y0078331D01*
X0135357Y0078550D01*
X0135385Y0078770D01*
X0135402Y0078991D01*
X0135407Y0079213D01*
X0135402Y0079436D01*
X0135386Y0079657D01*
X0135359Y0079878D01*
X0135320Y0080096D01*
X0135271Y0080313D01*
X0135211Y0080527D01*
X0135141Y0080738D01*
X0135060Y0080944D01*
X0134969Y0081147D01*
X0134867Y0081345D01*
X0134756Y0081537D01*
X0134636Y0081723D01*
X0134506Y0081904D01*
X0134367Y0082077D01*
X0134220Y0082244D01*
X0134063Y0082400D01*
X0133897Y0082548D01*
X0133724Y0082687D01*
X0133543Y0082816D01*
X0133356Y0082936D01*
X0133162Y0083045D01*
X0132963Y0083144D01*
X0132759Y0083232D01*
X0132551Y0083308D01*
X0132339Y0083374D01*
X0132123Y0083428D01*
X0131905Y0083470D01*
X0131685Y0083501D01*
X0131464Y0083519D01*
X0131242Y0083526D01*
X0131020Y0083521D01*
X0130798Y0083504D01*
X0130578Y0083475D01*
X0130360Y0083434D01*
X0130144Y0083382D01*
X0129931Y0083318D01*
X0129722Y0083242D01*
X0129517Y0083156D01*
X0129318Y0083059D01*
X0129123Y0082951D01*
X0128935Y0082833D01*
X0128754Y0082705D01*
X0128579Y0082567D01*
X0128413Y0082421D01*
X0128254Y0082265D01*
X0128100Y0082105D01*
X0127955Y0081937D01*
X0127819Y0081761D01*
X0127693Y0081578D01*
X0127576Y0081389D01*
X0127470Y0081194D01*
X0127374Y0080994D01*
X0127289Y0080789D01*
X0127215Y0080579D01*
X0127153Y0080366D01*
X0127101Y0080150D01*
X0127062Y0079931D01*
X0127034Y0079711D01*
X0127018Y0079489D01*
X0127014Y0079267D01*
X0127019Y0079045D01*
X0127034Y0078824D01*
X0127057Y0078603D01*
X0127090Y0078383D01*
X0127300Y0078369D01*
X0133293Y0078369D01*
X0133220Y0079914D01*
X0129004Y0079914D01*
X0129041Y0080058D01*
X0129112Y0080269D01*
X0129202Y0080472D01*
X0129310Y0080666D01*
X0129436Y0080849D01*
X0129577Y0081020D01*
X0129729Y0081182D01*
X0129897Y0081327D01*
X0130080Y0081453D01*
X0130275Y0081559D01*
X0130481Y0081643D01*
X0130694Y0081705D01*
X0130912Y0081744D01*
X0131134Y0081759D01*
X0131356Y0081754D01*
X0131577Y0081729D01*
X0131793Y0081680D01*
X0132003Y0081608D01*
X0132205Y0081514D01*
X0132395Y0081400D01*
X0132573Y0081267D01*
X0132735Y0081115D01*
X0132881Y0080947D01*
X0133012Y0080768D01*
X0133128Y0080579D01*
X0133229Y0080381D01*
X0133314Y0080176D01*
X0133381Y0079964D01*
X0133229Y0079915D01*
X0133299Y0078364D01*
X0133324Y0078229D01*
X0133235Y0078025D01*
X0133130Y0077830D01*
X0133007Y0077645D01*
X0132869Y0077471D01*
X0132719Y0077308D01*
X0132553Y0077160D01*
X0132373Y0077030D01*
X0132180Y0076920D01*
X0131977Y0076830D01*
X0131766Y0076762D01*
X0131548Y0076716D01*
X0131328Y0076693D01*
X0131105Y0076691D01*
X0130884Y0076710D01*
X0130666Y0076749D01*
X0130452Y0076810D01*
X0130245Y0076891D01*
X0130047Y0076992D01*
X0129861Y0077112D01*
X0129690Y0077254D01*
X0129538Y0077416D01*
X0129407Y0077595D01*
X0129266Y0077735D01*
X0127489Y0077735D01*
X0127285Y0077721D01*
X0127356Y0077510D01*
X0127438Y0077304D01*
X0127532Y0077103D01*
X0127535Y0077098D02*
X0129882Y0077098D01*
X0129831Y0077136D02*
X0127517Y0077136D01*
X0127499Y0077174D02*
X0129786Y0077174D01*
X0129740Y0077212D02*
X0127481Y0077212D01*
X0127463Y0077250D02*
X0129694Y0077250D01*
X0129658Y0077288D02*
X0127446Y0077288D01*
X0127429Y0077326D02*
X0129622Y0077326D01*
X0129587Y0077364D02*
X0127414Y0077364D01*
X0127399Y0077401D02*
X0129551Y0077401D01*
X0129521Y0077439D02*
X0127384Y0077439D01*
X0127369Y0077477D02*
X0129493Y0077477D01*
X0129465Y0077515D02*
X0127354Y0077515D01*
X0127341Y0077553D02*
X0129438Y0077553D01*
X0129410Y0077591D02*
X0127329Y0077591D01*
X0127316Y0077629D02*
X0129373Y0077629D01*
X0129335Y0077667D02*
X0127303Y0077667D01*
X0127291Y0077705D02*
X0129297Y0077705D01*
X0129941Y0077061D02*
X0127555Y0077061D01*
X0127576Y0077023D02*
X0130000Y0077023D01*
X0130062Y0076985D02*
X0127596Y0076985D01*
X0127617Y0076947D02*
X0130136Y0076947D01*
X0130211Y0076909D02*
X0127637Y0076909D01*
X0127660Y0076871D02*
X0130297Y0076871D01*
X0130393Y0076833D02*
X0127684Y0076833D01*
X0127707Y0076795D02*
X0130504Y0076795D01*
X0130637Y0076757D02*
X0127730Y0076757D01*
X0127754Y0076720D02*
X0130829Y0076720D01*
X0131567Y0076720D02*
X0134639Y0076720D01*
X0134663Y0076757D02*
X0131746Y0076757D01*
X0131870Y0076795D02*
X0134688Y0076795D01*
X0134713Y0076833D02*
X0131985Y0076833D01*
X0132071Y0076871D02*
X0134737Y0076871D01*
X0134761Y0076909D02*
X0132156Y0076909D01*
X0132228Y0076947D02*
X0134783Y0076947D01*
X0134805Y0076985D02*
X0132294Y0076985D01*
X0132360Y0077023D02*
X0134827Y0077023D01*
X0134849Y0077061D02*
X0132415Y0077061D01*
X0132468Y0077098D02*
X0134870Y0077098D01*
X0134889Y0077136D02*
X0132520Y0077136D01*
X0132569Y0077174D02*
X0134909Y0077174D01*
X0134928Y0077212D02*
X0132612Y0077212D01*
X0132654Y0077250D02*
X0134948Y0077250D01*
X0134967Y0077288D02*
X0132696Y0077288D01*
X0132735Y0077326D02*
X0134984Y0077326D01*
X0135001Y0077364D02*
X0132770Y0077364D01*
X0132805Y0077401D02*
X0135019Y0077401D01*
X0135036Y0077439D02*
X0132840Y0077439D01*
X0132874Y0077477D02*
X0135053Y0077477D01*
X0135068Y0077515D02*
X0132905Y0077515D01*
X0132935Y0077553D02*
X0135083Y0077553D01*
X0135098Y0077591D02*
X0132965Y0077591D01*
X0132995Y0077629D02*
X0135113Y0077629D01*
X0135128Y0077667D02*
X0133022Y0077667D01*
X0133047Y0077705D02*
X0135142Y0077705D01*
X0135155Y0077742D02*
X0133072Y0077742D01*
X0133097Y0077780D02*
X0135168Y0077780D01*
X0135180Y0077818D02*
X0133122Y0077818D01*
X0133144Y0077856D02*
X0135193Y0077856D01*
X0135206Y0077894D02*
X0133164Y0077894D01*
X0133185Y0077932D02*
X0135217Y0077932D01*
X0135228Y0077970D02*
X0133205Y0077970D01*
X0133226Y0078008D02*
X0135238Y0078008D01*
X0135249Y0078045D02*
X0133244Y0078045D01*
X0133260Y0078083D02*
X0135260Y0078083D01*
X0135270Y0078121D02*
X0133277Y0078121D01*
X0133293Y0078159D02*
X0135279Y0078159D01*
X0135288Y0078197D02*
X0133310Y0078197D01*
X0133322Y0078235D02*
X0135296Y0078235D01*
X0135305Y0078273D02*
X0133315Y0078273D01*
X0133308Y0078311D02*
X0135314Y0078311D01*
X0135321Y0078348D02*
X0133301Y0078348D01*
X0133298Y0078386D02*
X0135328Y0078386D01*
X0135335Y0078424D02*
X0133296Y0078424D01*
X0133290Y0078424D02*
X0127084Y0078424D01*
X0127089Y0078386D02*
X0133292Y0078386D01*
X0133294Y0078462D02*
X0135342Y0078462D01*
X0135348Y0078500D02*
X0133292Y0078500D01*
X0133287Y0078500D02*
X0127072Y0078500D01*
X0127067Y0078538D02*
X0133285Y0078538D01*
X0133291Y0078538D02*
X0135355Y0078538D01*
X0135360Y0078576D02*
X0133289Y0078576D01*
X0133283Y0078576D02*
X0127061Y0078576D01*
X0127056Y0078614D02*
X0133281Y0078614D01*
X0133287Y0078614D02*
X0135365Y0078614D01*
X0135370Y0078652D02*
X0133286Y0078652D01*
X0133279Y0078652D02*
X0127052Y0078652D01*
X0127048Y0078689D02*
X0133278Y0078689D01*
X0133284Y0078689D02*
X0135375Y0078689D01*
X0135379Y0078727D02*
X0133282Y0078727D01*
X0133276Y0078727D02*
X0127044Y0078727D01*
X0127040Y0078765D02*
X0133274Y0078765D01*
X0133281Y0078765D02*
X0135384Y0078765D01*
X0135387Y0078803D02*
X0133279Y0078803D01*
X0133272Y0078803D02*
X0127036Y0078803D01*
X0127032Y0078841D02*
X0133270Y0078841D01*
X0133277Y0078841D02*
X0135390Y0078841D01*
X0135393Y0078879D02*
X0133276Y0078879D01*
X0133269Y0078879D02*
X0127030Y0078879D01*
X0127028Y0078917D02*
X0133267Y0078917D01*
X0133274Y0078917D02*
X0135396Y0078917D01*
X0135399Y0078955D02*
X0133272Y0078955D01*
X0133265Y0078955D02*
X0127025Y0078955D01*
X0127023Y0078992D02*
X0133263Y0078992D01*
X0133271Y0078992D02*
X0135402Y0078992D01*
X0135403Y0079030D02*
X0133269Y0079030D01*
X0133262Y0079030D02*
X0127020Y0079030D01*
X0127019Y0079068D02*
X0133260Y0079068D01*
X0133267Y0079068D02*
X0135404Y0079068D01*
X0135405Y0079106D02*
X0133265Y0079106D01*
X0133258Y0079106D02*
X0127018Y0079106D01*
X0127017Y0079144D02*
X0133256Y0079144D01*
X0133264Y0079144D02*
X0135406Y0079144D01*
X0135407Y0079182D02*
X0133262Y0079182D01*
X0133254Y0079182D02*
X0127016Y0079182D01*
X0127015Y0079220D02*
X0133253Y0079220D01*
X0133260Y0079220D02*
X0135407Y0079220D01*
X0135406Y0079258D02*
X0133259Y0079258D01*
X0133251Y0079258D02*
X0127014Y0079258D01*
X0127014Y0079296D02*
X0133249Y0079296D01*
X0133257Y0079296D02*
X0135406Y0079296D01*
X0135405Y0079333D02*
X0133255Y0079333D01*
X0133247Y0079333D02*
X0127015Y0079333D01*
X0127016Y0079371D02*
X0133245Y0079371D01*
X0133254Y0079371D02*
X0135404Y0079371D01*
X0135403Y0079409D02*
X0133252Y0079409D01*
X0133244Y0079409D02*
X0127016Y0079409D01*
X0127017Y0079447D02*
X0133242Y0079447D01*
X0133250Y0079447D02*
X0135401Y0079447D01*
X0135399Y0079485D02*
X0133249Y0079485D01*
X0133240Y0079485D02*
X0127018Y0079485D01*
X0127020Y0079523D02*
X0133238Y0079523D01*
X0133247Y0079523D02*
X0135396Y0079523D01*
X0135393Y0079561D02*
X0133245Y0079561D01*
X0133237Y0079561D02*
X0127023Y0079561D01*
X0127026Y0079599D02*
X0133235Y0079599D01*
X0133244Y0079599D02*
X0135390Y0079599D01*
X0135387Y0079636D02*
X0133242Y0079636D01*
X0133233Y0079636D02*
X0127029Y0079636D01*
X0127031Y0079674D02*
X0133231Y0079674D01*
X0133240Y0079674D02*
X0135384Y0079674D01*
X0135379Y0079712D02*
X0133238Y0079712D01*
X0133229Y0079712D02*
X0127034Y0079712D01*
X0127039Y0079750D02*
X0133228Y0079750D01*
X0133237Y0079750D02*
X0135374Y0079750D01*
X0135370Y0079788D02*
X0133235Y0079788D01*
X0133226Y0079788D02*
X0127044Y0079788D01*
X0127049Y0079826D02*
X0133224Y0079826D01*
X0133233Y0079826D02*
X0135365Y0079826D01*
X0135360Y0079864D02*
X0133232Y0079864D01*
X0133222Y0079864D02*
X0127053Y0079864D01*
X0127058Y0079902D02*
X0133220Y0079902D01*
X0133230Y0079902D02*
X0135354Y0079902D01*
X0135348Y0079940D02*
X0133305Y0079940D01*
X0133377Y0079977D02*
X0135341Y0079977D01*
X0135335Y0080015D02*
X0133365Y0080015D01*
X0133353Y0080053D02*
X0135328Y0080053D01*
X0135321Y0080091D02*
X0133341Y0080091D01*
X0133329Y0080129D02*
X0135313Y0080129D01*
X0135304Y0080167D02*
X0133317Y0080167D01*
X0133302Y0080205D02*
X0135296Y0080205D01*
X0135287Y0080243D02*
X0133286Y0080243D01*
X0133271Y0080280D02*
X0135279Y0080280D01*
X0135270Y0080318D02*
X0133255Y0080318D01*
X0133240Y0080356D02*
X0135259Y0080356D01*
X0135249Y0080394D02*
X0133223Y0080394D01*
X0133204Y0080432D02*
X0135238Y0080432D01*
X0135227Y0080470D02*
X0133184Y0080470D01*
X0133165Y0080508D02*
X0135217Y0080508D01*
X0135205Y0080546D02*
X0133146Y0080546D01*
X0133126Y0080584D02*
X0135192Y0080584D01*
X0135180Y0080621D02*
X0133103Y0080621D01*
X0133079Y0080659D02*
X0135167Y0080659D01*
X0135154Y0080697D02*
X0133056Y0080697D01*
X0133033Y0080735D02*
X0135142Y0080735D01*
X0135127Y0080773D02*
X0133009Y0080773D01*
X0132981Y0080811D02*
X0135112Y0080811D01*
X0135097Y0080849D02*
X0132953Y0080849D01*
X0132925Y0080887D02*
X0135083Y0080887D01*
X0135068Y0080924D02*
X0132898Y0080924D01*
X0132868Y0080962D02*
X0135052Y0080962D01*
X0135035Y0081000D02*
X0132835Y0081000D01*
X0132802Y0081038D02*
X0135018Y0081038D01*
X0135001Y0081076D02*
X0132769Y0081076D01*
X0132736Y0081114D02*
X0134984Y0081114D01*
X0134966Y0081152D02*
X0132695Y0081152D01*
X0132655Y0081190D02*
X0134947Y0081190D01*
X0134927Y0081227D02*
X0132614Y0081227D01*
X0132574Y0081265D02*
X0134908Y0081265D01*
X0134889Y0081303D02*
X0132524Y0081303D01*
X0132474Y0081341D02*
X0134869Y0081341D01*
X0134847Y0081379D02*
X0132423Y0081379D01*
X0132367Y0081417D02*
X0134826Y0081417D01*
X0134804Y0081455D02*
X0132304Y0081455D01*
X0132241Y0081493D02*
X0134782Y0081493D01*
X0134760Y0081531D02*
X0132170Y0081531D01*
X0132088Y0081568D02*
X0134736Y0081568D01*
X0134711Y0081606D02*
X0132007Y0081606D01*
X0131897Y0081644D02*
X0134687Y0081644D01*
X0134662Y0081682D02*
X0131782Y0081682D01*
X0131615Y0081720D02*
X0134638Y0081720D01*
X0134611Y0081758D02*
X0131179Y0081758D01*
X0131121Y0081758D02*
X0127817Y0081758D01*
X0127791Y0081720D02*
X0130777Y0081720D01*
X0130614Y0081682D02*
X0127765Y0081682D01*
X0127738Y0081644D02*
X0130483Y0081644D01*
X0130390Y0081606D02*
X0127712Y0081606D01*
X0127687Y0081568D02*
X0130298Y0081568D01*
X0130222Y0081531D02*
X0127663Y0081531D01*
X0127640Y0081493D02*
X0130153Y0081493D01*
X0130083Y0081455D02*
X0127617Y0081455D01*
X0127593Y0081417D02*
X0130027Y0081417D01*
X0129972Y0081379D02*
X0127571Y0081379D01*
X0127550Y0081341D02*
X0129918Y0081341D01*
X0129870Y0081303D02*
X0127529Y0081303D01*
X0127509Y0081265D02*
X0129826Y0081265D01*
X0129782Y0081227D02*
X0127488Y0081227D01*
X0127468Y0081190D02*
X0129738Y0081190D01*
X0129701Y0081152D02*
X0127450Y0081152D01*
X0127431Y0081114D02*
X0129665Y0081114D01*
X0129630Y0081076D02*
X0127413Y0081076D01*
X0127395Y0081038D02*
X0129594Y0081038D01*
X0129561Y0081000D02*
X0127377Y0081000D01*
X0127361Y0080962D02*
X0129530Y0080962D01*
X0129498Y0080924D02*
X0127345Y0080924D01*
X0127330Y0080887D02*
X0129467Y0080887D01*
X0129436Y0080849D02*
X0127314Y0080849D01*
X0127298Y0080811D02*
X0129410Y0080811D01*
X0129384Y0080773D02*
X0127284Y0080773D01*
X0127270Y0080735D02*
X0129358Y0080735D01*
X0129332Y0080697D02*
X0127257Y0080697D01*
X0127244Y0080659D02*
X0129307Y0080659D01*
X0129286Y0080621D02*
X0127230Y0080621D01*
X0127217Y0080584D02*
X0129264Y0080584D01*
X0129243Y0080546D02*
X0127205Y0080546D01*
X0127194Y0080508D02*
X0129222Y0080508D01*
X0129201Y0080470D02*
X0127183Y0080470D01*
X0127172Y0080432D02*
X0129184Y0080432D01*
X0129168Y0080394D02*
X0127161Y0080394D01*
X0127150Y0080356D02*
X0129151Y0080356D01*
X0129134Y0080318D02*
X0127141Y0080318D01*
X0127132Y0080280D02*
X0129117Y0080280D01*
X0129103Y0080243D02*
X0127123Y0080243D01*
X0127114Y0080205D02*
X0129090Y0080205D01*
X0129078Y0080167D02*
X0127105Y0080167D01*
X0127098Y0080129D02*
X0129065Y0080129D01*
X0129052Y0080091D02*
X0127091Y0080091D01*
X0127084Y0080053D02*
X0129040Y0080053D01*
X0129030Y0080015D02*
X0127077Y0080015D01*
X0127070Y0079977D02*
X0129020Y0079977D01*
X0129010Y0079940D02*
X0127063Y0079940D01*
X0127078Y0078462D02*
X0133288Y0078462D01*
X0134612Y0076682D02*
X0127780Y0076682D01*
X0127807Y0076644D02*
X0134585Y0076644D01*
X0134557Y0076606D02*
X0127833Y0076606D01*
X0127860Y0076568D02*
X0134530Y0076568D01*
X0134503Y0076530D02*
X0127887Y0076530D01*
X0127917Y0076492D02*
X0134472Y0076492D01*
X0134442Y0076454D02*
X0127947Y0076454D01*
X0127976Y0076417D02*
X0134412Y0076417D01*
X0134381Y0076379D02*
X0128006Y0076379D01*
X0128038Y0076341D02*
X0134350Y0076341D01*
X0134316Y0076303D02*
X0128072Y0076303D01*
X0128106Y0076265D02*
X0134283Y0076265D01*
X0134249Y0076227D02*
X0128139Y0076227D01*
X0128173Y0076189D02*
X0134215Y0076189D01*
X0134178Y0076151D02*
X0128211Y0076151D01*
X0128249Y0076113D02*
X0134140Y0076113D01*
X0134102Y0076076D02*
X0128287Y0076076D01*
X0128324Y0076038D02*
X0134064Y0076038D01*
X0134022Y0076000D02*
X0128367Y0076000D01*
X0128409Y0075962D02*
X0133980Y0075962D01*
X0133937Y0075924D02*
X0128451Y0075924D01*
X0128494Y0075886D02*
X0133895Y0075886D01*
X0133848Y0075848D02*
X0128542Y0075848D01*
X0128589Y0075810D02*
X0133800Y0075810D01*
X0133753Y0075773D02*
X0128637Y0075773D01*
X0128688Y0075735D02*
X0133704Y0075735D01*
X0133651Y0075697D02*
X0128742Y0075697D01*
X0128797Y0075659D02*
X0133598Y0075659D01*
X0133544Y0075621D02*
X0128852Y0075621D01*
X0128913Y0075583D02*
X0133485Y0075583D01*
X0133425Y0075545D02*
X0128975Y0075545D01*
X0129037Y0075507D02*
X0133365Y0075507D01*
X0133300Y0075470D02*
X0129107Y0075470D01*
X0129176Y0075432D02*
X0133232Y0075432D01*
X0133163Y0075394D02*
X0129248Y0075394D01*
X0129327Y0075356D02*
X0133087Y0075356D01*
X0133009Y0075318D02*
X0129407Y0075318D01*
X0129494Y0075280D02*
X0132927Y0075280D01*
X0132837Y0075242D02*
X0129585Y0075242D01*
X0129683Y0075204D02*
X0132747Y0075204D01*
X0132640Y0075166D02*
X0129789Y0075166D01*
X0129905Y0075129D02*
X0132532Y0075129D01*
X0132404Y0075091D02*
X0130031Y0075091D01*
X0130181Y0075053D02*
X0132263Y0075053D01*
X0132100Y0075015D02*
X0130354Y0075015D01*
X0130580Y0074977D02*
X0131885Y0074977D01*
X0131492Y0074939D02*
X0130984Y0074939D01*
X0136646Y0077497D02*
X0136738Y0077295D01*
X0136840Y0077098D01*
X0136951Y0076906D01*
X0137071Y0076719D01*
X0137201Y0076539D01*
X0137339Y0076365D01*
X0137485Y0076198D01*
X0137642Y0076041D01*
X0137807Y0075893D01*
X0137981Y0075755D01*
X0138162Y0075627D01*
X0138351Y0075509D01*
X0138546Y0075403D01*
X0138746Y0075308D01*
X0138952Y0075225D01*
X0139162Y0075154D01*
X0139376Y0075095D01*
X0139593Y0075048D01*
X0139813Y0075014D01*
X0140034Y0074993D01*
X0140255Y0074984D01*
X0140477Y0074988D01*
X0140699Y0075005D01*
X0140919Y0075035D01*
X0141137Y0075077D01*
X0141352Y0075132D01*
X0141563Y0075199D01*
X0141771Y0075278D01*
X0141973Y0075369D01*
X0142170Y0075471D01*
X0142361Y0075584D01*
X0142545Y0075709D01*
X0142721Y0075843D01*
X0142886Y0075985D01*
X0142022Y0077201D01*
X0141850Y0077069D01*
X0141661Y0076953D01*
X0141461Y0076856D01*
X0141253Y0076780D01*
X0141038Y0076724D01*
X0140819Y0076691D01*
X0140597Y0076679D01*
X0140524Y0076679D01*
X0140302Y0076693D01*
X0140083Y0076730D01*
X0139869Y0076788D01*
X0139662Y0076867D01*
X0139464Y0076967D01*
X0139276Y0077086D01*
X0139101Y0077223D01*
X0138941Y0077376D01*
X0138798Y0077546D01*
X0138670Y0077727D01*
X0138557Y0077918D01*
X0138460Y0078118D01*
X0138379Y0078324D01*
X0138315Y0078537D01*
X0138269Y0078754D01*
X0138240Y0078974D01*
X0138229Y0079196D01*
X0138235Y0079417D01*
X0138260Y0079638D01*
X0138302Y0079856D01*
X0138361Y0080070D01*
X0138438Y0080278D01*
X0138531Y0080480D01*
X0138640Y0080673D01*
X0138764Y0080857D01*
X0138902Y0081030D01*
X0139062Y0081184D01*
X0139236Y0081322D01*
X0139423Y0081442D01*
X0139620Y0081544D01*
X0139826Y0081626D01*
X0140039Y0081688D01*
X0140257Y0081729D01*
X0140478Y0081749D01*
X0140700Y0081748D01*
X0140921Y0081725D01*
X0141138Y0081681D01*
X0141351Y0081617D01*
X0141556Y0081532D01*
X0141752Y0081428D01*
X0141937Y0081305D01*
X0142109Y0081165D01*
X0142266Y0081008D01*
X0142403Y0080834D01*
X0142525Y0080648D01*
X0142632Y0080454D01*
X0142723Y0080252D01*
X0142797Y0080042D01*
X0142854Y0079828D01*
X0142894Y0079610D01*
X0142916Y0079389D01*
X0142920Y0079167D01*
X0142907Y0078945D01*
X0142876Y0078726D01*
X0142827Y0078509D01*
X0142761Y0078297D01*
X0142678Y0078091D01*
X0142579Y0077893D01*
X0142463Y0077703D01*
X0142334Y0077523D01*
X0142188Y0077355D01*
X0142030Y0077207D01*
X0142894Y0075990D01*
X0143009Y0076043D01*
X0143009Y0075377D01*
X0143110Y0075256D01*
X0144664Y0075256D01*
X0144787Y0075355D01*
X0144777Y0085789D01*
X0144776Y0085938D01*
X0143000Y0085938D01*
X0142842Y0085874D01*
X0142842Y0082766D01*
X0142798Y0082643D01*
X0142627Y0082785D01*
X0142448Y0082916D01*
X0142261Y0083037D01*
X0142068Y0083146D01*
X0141869Y0083244D01*
X0141664Y0083330D01*
X0141455Y0083403D01*
X0141242Y0083465D01*
X0141025Y0083513D01*
X0140806Y0083549D01*
X0140585Y0083571D01*
X0140363Y0083581D01*
X0140141Y0083580D01*
X0139920Y0083567D01*
X0139699Y0083541D01*
X0139481Y0083502D01*
X0139265Y0083450D01*
X0139053Y0083385D01*
X0138845Y0083308D01*
X0138642Y0083218D01*
X0138445Y0083116D01*
X0138254Y0083003D01*
X0138070Y0082878D01*
X0137894Y0082743D01*
X0137727Y0082597D01*
X0137568Y0082442D01*
X0137419Y0082278D01*
X0137276Y0082107D01*
X0137142Y0081930D01*
X0137016Y0081747D01*
X0136900Y0081558D01*
X0136793Y0081364D01*
X0136696Y0081164D01*
X0136609Y0080960D01*
X0136532Y0080752D01*
X0136465Y0080540D01*
X0136408Y0080326D01*
X0136362Y0080108D01*
X0136327Y0079889D01*
X0136303Y0079669D01*
X0136289Y0079447D01*
X0138239Y0079447D01*
X0138235Y0079409D02*
X0136288Y0079409D01*
X0136288Y0079371D02*
X0138234Y0079371D01*
X0138233Y0079333D02*
X0136287Y0079333D01*
X0136287Y0079296D02*
X0138232Y0079296D01*
X0138231Y0079258D02*
X0136286Y0079258D01*
X0136286Y0079225D02*
X0136294Y0079003D01*
X0136312Y0078782D01*
X0136341Y0078562D01*
X0136382Y0078344D01*
X0136432Y0078127D01*
X0136493Y0077914D01*
X0136565Y0077704D01*
X0136646Y0077497D01*
X0136639Y0077515D02*
X0138824Y0077515D01*
X0138793Y0077553D02*
X0136624Y0077553D01*
X0136609Y0077591D02*
X0138767Y0077591D01*
X0138740Y0077629D02*
X0136594Y0077629D01*
X0136579Y0077667D02*
X0138713Y0077667D01*
X0138686Y0077705D02*
X0136564Y0077705D01*
X0136552Y0077742D02*
X0138661Y0077742D01*
X0138639Y0077780D02*
X0136539Y0077780D01*
X0136526Y0077818D02*
X0138617Y0077818D01*
X0138594Y0077856D02*
X0136513Y0077856D01*
X0136500Y0077894D02*
X0138572Y0077894D01*
X0138551Y0077932D02*
X0136488Y0077932D01*
X0136477Y0077970D02*
X0138532Y0077970D01*
X0138514Y0078008D02*
X0136466Y0078008D01*
X0136456Y0078045D02*
X0138495Y0078045D01*
X0138477Y0078083D02*
X0136445Y0078083D01*
X0136434Y0078121D02*
X0138459Y0078121D01*
X0138444Y0078159D02*
X0136425Y0078159D01*
X0136416Y0078197D02*
X0138429Y0078197D01*
X0138414Y0078235D02*
X0136407Y0078235D01*
X0136398Y0078273D02*
X0138399Y0078273D01*
X0138385Y0078311D02*
X0136389Y0078311D01*
X0136381Y0078348D02*
X0138372Y0078348D01*
X0138361Y0078386D02*
X0136374Y0078386D01*
X0136367Y0078424D02*
X0138349Y0078424D01*
X0138338Y0078462D02*
X0136360Y0078462D01*
X0136353Y0078500D02*
X0138327Y0078500D01*
X0138315Y0078538D02*
X0136346Y0078538D01*
X0136340Y0078576D02*
X0138307Y0078576D01*
X0138299Y0078614D02*
X0136335Y0078614D01*
X0136330Y0078652D02*
X0138291Y0078652D01*
X0138283Y0078689D02*
X0136325Y0078689D01*
X0136319Y0078727D02*
X0138275Y0078727D01*
X0138267Y0078765D02*
X0136314Y0078765D01*
X0136310Y0078803D02*
X0138262Y0078803D01*
X0138257Y0078841D02*
X0136307Y0078841D01*
X0136304Y0078879D02*
X0138252Y0078879D01*
X0138247Y0078917D02*
X0136301Y0078917D01*
X0136298Y0078955D02*
X0138242Y0078955D01*
X0138239Y0078992D02*
X0136295Y0078992D01*
X0136293Y0079030D02*
X0138237Y0079030D01*
X0138235Y0079068D02*
X0136291Y0079068D01*
X0136290Y0079106D02*
X0138233Y0079106D01*
X0138231Y0079144D02*
X0136289Y0079144D01*
X0136287Y0079182D02*
X0138230Y0079182D01*
X0138230Y0079220D02*
X0136286Y0079220D01*
X0136286Y0079225D02*
X0136289Y0079447D01*
X0136291Y0079485D02*
X0138243Y0079485D01*
X0138247Y0079523D02*
X0136294Y0079523D01*
X0136296Y0079561D02*
X0138251Y0079561D01*
X0138255Y0079599D02*
X0136298Y0079599D01*
X0136301Y0079636D02*
X0138259Y0079636D01*
X0138267Y0079674D02*
X0136303Y0079674D01*
X0136307Y0079712D02*
X0138274Y0079712D01*
X0138281Y0079750D02*
X0136312Y0079750D01*
X0136316Y0079788D02*
X0138289Y0079788D01*
X0138296Y0079826D02*
X0136320Y0079826D01*
X0136324Y0079864D02*
X0138304Y0079864D01*
X0138314Y0079902D02*
X0136329Y0079902D01*
X0136335Y0079940D02*
X0138325Y0079940D01*
X0138335Y0079977D02*
X0136341Y0079977D01*
X0136347Y0080015D02*
X0138346Y0080015D01*
X0138356Y0080053D02*
X0136354Y0080053D01*
X0136360Y0080091D02*
X0138369Y0080091D01*
X0138383Y0080129D02*
X0136367Y0080129D01*
X0136375Y0080167D02*
X0138397Y0080167D01*
X0138411Y0080205D02*
X0136383Y0080205D01*
X0136391Y0080243D02*
X0138424Y0080243D01*
X0138439Y0080280D02*
X0136399Y0080280D01*
X0136407Y0080318D02*
X0138456Y0080318D01*
X0138474Y0080356D02*
X0136416Y0080356D01*
X0136426Y0080394D02*
X0138491Y0080394D01*
X0138509Y0080432D02*
X0136436Y0080432D01*
X0136446Y0080470D02*
X0138526Y0080470D01*
X0138546Y0080508D02*
X0136456Y0080508D01*
X0136466Y0080546D02*
X0138568Y0080546D01*
X0138589Y0080584D02*
X0136478Y0080584D01*
X0136490Y0080621D02*
X0138610Y0080621D01*
X0138632Y0080659D02*
X0136502Y0080659D01*
X0136514Y0080697D02*
X0138656Y0080697D01*
X0138681Y0080735D02*
X0136526Y0080735D01*
X0136539Y0080773D02*
X0138707Y0080773D01*
X0138733Y0080811D02*
X0136553Y0080811D01*
X0136568Y0080849D02*
X0138758Y0080849D01*
X0138788Y0080887D02*
X0136582Y0080887D01*
X0136596Y0080924D02*
X0138818Y0080924D01*
X0138848Y0080962D02*
X0136610Y0080962D01*
X0136626Y0081000D02*
X0138878Y0081000D01*
X0138911Y0081038D02*
X0136642Y0081038D01*
X0136658Y0081076D02*
X0138950Y0081076D01*
X0138989Y0081114D02*
X0136675Y0081114D01*
X0136691Y0081152D02*
X0139028Y0081152D01*
X0139069Y0081190D02*
X0136708Y0081190D01*
X0136727Y0081227D02*
X0139117Y0081227D01*
X0139165Y0081265D02*
X0136745Y0081265D01*
X0136764Y0081303D02*
X0139213Y0081303D01*
X0139266Y0081341D02*
X0136782Y0081341D01*
X0136802Y0081379D02*
X0139325Y0081379D01*
X0139383Y0081417D02*
X0136823Y0081417D01*
X0136843Y0081455D02*
X0139447Y0081455D01*
X0139521Y0081493D02*
X0136864Y0081493D01*
X0136885Y0081531D02*
X0139594Y0081531D01*
X0139681Y0081568D02*
X0136906Y0081568D01*
X0136930Y0081606D02*
X0139776Y0081606D01*
X0139888Y0081644D02*
X0136953Y0081644D01*
X0136976Y0081682D02*
X0140018Y0081682D01*
X0140207Y0081720D02*
X0137000Y0081720D01*
X0137024Y0081758D02*
X0144781Y0081758D01*
X0144781Y0081796D02*
X0137050Y0081796D01*
X0137076Y0081834D02*
X0144781Y0081834D01*
X0144781Y0081871D02*
X0137101Y0081871D01*
X0137127Y0081909D02*
X0144781Y0081909D01*
X0144781Y0081947D02*
X0137155Y0081947D01*
X0137183Y0081985D02*
X0144780Y0081985D01*
X0144780Y0082023D02*
X0137212Y0082023D01*
X0137241Y0082061D02*
X0144780Y0082061D01*
X0144780Y0082099D02*
X0137270Y0082099D01*
X0137301Y0082137D02*
X0144780Y0082137D01*
X0144780Y0082175D02*
X0137332Y0082175D01*
X0137364Y0082212D02*
X0144780Y0082212D01*
X0144780Y0082250D02*
X0137396Y0082250D01*
X0137428Y0082288D02*
X0144780Y0082288D01*
X0144780Y0082326D02*
X0137463Y0082326D01*
X0137497Y0082364D02*
X0144780Y0082364D01*
X0144780Y0082402D02*
X0137532Y0082402D01*
X0137566Y0082440D02*
X0144780Y0082440D01*
X0144780Y0082478D02*
X0137605Y0082478D01*
X0137644Y0082515D02*
X0144780Y0082515D01*
X0144780Y0082553D02*
X0137682Y0082553D01*
X0137721Y0082591D02*
X0144780Y0082591D01*
X0144780Y0082629D02*
X0137764Y0082629D01*
X0137807Y0082667D02*
X0142769Y0082667D01*
X0142806Y0082667D02*
X0144780Y0082667D01*
X0144780Y0082705D02*
X0142820Y0082705D01*
X0142834Y0082743D02*
X0144780Y0082743D01*
X0144780Y0082781D02*
X0142842Y0082781D01*
X0142842Y0082819D02*
X0144780Y0082819D01*
X0144780Y0082856D02*
X0142842Y0082856D01*
X0142842Y0082894D02*
X0144780Y0082894D01*
X0144780Y0082932D02*
X0142842Y0082932D01*
X0142842Y0082970D02*
X0144779Y0082970D01*
X0144779Y0083008D02*
X0142842Y0083008D01*
X0142842Y0083046D02*
X0144779Y0083046D01*
X0144779Y0083084D02*
X0142842Y0083084D01*
X0142842Y0083122D02*
X0144779Y0083122D01*
X0144779Y0083159D02*
X0142842Y0083159D01*
X0142842Y0083197D02*
X0144779Y0083197D01*
X0144779Y0083235D02*
X0142842Y0083235D01*
X0142842Y0083273D02*
X0144779Y0083273D01*
X0144779Y0083311D02*
X0142842Y0083311D01*
X0142842Y0083349D02*
X0144779Y0083349D01*
X0144779Y0083387D02*
X0142842Y0083387D01*
X0142842Y0083425D02*
X0144779Y0083425D01*
X0144779Y0083462D02*
X0142842Y0083462D01*
X0142842Y0083500D02*
X0144779Y0083500D01*
X0144779Y0083538D02*
X0142842Y0083538D01*
X0142842Y0083576D02*
X0144779Y0083576D01*
X0144779Y0083614D02*
X0142842Y0083614D01*
X0142842Y0083652D02*
X0144779Y0083652D01*
X0144779Y0083690D02*
X0142842Y0083690D01*
X0142842Y0083728D02*
X0144779Y0083728D01*
X0144779Y0083766D02*
X0142842Y0083766D01*
X0142842Y0083803D02*
X0144779Y0083803D01*
X0144779Y0083841D02*
X0142842Y0083841D01*
X0142842Y0083879D02*
X0144779Y0083879D01*
X0144778Y0083917D02*
X0142842Y0083917D01*
X0142842Y0083955D02*
X0144778Y0083955D01*
X0144778Y0083993D02*
X0142842Y0083993D01*
X0142842Y0084031D02*
X0144778Y0084031D01*
X0144778Y0084069D02*
X0142842Y0084069D01*
X0142842Y0084106D02*
X0144778Y0084106D01*
X0144778Y0084144D02*
X0142842Y0084144D01*
X0142842Y0084182D02*
X0144778Y0084182D01*
X0144778Y0084220D02*
X0142842Y0084220D01*
X0142842Y0084258D02*
X0144778Y0084258D01*
X0144778Y0084296D02*
X0142842Y0084296D01*
X0142842Y0084334D02*
X0144778Y0084334D01*
X0144778Y0084372D02*
X0142842Y0084372D01*
X0142842Y0084410D02*
X0144778Y0084410D01*
X0144778Y0084447D02*
X0142842Y0084447D01*
X0142842Y0084485D02*
X0144778Y0084485D01*
X0144778Y0084523D02*
X0142842Y0084523D01*
X0142842Y0084561D02*
X0144778Y0084561D01*
X0144778Y0084599D02*
X0142842Y0084599D01*
X0142842Y0084637D02*
X0144778Y0084637D01*
X0144778Y0084675D02*
X0142842Y0084675D01*
X0142842Y0084713D02*
X0144778Y0084713D01*
X0144778Y0084750D02*
X0142842Y0084750D01*
X0142842Y0084788D02*
X0144778Y0084788D01*
X0144778Y0084826D02*
X0142842Y0084826D01*
X0142842Y0084864D02*
X0144777Y0084864D01*
X0144777Y0084902D02*
X0142842Y0084902D01*
X0142842Y0084940D02*
X0144777Y0084940D01*
X0144777Y0084978D02*
X0142842Y0084978D01*
X0142842Y0085016D02*
X0144777Y0085016D01*
X0144777Y0085054D02*
X0142842Y0085054D01*
X0142842Y0085091D02*
X0144777Y0085091D01*
X0144777Y0085129D02*
X0142842Y0085129D01*
X0142842Y0085167D02*
X0144777Y0085167D01*
X0144777Y0085205D02*
X0142842Y0085205D01*
X0142842Y0085243D02*
X0144777Y0085243D01*
X0144777Y0085281D02*
X0142842Y0085281D01*
X0142842Y0085319D02*
X0144777Y0085319D01*
X0144777Y0085357D02*
X0142842Y0085357D01*
X0142842Y0085394D02*
X0144777Y0085394D01*
X0144777Y0085432D02*
X0142842Y0085432D01*
X0142842Y0085470D02*
X0144777Y0085470D01*
X0144777Y0085508D02*
X0142842Y0085508D01*
X0142842Y0085546D02*
X0144777Y0085546D01*
X0144777Y0085584D02*
X0142842Y0085584D01*
X0142842Y0085622D02*
X0144777Y0085622D01*
X0144777Y0085660D02*
X0142842Y0085660D01*
X0142842Y0085697D02*
X0144777Y0085697D01*
X0144777Y0085735D02*
X0142842Y0085735D01*
X0142842Y0085773D02*
X0144777Y0085773D01*
X0144777Y0085811D02*
X0142842Y0085811D01*
X0142842Y0085849D02*
X0144776Y0085849D01*
X0144776Y0085887D02*
X0142874Y0085887D01*
X0142968Y0085925D02*
X0144776Y0085925D01*
X0142529Y0082856D02*
X0138042Y0082856D01*
X0137993Y0082819D02*
X0142581Y0082819D01*
X0142632Y0082781D02*
X0137944Y0082781D01*
X0137894Y0082743D02*
X0142678Y0082743D01*
X0142723Y0082705D02*
X0137851Y0082705D01*
X0138094Y0082894D02*
X0142478Y0082894D01*
X0142423Y0082932D02*
X0138150Y0082932D01*
X0138206Y0082970D02*
X0142364Y0082970D01*
X0142306Y0083008D02*
X0138263Y0083008D01*
X0138327Y0083046D02*
X0142245Y0083046D01*
X0142178Y0083084D02*
X0138390Y0083084D01*
X0138456Y0083122D02*
X0142111Y0083122D01*
X0142041Y0083159D02*
X0138529Y0083159D01*
X0138602Y0083197D02*
X0141964Y0083197D01*
X0141886Y0083235D02*
X0138681Y0083235D01*
X0138767Y0083273D02*
X0141799Y0083273D01*
X0141709Y0083311D02*
X0138854Y0083311D01*
X0138955Y0083349D02*
X0141610Y0083349D01*
X0141502Y0083387D02*
X0139058Y0083387D01*
X0139182Y0083425D02*
X0141381Y0083425D01*
X0141249Y0083462D02*
X0139316Y0083462D01*
X0139473Y0083500D02*
X0141082Y0083500D01*
X0140871Y0083538D02*
X0139682Y0083538D01*
X0140070Y0083576D02*
X0140479Y0083576D01*
X0140947Y0081720D02*
X0144781Y0081720D01*
X0144781Y0081682D02*
X0141134Y0081682D01*
X0141260Y0081644D02*
X0144781Y0081644D01*
X0144781Y0081606D02*
X0141375Y0081606D01*
X0141467Y0081568D02*
X0144781Y0081568D01*
X0144781Y0081531D02*
X0141558Y0081531D01*
X0141629Y0081493D02*
X0144781Y0081493D01*
X0144781Y0081455D02*
X0141701Y0081455D01*
X0141768Y0081417D02*
X0144781Y0081417D01*
X0144781Y0081379D02*
X0141825Y0081379D01*
X0141882Y0081341D02*
X0144781Y0081341D01*
X0144781Y0081303D02*
X0141939Y0081303D01*
X0141986Y0081265D02*
X0144781Y0081265D01*
X0144781Y0081227D02*
X0142032Y0081227D01*
X0142079Y0081190D02*
X0144781Y0081190D01*
X0144781Y0081152D02*
X0142122Y0081152D01*
X0142160Y0081114D02*
X0144781Y0081114D01*
X0144781Y0081076D02*
X0142198Y0081076D01*
X0142236Y0081038D02*
X0144781Y0081038D01*
X0144782Y0081000D02*
X0142272Y0081000D01*
X0142302Y0080962D02*
X0144782Y0080962D01*
X0144782Y0080924D02*
X0142332Y0080924D01*
X0142361Y0080887D02*
X0144782Y0080887D01*
X0144782Y0080849D02*
X0142391Y0080849D01*
X0142418Y0080811D02*
X0144782Y0080811D01*
X0144782Y0080773D02*
X0142443Y0080773D01*
X0142468Y0080735D02*
X0144782Y0080735D01*
X0144782Y0080697D02*
X0142493Y0080697D01*
X0142518Y0080659D02*
X0144782Y0080659D01*
X0144782Y0080621D02*
X0142540Y0080621D01*
X0142561Y0080584D02*
X0144782Y0080584D01*
X0144782Y0080546D02*
X0142582Y0080546D01*
X0142602Y0080508D02*
X0144782Y0080508D01*
X0144782Y0080470D02*
X0142623Y0080470D01*
X0142642Y0080432D02*
X0144782Y0080432D01*
X0144782Y0080394D02*
X0142659Y0080394D01*
X0142676Y0080356D02*
X0144782Y0080356D01*
X0144782Y0080318D02*
X0142693Y0080318D01*
X0142710Y0080280D02*
X0144782Y0080280D01*
X0144782Y0080243D02*
X0142726Y0080243D01*
X0142740Y0080205D02*
X0144782Y0080205D01*
X0144782Y0080167D02*
X0142753Y0080167D01*
X0142766Y0080129D02*
X0144782Y0080129D01*
X0144782Y0080091D02*
X0142780Y0080091D01*
X0142793Y0080053D02*
X0144783Y0080053D01*
X0144783Y0080015D02*
X0142804Y0080015D01*
X0142815Y0079977D02*
X0144783Y0079977D01*
X0144783Y0079940D02*
X0142825Y0079940D01*
X0142835Y0079902D02*
X0144783Y0079902D01*
X0144783Y0079864D02*
X0142845Y0079864D01*
X0142855Y0079826D02*
X0144783Y0079826D01*
X0144783Y0079788D02*
X0142862Y0079788D01*
X0142869Y0079750D02*
X0144783Y0079750D01*
X0144783Y0079712D02*
X0142875Y0079712D01*
X0142882Y0079674D02*
X0144783Y0079674D01*
X0144783Y0079636D02*
X0142889Y0079636D01*
X0142895Y0079599D02*
X0144783Y0079599D01*
X0144783Y0079561D02*
X0142899Y0079561D01*
X0142903Y0079523D02*
X0144783Y0079523D01*
X0144783Y0079485D02*
X0142906Y0079485D01*
X0142910Y0079447D02*
X0144783Y0079447D01*
X0144783Y0079409D02*
X0142914Y0079409D01*
X0142916Y0079371D02*
X0144783Y0079371D01*
X0144783Y0079333D02*
X0142917Y0079333D01*
X0142918Y0079296D02*
X0144783Y0079296D01*
X0144783Y0079258D02*
X0142919Y0079258D01*
X0142919Y0079220D02*
X0144783Y0079220D01*
X0144783Y0079182D02*
X0142920Y0079182D01*
X0142919Y0079144D02*
X0144783Y0079144D01*
X0144784Y0079106D02*
X0142917Y0079106D01*
X0142914Y0079068D02*
X0144784Y0079068D01*
X0144784Y0079030D02*
X0142912Y0079030D01*
X0142910Y0078992D02*
X0144784Y0078992D01*
X0144784Y0078955D02*
X0142907Y0078955D01*
X0142903Y0078917D02*
X0144784Y0078917D01*
X0144784Y0078879D02*
X0142897Y0078879D01*
X0142892Y0078841D02*
X0144784Y0078841D01*
X0144784Y0078803D02*
X0142887Y0078803D01*
X0142881Y0078765D02*
X0144784Y0078765D01*
X0144784Y0078727D02*
X0142876Y0078727D01*
X0142868Y0078689D02*
X0144784Y0078689D01*
X0144784Y0078652D02*
X0142859Y0078652D01*
X0142850Y0078614D02*
X0144784Y0078614D01*
X0144784Y0078576D02*
X0142842Y0078576D01*
X0142833Y0078538D02*
X0144784Y0078538D01*
X0144784Y0078500D02*
X0142824Y0078500D01*
X0142812Y0078462D02*
X0144784Y0078462D01*
X0144784Y0078424D02*
X0142800Y0078424D01*
X0142789Y0078386D02*
X0144784Y0078386D01*
X0144784Y0078348D02*
X0142777Y0078348D01*
X0142765Y0078311D02*
X0144784Y0078311D01*
X0144784Y0078273D02*
X0142751Y0078273D01*
X0142736Y0078235D02*
X0144784Y0078235D01*
X0144784Y0078197D02*
X0142720Y0078197D01*
X0142705Y0078159D02*
X0144784Y0078159D01*
X0144785Y0078121D02*
X0142690Y0078121D01*
X0142674Y0078083D02*
X0144785Y0078083D01*
X0144785Y0078045D02*
X0142655Y0078045D01*
X0142636Y0078008D02*
X0144785Y0078008D01*
X0144785Y0077970D02*
X0142617Y0077970D01*
X0142598Y0077932D02*
X0144785Y0077932D01*
X0144785Y0077894D02*
X0142579Y0077894D01*
X0142556Y0077856D02*
X0144785Y0077856D01*
X0144785Y0077818D02*
X0142533Y0077818D01*
X0142510Y0077780D02*
X0144785Y0077780D01*
X0144785Y0077742D02*
X0142487Y0077742D01*
X0142464Y0077705D02*
X0144785Y0077705D01*
X0144785Y0077667D02*
X0142437Y0077667D01*
X0142410Y0077629D02*
X0144785Y0077629D01*
X0144785Y0077591D02*
X0142382Y0077591D01*
X0142355Y0077553D02*
X0144785Y0077553D01*
X0144785Y0077515D02*
X0142327Y0077515D01*
X0142294Y0077477D02*
X0144785Y0077477D01*
X0144785Y0077439D02*
X0142261Y0077439D01*
X0142228Y0077401D02*
X0144785Y0077401D01*
X0144785Y0077364D02*
X0142196Y0077364D01*
X0142157Y0077326D02*
X0144785Y0077326D01*
X0144785Y0077288D02*
X0142116Y0077288D01*
X0142076Y0077250D02*
X0144785Y0077250D01*
X0144785Y0077212D02*
X0142035Y0077212D01*
X0142041Y0077174D02*
X0141987Y0077174D01*
X0141938Y0077136D02*
X0142068Y0077136D01*
X0142080Y0077136D02*
X0144786Y0077136D01*
X0144786Y0077098D02*
X0142107Y0077098D01*
X0142095Y0077098D02*
X0141888Y0077098D01*
X0141836Y0077061D02*
X0142122Y0077061D01*
X0142134Y0077061D02*
X0144786Y0077061D01*
X0144786Y0077023D02*
X0142161Y0077023D01*
X0142149Y0077023D02*
X0141774Y0077023D01*
X0141712Y0076985D02*
X0142176Y0076985D01*
X0142188Y0076985D02*
X0144786Y0076985D01*
X0144786Y0076947D02*
X0142215Y0076947D01*
X0142203Y0076947D02*
X0141648Y0076947D01*
X0141570Y0076909D02*
X0142230Y0076909D01*
X0142242Y0076909D02*
X0144786Y0076909D01*
X0144786Y0076871D02*
X0142269Y0076871D01*
X0142257Y0076871D02*
X0141492Y0076871D01*
X0141399Y0076833D02*
X0142284Y0076833D01*
X0142295Y0076833D02*
X0144786Y0076833D01*
X0144786Y0076795D02*
X0142322Y0076795D01*
X0142310Y0076795D02*
X0141296Y0076795D01*
X0141167Y0076757D02*
X0142337Y0076757D01*
X0142349Y0076757D02*
X0144786Y0076757D01*
X0144786Y0076720D02*
X0142376Y0076720D01*
X0142364Y0076720D02*
X0141007Y0076720D01*
X0140648Y0076682D02*
X0142391Y0076682D01*
X0142403Y0076682D02*
X0144786Y0076682D01*
X0144786Y0076644D02*
X0142430Y0076644D01*
X0142418Y0076644D02*
X0137125Y0076644D01*
X0137098Y0076682D02*
X0140482Y0076682D01*
X0140146Y0076720D02*
X0137071Y0076720D01*
X0137046Y0076757D02*
X0139982Y0076757D01*
X0139850Y0076795D02*
X0137022Y0076795D01*
X0136998Y0076833D02*
X0139751Y0076833D01*
X0139654Y0076871D02*
X0136973Y0076871D01*
X0136949Y0076909D02*
X0139579Y0076909D01*
X0139503Y0076947D02*
X0136927Y0076947D01*
X0136905Y0076985D02*
X0139435Y0076985D01*
X0139376Y0077023D02*
X0136883Y0077023D01*
X0136861Y0077061D02*
X0139316Y0077061D01*
X0139260Y0077098D02*
X0136839Y0077098D01*
X0136820Y0077136D02*
X0139211Y0077136D01*
X0139163Y0077174D02*
X0136800Y0077174D01*
X0136781Y0077212D02*
X0139115Y0077212D01*
X0139073Y0077250D02*
X0136761Y0077250D01*
X0136742Y0077288D02*
X0139033Y0077288D01*
X0138994Y0077326D02*
X0136724Y0077326D01*
X0136707Y0077364D02*
X0138954Y0077364D01*
X0138920Y0077401D02*
X0136690Y0077401D01*
X0136673Y0077439D02*
X0138888Y0077439D01*
X0138856Y0077477D02*
X0136656Y0077477D01*
X0137152Y0076606D02*
X0142445Y0076606D01*
X0142457Y0076606D02*
X0144786Y0076606D01*
X0144786Y0076568D02*
X0142484Y0076568D01*
X0142472Y0076568D02*
X0137180Y0076568D01*
X0137207Y0076530D02*
X0142499Y0076530D01*
X0142511Y0076530D02*
X0144786Y0076530D01*
X0144786Y0076492D02*
X0142538Y0076492D01*
X0142526Y0076492D02*
X0137237Y0076492D01*
X0137267Y0076454D02*
X0142553Y0076454D01*
X0142565Y0076454D02*
X0144786Y0076454D01*
X0144786Y0076417D02*
X0142591Y0076417D01*
X0142579Y0076417D02*
X0137298Y0076417D01*
X0137328Y0076379D02*
X0142606Y0076379D01*
X0142618Y0076379D02*
X0144786Y0076379D01*
X0144786Y0076341D02*
X0142645Y0076341D01*
X0142633Y0076341D02*
X0137360Y0076341D01*
X0137393Y0076303D02*
X0142660Y0076303D01*
X0142672Y0076303D02*
X0144786Y0076303D01*
X0144786Y0076265D02*
X0142699Y0076265D01*
X0142687Y0076265D02*
X0137426Y0076265D01*
X0137460Y0076227D02*
X0142714Y0076227D01*
X0142726Y0076227D02*
X0144787Y0076227D01*
X0144787Y0076189D02*
X0142753Y0076189D01*
X0142741Y0076189D02*
X0137494Y0076189D01*
X0137532Y0076151D02*
X0142768Y0076151D01*
X0142780Y0076151D02*
X0144787Y0076151D01*
X0144787Y0076113D02*
X0142807Y0076113D01*
X0142795Y0076113D02*
X0137570Y0076113D01*
X0137607Y0076076D02*
X0142822Y0076076D01*
X0142834Y0076076D02*
X0144787Y0076076D01*
X0144787Y0076038D02*
X0143009Y0076038D01*
X0142997Y0076038D02*
X0142860Y0076038D01*
X0142849Y0076038D02*
X0137645Y0076038D01*
X0137688Y0076000D02*
X0142875Y0076000D01*
X0142887Y0076000D02*
X0142915Y0076000D01*
X0142860Y0075962D02*
X0137730Y0075962D01*
X0137773Y0075924D02*
X0142816Y0075924D01*
X0142771Y0075886D02*
X0137816Y0075886D01*
X0137863Y0075848D02*
X0142727Y0075848D01*
X0142678Y0075810D02*
X0137911Y0075810D01*
X0137959Y0075773D02*
X0142629Y0075773D01*
X0142579Y0075735D02*
X0138009Y0075735D01*
X0138063Y0075697D02*
X0142527Y0075697D01*
X0142471Y0075659D02*
X0138117Y0075659D01*
X0138172Y0075621D02*
X0142415Y0075621D01*
X0142359Y0075583D02*
X0138232Y0075583D01*
X0138293Y0075545D02*
X0142295Y0075545D01*
X0142232Y0075507D02*
X0138355Y0075507D01*
X0138424Y0075470D02*
X0142168Y0075470D01*
X0142095Y0075432D02*
X0138494Y0075432D01*
X0138566Y0075394D02*
X0142022Y0075394D01*
X0141945Y0075356D02*
X0138646Y0075356D01*
X0138726Y0075318D02*
X0141861Y0075318D01*
X0141776Y0075280D02*
X0138816Y0075280D01*
X0138910Y0075242D02*
X0141678Y0075242D01*
X0141578Y0075204D02*
X0139013Y0075204D01*
X0139125Y0075166D02*
X0141461Y0075166D01*
X0141339Y0075129D02*
X0139254Y0075129D01*
X0139396Y0075091D02*
X0141190Y0075091D01*
X0141011Y0075053D02*
X0139572Y0075053D01*
X0139807Y0075015D02*
X0140771Y0075015D01*
X0143009Y0075394D02*
X0144787Y0075394D01*
X0144787Y0075432D02*
X0143009Y0075432D01*
X0143009Y0075470D02*
X0144787Y0075470D01*
X0144787Y0075507D02*
X0143009Y0075507D01*
X0143009Y0075545D02*
X0144787Y0075545D01*
X0144787Y0075583D02*
X0143009Y0075583D01*
X0143009Y0075621D02*
X0144787Y0075621D01*
X0144787Y0075659D02*
X0143009Y0075659D01*
X0143009Y0075697D02*
X0144787Y0075697D01*
X0144787Y0075735D02*
X0143009Y0075735D01*
X0143009Y0075773D02*
X0144787Y0075773D01*
X0144787Y0075810D02*
X0143009Y0075810D01*
X0143009Y0075848D02*
X0144787Y0075848D01*
X0144787Y0075886D02*
X0143009Y0075886D01*
X0143009Y0075924D02*
X0144787Y0075924D01*
X0144787Y0075962D02*
X0143009Y0075962D01*
X0143009Y0076000D02*
X0144787Y0076000D01*
X0144787Y0075356D02*
X0143027Y0075356D01*
X0143059Y0075318D02*
X0144741Y0075318D01*
X0144694Y0075280D02*
X0143090Y0075280D01*
X0142053Y0077174D02*
X0144786Y0077174D01*
X0134583Y0081796D02*
X0127846Y0081796D01*
X0127875Y0081834D02*
X0134556Y0081834D01*
X0134529Y0081871D02*
X0127905Y0081871D01*
X0127934Y0081909D02*
X0134501Y0081909D01*
X0134471Y0081947D02*
X0127964Y0081947D01*
X0127997Y0081985D02*
X0134441Y0081985D01*
X0134410Y0082023D02*
X0128030Y0082023D01*
X0128062Y0082061D02*
X0134380Y0082061D01*
X0134348Y0082099D02*
X0128095Y0082099D01*
X0128131Y0082137D02*
X0134314Y0082137D01*
X0134281Y0082175D02*
X0128167Y0082175D01*
X0128204Y0082212D02*
X0134247Y0082212D01*
X0134213Y0082250D02*
X0128240Y0082250D01*
X0128278Y0082288D02*
X0134175Y0082288D01*
X0134137Y0082326D02*
X0128316Y0082326D01*
X0128355Y0082364D02*
X0134099Y0082364D01*
X0134061Y0082402D02*
X0128394Y0082402D01*
X0128434Y0082440D02*
X0134019Y0082440D01*
X0133976Y0082478D02*
X0128477Y0082478D01*
X0128521Y0082515D02*
X0133934Y0082515D01*
X0133891Y0082553D02*
X0128564Y0082553D01*
X0128610Y0082591D02*
X0133843Y0082591D01*
X0133796Y0082629D02*
X0128658Y0082629D01*
X0128706Y0082667D02*
X0133749Y0082667D01*
X0133699Y0082705D02*
X0128754Y0082705D01*
X0128807Y0082743D02*
X0133646Y0082743D01*
X0133593Y0082781D02*
X0128861Y0082781D01*
X0128915Y0082819D02*
X0133540Y0082819D01*
X0133480Y0082856D02*
X0128973Y0082856D01*
X0129033Y0082894D02*
X0133421Y0082894D01*
X0133362Y0082932D02*
X0129093Y0082932D01*
X0129158Y0082970D02*
X0133295Y0082970D01*
X0133228Y0083008D02*
X0129226Y0083008D01*
X0129294Y0083046D02*
X0133161Y0083046D01*
X0133084Y0083084D02*
X0129369Y0083084D01*
X0129446Y0083122D02*
X0133008Y0083122D01*
X0132927Y0083159D02*
X0129525Y0083159D01*
X0129615Y0083197D02*
X0132839Y0083197D01*
X0132749Y0083235D02*
X0129705Y0083235D01*
X0129807Y0083273D02*
X0132647Y0083273D01*
X0132542Y0083311D02*
X0129912Y0083311D01*
X0130034Y0083349D02*
X0132419Y0083349D01*
X0132287Y0083387D02*
X0130164Y0083387D01*
X0130321Y0083425D02*
X0132136Y0083425D01*
X0131944Y0083462D02*
X0130512Y0083462D01*
X0130772Y0083500D02*
X0131687Y0083500D01*
X0105369Y0082743D02*
X0103417Y0082743D01*
X0103417Y0082781D02*
X0105361Y0082781D01*
X0105352Y0082819D02*
X0103417Y0082819D01*
X0103417Y0082856D02*
X0105351Y0082856D01*
X0105351Y0082894D02*
X0103417Y0082894D01*
X0103417Y0082932D02*
X0105351Y0082932D01*
X0105351Y0082970D02*
X0103417Y0082970D01*
X0103417Y0083008D02*
X0105351Y0083008D01*
X0105351Y0083046D02*
X0103417Y0083046D01*
X0103417Y0083084D02*
X0105351Y0083084D01*
X0105351Y0083122D02*
X0103417Y0083122D01*
X0103417Y0083159D02*
X0105351Y0083159D01*
X0105351Y0083197D02*
X0103417Y0083197D01*
X0103417Y0083235D02*
X0105351Y0083235D01*
X0105351Y0083273D02*
X0103417Y0083273D01*
X0103417Y0083311D02*
X0105351Y0083311D01*
X0105351Y0083349D02*
X0103417Y0083349D01*
X0103417Y0083387D02*
X0105351Y0083387D01*
X0105351Y0083425D02*
X0103417Y0083425D01*
X0103417Y0083462D02*
X0105351Y0083462D01*
X0105351Y0083500D02*
X0103417Y0083500D01*
X0103417Y0083538D02*
X0105351Y0083538D01*
X0105351Y0083576D02*
X0103417Y0083576D01*
X0103417Y0083614D02*
X0105351Y0083614D01*
X0105351Y0083652D02*
X0103417Y0083652D01*
X0103417Y0083690D02*
X0105351Y0083690D01*
X0105351Y0083728D02*
X0103417Y0083728D01*
X0103417Y0083766D02*
X0105351Y0083766D01*
X0105351Y0083803D02*
X0103417Y0083803D01*
X0103417Y0083841D02*
X0105351Y0083841D01*
X0105351Y0083879D02*
X0103417Y0083879D01*
X0103417Y0083917D02*
X0105351Y0083917D01*
X0105351Y0083955D02*
X0103417Y0083955D01*
X0103417Y0083993D02*
X0105351Y0083993D01*
X0105351Y0084031D02*
X0103417Y0084031D01*
X0103417Y0084069D02*
X0105351Y0084069D01*
X0105351Y0084106D02*
X0103417Y0084106D01*
X0103417Y0084144D02*
X0105351Y0084144D01*
X0105351Y0084182D02*
X0103417Y0084182D01*
X0103417Y0084220D02*
X0105351Y0084220D01*
X0105351Y0084258D02*
X0103417Y0084258D01*
X0103417Y0084296D02*
X0105351Y0084296D01*
X0105351Y0084334D02*
X0103417Y0084334D01*
X0103417Y0084372D02*
X0105351Y0084372D01*
X0105351Y0084410D02*
X0103417Y0084410D01*
X0103417Y0084447D02*
X0105351Y0084447D01*
X0105351Y0084485D02*
X0103417Y0084485D01*
X0103417Y0084523D02*
X0105351Y0084523D01*
X0105351Y0084561D02*
X0103417Y0084561D01*
X0103417Y0084599D02*
X0105351Y0084599D01*
X0105351Y0084637D02*
X0103417Y0084637D01*
X0103417Y0084675D02*
X0105351Y0084675D01*
X0105351Y0084713D02*
X0103417Y0084713D01*
X0103417Y0084750D02*
X0105351Y0084750D01*
X0105351Y0084788D02*
X0103417Y0084788D01*
X0103417Y0084826D02*
X0105351Y0084826D01*
X0105351Y0084864D02*
X0103417Y0084864D01*
X0103417Y0084902D02*
X0105351Y0084902D01*
X0105351Y0084940D02*
X0103417Y0084940D01*
X0103417Y0084978D02*
X0105351Y0084978D01*
X0105351Y0085016D02*
X0103417Y0085016D01*
X0103417Y0085054D02*
X0105351Y0085054D01*
X0105351Y0085091D02*
X0103417Y0085091D01*
X0103417Y0085129D02*
X0105351Y0085129D01*
X0105351Y0085167D02*
X0103417Y0085167D01*
X0103417Y0085205D02*
X0105351Y0085205D01*
X0105351Y0085243D02*
X0103417Y0085243D01*
X0103417Y0085281D02*
X0105351Y0085281D01*
X0105351Y0085319D02*
X0103417Y0085319D01*
X0103417Y0085357D02*
X0105351Y0085357D01*
X0105351Y0085394D02*
X0103417Y0085394D01*
X0103417Y0085432D02*
X0105351Y0085432D01*
X0105351Y0085470D02*
X0103417Y0085470D01*
X0103417Y0085508D02*
X0105351Y0085508D01*
X0105351Y0085546D02*
X0103417Y0085546D01*
X0103417Y0085584D02*
X0105351Y0085584D01*
X0105351Y0085622D02*
X0103417Y0085622D01*
X0103417Y0085660D02*
X0105351Y0085660D01*
X0105351Y0085697D02*
X0103417Y0085697D01*
X0103417Y0085735D02*
X0105351Y0085735D01*
X0105351Y0085773D02*
X0103417Y0085773D01*
X0103417Y0085811D02*
X0105351Y0085811D01*
X0105351Y0085849D02*
X0103417Y0085849D01*
X0103417Y0085887D02*
X0105351Y0085887D01*
X0105351Y0085925D02*
X0103417Y0085925D01*
X0103431Y0085963D02*
X0105252Y0085963D01*
D12*
X0101436Y0148649D02*
X0100136Y0149949D01*
X0098936Y0151349D01*
X0101336Y0154949D01*
X0100836Y0155749D01*
X0100236Y0157549D01*
X0100036Y0158249D01*
X0096036Y0158949D01*
X0095936Y0160049D01*
X0095936Y0160949D01*
X0096036Y0161749D01*
X0096136Y0162749D01*
X0100236Y0163449D01*
X0100636Y0164549D01*
X0100836Y0165149D01*
X0101236Y0165849D01*
X0101736Y0166649D01*
X0099236Y0169849D01*
X0099836Y0170549D01*
X0100536Y0171249D01*
X0102136Y0172649D01*
X0105536Y0170249D01*
X0106436Y0170649D01*
X0107236Y0171049D01*
X0108636Y0171449D01*
X0109236Y0175549D01*
X0113036Y0175549D01*
X0113836Y0171449D01*
X0114936Y0171149D01*
X0116936Y0170149D01*
X0120336Y0172549D01*
X0121036Y0171949D01*
X0122436Y0170549D01*
X0123036Y0169849D01*
X0120736Y0166449D01*
X0121236Y0165549D01*
X0121636Y0164649D01*
X0122236Y0163049D01*
X0126236Y0162449D01*
X0126336Y0161249D01*
X0126336Y0158649D01*
X0122136Y0157949D01*
X0121936Y0156949D01*
X0121536Y0155949D01*
X0121136Y0155049D01*
X0120736Y0154249D01*
X0123136Y0151049D01*
X0122536Y0150349D01*
X0121136Y0148949D01*
X0120536Y0148449D01*
X0117136Y0150749D01*
X0116436Y0150349D01*
X0115736Y0150049D01*
X0115136Y0149749D01*
X0112736Y0156549D01*
X0113440Y0156885D01*
X0114069Y0157346D01*
X0114601Y0157916D01*
X0115018Y0158575D01*
X0115305Y0159300D01*
X0115453Y0160065D01*
X0115456Y0160845D01*
X0115314Y0161612D01*
X0115032Y0162339D01*
X0114620Y0163001D01*
X0114092Y0163574D01*
X0113467Y0164040D01*
X0112766Y0164382D01*
X0112014Y0164587D01*
X0111236Y0164649D01*
X0110446Y0164624D01*
X0109674Y0164451D01*
X0108948Y0164136D01*
X0108294Y0163691D01*
X0107736Y0163131D01*
X0107292Y0162476D01*
X0106979Y0161750D01*
X0106807Y0160978D01*
X0106783Y0160187D01*
X0106908Y0159406D01*
X0107177Y0158663D01*
X0107581Y0157982D01*
X0108105Y0157390D01*
X0108731Y0156907D01*
X0109436Y0156549D01*
X0106836Y0149849D01*
X0104736Y0151049D01*
X0101436Y0148649D01*
X0101261Y0148824D02*
X0101678Y0148824D01*
X0101951Y0149023D02*
X0101062Y0149023D01*
X0100864Y0149222D02*
X0102224Y0149222D01*
X0102497Y0149420D02*
X0100665Y0149420D01*
X0100466Y0149619D02*
X0102770Y0149619D01*
X0103043Y0149817D02*
X0100268Y0149817D01*
X0100079Y0150016D02*
X0103316Y0150016D01*
X0103588Y0150214D02*
X0099909Y0150214D01*
X0099739Y0150413D02*
X0103861Y0150413D01*
X0104134Y0150611D02*
X0099569Y0150611D01*
X0099398Y0150810D02*
X0104407Y0150810D01*
X0104680Y0151008D02*
X0099228Y0151008D01*
X0099058Y0151207D02*
X0107363Y0151207D01*
X0107440Y0151405D02*
X0098974Y0151405D01*
X0099106Y0151604D02*
X0107517Y0151604D01*
X0107594Y0151802D02*
X0099238Y0151802D01*
X0099371Y0152001D02*
X0107671Y0152001D01*
X0107748Y0152199D02*
X0099503Y0152199D01*
X0099635Y0152398D02*
X0107825Y0152398D01*
X0107902Y0152596D02*
X0099768Y0152596D01*
X0099900Y0152795D02*
X0107979Y0152795D01*
X0108056Y0152993D02*
X0100032Y0152993D01*
X0100165Y0153192D02*
X0108133Y0153192D01*
X0108211Y0153390D02*
X0100297Y0153390D01*
X0100430Y0153589D02*
X0108288Y0153589D01*
X0108365Y0153787D02*
X0100562Y0153787D01*
X0100694Y0153986D02*
X0108442Y0153986D01*
X0108519Y0154184D02*
X0100827Y0154184D01*
X0100959Y0154383D02*
X0108596Y0154383D01*
X0108673Y0154581D02*
X0101091Y0154581D01*
X0101224Y0154780D02*
X0108750Y0154780D01*
X0108827Y0154978D02*
X0101318Y0154978D01*
X0101194Y0155177D02*
X0108904Y0155177D01*
X0108981Y0155375D02*
X0101070Y0155375D01*
X0100946Y0155574D02*
X0109058Y0155574D01*
X0109135Y0155772D02*
X0100828Y0155772D01*
X0100762Y0155971D02*
X0109212Y0155971D01*
X0109289Y0156169D02*
X0100696Y0156169D01*
X0100630Y0156368D02*
X0109366Y0156368D01*
X0109401Y0156566D02*
X0100564Y0156566D01*
X0100498Y0156765D02*
X0109010Y0156765D01*
X0108657Y0156963D02*
X0100431Y0156963D01*
X0100365Y0157162D02*
X0108400Y0157162D01*
X0108143Y0157360D02*
X0100299Y0157360D01*
X0100233Y0157559D02*
X0107955Y0157559D01*
X0107780Y0157758D02*
X0100177Y0157758D01*
X0100120Y0157956D02*
X0107604Y0157956D01*
X0107479Y0158155D02*
X0100063Y0158155D01*
X0099441Y0158353D02*
X0107361Y0158353D01*
X0107243Y0158552D02*
X0098306Y0158552D01*
X0097172Y0158750D02*
X0107145Y0158750D01*
X0107074Y0158949D02*
X0096038Y0158949D01*
X0096018Y0159147D02*
X0107002Y0159147D01*
X0106930Y0159346D02*
X0096000Y0159346D01*
X0095982Y0159544D02*
X0106886Y0159544D01*
X0106854Y0159743D02*
X0095964Y0159743D01*
X0095946Y0159941D02*
X0106823Y0159941D01*
X0106791Y0160140D02*
X0095936Y0160140D01*
X0095936Y0160338D02*
X0106788Y0160338D01*
X0106794Y0160537D02*
X0095936Y0160537D01*
X0095936Y0160735D02*
X0106800Y0160735D01*
X0106806Y0160934D02*
X0095936Y0160934D01*
X0095959Y0161132D02*
X0106841Y0161132D01*
X0106885Y0161331D02*
X0095984Y0161331D01*
X0096009Y0161529D02*
X0106929Y0161529D01*
X0106974Y0161728D02*
X0096034Y0161728D01*
X0096054Y0161926D02*
X0107055Y0161926D01*
X0107140Y0162125D02*
X0096074Y0162125D01*
X0096094Y0162323D02*
X0107226Y0162323D01*
X0107323Y0162522D02*
X0096114Y0162522D01*
X0096133Y0162720D02*
X0107457Y0162720D01*
X0107592Y0162919D02*
X0097132Y0162919D01*
X0098295Y0163117D02*
X0107726Y0163117D01*
X0107920Y0163316D02*
X0099457Y0163316D01*
X0100260Y0163514D02*
X0108118Y0163514D01*
X0108327Y0163713D02*
X0100332Y0163713D01*
X0100404Y0163911D02*
X0108618Y0163911D01*
X0108910Y0164110D02*
X0100477Y0164110D01*
X0100549Y0164308D02*
X0109346Y0164308D01*
X0109925Y0164507D02*
X0100621Y0164507D01*
X0100688Y0164705D02*
X0121611Y0164705D01*
X0121689Y0164507D02*
X0112307Y0164507D01*
X0112916Y0164308D02*
X0121764Y0164308D01*
X0121838Y0164110D02*
X0113324Y0164110D01*
X0113640Y0163911D02*
X0121913Y0163911D01*
X0121987Y0163713D02*
X0113906Y0163713D01*
X0114147Y0163514D02*
X0122062Y0163514D01*
X0122136Y0163316D02*
X0114330Y0163316D01*
X0114513Y0163117D02*
X0122211Y0163117D01*
X0123103Y0162919D02*
X0114671Y0162919D01*
X0114795Y0162720D02*
X0124426Y0162720D01*
X0125750Y0162522D02*
X0114918Y0162522D01*
X0115038Y0162323D02*
X0126247Y0162323D01*
X0126263Y0162125D02*
X0115115Y0162125D01*
X0115192Y0161926D02*
X0126280Y0161926D01*
X0126296Y0161728D02*
X0115269Y0161728D01*
X0115329Y0161529D02*
X0126313Y0161529D01*
X0126329Y0161331D02*
X0115366Y0161331D01*
X0115403Y0161132D02*
X0126336Y0161132D01*
X0126336Y0160934D02*
X0115440Y0160934D01*
X0115456Y0160735D02*
X0126336Y0160735D01*
X0126336Y0160537D02*
X0115455Y0160537D01*
X0115454Y0160338D02*
X0126336Y0160338D01*
X0126336Y0160140D02*
X0115453Y0160140D01*
X0115429Y0159941D02*
X0126336Y0159941D01*
X0126336Y0159743D02*
X0115391Y0159743D01*
X0115353Y0159544D02*
X0126336Y0159544D01*
X0126336Y0159346D02*
X0115314Y0159346D01*
X0115245Y0159147D02*
X0126336Y0159147D01*
X0126336Y0158949D02*
X0115166Y0158949D01*
X0115088Y0158750D02*
X0126336Y0158750D01*
X0125753Y0158552D02*
X0115003Y0158552D01*
X0114878Y0158353D02*
X0124562Y0158353D01*
X0123370Y0158155D02*
X0114752Y0158155D01*
X0114626Y0157956D02*
X0122179Y0157956D01*
X0122098Y0157758D02*
X0114453Y0157758D01*
X0114268Y0157559D02*
X0122058Y0157559D01*
X0122019Y0157360D02*
X0114082Y0157360D01*
X0113818Y0157162D02*
X0121979Y0157162D01*
X0121939Y0156963D02*
X0113547Y0156963D01*
X0113189Y0156765D02*
X0121863Y0156765D01*
X0121783Y0156566D02*
X0112773Y0156566D01*
X0112800Y0156368D02*
X0121704Y0156368D01*
X0121624Y0156169D02*
X0112870Y0156169D01*
X0112940Y0155971D02*
X0121545Y0155971D01*
X0121458Y0155772D02*
X0113010Y0155772D01*
X0113080Y0155574D02*
X0121370Y0155574D01*
X0121281Y0155375D02*
X0113150Y0155375D01*
X0113220Y0155177D02*
X0121193Y0155177D01*
X0121101Y0154978D02*
X0113291Y0154978D01*
X0113361Y0154780D02*
X0121002Y0154780D01*
X0120902Y0154581D02*
X0113431Y0154581D01*
X0113501Y0154383D02*
X0120803Y0154383D01*
X0120785Y0154184D02*
X0113571Y0154184D01*
X0113641Y0153986D02*
X0120933Y0153986D01*
X0121082Y0153787D02*
X0113711Y0153787D01*
X0113781Y0153589D02*
X0121231Y0153589D01*
X0121380Y0153390D02*
X0113851Y0153390D01*
X0113921Y0153192D02*
X0121529Y0153192D01*
X0121678Y0152993D02*
X0113991Y0152993D01*
X0114061Y0152795D02*
X0121827Y0152795D01*
X0121976Y0152596D02*
X0114131Y0152596D01*
X0114201Y0152398D02*
X0122125Y0152398D01*
X0122273Y0152199D02*
X0114271Y0152199D01*
X0114341Y0152001D02*
X0122422Y0152001D01*
X0122571Y0151802D02*
X0114412Y0151802D01*
X0114482Y0151604D02*
X0122720Y0151604D01*
X0122869Y0151405D02*
X0114552Y0151405D01*
X0114622Y0151207D02*
X0123018Y0151207D01*
X0123101Y0151008D02*
X0114692Y0151008D01*
X0114762Y0150810D02*
X0122931Y0150810D01*
X0122761Y0150611D02*
X0117340Y0150611D01*
X0117633Y0150413D02*
X0122591Y0150413D01*
X0122401Y0150214D02*
X0117927Y0150214D01*
X0118220Y0150016D02*
X0122203Y0150016D01*
X0122004Y0149817D02*
X0118514Y0149817D01*
X0118807Y0149619D02*
X0121806Y0149619D01*
X0121607Y0149420D02*
X0119101Y0149420D01*
X0119394Y0149222D02*
X0121409Y0149222D01*
X0121210Y0149023D02*
X0119687Y0149023D01*
X0119981Y0148824D02*
X0120987Y0148824D01*
X0120749Y0148626D02*
X0120274Y0148626D01*
X0116895Y0150611D02*
X0114832Y0150611D01*
X0114902Y0150413D02*
X0116548Y0150413D01*
X0116122Y0150214D02*
X0114972Y0150214D01*
X0115042Y0150016D02*
X0115670Y0150016D01*
X0115273Y0149817D02*
X0115112Y0149817D01*
X0107286Y0151008D02*
X0104807Y0151008D01*
X0105155Y0150810D02*
X0107209Y0150810D01*
X0107132Y0150611D02*
X0105502Y0150611D01*
X0105850Y0150413D02*
X0107055Y0150413D01*
X0106978Y0150214D02*
X0106197Y0150214D01*
X0106544Y0150016D02*
X0106901Y0150016D01*
X0100755Y0164904D02*
X0121523Y0164904D01*
X0121435Y0165102D02*
X0100821Y0165102D01*
X0100923Y0165301D02*
X0121346Y0165301D01*
X0121258Y0165499D02*
X0101037Y0165499D01*
X0101150Y0165698D02*
X0121153Y0165698D01*
X0121043Y0165896D02*
X0101266Y0165896D01*
X0101390Y0166095D02*
X0120933Y0166095D01*
X0120823Y0166293D02*
X0101514Y0166293D01*
X0101638Y0166492D02*
X0120765Y0166492D01*
X0120900Y0166691D02*
X0101704Y0166691D01*
X0101549Y0166889D02*
X0121034Y0166889D01*
X0121168Y0167088D02*
X0101393Y0167088D01*
X0101238Y0167286D02*
X0121303Y0167286D01*
X0121437Y0167485D02*
X0101083Y0167485D01*
X0100928Y0167683D02*
X0121571Y0167683D01*
X0121705Y0167882D02*
X0100773Y0167882D01*
X0100618Y0168080D02*
X0121840Y0168080D01*
X0121974Y0168279D02*
X0100463Y0168279D01*
X0100308Y0168477D02*
X0122108Y0168477D01*
X0122243Y0168676D02*
X0100153Y0168676D01*
X0099998Y0168874D02*
X0122377Y0168874D01*
X0122511Y0169073D02*
X0099843Y0169073D01*
X0099688Y0169271D02*
X0122645Y0169271D01*
X0122780Y0169470D02*
X0099532Y0169470D01*
X0099377Y0169668D02*
X0122914Y0169668D01*
X0123021Y0169867D02*
X0099252Y0169867D01*
X0099422Y0170065D02*
X0122851Y0170065D01*
X0122681Y0170264D02*
X0117099Y0170264D01*
X0117380Y0170462D02*
X0122510Y0170462D01*
X0122324Y0170661D02*
X0117661Y0170661D01*
X0117943Y0170859D02*
X0122126Y0170859D01*
X0121927Y0171058D02*
X0118224Y0171058D01*
X0118505Y0171256D02*
X0121729Y0171256D01*
X0121530Y0171455D02*
X0118786Y0171455D01*
X0119068Y0171653D02*
X0121332Y0171653D01*
X0121133Y0171852D02*
X0119349Y0171852D01*
X0119630Y0172050D02*
X0120918Y0172050D01*
X0120686Y0172249D02*
X0119911Y0172249D01*
X0120192Y0172447D02*
X0120455Y0172447D01*
X0116706Y0170264D02*
X0105570Y0170264D01*
X0105515Y0170264D02*
X0099592Y0170264D01*
X0099762Y0170462D02*
X0105234Y0170462D01*
X0104953Y0170661D02*
X0099948Y0170661D01*
X0100147Y0170859D02*
X0104671Y0170859D01*
X0104390Y0171058D02*
X0100345Y0171058D01*
X0100545Y0171256D02*
X0104109Y0171256D01*
X0103828Y0171455D02*
X0100772Y0171455D01*
X0100998Y0171653D02*
X0103547Y0171653D01*
X0103265Y0171852D02*
X0101225Y0171852D01*
X0101452Y0172050D02*
X0102984Y0172050D01*
X0102703Y0172249D02*
X0101679Y0172249D01*
X0101906Y0172447D02*
X0102422Y0172447D01*
X0102140Y0172646D02*
X0102133Y0172646D01*
X0106016Y0170462D02*
X0116309Y0170462D01*
X0115912Y0170661D02*
X0106460Y0170661D01*
X0106857Y0170859D02*
X0115515Y0170859D01*
X0115118Y0171058D02*
X0107268Y0171058D01*
X0107962Y0171256D02*
X0114542Y0171256D01*
X0113835Y0171455D02*
X0108637Y0171455D01*
X0108666Y0171653D02*
X0113796Y0171653D01*
X0113758Y0171852D02*
X0108695Y0171852D01*
X0108724Y0172050D02*
X0113719Y0172050D01*
X0113680Y0172249D02*
X0108753Y0172249D01*
X0108782Y0172447D02*
X0113641Y0172447D01*
X0113603Y0172646D02*
X0108811Y0172646D01*
X0108840Y0172844D02*
X0113564Y0172844D01*
X0113525Y0173043D02*
X0108869Y0173043D01*
X0108899Y0173241D02*
X0113486Y0173241D01*
X0113448Y0173440D02*
X0108928Y0173440D01*
X0108957Y0173638D02*
X0113409Y0173638D01*
X0113370Y0173837D02*
X0108986Y0173837D01*
X0109015Y0174035D02*
X0113332Y0174035D01*
X0113293Y0174234D02*
X0109044Y0174234D01*
X0109073Y0174432D02*
X0113254Y0174432D01*
X0113215Y0174631D02*
X0109102Y0174631D01*
X0109131Y0174829D02*
X0113177Y0174829D01*
X0113138Y0175028D02*
X0109160Y0175028D01*
X0109189Y0175227D02*
X0113099Y0175227D01*
X0113060Y0175425D02*
X0109218Y0175425D01*
D13*
X0113180Y0141504D02*
X0113057Y0141462D01*
X0112932Y0141423D01*
X0112807Y0141388D01*
X0112680Y0141357D01*
X0112552Y0141330D01*
X0112424Y0141307D01*
X0112295Y0141287D01*
X0112165Y0141272D01*
X0112036Y0141260D01*
X0111905Y0141252D01*
X0111775Y0141248D01*
X0111724Y0141249D01*
X0111674Y0141254D01*
X0111623Y0141264D01*
X0111574Y0141276D01*
X0111526Y0141293D01*
X0111479Y0141314D01*
X0111433Y0141337D01*
X0111390Y0141365D01*
X0111349Y0141395D01*
X0111311Y0141429D01*
X0111275Y0141465D01*
X0111242Y0141505D01*
X0111212Y0141546D01*
X0111186Y0141590D01*
X0111163Y0141635D01*
X0111144Y0141683D01*
X0111128Y0141731D01*
X0111116Y0141781D01*
X0111108Y0141831D01*
X0111104Y0141882D01*
X0111103Y0141933D01*
X0111107Y0141984D01*
X0111115Y0142035D01*
X0111126Y0142085D01*
X0111141Y0142134D01*
X0111160Y0142181D01*
X0111183Y0142227D01*
X0111209Y0142271D01*
X0111238Y0142313D01*
X0111271Y0142352D01*
X0111306Y0142389D01*
X0111345Y0142423D01*
X0111385Y0142454D01*
X0111428Y0142481D01*
X0111473Y0142506D01*
X0111520Y0142527D01*
X0112797Y0143038D01*
X0112797Y0143037D02*
X0112844Y0143058D01*
X0112889Y0143083D01*
X0112932Y0143110D01*
X0112972Y0143141D01*
X0113011Y0143175D01*
X0113046Y0143212D01*
X0113079Y0143251D01*
X0113108Y0143293D01*
X0113134Y0143337D01*
X0113157Y0143383D01*
X0113176Y0143430D01*
X0113191Y0143479D01*
X0113202Y0143529D01*
X0113210Y0143580D01*
X0113214Y0143631D01*
X0113213Y0143682D01*
X0113209Y0143733D01*
X0113201Y0143783D01*
X0113189Y0143833D01*
X0113173Y0143881D01*
X0113154Y0143929D01*
X0113131Y0143974D01*
X0113105Y0144018D01*
X0113075Y0144059D01*
X0113042Y0144099D01*
X0113006Y0144135D01*
X0112968Y0144169D01*
X0112927Y0144199D01*
X0112884Y0144227D01*
X0112838Y0144250D01*
X0112791Y0144271D01*
X0112743Y0144288D01*
X0112694Y0144300D01*
X0112643Y0144310D01*
X0112593Y0144315D01*
X0112542Y0144316D01*
X0112443Y0144313D01*
X0112344Y0144306D01*
X0112246Y0144296D01*
X0112148Y0144283D01*
X0112050Y0144267D01*
X0111953Y0144247D01*
X0111857Y0144224D01*
X0111762Y0144197D01*
X0111668Y0144168D01*
X0111575Y0144135D01*
X0111482Y0144099D01*
X0111392Y0144060D01*
X0109281Y0143293D02*
X0109281Y0142271D01*
X0109280Y0142271D02*
X0109278Y0142208D01*
X0109272Y0142145D01*
X0109263Y0142083D01*
X0109249Y0142022D01*
X0109232Y0141961D01*
X0109211Y0141902D01*
X0109186Y0141844D01*
X0109158Y0141787D01*
X0109127Y0141733D01*
X0109092Y0141681D01*
X0109054Y0141630D01*
X0109013Y0141582D01*
X0108969Y0141537D01*
X0108923Y0141495D01*
X0108874Y0141455D01*
X0108823Y0141419D01*
X0108769Y0141386D01*
X0108714Y0141356D01*
X0108656Y0141330D01*
X0108598Y0141307D01*
X0108538Y0141288D01*
X0108477Y0141273D01*
X0108415Y0141261D01*
X0108352Y0141253D01*
X0108289Y0141249D01*
X0108227Y0141249D01*
X0108164Y0141253D01*
X0108101Y0141261D01*
X0108039Y0141273D01*
X0107978Y0141288D01*
X0107918Y0141307D01*
X0107860Y0141330D01*
X0107802Y0141356D01*
X0107747Y0141386D01*
X0107693Y0141419D01*
X0107642Y0141455D01*
X0107593Y0141495D01*
X0107547Y0141537D01*
X0107503Y0141582D01*
X0107462Y0141630D01*
X0107424Y0141681D01*
X0107389Y0141733D01*
X0107358Y0141787D01*
X0107330Y0141844D01*
X0107305Y0141902D01*
X0107284Y0141961D01*
X0107267Y0142022D01*
X0107253Y0142083D01*
X0107244Y0142145D01*
X0107238Y0142208D01*
X0107236Y0142271D01*
X0107236Y0143293D01*
X0107238Y0143356D01*
X0107244Y0143419D01*
X0107253Y0143481D01*
X0107267Y0143542D01*
X0107284Y0143603D01*
X0107305Y0143662D01*
X0107330Y0143720D01*
X0107358Y0143777D01*
X0107389Y0143831D01*
X0107424Y0143883D01*
X0107462Y0143934D01*
X0107503Y0143982D01*
X0107547Y0144027D01*
X0107593Y0144069D01*
X0107642Y0144109D01*
X0107693Y0144145D01*
X0107747Y0144178D01*
X0107802Y0144208D01*
X0107860Y0144234D01*
X0107918Y0144257D01*
X0107978Y0144276D01*
X0108039Y0144291D01*
X0108101Y0144303D01*
X0108164Y0144311D01*
X0108227Y0144315D01*
X0108289Y0144315D01*
X0108352Y0144311D01*
X0108415Y0144303D01*
X0108477Y0144291D01*
X0108538Y0144276D01*
X0108598Y0144257D01*
X0108656Y0144234D01*
X0108714Y0144208D01*
X0108769Y0144178D01*
X0108823Y0144145D01*
X0108874Y0144109D01*
X0108923Y0144069D01*
X0108969Y0144027D01*
X0109013Y0143982D01*
X0109054Y0143934D01*
X0109092Y0143883D01*
X0109127Y0143831D01*
X0109158Y0143777D01*
X0109186Y0143720D01*
X0109211Y0143662D01*
X0109232Y0143603D01*
X0109249Y0143542D01*
X0109263Y0143481D01*
X0109272Y0143419D01*
X0109278Y0143356D01*
X0109280Y0143293D01*
X0105231Y0144315D02*
X0105231Y0142015D01*
X0105229Y0141960D01*
X0105223Y0141906D01*
X0105213Y0141852D01*
X0105200Y0141799D01*
X0105183Y0141747D01*
X0105162Y0141696D01*
X0105137Y0141647D01*
X0105109Y0141600D01*
X0105078Y0141555D01*
X0105044Y0141513D01*
X0105006Y0141473D01*
X0104966Y0141435D01*
X0104924Y0141401D01*
X0104879Y0141370D01*
X0104832Y0141342D01*
X0104783Y0141317D01*
X0104732Y0141296D01*
X0104680Y0141279D01*
X0104627Y0141266D01*
X0104573Y0141256D01*
X0104519Y0141250D01*
X0104464Y0141248D01*
X0104464Y0141249D02*
X0103186Y0141249D01*
X0103186Y0144315D01*
X0101005Y0144315D02*
X0101005Y0141249D01*
X0099471Y0143804D02*
X0099471Y0144315D01*
X0101005Y0144315D01*
X0098025Y0143549D02*
X0098025Y0142015D01*
X0098026Y0142015D02*
X0098024Y0141960D01*
X0098018Y0141906D01*
X0098008Y0141852D01*
X0097995Y0141799D01*
X0097978Y0141747D01*
X0097957Y0141696D01*
X0097932Y0141647D01*
X0097904Y0141600D01*
X0097873Y0141555D01*
X0097839Y0141513D01*
X0097801Y0141473D01*
X0097761Y0141435D01*
X0097719Y0141401D01*
X0097674Y0141370D01*
X0097627Y0141342D01*
X0097578Y0141317D01*
X0097527Y0141296D01*
X0097475Y0141279D01*
X0097422Y0141266D01*
X0097368Y0141256D01*
X0097314Y0141250D01*
X0097259Y0141248D01*
X0097259Y0141249D02*
X0096237Y0141249D01*
X0094581Y0142015D02*
X0094581Y0143293D01*
X0094581Y0142782D02*
X0092536Y0142782D01*
X0092536Y0143293D01*
X0092538Y0143356D01*
X0092544Y0143419D01*
X0092553Y0143481D01*
X0092567Y0143542D01*
X0092584Y0143603D01*
X0092605Y0143662D01*
X0092630Y0143720D01*
X0092658Y0143777D01*
X0092689Y0143831D01*
X0092724Y0143883D01*
X0092762Y0143934D01*
X0092803Y0143982D01*
X0092847Y0144027D01*
X0092893Y0144069D01*
X0092942Y0144109D01*
X0092993Y0144145D01*
X0093047Y0144178D01*
X0093102Y0144208D01*
X0093160Y0144234D01*
X0093218Y0144257D01*
X0093278Y0144276D01*
X0093339Y0144291D01*
X0093401Y0144303D01*
X0093464Y0144311D01*
X0093527Y0144315D01*
X0093589Y0144315D01*
X0093652Y0144311D01*
X0093715Y0144303D01*
X0093777Y0144291D01*
X0093838Y0144276D01*
X0093898Y0144257D01*
X0093956Y0144234D01*
X0094014Y0144208D01*
X0094069Y0144178D01*
X0094123Y0144145D01*
X0094174Y0144109D01*
X0094223Y0144069D01*
X0094269Y0144027D01*
X0094313Y0143982D01*
X0094354Y0143934D01*
X0094392Y0143883D01*
X0094427Y0143831D01*
X0094458Y0143777D01*
X0094486Y0143720D01*
X0094511Y0143662D01*
X0094532Y0143603D01*
X0094549Y0143542D01*
X0094563Y0143481D01*
X0094572Y0143419D01*
X0094578Y0143356D01*
X0094580Y0143293D01*
X0094581Y0142015D02*
X0094579Y0141960D01*
X0094573Y0141906D01*
X0094563Y0141852D01*
X0094550Y0141799D01*
X0094533Y0141747D01*
X0094512Y0141696D01*
X0094487Y0141647D01*
X0094459Y0141600D01*
X0094428Y0141555D01*
X0094394Y0141513D01*
X0094356Y0141473D01*
X0094316Y0141435D01*
X0094274Y0141401D01*
X0094229Y0141370D01*
X0094182Y0141342D01*
X0094133Y0141317D01*
X0094082Y0141296D01*
X0094030Y0141279D01*
X0093977Y0141266D01*
X0093923Y0141256D01*
X0093869Y0141250D01*
X0093814Y0141248D01*
X0093814Y0141249D02*
X0092536Y0141249D01*
X0096237Y0144315D02*
X0097259Y0144315D01*
X0097259Y0144316D02*
X0097314Y0144314D01*
X0097368Y0144308D01*
X0097422Y0144298D01*
X0097475Y0144285D01*
X0097527Y0144268D01*
X0097578Y0144247D01*
X0097627Y0144222D01*
X0097674Y0144194D01*
X0097719Y0144163D01*
X0097761Y0144129D01*
X0097801Y0144091D01*
X0097839Y0144051D01*
X0097873Y0144009D01*
X0097904Y0143964D01*
X0097932Y0143917D01*
X0097957Y0143868D01*
X0097978Y0143817D01*
X0097995Y0143765D01*
X0098008Y0143712D01*
X0098018Y0143658D01*
X0098024Y0143604D01*
X0098026Y0143549D01*
X0100071Y0136815D02*
X0100071Y0136304D01*
X0100071Y0136815D02*
X0101605Y0136815D01*
X0101605Y0133749D01*
X0103809Y0133749D02*
X0103809Y0136049D01*
X0103809Y0135538D02*
X0104959Y0135538D01*
X0103809Y0136049D02*
X0103811Y0136101D01*
X0103816Y0136153D01*
X0103825Y0136205D01*
X0103837Y0136256D01*
X0103853Y0136306D01*
X0103873Y0136355D01*
X0103895Y0136402D01*
X0103921Y0136448D01*
X0103949Y0136491D01*
X0103981Y0136533D01*
X0104015Y0136573D01*
X0104052Y0136610D01*
X0104092Y0136644D01*
X0104134Y0136676D01*
X0104177Y0136704D01*
X0104223Y0136730D01*
X0104270Y0136753D01*
X0104319Y0136772D01*
X0104369Y0136788D01*
X0104420Y0136800D01*
X0104472Y0136809D01*
X0104524Y0136814D01*
X0104576Y0136816D01*
X0104576Y0136815D02*
X0105598Y0136815D01*
X0107625Y0136815D02*
X0108392Y0133749D01*
X0109158Y0135793D01*
X0109925Y0133749D01*
X0110692Y0136815D01*
X0112659Y0136815D02*
X0113937Y0136815D01*
X0113937Y0136816D02*
X0113992Y0136814D01*
X0114046Y0136808D01*
X0114100Y0136798D01*
X0114153Y0136785D01*
X0114205Y0136768D01*
X0114256Y0136747D01*
X0114305Y0136722D01*
X0114352Y0136694D01*
X0114397Y0136663D01*
X0114439Y0136629D01*
X0114479Y0136591D01*
X0114517Y0136551D01*
X0114551Y0136509D01*
X0114582Y0136464D01*
X0114610Y0136417D01*
X0114635Y0136368D01*
X0114656Y0136317D01*
X0114673Y0136265D01*
X0114686Y0136212D01*
X0114696Y0136158D01*
X0114702Y0136104D01*
X0114704Y0136049D01*
X0114704Y0134515D01*
X0114702Y0134460D01*
X0114696Y0134406D01*
X0114686Y0134352D01*
X0114673Y0134299D01*
X0114656Y0134247D01*
X0114635Y0134196D01*
X0114610Y0134147D01*
X0114582Y0134100D01*
X0114551Y0134055D01*
X0114517Y0134013D01*
X0114479Y0133973D01*
X0114439Y0133935D01*
X0114397Y0133901D01*
X0114352Y0133870D01*
X0114305Y0133842D01*
X0114256Y0133817D01*
X0114205Y0133796D01*
X0114153Y0133779D01*
X0114100Y0133766D01*
X0114046Y0133756D01*
X0113992Y0133750D01*
X0113937Y0133748D01*
X0113937Y0133749D02*
X0112659Y0133749D01*
X0112659Y0138349D01*
X0116121Y0136815D02*
X0116121Y0136304D01*
X0116121Y0136815D02*
X0117655Y0136815D01*
X0117655Y0133749D01*
X0119859Y0133749D02*
X0119859Y0136049D01*
X0119859Y0135538D02*
X0121009Y0135538D01*
X0119859Y0136049D02*
X0119861Y0136101D01*
X0119866Y0136153D01*
X0119875Y0136205D01*
X0119887Y0136256D01*
X0119903Y0136306D01*
X0119923Y0136355D01*
X0119945Y0136402D01*
X0119971Y0136448D01*
X0119999Y0136491D01*
X0120031Y0136533D01*
X0120065Y0136573D01*
X0120102Y0136610D01*
X0120142Y0136644D01*
X0120184Y0136676D01*
X0120227Y0136704D01*
X0120273Y0136730D01*
X0120320Y0136753D01*
X0120369Y0136772D01*
X0120419Y0136788D01*
X0120470Y0136800D01*
X0120522Y0136809D01*
X0120574Y0136814D01*
X0120626Y0136816D01*
X0120626Y0136815D02*
X0121648Y0136815D01*
X0121009Y0135537D02*
X0121067Y0135535D01*
X0121126Y0135529D01*
X0121183Y0135520D01*
X0121240Y0135507D01*
X0121296Y0135490D01*
X0121351Y0135469D01*
X0121404Y0135445D01*
X0121456Y0135417D01*
X0121506Y0135386D01*
X0121553Y0135352D01*
X0121598Y0135315D01*
X0121641Y0135275D01*
X0121681Y0135232D01*
X0121718Y0135187D01*
X0121752Y0135140D01*
X0121783Y0135090D01*
X0121811Y0135038D01*
X0121835Y0134985D01*
X0121856Y0134930D01*
X0121873Y0134874D01*
X0121886Y0134817D01*
X0121895Y0134760D01*
X0121901Y0134701D01*
X0121903Y0134643D01*
X0121901Y0134585D01*
X0121895Y0134526D01*
X0121886Y0134469D01*
X0121873Y0134412D01*
X0121856Y0134356D01*
X0121835Y0134301D01*
X0121811Y0134248D01*
X0121783Y0134196D01*
X0121752Y0134146D01*
X0121718Y0134099D01*
X0121681Y0134054D01*
X0121641Y0134011D01*
X0121598Y0133971D01*
X0121553Y0133934D01*
X0121506Y0133900D01*
X0121456Y0133869D01*
X0121404Y0133841D01*
X0121351Y0133817D01*
X0121296Y0133796D01*
X0121240Y0133779D01*
X0121183Y0133766D01*
X0121126Y0133757D01*
X0121067Y0133751D01*
X0121009Y0133749D01*
X0119859Y0133749D01*
X0123886Y0133749D02*
X0123886Y0136049D01*
X0123888Y0136104D01*
X0123894Y0136158D01*
X0123904Y0136212D01*
X0123917Y0136265D01*
X0123934Y0136317D01*
X0123955Y0136368D01*
X0123980Y0136417D01*
X0124008Y0136464D01*
X0124039Y0136509D01*
X0124073Y0136551D01*
X0124111Y0136591D01*
X0124151Y0136629D01*
X0124193Y0136663D01*
X0124238Y0136694D01*
X0124285Y0136722D01*
X0124334Y0136747D01*
X0124385Y0136768D01*
X0124437Y0136785D01*
X0124490Y0136798D01*
X0124544Y0136808D01*
X0124598Y0136814D01*
X0124653Y0136816D01*
X0124653Y0136815D02*
X0125931Y0136815D01*
X0125931Y0138349D02*
X0125931Y0133749D01*
X0127557Y0139715D02*
X0127557Y0144315D01*
X0126280Y0144315D01*
X0126280Y0144316D02*
X0126225Y0144314D01*
X0126171Y0144308D01*
X0126117Y0144298D01*
X0126064Y0144285D01*
X0126012Y0144268D01*
X0125961Y0144247D01*
X0125912Y0144222D01*
X0125865Y0144194D01*
X0125820Y0144163D01*
X0125778Y0144129D01*
X0125738Y0144091D01*
X0125700Y0144051D01*
X0125666Y0144009D01*
X0125635Y0143964D01*
X0125607Y0143917D01*
X0125582Y0143868D01*
X0125561Y0143817D01*
X0125544Y0143765D01*
X0125531Y0143712D01*
X0125521Y0143658D01*
X0125515Y0143604D01*
X0125513Y0143549D01*
X0125513Y0142015D01*
X0125515Y0141963D01*
X0125520Y0141911D01*
X0125529Y0141859D01*
X0125541Y0141808D01*
X0125557Y0141758D01*
X0125577Y0141709D01*
X0125599Y0141662D01*
X0125625Y0141616D01*
X0125653Y0141573D01*
X0125685Y0141531D01*
X0125719Y0141491D01*
X0125756Y0141454D01*
X0125796Y0141420D01*
X0125838Y0141388D01*
X0125881Y0141360D01*
X0125927Y0141334D01*
X0125974Y0141311D01*
X0126023Y0141292D01*
X0126073Y0141276D01*
X0126124Y0141264D01*
X0126176Y0141255D01*
X0126228Y0141250D01*
X0126280Y0141248D01*
X0126280Y0141249D02*
X0127557Y0141249D01*
X0129586Y0142271D02*
X0129586Y0143293D01*
X0129588Y0143356D01*
X0129594Y0143419D01*
X0129603Y0143481D01*
X0129617Y0143542D01*
X0129634Y0143603D01*
X0129655Y0143662D01*
X0129680Y0143720D01*
X0129708Y0143777D01*
X0129739Y0143831D01*
X0129774Y0143883D01*
X0129812Y0143934D01*
X0129853Y0143982D01*
X0129897Y0144027D01*
X0129943Y0144069D01*
X0129992Y0144109D01*
X0130043Y0144145D01*
X0130097Y0144178D01*
X0130152Y0144208D01*
X0130210Y0144234D01*
X0130268Y0144257D01*
X0130328Y0144276D01*
X0130389Y0144291D01*
X0130451Y0144303D01*
X0130514Y0144311D01*
X0130577Y0144315D01*
X0130639Y0144315D01*
X0130702Y0144311D01*
X0130765Y0144303D01*
X0130827Y0144291D01*
X0130888Y0144276D01*
X0130948Y0144257D01*
X0131006Y0144234D01*
X0131064Y0144208D01*
X0131119Y0144178D01*
X0131173Y0144145D01*
X0131224Y0144109D01*
X0131273Y0144069D01*
X0131319Y0144027D01*
X0131363Y0143982D01*
X0131404Y0143934D01*
X0131442Y0143883D01*
X0131477Y0143831D01*
X0131508Y0143777D01*
X0131536Y0143720D01*
X0131561Y0143662D01*
X0131582Y0143603D01*
X0131599Y0143542D01*
X0131613Y0143481D01*
X0131622Y0143419D01*
X0131628Y0143356D01*
X0131630Y0143293D01*
X0131631Y0143293D02*
X0131631Y0142271D01*
X0131630Y0142271D02*
X0131628Y0142208D01*
X0131622Y0142145D01*
X0131613Y0142083D01*
X0131599Y0142022D01*
X0131582Y0141961D01*
X0131561Y0141902D01*
X0131536Y0141844D01*
X0131508Y0141787D01*
X0131477Y0141733D01*
X0131442Y0141681D01*
X0131404Y0141630D01*
X0131363Y0141582D01*
X0131319Y0141537D01*
X0131273Y0141495D01*
X0131224Y0141455D01*
X0131173Y0141419D01*
X0131119Y0141386D01*
X0131064Y0141356D01*
X0131006Y0141330D01*
X0130948Y0141307D01*
X0130888Y0141288D01*
X0130827Y0141273D01*
X0130765Y0141261D01*
X0130702Y0141253D01*
X0130639Y0141249D01*
X0130577Y0141249D01*
X0130514Y0141253D01*
X0130451Y0141261D01*
X0130389Y0141273D01*
X0130328Y0141288D01*
X0130268Y0141307D01*
X0130210Y0141330D01*
X0130152Y0141356D01*
X0130097Y0141386D01*
X0130043Y0141419D01*
X0129992Y0141455D01*
X0129943Y0141495D01*
X0129897Y0141537D01*
X0129853Y0141582D01*
X0129812Y0141630D01*
X0129774Y0141681D01*
X0129739Y0141733D01*
X0129708Y0141787D01*
X0129680Y0141844D01*
X0129655Y0141902D01*
X0129634Y0141961D01*
X0129617Y0142022D01*
X0129603Y0142083D01*
X0129594Y0142145D01*
X0129588Y0142208D01*
X0129586Y0142271D01*
X0123681Y0142015D02*
X0123681Y0143293D01*
X0123681Y0142782D02*
X0121636Y0142782D01*
X0121636Y0143293D01*
X0121638Y0143356D01*
X0121644Y0143419D01*
X0121653Y0143481D01*
X0121667Y0143542D01*
X0121684Y0143603D01*
X0121705Y0143662D01*
X0121730Y0143720D01*
X0121758Y0143777D01*
X0121789Y0143831D01*
X0121824Y0143883D01*
X0121862Y0143934D01*
X0121903Y0143982D01*
X0121947Y0144027D01*
X0121993Y0144069D01*
X0122042Y0144109D01*
X0122093Y0144145D01*
X0122147Y0144178D01*
X0122202Y0144208D01*
X0122260Y0144234D01*
X0122318Y0144257D01*
X0122378Y0144276D01*
X0122439Y0144291D01*
X0122501Y0144303D01*
X0122564Y0144311D01*
X0122627Y0144315D01*
X0122689Y0144315D01*
X0122752Y0144311D01*
X0122815Y0144303D01*
X0122877Y0144291D01*
X0122938Y0144276D01*
X0122998Y0144257D01*
X0123056Y0144234D01*
X0123114Y0144208D01*
X0123169Y0144178D01*
X0123223Y0144145D01*
X0123274Y0144109D01*
X0123323Y0144069D01*
X0123369Y0144027D01*
X0123413Y0143982D01*
X0123454Y0143934D01*
X0123492Y0143883D01*
X0123527Y0143831D01*
X0123558Y0143777D01*
X0123586Y0143720D01*
X0123611Y0143662D01*
X0123632Y0143603D01*
X0123649Y0143542D01*
X0123663Y0143481D01*
X0123672Y0143419D01*
X0123678Y0143356D01*
X0123680Y0143293D01*
X0123681Y0142015D02*
X0123679Y0141960D01*
X0123673Y0141906D01*
X0123663Y0141852D01*
X0123650Y0141799D01*
X0123633Y0141747D01*
X0123612Y0141696D01*
X0123587Y0141647D01*
X0123559Y0141600D01*
X0123528Y0141555D01*
X0123494Y0141513D01*
X0123456Y0141473D01*
X0123416Y0141435D01*
X0123374Y0141401D01*
X0123329Y0141370D01*
X0123282Y0141342D01*
X0123233Y0141317D01*
X0123182Y0141296D01*
X0123130Y0141279D01*
X0123077Y0141266D01*
X0123023Y0141256D01*
X0122969Y0141250D01*
X0122914Y0141248D01*
X0122914Y0141249D02*
X0121636Y0141249D01*
X0119631Y0141249D02*
X0119631Y0144315D01*
X0118353Y0144315D01*
X0118353Y0144316D02*
X0118298Y0144314D01*
X0118244Y0144308D01*
X0118190Y0144298D01*
X0118137Y0144285D01*
X0118085Y0144268D01*
X0118034Y0144247D01*
X0117985Y0144222D01*
X0117938Y0144194D01*
X0117893Y0144163D01*
X0117851Y0144129D01*
X0117811Y0144091D01*
X0117773Y0144051D01*
X0117739Y0144009D01*
X0117708Y0143964D01*
X0117680Y0143917D01*
X0117655Y0143868D01*
X0117634Y0143817D01*
X0117617Y0143765D01*
X0117604Y0143712D01*
X0117594Y0143658D01*
X0117588Y0143604D01*
X0117586Y0143549D01*
X0117586Y0141249D01*
X0104959Y0135537D02*
X0105017Y0135535D01*
X0105076Y0135529D01*
X0105133Y0135520D01*
X0105190Y0135507D01*
X0105246Y0135490D01*
X0105301Y0135469D01*
X0105354Y0135445D01*
X0105406Y0135417D01*
X0105456Y0135386D01*
X0105503Y0135352D01*
X0105548Y0135315D01*
X0105591Y0135275D01*
X0105631Y0135232D01*
X0105668Y0135187D01*
X0105702Y0135140D01*
X0105733Y0135090D01*
X0105761Y0135038D01*
X0105785Y0134985D01*
X0105806Y0134930D01*
X0105823Y0134874D01*
X0105836Y0134817D01*
X0105845Y0134760D01*
X0105851Y0134701D01*
X0105853Y0134643D01*
X0105851Y0134585D01*
X0105845Y0134526D01*
X0105836Y0134469D01*
X0105823Y0134412D01*
X0105806Y0134356D01*
X0105785Y0134301D01*
X0105761Y0134248D01*
X0105733Y0134196D01*
X0105702Y0134146D01*
X0105668Y0134099D01*
X0105631Y0134054D01*
X0105591Y0134011D01*
X0105548Y0133971D01*
X0105503Y0133934D01*
X0105456Y0133900D01*
X0105406Y0133869D01*
X0105354Y0133841D01*
X0105301Y0133817D01*
X0105246Y0133796D01*
X0105190Y0133779D01*
X0105133Y0133766D01*
X0105076Y0133757D01*
X0105017Y0133751D01*
X0104959Y0133749D01*
X0103809Y0133749D01*
X0098631Y0134515D02*
X0098631Y0135793D01*
X0098631Y0135282D02*
X0096586Y0135282D01*
X0096586Y0135793D01*
X0096588Y0135856D01*
X0096594Y0135919D01*
X0096603Y0135981D01*
X0096617Y0136042D01*
X0096634Y0136103D01*
X0096655Y0136162D01*
X0096680Y0136220D01*
X0096708Y0136277D01*
X0096739Y0136331D01*
X0096774Y0136383D01*
X0096812Y0136434D01*
X0096853Y0136482D01*
X0096897Y0136527D01*
X0096943Y0136569D01*
X0096992Y0136609D01*
X0097043Y0136645D01*
X0097097Y0136678D01*
X0097152Y0136708D01*
X0097210Y0136734D01*
X0097268Y0136757D01*
X0097328Y0136776D01*
X0097389Y0136791D01*
X0097451Y0136803D01*
X0097514Y0136811D01*
X0097577Y0136815D01*
X0097639Y0136815D01*
X0097702Y0136811D01*
X0097765Y0136803D01*
X0097827Y0136791D01*
X0097888Y0136776D01*
X0097948Y0136757D01*
X0098006Y0136734D01*
X0098064Y0136708D01*
X0098119Y0136678D01*
X0098173Y0136645D01*
X0098224Y0136609D01*
X0098273Y0136569D01*
X0098319Y0136527D01*
X0098363Y0136482D01*
X0098404Y0136434D01*
X0098442Y0136383D01*
X0098477Y0136331D01*
X0098508Y0136277D01*
X0098536Y0136220D01*
X0098561Y0136162D01*
X0098582Y0136103D01*
X0098599Y0136042D01*
X0098613Y0135981D01*
X0098622Y0135919D01*
X0098628Y0135856D01*
X0098630Y0135793D01*
X0098631Y0134515D02*
X0098629Y0134460D01*
X0098623Y0134406D01*
X0098613Y0134352D01*
X0098600Y0134299D01*
X0098583Y0134247D01*
X0098562Y0134196D01*
X0098537Y0134147D01*
X0098509Y0134100D01*
X0098478Y0134055D01*
X0098444Y0134013D01*
X0098406Y0133973D01*
X0098366Y0133935D01*
X0098324Y0133901D01*
X0098279Y0133870D01*
X0098232Y0133842D01*
X0098183Y0133817D01*
X0098132Y0133796D01*
X0098080Y0133779D01*
X0098027Y0133766D01*
X0097973Y0133756D01*
X0097919Y0133750D01*
X0097864Y0133748D01*
X0097864Y0133749D02*
X0096586Y0133749D01*
M02*
