%
M48
M72
T01C0.01378
T02C0.03937
T03C0.04331
T04C0.12598
%
T01
X128953Y79740
X146669Y91551
X156512Y92732
X172260Y113205
X184071Y128953
X176197Y134858
X164386Y140764
X126984Y126984
X140764Y113205
X101394Y113205
X89583Y128953
X73835Y140764
X63992Y154543
X180134Y71866
X195882Y79740
X132890Y67929
X231315Y156512
T02
X213362Y26591
X203362Y26591
X193362Y26591
X183362Y26591
X173362Y26591
X163362Y26591
X153362Y26591
X143362Y26591
X133362Y26591
X123362Y26591
X113362Y26591
X103362Y26591
X101394Y188008
X111394Y188008
X121394Y188008
X131394Y188008
X141394Y188008
X151394Y188008
X161394Y188008
X171394Y188008
X181394Y188008
X191394Y188008
X201394Y188008
X211394Y188008
T03
X249189Y188008
X239189Y188008
X78087Y188008
X68087Y188008
X58087Y188008
T04
X288402Y24622
X288402Y189976
X24622Y189976
X24622Y24622
M30
