G75*
%MOIN*%
%OFA0B0*%
%FSLAX25Y25*%
%IPPOS*%
%LPD*%
%AMOC8*
5,1,8,0,0,1.08239X$1,22.5*
%
%ADD10C,0.00000*%
D10*
X0024622Y0008874D02*
X0288402Y0008874D01*
X0288783Y0008879D01*
X0289163Y0008892D01*
X0289543Y0008915D01*
X0289922Y0008948D01*
X0290300Y0008989D01*
X0290677Y0009039D01*
X0291053Y0009099D01*
X0291428Y0009167D01*
X0291800Y0009245D01*
X0292171Y0009332D01*
X0292539Y0009427D01*
X0292905Y0009532D01*
X0293268Y0009645D01*
X0293629Y0009767D01*
X0293986Y0009897D01*
X0294340Y0010037D01*
X0294691Y0010184D01*
X0295038Y0010341D01*
X0295381Y0010505D01*
X0295720Y0010678D01*
X0296055Y0010859D01*
X0296386Y0011048D01*
X0296711Y0011245D01*
X0297032Y0011449D01*
X0297348Y0011662D01*
X0297658Y0011882D01*
X0297964Y0012109D01*
X0298263Y0012344D01*
X0298557Y0012586D01*
X0298845Y0012834D01*
X0299127Y0013090D01*
X0299402Y0013353D01*
X0299671Y0013622D01*
X0299934Y0013897D01*
X0300190Y0014179D01*
X0300438Y0014467D01*
X0300680Y0014761D01*
X0300915Y0015060D01*
X0301142Y0015366D01*
X0301362Y0015676D01*
X0301575Y0015992D01*
X0301779Y0016313D01*
X0301976Y0016638D01*
X0302165Y0016969D01*
X0302346Y0017304D01*
X0302519Y0017643D01*
X0302683Y0017986D01*
X0302840Y0018333D01*
X0302987Y0018684D01*
X0303127Y0019038D01*
X0303257Y0019395D01*
X0303379Y0019756D01*
X0303492Y0020119D01*
X0303597Y0020485D01*
X0303692Y0020853D01*
X0303779Y0021224D01*
X0303857Y0021596D01*
X0303925Y0021971D01*
X0303985Y0022347D01*
X0304035Y0022724D01*
X0304076Y0023102D01*
X0304109Y0023481D01*
X0304132Y0023861D01*
X0304145Y0024241D01*
X0304150Y0024622D01*
X0304150Y0189976D01*
X0304145Y0190357D01*
X0304132Y0190737D01*
X0304109Y0191117D01*
X0304076Y0191496D01*
X0304035Y0191874D01*
X0303985Y0192251D01*
X0303925Y0192627D01*
X0303857Y0193002D01*
X0303779Y0193374D01*
X0303692Y0193745D01*
X0303597Y0194113D01*
X0303492Y0194479D01*
X0303379Y0194842D01*
X0303257Y0195203D01*
X0303127Y0195560D01*
X0302987Y0195914D01*
X0302840Y0196265D01*
X0302683Y0196612D01*
X0302519Y0196955D01*
X0302346Y0197294D01*
X0302165Y0197629D01*
X0301976Y0197960D01*
X0301779Y0198285D01*
X0301575Y0198606D01*
X0301362Y0198922D01*
X0301142Y0199232D01*
X0300915Y0199538D01*
X0300680Y0199837D01*
X0300438Y0200131D01*
X0300190Y0200419D01*
X0299934Y0200701D01*
X0299671Y0200976D01*
X0299402Y0201245D01*
X0299127Y0201508D01*
X0298845Y0201764D01*
X0298557Y0202012D01*
X0298263Y0202254D01*
X0297964Y0202489D01*
X0297658Y0202716D01*
X0297348Y0202936D01*
X0297032Y0203149D01*
X0296711Y0203353D01*
X0296386Y0203550D01*
X0296055Y0203739D01*
X0295720Y0203920D01*
X0295381Y0204093D01*
X0295038Y0204257D01*
X0294691Y0204414D01*
X0294340Y0204561D01*
X0293986Y0204701D01*
X0293629Y0204831D01*
X0293268Y0204953D01*
X0292905Y0205066D01*
X0292539Y0205171D01*
X0292171Y0205266D01*
X0291800Y0205353D01*
X0291428Y0205431D01*
X0291053Y0205499D01*
X0290677Y0205559D01*
X0290300Y0205609D01*
X0289922Y0205650D01*
X0289543Y0205683D01*
X0289163Y0205706D01*
X0288783Y0205719D01*
X0288402Y0205724D01*
X0024622Y0205724D01*
X0024241Y0205719D01*
X0023861Y0205706D01*
X0023481Y0205683D01*
X0023102Y0205650D01*
X0022724Y0205609D01*
X0022347Y0205559D01*
X0021971Y0205499D01*
X0021596Y0205431D01*
X0021224Y0205353D01*
X0020853Y0205266D01*
X0020485Y0205171D01*
X0020119Y0205066D01*
X0019756Y0204953D01*
X0019395Y0204831D01*
X0019038Y0204701D01*
X0018684Y0204561D01*
X0018333Y0204414D01*
X0017986Y0204257D01*
X0017643Y0204093D01*
X0017304Y0203920D01*
X0016969Y0203739D01*
X0016638Y0203550D01*
X0016313Y0203353D01*
X0015992Y0203149D01*
X0015676Y0202936D01*
X0015366Y0202716D01*
X0015060Y0202489D01*
X0014761Y0202254D01*
X0014467Y0202012D01*
X0014179Y0201764D01*
X0013897Y0201508D01*
X0013622Y0201245D01*
X0013353Y0200976D01*
X0013090Y0200701D01*
X0012834Y0200419D01*
X0012586Y0200131D01*
X0012344Y0199837D01*
X0012109Y0199538D01*
X0011882Y0199232D01*
X0011662Y0198922D01*
X0011449Y0198606D01*
X0011245Y0198285D01*
X0011048Y0197960D01*
X0010859Y0197629D01*
X0010678Y0197294D01*
X0010505Y0196955D01*
X0010341Y0196612D01*
X0010184Y0196265D01*
X0010037Y0195914D01*
X0009897Y0195560D01*
X0009767Y0195203D01*
X0009645Y0194842D01*
X0009532Y0194479D01*
X0009427Y0194113D01*
X0009332Y0193745D01*
X0009245Y0193374D01*
X0009167Y0193002D01*
X0009099Y0192627D01*
X0009039Y0192251D01*
X0008989Y0191874D01*
X0008948Y0191496D01*
X0008915Y0191117D01*
X0008892Y0190737D01*
X0008879Y0190357D01*
X0008874Y0189976D01*
X0008874Y0024622D01*
X0008879Y0024241D01*
X0008892Y0023861D01*
X0008915Y0023481D01*
X0008948Y0023102D01*
X0008989Y0022724D01*
X0009039Y0022347D01*
X0009099Y0021971D01*
X0009167Y0021596D01*
X0009245Y0021224D01*
X0009332Y0020853D01*
X0009427Y0020485D01*
X0009532Y0020119D01*
X0009645Y0019756D01*
X0009767Y0019395D01*
X0009897Y0019038D01*
X0010037Y0018684D01*
X0010184Y0018333D01*
X0010341Y0017986D01*
X0010505Y0017643D01*
X0010678Y0017304D01*
X0010859Y0016969D01*
X0011048Y0016638D01*
X0011245Y0016313D01*
X0011449Y0015992D01*
X0011662Y0015676D01*
X0011882Y0015366D01*
X0012109Y0015060D01*
X0012344Y0014761D01*
X0012586Y0014467D01*
X0012834Y0014179D01*
X0013090Y0013897D01*
X0013353Y0013622D01*
X0013622Y0013353D01*
X0013897Y0013090D01*
X0014179Y0012834D01*
X0014467Y0012586D01*
X0014761Y0012344D01*
X0015060Y0012109D01*
X0015366Y0011882D01*
X0015676Y0011662D01*
X0015992Y0011449D01*
X0016313Y0011245D01*
X0016638Y0011048D01*
X0016969Y0010859D01*
X0017304Y0010678D01*
X0017643Y0010505D01*
X0017986Y0010341D01*
X0018333Y0010184D01*
X0018684Y0010037D01*
X0019038Y0009897D01*
X0019395Y0009767D01*
X0019756Y0009645D01*
X0020119Y0009532D01*
X0020485Y0009427D01*
X0020853Y0009332D01*
X0021224Y0009245D01*
X0021596Y0009167D01*
X0021971Y0009099D01*
X0022347Y0009039D01*
X0022724Y0008989D01*
X0023102Y0008948D01*
X0023481Y0008915D01*
X0023861Y0008892D01*
X0024241Y0008879D01*
X0024622Y0008874D01*
M02*
