%
M48
M72
T01C0.01378
T02C0.03937
T03C0.04331
T04C0.12598
%
T01
X128953Y83677
X140764Y81709
X148638Y83677
X156512Y92732
X178165Y77772
X195882Y85646
X186039Y111236
X184071Y125016
X174228Y128953
X160449Y136827
X136827Y132890
X126984Y123047
X101394Y113205
X89583Y128953
X73835Y140764
X63992Y154543
X227378Y152575
T02
X213362Y26591
X203362Y26591
X193362Y26591
X183362Y26591
X173362Y26591
X163362Y26591
X153362Y26591
X143362Y26591
X133362Y26591
X123362Y26591
X113362Y26591
X103362Y26591
X101394Y188008
X111394Y188008
X121394Y188008
X131394Y188008
X141394Y188008
X151394Y188008
X161394Y188008
X171394Y188008
X181394Y188008
X191394Y188008
X201394Y188008
X211394Y188008
T03
X249189Y188008
X239189Y188008
X78087Y188008
X68087Y188008
X58087Y188008
T04
X288402Y24622
X288402Y189976
X24622Y189976
X24622Y24622
M30
