G75*
%MOIN*%
%OFA0B0*%
%FSLAX25Y25*%
%IPPOS*%
%LPD*%
%AMOC8*
5,1,8,0,0,1.08239X$1,22.5*
%
%ADD10C,0.00000*%
%ADD11R,0.06699X0.10636*%
%ADD12C,0.01388*%
%ADD13R,0.03392X0.05400*%
%ADD14R,0.07400X0.07400*%
%ADD15C,0.07400*%
%ADD16C,0.23400*%
D10*
X0008874Y0008874D02*
X0008874Y0211630D01*
X0221472Y0211630D01*
X0221472Y0008874D01*
X0008874Y0008874D01*
D11*
X0050213Y0058874D03*
X0050213Y0073047D03*
X0075803Y0073047D03*
X0075803Y0058874D03*
X0101394Y0058874D03*
X0101394Y0073047D03*
X0126984Y0073047D03*
X0126984Y0058874D03*
X0152575Y0058874D03*
X0152575Y0073047D03*
X0178165Y0073047D03*
X0178165Y0058874D03*
X0176197Y0145488D03*
X0176197Y0159661D03*
X0150606Y0159661D03*
X0150606Y0145488D03*
X0125016Y0145488D03*
X0125016Y0159661D03*
X0099425Y0159661D03*
X0099425Y0145488D03*
X0073835Y0145488D03*
X0073835Y0159661D03*
X0048244Y0159661D03*
X0048244Y0145488D03*
D12*
X0048340Y0170589D02*
X0045392Y0170589D01*
X0045392Y0173931D01*
X0048340Y0173931D01*
X0048340Y0170589D01*
X0048340Y0171908D02*
X0045392Y0171908D01*
X0045392Y0173227D02*
X0048340Y0173227D01*
X0052085Y0170589D02*
X0055033Y0170589D01*
X0052085Y0170589D02*
X0052085Y0173931D01*
X0055033Y0173931D01*
X0055033Y0170589D01*
X0055033Y0171908D02*
X0052085Y0171908D01*
X0052085Y0173227D02*
X0055033Y0173227D01*
X0069014Y0173931D02*
X0071962Y0173931D01*
X0071962Y0170589D01*
X0069014Y0170589D01*
X0069014Y0173931D01*
X0069014Y0171908D02*
X0071962Y0171908D01*
X0071962Y0173227D02*
X0069014Y0173227D01*
X0075707Y0173931D02*
X0078655Y0173931D01*
X0078655Y0170589D01*
X0075707Y0170589D01*
X0075707Y0173931D01*
X0075707Y0171908D02*
X0078655Y0171908D01*
X0078655Y0173227D02*
X0075707Y0173227D01*
X0094605Y0173931D02*
X0097553Y0173931D01*
X0097553Y0170589D01*
X0094605Y0170589D01*
X0094605Y0173931D01*
X0094605Y0171908D02*
X0097553Y0171908D01*
X0097553Y0173227D02*
X0094605Y0173227D01*
X0101298Y0173931D02*
X0104246Y0173931D01*
X0104246Y0170589D01*
X0101298Y0170589D01*
X0101298Y0173931D01*
X0101298Y0171908D02*
X0104246Y0171908D01*
X0104246Y0173227D02*
X0101298Y0173227D01*
X0120195Y0173931D02*
X0123143Y0173931D01*
X0123143Y0170589D01*
X0120195Y0170589D01*
X0120195Y0173931D01*
X0120195Y0171908D02*
X0123143Y0171908D01*
X0123143Y0173227D02*
X0120195Y0173227D01*
X0126888Y0173931D02*
X0129836Y0173931D01*
X0129836Y0170589D01*
X0126888Y0170589D01*
X0126888Y0173931D01*
X0126888Y0171908D02*
X0129836Y0171908D01*
X0129836Y0173227D02*
X0126888Y0173227D01*
X0145786Y0173931D02*
X0148734Y0173931D01*
X0148734Y0170589D01*
X0145786Y0170589D01*
X0145786Y0173931D01*
X0145786Y0171908D02*
X0148734Y0171908D01*
X0148734Y0173227D02*
X0145786Y0173227D01*
X0152479Y0173931D02*
X0155427Y0173931D01*
X0155427Y0170589D01*
X0152479Y0170589D01*
X0152479Y0173931D01*
X0152479Y0171908D02*
X0155427Y0171908D01*
X0155427Y0173227D02*
X0152479Y0173227D01*
X0169408Y0173931D02*
X0172356Y0173931D01*
X0172356Y0170589D01*
X0169408Y0170589D01*
X0169408Y0173931D01*
X0169408Y0171908D02*
X0172356Y0171908D01*
X0172356Y0173227D02*
X0169408Y0173227D01*
X0176101Y0173931D02*
X0179049Y0173931D01*
X0179049Y0170589D01*
X0176101Y0170589D01*
X0176101Y0173931D01*
X0176101Y0171908D02*
X0179049Y0171908D01*
X0179049Y0173227D02*
X0176101Y0173227D01*
X0196967Y0124718D02*
X0199915Y0124718D01*
X0199915Y0121376D01*
X0196967Y0121376D01*
X0196967Y0124718D01*
X0196967Y0122695D02*
X0199915Y0122695D01*
X0199915Y0124014D02*
X0196967Y0124014D01*
X0203660Y0124718D02*
X0206608Y0124718D01*
X0206608Y0121376D01*
X0203660Y0121376D01*
X0203660Y0124718D01*
X0203660Y0122695D02*
X0206608Y0122695D01*
X0206608Y0124014D02*
X0203660Y0124014D01*
X0181017Y0047947D02*
X0178069Y0047947D01*
X0181017Y0047947D02*
X0181017Y0044605D01*
X0178069Y0044605D01*
X0178069Y0047947D01*
X0178069Y0045924D02*
X0181017Y0045924D01*
X0181017Y0047243D02*
X0178069Y0047243D01*
X0174324Y0047947D02*
X0171376Y0047947D01*
X0174324Y0047947D02*
X0174324Y0044605D01*
X0171376Y0044605D01*
X0171376Y0047947D01*
X0171376Y0045924D02*
X0174324Y0045924D01*
X0174324Y0047243D02*
X0171376Y0047243D01*
X0157395Y0047947D02*
X0154447Y0047947D01*
X0157395Y0047947D02*
X0157395Y0044605D01*
X0154447Y0044605D01*
X0154447Y0047947D01*
X0154447Y0045924D02*
X0157395Y0045924D01*
X0157395Y0047243D02*
X0154447Y0047243D01*
X0150702Y0047947D02*
X0147754Y0047947D01*
X0150702Y0047947D02*
X0150702Y0044605D01*
X0147754Y0044605D01*
X0147754Y0047947D01*
X0147754Y0045924D02*
X0150702Y0045924D01*
X0150702Y0047243D02*
X0147754Y0047243D01*
X0131805Y0047947D02*
X0128857Y0047947D01*
X0131805Y0047947D02*
X0131805Y0044605D01*
X0128857Y0044605D01*
X0128857Y0047947D01*
X0128857Y0045924D02*
X0131805Y0045924D01*
X0131805Y0047243D02*
X0128857Y0047243D01*
X0125112Y0047947D02*
X0122164Y0047947D01*
X0125112Y0047947D02*
X0125112Y0044605D01*
X0122164Y0044605D01*
X0122164Y0047947D01*
X0122164Y0045924D02*
X0125112Y0045924D01*
X0125112Y0047243D02*
X0122164Y0047243D01*
X0108183Y0047947D02*
X0105235Y0047947D01*
X0108183Y0047947D02*
X0108183Y0044605D01*
X0105235Y0044605D01*
X0105235Y0047947D01*
X0105235Y0045924D02*
X0108183Y0045924D01*
X0108183Y0047243D02*
X0105235Y0047243D01*
X0101490Y0047947D02*
X0098542Y0047947D01*
X0101490Y0047947D02*
X0101490Y0044605D01*
X0098542Y0044605D01*
X0098542Y0047947D01*
X0098542Y0045924D02*
X0101490Y0045924D01*
X0101490Y0047243D02*
X0098542Y0047243D01*
X0082592Y0047947D02*
X0079644Y0047947D01*
X0082592Y0047947D02*
X0082592Y0044605D01*
X0079644Y0044605D01*
X0079644Y0047947D01*
X0079644Y0045924D02*
X0082592Y0045924D01*
X0082592Y0047243D02*
X0079644Y0047243D01*
X0075899Y0047947D02*
X0072951Y0047947D01*
X0075899Y0047947D02*
X0075899Y0044605D01*
X0072951Y0044605D01*
X0072951Y0047947D01*
X0072951Y0045924D02*
X0075899Y0045924D01*
X0075899Y0047243D02*
X0072951Y0047243D01*
X0057002Y0047947D02*
X0054054Y0047947D01*
X0057002Y0047947D02*
X0057002Y0044605D01*
X0054054Y0044605D01*
X0054054Y0047947D01*
X0054054Y0045924D02*
X0057002Y0045924D01*
X0057002Y0047243D02*
X0054054Y0047243D01*
X0050309Y0047947D02*
X0047361Y0047947D01*
X0050309Y0047947D02*
X0050309Y0044605D01*
X0047361Y0044605D01*
X0047361Y0047947D01*
X0047361Y0045924D02*
X0050309Y0045924D01*
X0050309Y0047243D02*
X0047361Y0047243D01*
X0108970Y0126101D02*
X0108970Y0129049D01*
X0108970Y0126101D02*
X0105628Y0126101D01*
X0105628Y0129049D01*
X0108970Y0129049D01*
X0108970Y0127420D02*
X0105628Y0127420D01*
X0105628Y0128739D02*
X0108970Y0128739D01*
X0108970Y0132794D02*
X0108970Y0135742D01*
X0108970Y0132794D02*
X0105628Y0132794D01*
X0105628Y0135742D01*
X0108970Y0135742D01*
X0108970Y0134113D02*
X0105628Y0134113D01*
X0105628Y0135432D02*
X0108970Y0135432D01*
X0116844Y0135742D02*
X0116844Y0132794D01*
X0113502Y0132794D01*
X0113502Y0135742D01*
X0116844Y0135742D01*
X0116844Y0134113D02*
X0113502Y0134113D01*
X0113502Y0135432D02*
X0116844Y0135432D01*
X0116844Y0129049D02*
X0116844Y0126101D01*
X0113502Y0126101D01*
X0113502Y0129049D01*
X0116844Y0129049D01*
X0116844Y0127420D02*
X0113502Y0127420D01*
X0113502Y0128739D02*
X0116844Y0128739D01*
D13*
X0115705Y0118323D03*
X0120705Y0118323D03*
X0125705Y0118323D03*
X0130705Y0118323D03*
X0135705Y0118323D03*
X0110705Y0118323D03*
X0105705Y0118323D03*
X0100705Y0118323D03*
X0095705Y0118323D03*
X0090705Y0118323D03*
X0090705Y0088402D03*
X0095705Y0088402D03*
X0100705Y0088402D03*
X0105705Y0088402D03*
X0110705Y0088402D03*
X0115705Y0088402D03*
X0120705Y0088402D03*
X0125705Y0088402D03*
X0130705Y0088402D03*
X0135705Y0088402D03*
D14*
X0201787Y0109268D03*
X0027654Y0093520D03*
D15*
X0027654Y0103520D03*
X0027654Y0113520D03*
X0058087Y0188008D03*
X0068087Y0188008D03*
X0078087Y0188008D03*
X0088087Y0188008D03*
X0098087Y0188008D03*
X0108087Y0188008D03*
X0118087Y0188008D03*
X0128087Y0188008D03*
X0138087Y0188008D03*
X0148087Y0188008D03*
X0158087Y0188008D03*
X0168087Y0188008D03*
X0201787Y0099268D03*
X0170055Y0030528D03*
X0160055Y0030528D03*
X0150055Y0030528D03*
X0140055Y0030528D03*
X0130055Y0030528D03*
X0120055Y0030528D03*
X0110055Y0030528D03*
X0100055Y0030528D03*
X0090055Y0030528D03*
X0080055Y0030528D03*
X0070055Y0030528D03*
X0060055Y0030528D03*
D16*
X0024622Y0024622D03*
X0024622Y0195882D03*
X0205724Y0195882D03*
X0205724Y0024622D03*
M02*
