%
M48
M72
T01C0.01378
T02C0.03937
T03C0.04331
T04C0.12598
%
T01
X103362Y128953
X203756Y128953
T02
X58087Y188008
X68087Y188008
X78087Y188008
X88087Y188008
X98087Y188008
X108087Y188008
X118087Y188008
X128087Y188008
X138087Y188008
X148087Y188008
X158087Y188008
X168087Y188008
X170055Y30528
X160055Y30528
X150055Y30528
X140055Y30528
X130055Y30528
X120055Y30528
X110055Y30528
X100055Y30528
X90055Y30528
X80055Y30528
X70055Y30528
X60055Y30528
T03
X27654Y93520
X27654Y103520
X27654Y113520
X201787Y109268
X201787Y99268
T04
X24622Y24622
X24622Y195882
X205724Y195882
X205724Y24622
M30
